<?xml version="1.0" encoding="utf-8"?>
<!-- Generator: Adobe Illustrator 23.0.2, SVG Export Plug-In . SVG Version: 6.00 Build 0)  -->
<svg version="1.1" id="Ebene_1" xmlns="http://www.w3.org/2000/svg" xmlns:xlink="http://www.w3.org/1999/xlink" x="0px" y="0px"
	 viewBox="0 0 24 24" style="enable-background:new 0 0 24 24;" xml:space="preserve">
<style type="text/css">
	.st0{fill:#8CBE51;}
</style>
<g id="Radio_-_OK_-_1.5em" transform="translate(-115 -590)">
	<g id="Gruppe_2286">
		<g id="Ellipse_74" transform="translate(115 590)">
			<g>
				<path class="st0" d="M12,1c6.1,0,11,4.9,11,11s-4.9,11-11,11S1,18.1,1,12S5.9,1,12,1 M12,0C5.4,0,0,5.4,0,12s5.4,12,12,12
					s12-5.4,12-12S18.6,0,12,0L12,0z"/>
			</g>
		</g>
		<path id="Pfad_1940" class="st0" d="M133.5,597.3c-0.1-0.1-0.3-0.2-0.5-0.2s-0.3,0.1-0.5,0.2l-7,7.7l-4-3.3c-0.1,0-0.3-0.1-0.5,0
			c-0.2,0-0.3,0.1-0.4,0.2c-0.2,0.3-0.2,0.7,0.1,1l0,0l4.6,3.7c0.1,0.1,0.3,0.1,0.4,0.1c0.2,0,0.4-0.1,0.5-0.2l7.4-8.3
			c0.1-0.1,0.2-0.3,0.2-0.5C133.8,597.6,133.7,597.4,133.5,597.3z"/>
	</g>
</g>
</svg>
