<svg id="svg8" xmlns="http://www.w3.org/2000/svg" xmlns:xlink="http://www.w3.org/1999/xlink" viewBox="0 0 508.82 198.43"><defs><style>.cls-1,.cls-5,.cls-8{fill:none;}.cls-11,.cls-2{fill:#fff;}.cls-3{fill:#f05133;}.cls-4{fill:#37b1d9;}.cls-5{stroke:#949393;stroke-width:1.5px;}.cls-11,.cls-5,.cls-8{stroke-miterlimit:10;}.cls-6{fill:#949393;}.cls-7{fill:#333;}.cls-11,.cls-8{stroke:#333;}.cls-8{stroke-width:1.2px;stroke-dasharray:3.61 3.61;}.cls-9{clip-path:url(#clip-path);}.cls-10{fill:#e1e2e1;}.cls-11{stroke-width:0.4px;}.cls-12{fill:#6c757e;}.cls-13{fill:#8dbf55;}</style><clipPath id="clip-path"><rect class="cls-1" x="337.81" y="44.9" width="156.46" height="110.61" rx="7.53"/></clipPath><symbol id="rechner" data-name="rechner" viewBox="0 0 42.37 51.94"><rect class="cls-4" x="8.47" y="2.82" width="8.47" height="1.41"/><rect class="cls-4" x="8.47" y="5.65" width="8.47" height="1.41"/><rect class="cls-4" x="18.36" y="2.82" width="1.41" height="1.41"/><rect class="cls-4" x="21.18" y="2.82" width="1.41" height="1.41"/><rect class="cls-4" x="24.01" y="2.82" width="1.41" height="1.41"/><rect class="cls-4" x="18.36" y="5.65" width="1.41" height="1.41"/><rect class="cls-4" x="21.18" y="5.65" width="1.41" height="1.41"/><rect class="cls-4" x="24.01" y="5.65" width="1.41" height="1.41"/><path class="cls-4" d="M31.07,2.82a2.12,2.12,0,1,0,2.12,2.12A2.12,2.12,0,0,0,31.07,2.82Zm0,2.83a.71.71,0,0,1-.71-.71.71.71,0,0,1,1.42,0A.71.71,0,0,1,31.07,5.65Z"/><path class="cls-4" d="M29,26.83a2.12,2.12,0,0,0,0,4.24V29.66a.71.71,0,0,1,0-1.42.71.71,0,0,1,.71.71h1.41A2.12,2.12,0,0,0,29,26.83Z"/><rect class="cls-4" x="8.47" y="14.83" width="8.47" height="1.41"/><rect class="cls-4" x="8.47" y="17.65" width="8.47" height="1.41"/><rect class="cls-4" x="18.36" y="14.83" width="1.41" height="1.41"/><rect class="cls-4" x="21.18" y="14.83" width="1.41" height="1.41"/><rect class="cls-4" x="24.01" y="14.83" width="1.41" height="1.41"/><rect class="cls-4" x="18.36" y="17.65" width="1.41" height="1.41"/><rect class="cls-4" x="21.18" y="17.65" width="1.41" height="1.41"/><rect class="cls-4" x="24.01" y="17.65" width="1.41" height="1.41"/><circle class="cls-4" cx="27.54" cy="16.95" r="0.71"/><circle class="cls-4" cx="33.19" cy="16.95" r="0.71"/><circle class="cls-4" cx="30.36" cy="16.95" r="0.71"/><rect class="cls-4" x="8.47" y="26.83" width="8.47" height="1.41"/><rect class="cls-4" x="8.47" y="29.66" width="8.47" height="1.41"/><rect class="cls-4" x="18.36" y="26.83" width="1.41" height="1.41"/><rect class="cls-4" x="21.18" y="29.66" width="1.41" height="1.41"/><rect class="cls-4" x="24.01" y="26.83" width="1.41" height="1.41"/><circle class="cls-4" cx="21.89" cy="27.54" r="0.71"/><circle class="cls-4" cx="24.71" cy="30.36" r="0.71"/><circle class="cls-4" cx="33.19" cy="28.95" r="0.71"/><circle class="cls-4" cx="19.07" cy="30.36" r="0.71"/><path class="cls-4" d="M21.89,45.31V33.89H36a.7.7,0,0,0,.71-.7V24.71A.7.7,0,0,0,36,24H6.36a.7.7,0,0,0-.71.7v3.53H4.11A2.19,2.19,0,0,0,2.83,27V17.65H5.65v3.53a.71.71,0,0,0,.71.71H36a.71.71,0,0,0,.71-.71V17.65h3.53A.7.7,0,0,0,41,17V12.58a2.11,2.11,0,0,0,0-4V4.94a.7.7,0,0,0-.71-.7H36.72V.71A.71.71,0,0,0,36,0H6.36a.71.71,0,0,0-.71.71V9.18a.71.71,0,0,0,.71.71H36a.71.71,0,0,0,.71-.71V5.65h2.82V8.6a2.11,2.11,0,0,0,0,4v3.66H36.72V12.71A.71.71,0,0,0,36,12H6.36a.71.71,0,0,0-.71.71v3.53H2.12a.71.71,0,0,0-.71.71V27a2.11,2.11,0,1,0,2.7,2.7H5.65v3.53a.7.7,0,0,0,.71.7H20.48V45.31M35.31,8.47H7.06V1.41H35.31Zm4.94,1.42a.7.7,0,0,1,.71.7.71.71,0,0,1-1.42,0A.7.7,0,0,1,40.25,9.89ZM7.06,13.42H35.31v7.06H7.06ZM2.12,29.66A.71.71,0,1,1,2.83,29,.71.71,0,0,1,2.12,29.66Zm4.94,2.82V25.42H35.31v7.06Z"/><path class="cls-4" d="M21.19,51.24a4.52,4.52,0,1,1,4.51-4.52A4.53,4.53,0,0,1,21.19,51.24Z"/><path class="cls-2" d="M21.19,42.91a3.81,3.81,0,1,1-3.81,3.81,3.82,3.82,0,0,1,3.81-3.81m0-1.4a5.22,5.22,0,1,0,5.21,5.21,5.22,5.22,0,0,0-5.21-5.21Z"/></symbol><symbol id="logo_git" data-name="logo git" viewBox="0 0 22.76 22.68"><path class="cls-2" d="M9.58,21.93.75,13.13a2.52,2.52,0,0,1,0-3.59L9.58.74a2.55,2.55,0,0,1,3.6,0L22,9.54a2.52,2.52,0,0,1,0,3.59l-8.83,8.8A2.53,2.53,0,0,1,9.58,21.93Z"/><path class="cls-3" d="M20.2,10.52l-8-8a1.18,1.18,0,0,0-1.67,0L8.86,4.2,11,6.3a1.43,1.43,0,0,1,1.45.34,1.4,1.4,0,0,1,.33,1.45l2,2a1.4,1.4,0,1,1-.53,2.31,1.38,1.38,0,0,1-.31-1.52L12,9v5a1.65,1.65,0,0,1,.38.27,1.4,1.4,0,1,1-2,2,1.39,1.39,0,0,1,0-2,1.29,1.29,0,0,1,.46-.31v-5a1.29,1.29,0,0,1-.46-.31,1.37,1.37,0,0,1-.3-1.53L8.05,5l-5.5,5.47a1.17,1.17,0,0,0,0,1.66l8,8a1.18,1.18,0,0,0,1.67,0l8-7.94A1.17,1.17,0,0,0,20.2,10.52Z"/></symbol></defs><title>chaos-resolved-1</title><rect class="cls-2" width="508.82" height="198.43"/><line class="cls-5" x1="57.34" y1="100.58" x2="351.02" y2="100.58"/><path class="cls-6" d="M281.79,176.27h-.86V169.5h.86Z"/><path class="cls-6" d="M284,171.24l0,.54a1.48,1.48,0,0,1,1.23-.63c.9,0,1.35.59,1.36,1.78v3.34h-.82V173a1.36,1.36,0,0,0-.2-.84.7.7,0,0,0-.6-.25.81.81,0,0,0-.55.2,1.57,1.57,0,0,0-.39.54v3.65h-.83v-5Z"/><path class="cls-6" d="M288.16,176.27V171.9h-.66v-.66h.66v-.58a1.84,1.84,0,0,1,.39-1.2,1.33,1.33,0,0,1,1.06-.43,1.42,1.42,0,0,1,.5.08l0,.69a1.53,1.53,0,0,0-.38,0c-.47,0-.7.33-.7,1v.48h.86v.66H289v4.37Z"/><path class="cls-6" d="M292.91,172a2.13,2.13,0,0,0-.37,0,.9.9,0,0,0-.89.69v3.6h-.83v-5h.81v.51a1,1,0,0,1,.94-.6.81.81,0,0,1,.33.06Z"/><path class="cls-6" d="M296.15,176.27a1.66,1.66,0,0,1-.11-.54,1.33,1.33,0,0,1-1.12.64,1.35,1.35,0,0,1-1.46-1.47,1.53,1.53,0,0,1,.53-1.22,2.15,2.15,0,0,1,1.43-.46H296v-.53a.9.9,0,0,0-.2-.65.92.92,0,0,0-.62-.19.85.85,0,0,0-.6.22.75.75,0,0,0-.24.57h-.82a1.27,1.27,0,0,1,.23-.74,1.48,1.48,0,0,1,.61-.55,1.8,1.8,0,0,1,.87-.2,1.64,1.64,0,0,1,1.18.38,1.56,1.56,0,0,1,.41,1.12v2.54a2.82,2.82,0,0,0,.16,1v.07Zm-1.1-.65a1.08,1.08,0,0,0,.57-.17A1,1,0,0,0,296,175v-1.2h-.47a1.6,1.6,0,0,0-.93.26.83.83,0,0,0-.34.71.92.92,0,0,0,.17.62A.76.76,0,0,0,295.05,175.62Z"/><path class="cls-6" d="M300.58,175a.59.59,0,0,0-.2-.45,2.8,2.8,0,0,0-.77-.45,4.69,4.69,0,0,1-.94-.47,1.41,1.41,0,0,1-.41-.44,1.27,1.27,0,0,1-.14-.6,1.31,1.31,0,0,1,.45-1,1.87,1.87,0,0,1,2.34,0,1.47,1.47,0,0,1,.45,1.1h-.82a.83.83,0,0,0-.23-.58.77.77,0,0,0-.58-.24.86.86,0,0,0-.58.19.64.64,0,0,0-.21.5.57.57,0,0,0,.16.41,2.51,2.51,0,0,0,.73.4,3.68,3.68,0,0,1,1.25.7,1.21,1.21,0,0,1,.33.87A1.32,1.32,0,0,1,301,176a1.76,1.76,0,0,1-1.22.4,1.84,1.84,0,0,1-1.28-.45,1.54,1.54,0,0,1-.49-1.15h.84a.9.9,0,0,0,.25.66.92.92,0,0,0,.68.23,1,1,0,0,0,.63-.18A.63.63,0,0,0,300.58,175Z"/><path class="cls-6" d="M303.57,170v1.22h.76v.66h-.76V175a.79.79,0,0,0,.1.45.34.34,0,0,0,.33.16,1,1,0,0,0,.33-.06v.69a1.56,1.56,0,0,1-.57.1A.88.88,0,0,1,303,176a1.65,1.65,0,0,1-.25-1V171.9H302v-.66h.77V170Z"/><path class="cls-6" d="M307.4,172a2.25,2.25,0,0,0-.38,0,.9.9,0,0,0-.88.69v3.6h-.83v-5h.8l0,.51a1,1,0,0,1,.94-.6.73.73,0,0,1,.32.06Z"/><path class="cls-6" d="M310.8,175.83a1.42,1.42,0,0,1-1.2.54,1.22,1.22,0,0,1-1-.47,2.34,2.34,0,0,1-.35-1.38v-3.28H309v3.22c0,.78.24,1.18.71,1.18a1,1,0,0,0,1-.67v-3.73h.82v5h-.78Z"/><path class="cls-6" d="M314.6,175.66a.89.89,0,0,0,.66-.25,1.12,1.12,0,0,0,.27-.72h.78a1.7,1.7,0,0,1-.52,1.2,1.62,1.62,0,0,1-1.19.48,1.76,1.76,0,0,1-1.43-.59,2.67,2.67,0,0,1-.49-1.75v-.56a2.62,2.62,0,0,1,.49-1.73,1.72,1.72,0,0,1,1.43-.59,1.63,1.63,0,0,1,1.23.48,2,2,0,0,1,.48,1.34h-.78a1.4,1.4,0,0,0-.27-.84.84.84,0,0,0-.66-.28.94.94,0,0,0-.82.36,2.1,2.1,0,0,0-.28,1.19V174a2.22,2.22,0,0,0,.27,1.26A1,1,0,0,0,314.6,175.66Z"/><path class="cls-6" d="M318.35,170v1.22h.76v.66h-.76V175a.89.89,0,0,0,.09.45.37.37,0,0,0,.34.16,1,1,0,0,0,.33-.06v.69a1.63,1.63,0,0,1-.57.1.88.88,0,0,1-.75-.35,1.64,1.64,0,0,1-.26-1V171.9h-.77v-.66h.77V170Z"/><path class="cls-6" d="M322.67,175.83a1.43,1.43,0,0,1-1.2.54,1.22,1.22,0,0,1-1-.47,2.34,2.34,0,0,1-.36-1.38v-3.28h.83v3.22c0,.78.23,1.18.71,1.18a1,1,0,0,0,1-.67v-3.73h.83v5h-.79Z"/><path class="cls-6" d="M326.8,172a2.25,2.25,0,0,0-.38,0,.9.9,0,0,0-.88.69v3.6h-.83v-5h.8l0,.51a1,1,0,0,1,.94-.6.73.73,0,0,1,.32.06Z"/><path class="cls-6" d="M329.34,176.37a1.87,1.87,0,0,1-1.45-.56,2.4,2.4,0,0,1-.51-1.65v-.61a2.79,2.79,0,0,1,.49-1.76,1.63,1.63,0,0,1,1.37-.64,1.56,1.56,0,0,1,1.33.56,2.91,2.91,0,0,1,.45,1.75V174H328.2v.12a1.88,1.88,0,0,0,.3,1.18,1.11,1.11,0,0,0,.89.36,1.47,1.47,0,0,0,.64-.13,1.61,1.61,0,0,0,.52-.44l.43.52A1.87,1.87,0,0,1,329.34,176.37Zm-.1-4.52a.88.88,0,0,0-.76.35,2.25,2.25,0,0,0-.28,1.1h2v-.12a1.9,1.9,0,0,0-.26-1A.81.81,0,0,0,329.24,171.85Z"/><path class="cls-7" d="M227.85,173.53h-1.2v2.74h-.86V169.5h1.91a2,2,0,0,1,1.51.52,2.07,2.07,0,0,1,.51,1.52,2.12,2.12,0,0,1-.27,1.09,1.81,1.81,0,0,1-.79.71l1.32,2.88v.05h-.92Zm-1.2-.73h1a1.12,1.12,0,0,0,.86-.34,1.32,1.32,0,0,0,.31-.93c0-.87-.39-1.3-1.18-1.3h-1Z"/><path class="cls-7" d="M234.13,173.14h-2.41v2.4h2.81v.73h-3.66V169.5h3.61v.73h-2.76v2.18h2.41Z"/><path class="cls-7" d="M238.59,174.56a1,1,0,0,0-.28-.78,2.75,2.75,0,0,0-1-.52,4.16,4.16,0,0,1-1.1-.54,1.9,1.9,0,0,1-.57-.64,1.72,1.72,0,0,1-.19-.83,1.75,1.75,0,0,1,.54-1.32,1.93,1.93,0,0,1,1.41-.52,2.12,2.12,0,0,1,1.07.26,1.9,1.9,0,0,1,.72.74,2.28,2.28,0,0,1,.25,1h-.86a1.38,1.38,0,0,0-.31-1,1.09,1.09,0,0,0-.87-.34,1.05,1.05,0,0,0-.8.29,1.1,1.1,0,0,0-.29.81,1,1,0,0,0,.31.71,2.61,2.61,0,0,0,1,.52,3.23,3.23,0,0,1,1.44.82,1.8,1.8,0,0,1,.43,1.26,1.73,1.73,0,0,1-.53,1.32,2.09,2.09,0,0,1-1.47.5,2.37,2.37,0,0,1-1.09-.26,1.92,1.92,0,0,1-.79-.73,2,2,0,0,1-.29-1.07h.86a1.21,1.21,0,0,0,1.31,1.33,1.15,1.15,0,0,0,.85-.29A1.08,1.08,0,0,0,238.59,174.56Z"/><path class="cls-7" d="M244.55,170.23h-1.79v6h-.86v-6h-1.78v-.73h4.43Z"/><path class="cls-7" d="M245.88,173.75H244V173h1.93Z"/><path class="cls-7" d="M250,174.5h-2.3l-.52,1.77h-.88l2.19-6.77h.73l2.2,6.77h-.88Zm-2.07-.73h1.85l-.93-3.08Z"/><path class="cls-7" d="M253.21,173.62v2.65h-.86V169.5h2.17a2,2,0,0,1,1.49.56,2.1,2.1,0,0,1,.54,1.51,2,2,0,0,1-.52,1.5,1.94,1.94,0,0,1-1.45.55Zm0-.73h1.31a1.09,1.09,0,0,0,.87-.34,1.43,1.43,0,0,0,.31-1,1.44,1.44,0,0,0-.32-1,1.05,1.05,0,0,0-.86-.37h-1.31Z"/><path class="cls-7" d="M258.54,176.27h-.85V169.5h.85Z"/><path class="cls-7" d="M242.16,114.32a13.77,13.77,0,0,1-13.76-13.76v-.34a13.79,13.79,0,0,1,27.57,0v.34a13.77,13.77,0,0,1-13.76,13.76Z"/><path class="cls-2" d="M242.21,88.26a12,12,0,0,1,11.95,12v.34a12,12,0,0,1-11.95,12h-.05a12,12,0,0,1-12-12v-.34a12,12,0,0,1,12-12h.05m0-3.62h-.05a15.6,15.6,0,0,0-15.57,15.58v.34a15.6,15.6,0,0,0,31.19,0v-.34a15.6,15.6,0,0,0-15.57-15.58Z"/><path class="cls-2" d="M238.43,105.55a2.35,2.35,0,0,1-1.26-.9,2.86,2.86,0,0,1-.42-1.63v-1.14c0-.88-.32-1.32-.95-1.32v-.8c.63,0,.95-.44.95-1.32V97.31a2.86,2.86,0,0,1,.42-1.63,2.23,2.23,0,0,1,1.26-.9l.19.63c-.58.23-.88.84-.9,1.84v1.18a1.84,1.84,0,0,1-.81,1.73,1.87,1.87,0,0,1,.81,1.74v1.2c0,1,.32,1.59.9,1.82Z"/><path class="cls-2" d="M239.64,103a.64.64,0,0,1,.16-.44.58.58,0,0,1,.47-.18.62.62,0,0,1,.48.18.6.6,0,0,1,.16.44.58.58,0,0,1-.16.42.65.65,0,0,1-.48.17.61.61,0,0,1-.47-.17A.63.63,0,0,1,239.64,103Zm2.06,0a.6.6,0,0,1,.16-.44.58.58,0,0,1,.47-.18.62.62,0,0,1,.48.18.64.64,0,0,1,.16.44.63.63,0,0,1-.16.42.65.65,0,0,1-.48.17.61.61,0,0,1-.47-.17A.58.58,0,0,1,241.7,103Zm2,0a.64.64,0,0,1,.16-.44.58.58,0,0,1,.47-.18.62.62,0,0,1,.48.18.6.6,0,0,1,.16.44.58.58,0,0,1-.16.42.65.65,0,0,1-.48.17.61.61,0,0,1-.47-.17A.63.63,0,0,1,243.66,103Z"/><path class="cls-2" d="M245.73,104.92c.59-.23.89-.84.91-1.82v-1.21a1.78,1.78,0,0,1,.87-1.73,1.77,1.77,0,0,1-.87-1.74V97.28c0-1-.31-1.64-.91-1.87l.2-.63a2.34,2.34,0,0,1,1.24.87,3,3,0,0,1,.44,1.58v1.3c0,.82.33,1.23.94,1.23v.8c-.63,0-.94.44-.94,1.32V103a2.39,2.39,0,0,1-1.68,2.55Z"/><rect class="cls-2" x="84.66" y="40.97" width="7.59" height="115.74"/><line class="cls-8" x1="88.46" y1="44.68" x2="88.46" y2="156.71"/><g class="cls-9"><rect class="cls-10" x="337.81" y="44.9" width="156.57" height="110.61"/><rect class="cls-7" x="337.81" y="63.71" width="156.57" height="91.8" rx="0.11"/><rect class="cls-11" x="343.27" y="51.55" width="92.86" height="5.93"/></g><path class="cls-7" d="M486.73,44.9a7.53,7.53,0,0,1,7.53,7.53V148a7.53,7.53,0,0,1-7.53,7.53H345.34a7.53,7.53,0,0,1-7.53-7.53V52.43a7.53,7.53,0,0,1,7.53-7.53H486.73m0-.38H345.34a7.92,7.92,0,0,0-7.91,7.91V148a7.92,7.92,0,0,0,7.91,7.91H486.73a7.92,7.92,0,0,0,7.92-7.91V52.43a7.92,7.92,0,0,0-7.92-7.91Z"/><rect class="cls-2" x="445.72" y="85.01" width="41.42" height="55.14"/><rect class="cls-12" x="445.72" y="85.01" width="41.42" height="14.49"/><path class="cls-2" d="M452.88,92.06h-2.2v2.87h-.82v-6.5h3.39v.7h-2.57v2.23h2.2Z"/><path class="cls-2" d="M455.79,95a1.79,1.79,0,0,1-1.39-.54,2.35,2.35,0,0,1-.49-1.58v-.58a2.77,2.77,0,0,1,.47-1.7A1.58,1.58,0,0,1,455.7,90a1.52,1.52,0,0,1,1.28.54,2.8,2.8,0,0,1,.43,1.68v.52H454.7v.11A1.78,1.78,0,0,0,455,94a1,1,0,0,0,.85.36,1.31,1.31,0,0,0,.61-.14,1.35,1.35,0,0,0,.5-.41l.42.5A1.82,1.82,0,0,1,455.79,95Zm-.09-4.33A.85.85,0,0,0,455,91a2.22,2.22,0,0,0-.27,1h1.91V92a1.81,1.81,0,0,0-.25-1A.74.74,0,0,0,455.7,90.69Z"/><path class="cls-2" d="M460.85,94.93a1.64,1.64,0,0,1-.1-.53,1.27,1.27,0,0,1-1.08.62,1.36,1.36,0,0,1-1-.37,1.39,1.39,0,0,1-.37-1,1.45,1.45,0,0,1,.5-1.17,2.06,2.06,0,0,1,1.37-.44h.59v-.51a.68.68,0,0,0-.78-.8.84.84,0,0,0-.59.21.7.7,0,0,0-.22.54h-.79a1.24,1.24,0,0,1,.22-.71,1.45,1.45,0,0,1,.59-.53A1.75,1.75,0,0,1,460,90a1.57,1.57,0,0,1,1.13.37,1.43,1.43,0,0,1,.4,1.07v2.44a2.86,2.86,0,0,0,.15,1v.07Zm-1.05-.63a1,1,0,0,0,.55-.16,1,1,0,0,0,.39-.4V92.58h-.45a1.52,1.52,0,0,0-.89.26.8.8,0,0,0-.33.68.82.82,0,0,0,.17.59A.69.69,0,0,0,459.8,94.3Z"/><path class="cls-2" d="M463.79,88.93V90.1h.73v.63h-.73v3a.74.74,0,0,0,.1.43.35.35,0,0,0,.32.15,1,1,0,0,0,.32-.06v.67A1.76,1.76,0,0,1,464,95a.82.82,0,0,1-.72-.34,1.57,1.57,0,0,1-.25-.94v-3h-.74V90.1H463V88.93Z"/><path class="cls-2" d="M467.94,94.51a1.39,1.39,0,0,1-1.16.51,1.16,1.16,0,0,1-1-.45,2.26,2.26,0,0,1-.34-1.32V90.1h.79v3.09c0,.75.23,1.13.68,1.13a1,1,0,0,0,1-.64V90.1h.8v4.83H468Z"/><path class="cls-2" d="M471.9,90.84a2,2,0,0,0-.36,0,.87.87,0,0,0-.85.66v3.46h-.79V90.1h.77v.49a1,1,0,0,1,.9-.58.76.76,0,0,1,.32.06Z"/><path class="cls-2" d="M474.34,95a1.77,1.77,0,0,1-1.39-.54,2.3,2.3,0,0,1-.49-1.58v-.58a2.77,2.77,0,0,1,.47-1.7,1.58,1.58,0,0,1,1.32-.61,1.5,1.5,0,0,1,1.27.54,2.73,2.73,0,0,1,.43,1.68v.52h-2.7v.11a1.72,1.72,0,0,0,.29,1.13,1,1,0,0,0,.84.36,1.39,1.39,0,0,0,1.12-.55l.41.5A1.8,1.8,0,0,1,474.34,95Zm-.09-4.33a.84.84,0,0,0-.73.33,2,2,0,0,0-.27,1h1.91V92a1.81,1.81,0,0,0-.25-1A.74.74,0,0,0,474.25,90.69Z"/><path class="cls-2" d="M482.16,93.23H480l-.5,1.7h-.84l2.1-6.5h.7l2.11,6.5h-.85Zm-2-.7H482l-.89-3Z"/><path d="M459.87,107.12a.67.67,0,0,0-.18-.5,2,2,0,0,0-.63-.34,2.77,2.77,0,0,1-.71-.34,1.25,1.25,0,0,1-.36-.41,1.15,1.15,0,0,1-.12-.53,1.13,1.13,0,0,1,.34-.85,1.26,1.26,0,0,1,.91-.33,1.3,1.3,0,0,1,.68.17,1.16,1.16,0,0,1,.46.47,1.5,1.5,0,0,1,.16.67h-.55a.93.93,0,0,0-.2-.63.71.71,0,0,0-.55-.22.7.7,0,0,0-.52.19.71.71,0,0,0-.18.52.63.63,0,0,0,.2.46,1.79,1.79,0,0,0,.61.33,2.25,2.25,0,0,1,.92.52,1.2,1.2,0,0,1,.27.81,1.12,1.12,0,0,1-.34.85,1.33,1.33,0,0,1-.94.31,1.53,1.53,0,0,1-.7-.16,1.26,1.26,0,0,1-.5-.47,1.2,1.2,0,0,1-.19-.68h.55a.79.79,0,0,0,.84.85.76.76,0,0,0,.55-.19A.68.68,0,0,0,459.87,107.12Z"/><path d="M462.22,108.27a1.2,1.2,0,0,1-.93-.36,1.53,1.53,0,0,1-.32-1v-.39a1.81,1.81,0,0,1,.31-1.13,1.05,1.05,0,0,1,.88-.41,1,1,0,0,1,.85.36,1.88,1.88,0,0,1,.29,1.12v.35h-1.81v.07a1.19,1.19,0,0,0,.2.76.68.68,0,0,0,.56.23,1,1,0,0,0,.41-.08,1.07,1.07,0,0,0,.33-.28l.28.33A1.21,1.21,0,0,1,462.22,108.27Zm-.06-2.89a.57.57,0,0,0-.49.23,1.44,1.44,0,0,0-.18.7h1.28v-.07a1.25,1.25,0,0,0-.17-.66A.5.5,0,0,0,462.16,105.38Z"/><path d="M465.27,105.48l-.24,0a.59.59,0,0,0-.57.45v2.3h-.53V105h.51v.33a.65.65,0,0,1,.6-.39.41.41,0,0,1,.21,0Z"/><path d="M466.76,107.41l.62-2.42h.53l-1,3.22h-.39l-1-3.22h.54Z"/><path d="M469.08,104.14a.35.35,0,0,1-.08.22.27.27,0,0,1-.22.09.29.29,0,0,1-.23-.09.34.34,0,0,1-.07-.22.35.35,0,0,1,.07-.23.29.29,0,0,1,.23-.09.28.28,0,0,1,.22.09A.36.36,0,0,1,469.08,104.14Zm0,4.07h-.53V105H469Z"/><path d="M471,107.82a.54.54,0,0,0,.42-.16.67.67,0,0,0,.18-.46h.49a1.07,1.07,0,0,1-.33.77,1,1,0,0,1-.76.3,1.14,1.14,0,0,1-.92-.37,1.73,1.73,0,0,1-.31-1.13v-.35a1.69,1.69,0,0,1,.31-1.11,1.14,1.14,0,0,1,.92-.38,1,1,0,0,1,.79.31,1.3,1.3,0,0,1,.3.86h-.49a.89.89,0,0,0-.18-.54.52.52,0,0,0-.42-.18.63.63,0,0,0-.53.23,1.35,1.35,0,0,0-.17.76v.41a1.39,1.39,0,0,0,.17.81A.6.6,0,0,0,471,107.82Z"/><path d="M473.85,108.27a1.2,1.2,0,0,1-.93-.36,1.53,1.53,0,0,1-.32-1v-.39a1.81,1.81,0,0,1,.31-1.13,1.05,1.05,0,0,1,.88-.41,1,1,0,0,1,.85.36,1.88,1.88,0,0,1,.29,1.12v.35h-1.81v.07a1.19,1.19,0,0,0,.2.76.68.68,0,0,0,.56.23,1,1,0,0,0,.41-.08,1.07,1.07,0,0,0,.33-.28l.28.33A1.21,1.21,0,0,1,473.85,108.27Zm-.06-2.89a.57.57,0,0,0-.49.23,1.44,1.44,0,0,0-.18.7h1.28v-.07a1.25,1.25,0,0,0-.17-.66A.5.5,0,0,0,473.79,105.38Z"/><path d="M479.07,107.08H477.6l-.34,1.13h-.56l1.4-4.33h.47l1.4,4.33h-.56Zm-1.33-.47h1.19l-.6-2Z"/><path class="cls-3" d="M455.57,105.4,453,102.8a.38.38,0,0,0-.54,0l-2.6,2.59a.38.38,0,0,0,0,.54l2.61,2.61a.38.38,0,0,0,.54,0l2.6-2.59A.39.39,0,0,0,455.57,105.4Z"/><rect class="cls-2" x="395.16" y="85.01" width="41.42" height="55.14"/><rect class="cls-12" x="395.16" y="85.01" width="41.42" height="14.49"/><path class="cls-2" d="M401.52,94.93v-6.5h1.86a1.89,1.89,0,0,1,1.35.43,1.72,1.72,0,0,1,.45,1.3,1.44,1.44,0,0,1-.23.8,1.47,1.47,0,0,1-.62.54,1.29,1.29,0,0,1,.71.55,2.15,2.15,0,0,1-.22,2.38,1.83,1.83,0,0,1-1.37.5Zm.82-3.73h1.06a.88.88,0,0,0,.68-.29,1.05,1.05,0,0,0,.27-.76,1.07,1.07,0,0,0-.24-.78,1,1,0,0,0-.73-.24h-1Zm0,.69v2.34h1.12a.92.92,0,0,0,.74-.31,1.2,1.2,0,0,0,.28-.86c0-.78-.33-1.17-1-1.17Z"/><path class="cls-2" d="M408.89,94.51a1.37,1.37,0,0,1-1.15.51,1.18,1.18,0,0,1-1-.45,2.33,2.33,0,0,1-.34-1.32V90.1h.79v3.09c0,.75.23,1.13.68,1.13a1,1,0,0,0,1-.64V90.1h.79v4.83h-.75Z"/><path class="cls-2" d="M410.7,92.29a2.86,2.86,0,0,1,.41-1.7,1.36,1.36,0,0,1,1.2-.58,1.24,1.24,0,0,1,1.13.63l0-.54h.72V95a1.9,1.9,0,0,1-.47,1.37,1.67,1.67,0,0,1-1.28.48,2.4,2.4,0,0,1-.81-.17,1.82,1.82,0,0,1-.67-.44l.33-.54a1.51,1.51,0,0,0,1.09.48c.66,0,1-.36,1-1.08v-.63a1.23,1.23,0,0,1-1.09.57,1.37,1.37,0,0,1-1.17-.57,2.65,2.65,0,0,1-.44-1.62Zm.79.45a2.35,2.35,0,0,0,.24,1.2.87.87,0,0,0,.79.38.94.94,0,0,0,.88-.6V91.3a1,1,0,0,0-.88-.59.86.86,0,0,0-.78.38,2.12,2.12,0,0,0-.25,1.17Z"/><path class="cls-2" d="M415.72,94.93v-4.2h-.63V90.1h.63v-.56a1.74,1.74,0,0,1,.38-1.15,1.27,1.27,0,0,1,1-.42,1.61,1.61,0,0,1,.48.08l0,.67a1.5,1.5,0,0,0-.37,0c-.45,0-.67.32-.67,1v.46h.83v.63h-.83v4.2Z"/><path class="cls-2" d="M419.2,88.81a.49.49,0,0,1-.12.34.4.4,0,0,1-.34.13.39.39,0,0,1-.33-.13.48.48,0,0,1-.11-.34.47.47,0,0,1,.11-.33.37.37,0,0,1,.33-.14.39.39,0,0,1,.34.14A.48.48,0,0,1,419.2,88.81Zm-.07,6.12h-.79V90.1h.79Z"/><path class="cls-2" d="M421.78,91.86l.83-1.76h.92l-1.32,2.39,1.35,2.44h-.91l-.85-1.81-.86,1.81H420l1.35-2.44-1.31-2.39H421Z"/><path class="cls-2" d="M426.62,94.93v-6.5h1.86a1.86,1.86,0,0,1,1.34.43,1.72,1.72,0,0,1,.45,1.3,1.37,1.37,0,0,1-.23.8,1.39,1.39,0,0,1-.61.54,1.29,1.29,0,0,1,.71.55,2.15,2.15,0,0,1-.22,2.38,1.84,1.84,0,0,1-1.38.5Zm.82-3.73h1.05a.88.88,0,0,0,.69-.29,1,1,0,0,0,.26-.76,1.12,1.12,0,0,0-.23-.78,1,1,0,0,0-.73-.24h-1Zm0,.69v2.34h1.12a.92.92,0,0,0,.74-.31,1.25,1.25,0,0,0,.27-.86q0-1.17-1-1.17Z"/><path d="M409.31,107.12a.7.7,0,0,0-.17-.5,1.92,1.92,0,0,0-.64-.34,2.68,2.68,0,0,1-.7-.34,1.18,1.18,0,0,1-.37-.41,1.22,1.22,0,0,1,.23-1.38,1.25,1.25,0,0,1,.9-.33,1.27,1.27,0,0,1,.68.17,1.16,1.16,0,0,1,.46.47,1.38,1.38,0,0,1,.16.67h-.55a.93.93,0,0,0-.19-.63.74.74,0,0,0-.56-.22.69.69,0,0,0-.51.19.68.68,0,0,0-.19.52.63.63,0,0,0,.2.46,1.89,1.89,0,0,0,.61.33,2.18,2.18,0,0,1,.92.52,1.21,1.21,0,0,1,.28.81,1.12,1.12,0,0,1-.35.85,1.32,1.32,0,0,1-.93.31,1.47,1.47,0,0,1-.7-.16,1.22,1.22,0,0,1-.51-.47,1.28,1.28,0,0,1-.18-.68h.55a.83.83,0,0,0,.22.62.85.85,0,0,0,.62.23.74.74,0,0,0,.54-.19A.68.68,0,0,0,409.31,107.12Z"/><path d="M411.66,108.27a1.16,1.16,0,0,1-.92-.36,1.49,1.49,0,0,1-.33-1v-.39a1.81,1.81,0,0,1,.32-1.13,1.05,1.05,0,0,1,.88-.41,1,1,0,0,1,.84.36,1.81,1.81,0,0,1,.29,1.12v.35h-1.8v.07a1.2,1.2,0,0,0,.19.76.68.68,0,0,0,.56.23,1.08,1.08,0,0,0,.42-.08,1.2,1.2,0,0,0,.33-.28l.27.33A1.18,1.18,0,0,1,411.66,108.27Zm-.05-2.89a.56.56,0,0,0-.49.23,1.25,1.25,0,0,0-.18.7h1.27v-.07a1.27,1.27,0,0,0-.16-.66A.53.53,0,0,0,411.61,105.38Z"/><path d="M414.71,105.48l-.24,0a.59.59,0,0,0-.57.45v2.3h-.53V105h.52v.33a.65.65,0,0,1,.6-.39.46.46,0,0,1,.21,0Z"/><path d="M416.21,107.41l.61-2.42h.54l-1,3.22H416L415,105h.54Z"/><path d="M418.52,104.14a.34.34,0,0,1-.07.22.29.29,0,0,1-.23.09.27.27,0,0,1-.22-.09.35.35,0,0,1-.08-.22.36.36,0,0,1,.08-.23.31.31,0,0,1,.44,0A.31.31,0,0,1,418.52,104.14Zm0,4.07H418V105h.53Z"/><path d="M420.44,107.82a.57.57,0,0,0,.42-.16.71.71,0,0,0,.17-.46h.5a1.07,1.07,0,0,1-.33.77,1.06,1.06,0,0,1-.76.3,1.12,1.12,0,0,1-.92-.37,1.73,1.73,0,0,1-.32-1.13v-.35a1.69,1.69,0,0,1,.32-1.11,1.12,1.12,0,0,1,.91-.38,1,1,0,0,1,.79.31,1.3,1.3,0,0,1,.31.86H421a.89.89,0,0,0-.17-.54.54.54,0,0,0-.43-.18.61.61,0,0,0-.52.23,1.43,1.43,0,0,0-.18.76v.41a1.48,1.48,0,0,0,.17.81A.6.6,0,0,0,420.44,107.82Z"/><path d="M423.29,108.27a1.16,1.16,0,0,1-.92-.36,1.49,1.49,0,0,1-.33-1v-.39a1.81,1.81,0,0,1,.32-1.13,1.05,1.05,0,0,1,.88-.41,1,1,0,0,1,.84.36,1.81,1.81,0,0,1,.29,1.12v.35h-1.8v.07a1.2,1.2,0,0,0,.19.76.68.68,0,0,0,.56.23,1.08,1.08,0,0,0,.42-.08,1.2,1.2,0,0,0,.33-.28l.27.33A1.2,1.2,0,0,1,423.29,108.27Zm-.05-2.89a.56.56,0,0,0-.49.23,1.25,1.25,0,0,0-.18.7h1.27v-.07a1.27,1.27,0,0,0-.16-.66A.53.53,0,0,0,423.24,105.38Z"/><path d="M428.51,107.08H427l-.34,1.13h-.56l1.4-4.33H428l1.41,4.33h-.57Zm-1.33-.47h1.19l-.59-2Z"/><path class="cls-3" d="M405,105.4l-2.61-2.6a.39.39,0,0,0-.55,0l-2.6,2.59a.38.38,0,0,0,0,.54l2.61,2.61a.39.39,0,0,0,.55,0L405,106A.39.39,0,0,0,405,105.4Z"/><rect class="cls-2" x="343.84" y="85.01" width="41.42" height="55.14"/><rect class="cls-12" x="343.84" y="85.01" width="41.42" height="14.49"/><path class="cls-2" d="M353.65,88.43l1.71,5.3,1.7-5.3h1.06v6.5h-.82V92.4l.07-2.54-1.7,5.07H355l-1.7-5.05.08,2.52v2.53h-.82v-6.5Z"/><path class="cls-2" d="M361.91,94.93a1.64,1.64,0,0,1-.1-.53,1.27,1.27,0,0,1-1.08.62,1.35,1.35,0,0,1-1-.37,1.39,1.39,0,0,1-.37-1,1.45,1.45,0,0,1,.5-1.17,2.06,2.06,0,0,1,1.37-.44h.59v-.51a.68.68,0,0,0-.78-.8.84.84,0,0,0-.59.21.7.7,0,0,0-.22.54h-.79a1.24,1.24,0,0,1,.22-.71,1.45,1.45,0,0,1,.59-.53,1.75,1.75,0,0,1,.83-.19,1.57,1.57,0,0,1,1.13.37,1.39,1.39,0,0,1,.39,1.07v2.44a3.12,3.12,0,0,0,.16,1v.07Zm-1.05-.63a1,1,0,0,0,.55-.16,1,1,0,0,0,.39-.4V92.58h-.45a1.52,1.52,0,0,0-.89.26.8.8,0,0,0-.33.68.87.87,0,0,0,.16.59A.71.71,0,0,0,360.86,94.3Z"/><path class="cls-2" d="M366.17,93.69a.56.56,0,0,0-.19-.43,2.59,2.59,0,0,0-.75-.43,5.11,5.11,0,0,1-.9-.46,1.29,1.29,0,0,1-.39-.42,1.14,1.14,0,0,1-.13-.57,1.26,1.26,0,0,1,.43-1,1.6,1.6,0,0,1,1.11-.39,1.53,1.53,0,0,1,1.13.41,1.37,1.37,0,0,1,.43,1h-.79a.75.75,0,0,0-.22-.55.7.7,0,0,0-.55-.23.78.78,0,0,0-.55.18.59.59,0,0,0-.2.48.56.56,0,0,0,.14.39,2.62,2.62,0,0,0,.7.38,3.64,3.64,0,0,1,1.21.68,1.16,1.16,0,0,1,.31.83,1.27,1.27,0,0,1-.43,1,2,2,0,0,1-2.39,0,1.43,1.43,0,0,1-.48-1.1h.8a.87.87,0,0,0,.25.63.89.89,0,0,0,.65.23.86.86,0,0,0,.6-.18A.6.6,0,0,0,366.17,93.69Z"/><path class="cls-2" d="M369,88.93V90.1h.73v.63H369v3a.74.74,0,0,0,.1.43.35.35,0,0,0,.32.15,1,1,0,0,0,.32-.06v.67a1.71,1.71,0,0,1-.55.09.82.82,0,0,1-.72-.34,1.57,1.57,0,0,1-.25-.94v-3h-.73V90.1h.73V88.93Z"/><path class="cls-2" d="M372.44,95a1.76,1.76,0,0,1-1.39-.54,2.3,2.3,0,0,1-.49-1.58v-.58a2.7,2.7,0,0,1,.47-1.7,1.55,1.55,0,0,1,1.32-.61,1.5,1.5,0,0,1,1.27.54,2.8,2.8,0,0,1,.43,1.68v.52h-2.71v.11a1.72,1.72,0,0,0,.3,1.13,1,1,0,0,0,.84.36,1.35,1.35,0,0,0,.62-.14,1.44,1.44,0,0,0,.5-.41l.41.5A1.8,1.8,0,0,1,372.44,95Zm-.09-4.33a.84.84,0,0,0-.73.33,2,2,0,0,0-.27,1h1.91V92a1.9,1.9,0,0,0-.25-1A.77.77,0,0,0,372.35,90.69Z"/><path class="cls-2" d="M377,90.84a2,2,0,0,0-.35,0,.88.88,0,0,0-.86.66v3.46H375V90.1h.77l0,.49a1,1,0,0,1,.9-.58.71.71,0,0,1,.31.06Z"/><path d="M358,107.12a.67.67,0,0,0-.18-.5,1.85,1.85,0,0,0-.63-.34,3,3,0,0,1-.71-.34,1.25,1.25,0,0,1-.36-.41A1.15,1.15,0,0,1,356,105a1.13,1.13,0,0,1,.34-.85,1.26,1.26,0,0,1,.91-.33,1.3,1.3,0,0,1,.68.17,1.16,1.16,0,0,1,.46.47,1.38,1.38,0,0,1,.16.67H358a.93.93,0,0,0-.19-.63.74.74,0,0,0-.56-.22.64.64,0,0,0-.7.71.63.63,0,0,0,.2.46,1.79,1.79,0,0,0,.61.33,2.18,2.18,0,0,1,.92.52,1.2,1.2,0,0,1,.27.81,1.12,1.12,0,0,1-.34.85,1.33,1.33,0,0,1-.94.31,1.53,1.53,0,0,1-.7-.16,1.26,1.26,0,0,1-.5-.47,1.29,1.29,0,0,1-.19-.68h.55a.79.79,0,0,0,.84.85.76.76,0,0,0,.55-.19A.68.68,0,0,0,358,107.12Z"/><path d="M360.34,108.27a1.16,1.16,0,0,1-.92-.36,1.49,1.49,0,0,1-.33-1v-.39a1.81,1.81,0,0,1,.31-1.13,1.06,1.06,0,0,1,.88-.41,1,1,0,0,1,.85.36,1.88,1.88,0,0,1,.29,1.12v.35h-1.81v.07a1.19,1.19,0,0,0,.2.76.68.68,0,0,0,.56.23,1,1,0,0,0,.41-.08,1.23,1.23,0,0,0,.34-.28l.27.33A1.21,1.21,0,0,1,360.34,108.27Zm-.06-2.89a.57.57,0,0,0-.49.23,1.35,1.35,0,0,0-.17.7h1.27v-.07a1.25,1.25,0,0,0-.17-.66A.5.5,0,0,0,360.28,105.38Z"/><path d="M363.39,105.48l-.24,0a.59.59,0,0,0-.57.45v2.3h-.53V105h.52v.33a.68.68,0,0,1,.61-.39.4.4,0,0,1,.2,0Z"/><path d="M364.89,107.41l.61-2.42H366l-1,3.22h-.4l-1-3.22h.54Z"/><path d="M367.2,104.14a.35.35,0,0,1-.08.22.27.27,0,0,1-.22.09.29.29,0,0,1-.23-.09.34.34,0,0,1-.07-.22.35.35,0,0,1,.07-.23.29.29,0,0,1,.23-.09.27.27,0,0,1,.22.09A.36.36,0,0,1,367.2,104.14Zm0,4.07h-.53V105h.53Z"/><path d="M369.11,107.82a.54.54,0,0,0,.42-.16.67.67,0,0,0,.18-.46h.5a1.16,1.16,0,0,1-.33.77,1.08,1.08,0,0,1-.77.3,1.11,1.11,0,0,1-.91-.37,1.73,1.73,0,0,1-.32-1.13v-.35a1.75,1.75,0,0,1,.31-1.11,1.14,1.14,0,0,1,.92-.38,1,1,0,0,1,.79.31,1.36,1.36,0,0,1,.31.86h-.5a.89.89,0,0,0-.18-.54.52.52,0,0,0-.42-.18.6.6,0,0,0-.52.23,1.27,1.27,0,0,0-.18.76v.41a1.48,1.48,0,0,0,.17.81A.6.6,0,0,0,369.11,107.82Z"/><path d="M372,108.27a1.16,1.16,0,0,1-.92-.36,1.49,1.49,0,0,1-.33-1v-.39a1.81,1.81,0,0,1,.31-1.13,1.06,1.06,0,0,1,.88-.41,1,1,0,0,1,.85.36,1.88,1.88,0,0,1,.29,1.12v.35h-1.81v.07a1.19,1.19,0,0,0,.2.76.68.68,0,0,0,.56.23,1,1,0,0,0,.41-.08,1.23,1.23,0,0,0,.34-.28l.27.33A1.21,1.21,0,0,1,372,108.27Zm-.06-2.89a.57.57,0,0,0-.49.23,1.35,1.35,0,0,0-.17.7h1.27v-.07a1.25,1.25,0,0,0-.17-.66A.5.5,0,0,0,371.91,105.38Z"/><path d="M377.19,107.08h-1.47l-.34,1.13h-.56l1.4-4.33h.47l1.4,4.33h-.56Zm-1.33-.47h1.19l-.6-2Z"/><path class="cls-3" d="M353.69,105.4l-2.61-2.6a.38.38,0,0,0-.54,0l-2.6,2.59a.38.38,0,0,0,0,.54l2.61,2.61a.38.38,0,0,0,.54,0l2.6-2.59A.39.39,0,0,0,353.69,105.4Z"/><path class="cls-2" d="M345.39,74.87v3h-1V70.2h2.45a2.22,2.22,0,0,1,1.69.64,2.74,2.74,0,0,1,0,3.41,2.29,2.29,0,0,1-1.65.62Zm0-.83h1.49a1.25,1.25,0,0,0,1-.39,1.58,1.58,0,0,0,.34-1.1,1.7,1.7,0,0,0-.35-1.11,1.21,1.21,0,0,0-1-.42h-1.5Z"/><path class="cls-2" d="M352.75,74.77H351.4v3.1h-1V70.2h2.16a2.32,2.32,0,0,1,1.71.58,2.36,2.36,0,0,1,.58,1.72,2.42,2.42,0,0,1-.31,1.25,2,2,0,0,1-.89.79l1.49,3.27v.06h-1.05Zm-1.35-.83h1.17a1.29,1.29,0,0,0,1-.39,1.49,1.49,0,0,0,.36-1c0-1-.45-1.48-1.34-1.48H351.4Z"/><path class="cls-2" d="M359.87,74.32h-2.73V77h3.18v.83h-4.14V70.2h4.08V71h-3.12V73.5h2.73Z"/><path class="cls-2" d="M362.91,76.45,364,72.17h.95l-1.69,5.7h-.7l-1.72-5.7h.95Z"/><path class="cls-2" d="M368.78,77.87a2.47,2.47,0,0,1-.12-.62,1.48,1.48,0,0,1-1.27.72,1.63,1.63,0,0,1-1.21-.43,1.67,1.67,0,0,1-.44-1.23,1.74,1.74,0,0,1,.59-1.38,2.49,2.49,0,0,1,1.63-.52h.69v-.6a.81.81,0,0,0-.92-1,1,1,0,0,0-.69.25.84.84,0,0,0-.27.64h-.93a1.48,1.48,0,0,1,.26-.84,1.8,1.8,0,0,1,.69-.62,2.14,2.14,0,0,1,1-.23,1.88,1.88,0,0,1,1.34.44,1.72,1.72,0,0,1,.47,1.26v2.88a3.25,3.25,0,0,0,.18,1.14v.09Zm-1.25-.74a1.32,1.32,0,0,0,.66-.19,1.24,1.24,0,0,0,.46-.48V75.1h-.53a1.83,1.83,0,0,0-1.06.3,1,1,0,0,0-.38.8,1.06,1.06,0,0,0,.19.71A.89.89,0,0,0,367.53,77.13Z"/><path class="cls-2" d="M371.91,72.17l0,.61a1.69,1.69,0,0,1,1.4-.72c1,0,1.52.67,1.53,2v3.79h-.93V74.12a1.56,1.56,0,0,0-.22-1,.81.81,0,0,0-.68-.28,1,1,0,0,0-.62.23,1.65,1.65,0,0,0-.45.61v4.14H371v-5.7Z"/><path class="cls-2" d="M377.49,70.79v1.38h.86v.75h-.86v3.54a1,1,0,0,0,.11.51.42.42,0,0,0,.38.18,1,1,0,0,0,.38-.07v.79a2.05,2.05,0,0,1-.65.1,1,1,0,0,1-.85-.39,1.91,1.91,0,0,1-.29-1.12V72.92h-.87v-.75h.87V70.79Z"/><rect class="cls-7" x="220.79" y="19.57" width="42.73" height="12.5"/><path class="cls-2" d="M226.37,26.87v3h-1V22.2h2.46a2.23,2.23,0,0,1,1.69.64,2.39,2.39,0,0,1,.61,1.7,2.35,2.35,0,0,1-.59,1.71,2.25,2.25,0,0,1-1.64.62Zm0-.83h1.49a1.25,1.25,0,0,0,1-.39,1.58,1.58,0,0,0,.34-1.1,1.7,1.7,0,0,0-.35-1.11,1.21,1.21,0,0,0-1-.42h-1.49Z"/><path class="cls-2" d="M233.73,26.77h-1.35v3.1h-1V22.2h2.15a2.29,2.29,0,0,1,1.72.59,2.32,2.32,0,0,1,.58,1.72,2.41,2.41,0,0,1-.32,1.24,1.91,1.91,0,0,1-.89.79l1.5,3.27v.06H235.1Zm-1.35-.83h1.17a1.25,1.25,0,0,0,1-.39,1.45,1.45,0,0,0,.37-1.05c0-1-.45-1.48-1.35-1.48h-1.16Z"/><path class="cls-2" d="M240.85,26.32h-2.73V29h3.18v.83h-4.15V22.2h4.09V23h-3.12V25.5h2.73Z"/><path class="cls-2" d="M243.89,28.45,245,24.17h.95l-1.69,5.7h-.7l-1.72-5.7h.95Z"/><path class="cls-2" d="M249.76,29.87a1.81,1.81,0,0,1-.12-.62,1.49,1.49,0,0,1-1.27.73,1.63,1.63,0,0,1-1.21-.44,1.67,1.67,0,0,1-.44-1.23,1.73,1.73,0,0,1,.59-1.37,2.44,2.44,0,0,1,1.63-.53h.68v-.6a1,1,0,0,0-.22-.73,1,1,0,0,0-.7-.22,1,1,0,0,0-.68.25.84.84,0,0,0-.27.64h-.93a1.55,1.55,0,0,1,.25-.84,1.91,1.91,0,0,1,.7-.62,2.14,2.14,0,0,1,1-.23,1.88,1.88,0,0,1,1.34.44,1.69,1.69,0,0,1,.46,1.27v2.87a3.59,3.59,0,0,0,.19,1.15v.08Zm-1.25-.74a1.32,1.32,0,0,0,.66-.19,1.14,1.14,0,0,0,.45-.48V27.1h-.52a1.83,1.83,0,0,0-1.06.3,1,1,0,0,0-.38.8,1.06,1.06,0,0,0,.19.71A.87.87,0,0,0,248.51,29.13Z"/><path class="cls-2" d="M252.89,24.17l0,.61a1.69,1.69,0,0,1,1.39-.72c1,0,1.53.68,1.54,2v3.79h-.93V26.12a1.56,1.56,0,0,0-.22-.95.81.81,0,0,0-.68-.28,1,1,0,0,0-.62.23,1.65,1.65,0,0,0-.45.61v4.14H252v-5.7Z"/><path class="cls-2" d="M258.47,22.79v1.38h.86v.75h-.86v3.54a1,1,0,0,0,.11.51.42.42,0,0,0,.38.18,1,1,0,0,0,.38-.07v.79a2.06,2.06,0,0,1-.65.11,1,1,0,0,1-.85-.4,1.89,1.89,0,0,1-.29-1.12V24.92h-.87v-.75h.87V22.79Z"/><path d="M17.73,100.69a1,1,0,0,0-.28-.78,2.75,2.75,0,0,0-1-.52,4.16,4.16,0,0,1-1.1-.54,2,2,0,0,1-.57-.64,1.72,1.72,0,0,1-.19-.83,1.75,1.75,0,0,1,.54-1.32,1.94,1.94,0,0,1,1.41-.53,2.1,2.1,0,0,1,1.07.27,1.83,1.83,0,0,1,.72.74,2.28,2.28,0,0,1,.25,1h-.86a1.43,1.43,0,0,0-.3-1,1.12,1.12,0,0,0-.88-.34,1.08,1.08,0,0,0-.8.28,1.13,1.13,0,0,0-.29.81,1,1,0,0,0,.31.72,2.66,2.66,0,0,0,1,.52,3.19,3.19,0,0,1,1.43.82,1.8,1.8,0,0,1,.43,1.26,1.73,1.73,0,0,1-.53,1.32,2.09,2.09,0,0,1-1.46.5,2.38,2.38,0,0,1-1.1-.26,1.92,1.92,0,0,1-.79-.73,2,2,0,0,1-.29-1.07h.86a1.31,1.31,0,0,0,.36,1,1.3,1.3,0,0,0,1,.35,1.14,1.14,0,0,0,.84-.29A1.1,1.1,0,0,0,17.73,100.69Z"/><path d="M21.4,102.5a1.85,1.85,0,0,1-1.44-.56,2.45,2.45,0,0,1-.52-1.65v-.61a2.84,2.84,0,0,1,.5-1.77,1.64,1.64,0,0,1,1.37-.64,1.58,1.58,0,0,1,1.33.57,2.91,2.91,0,0,1,.45,1.75v.54H20.27v.12a1.88,1.88,0,0,0,.3,1.18,1.1,1.1,0,0,0,.88.36,1.44,1.44,0,0,0,.64-.13,1.63,1.63,0,0,0,.52-.44l.43.52A1.87,1.87,0,0,1,21.4,102.5ZM21.31,98a.88.88,0,0,0-.76.35,2.13,2.13,0,0,0-.28,1.09h2v-.11a1.9,1.9,0,0,0-.26-1A.79.79,0,0,0,21.31,98Z"/><path d="M26.16,98.14a2.13,2.13,0,0,0-.37,0,.91.91,0,0,0-.89.69v3.6h-.82v-5h.8v.51a1,1,0,0,1,.94-.61.81.81,0,0,1,.33.07Z"/><path d="M28.5,101.15l1-3.78h.84l-1.5,5h-.61l-1.52-5h.84Z"/><path d="M32.12,96a.51.51,0,0,1-.12.35.44.44,0,0,1-.35.14.42.42,0,0,1-.35-.14.57.57,0,0,1,0-.7.4.4,0,0,1,.35-.15.43.43,0,0,1,.35.15A.55.55,0,0,1,32.12,96Zm-.07,6.37h-.82v-5h.82Z"/><path d="M35.11,101.79a.89.89,0,0,0,.66-.25,1.12,1.12,0,0,0,.27-.72h.78a1.7,1.7,0,0,1-.52,1.2,1.62,1.62,0,0,1-1.19.48,1.75,1.75,0,0,1-1.43-.59,2.68,2.68,0,0,1-.5-1.76V99.6a2.68,2.68,0,0,1,.49-1.73,1.75,1.75,0,0,1,1.43-.6,1.61,1.61,0,0,1,1.23.49,2,2,0,0,1,.49,1.34H36a1.4,1.4,0,0,0-.27-.84A.82.82,0,0,0,35.1,98a.94.94,0,0,0-.81.36A2.1,2.1,0,0,0,34,99.53v.64a2.32,2.32,0,0,0,.26,1.26A1,1,0,0,0,35.11,101.79Z"/><path d="M39.58,102.5a1.87,1.87,0,0,1-1.45-.56,2.4,2.4,0,0,1-.51-1.65v-.61a2.84,2.84,0,0,1,.49-1.77,1.66,1.66,0,0,1,1.37-.64,1.58,1.58,0,0,1,1.33.57,2.91,2.91,0,0,1,.45,1.75v.54H38.44v.12a1.88,1.88,0,0,0,.3,1.18,1.1,1.1,0,0,0,.88.36,1.48,1.48,0,0,0,.65-.13,1.88,1.88,0,0,0,.52-.44l.43.52A1.9,1.9,0,0,1,39.58,102.5ZM39.48,98a.88.88,0,0,0-.76.35,2.13,2.13,0,0,0-.28,1.09h2v-.11a1.9,1.9,0,0,0-.26-1A.79.79,0,0,0,39.48,98Z"/><path d="M47.73,100.63h-2.3l-.53,1.77H44l2.19-6.77H47l2.19,6.77h-.88Zm-2.08-.73h1.86l-.93-3.08Z"/><circle class="cls-3" cx="62.34" cy="100.39" r="8"/><path class="cls-2" d="M62.34,93.41a7,7,0,1,1-7,7,7,7,0,0,1,7-7m0-2a9,9,0,1,0,9,9,9,9,0,0,0-9-9Z"/><rect class="cls-2" x="206.06" y="40.97" width="7.59" height="115.74"/><line class="cls-8" x1="209.85" y1="44.68" x2="209.85" y2="156.71"/><rect class="cls-2" x="270.67" y="40.97" width="7.59" height="115.74"/><line class="cls-8" x1="274.47" y1="44.68" x2="274.47" y2="156.71"/><use width="42.37" height="51.94" transform="translate(284.59 53.55)" xlink:href="#rechner"/><path class="cls-4" d="M305.78,105.21a4.52,4.52,0,1,1,4.51-4.52A4.52,4.52,0,0,1,305.78,105.21Z"/><path class="cls-2" d="M305.78,96.88a3.81,3.81,0,1,1-3.81,3.81,3.82,3.82,0,0,1,3.81-3.81m0-1.4a5.22,5.22,0,1,0,5.21,5.21,5.22,5.22,0,0,0-5.21-5.21Z"/><circle class="cls-13" cx="110.81" cy="100.58" r="4.51"/><path class="cls-2" d="M110.81,96.77a3.81,3.81,0,1,1-3.81,3.81,3.82,3.82,0,0,1,3.81-3.81m0-1.41a5.22,5.22,0,1,0,5.21,5.22,5.22,5.22,0,0,0-5.21-5.22Z"/><path class="cls-6" d="M102.06,176.27V169.5H104a2,2,0,0,1,1.4.45,1.76,1.76,0,0,1,.47,1.35,1.48,1.48,0,0,1-.24.84,1.52,1.52,0,0,1-.64.56,1.33,1.33,0,0,1,.74.58,2.23,2.23,0,0,1-.23,2.47,1.87,1.87,0,0,1-1.43.52Zm.85-3.88H104a1,1,0,0,0,.72-.3,1.13,1.13,0,0,0,.27-.79,1.12,1.12,0,0,0-.25-.82,1,1,0,0,0-.76-.25h-1.08Zm0,.71v2.44h1.17a1,1,0,0,0,.77-.32,1.28,1.28,0,0,0,.28-.89c0-.82-.34-1.23-1-1.23Z"/><path class="cls-6" d="M109.73,175.83a1.41,1.41,0,0,1-1.2.54,1.21,1.21,0,0,1-1-.47,2.34,2.34,0,0,1-.36-1.38v-3.28H108v3.22c0,.78.24,1.18.71,1.18a1,1,0,0,0,1-.67v-3.73h.83v5h-.79Z"/><path class="cls-6" d="M112.74,169.9a.51.51,0,0,1-.12.35.42.42,0,0,1-.35.14.4.4,0,0,1-.35-.14.51.51,0,0,1-.12-.35.53.53,0,0,1,.12-.35.4.4,0,0,1,.35-.14.42.42,0,0,1,.35.14A.55.55,0,0,1,112.74,169.9Zm-.07,6.37h-.82v-5h.82Z"/><path class="cls-6" d="M114.86,176.27H114v-7.14h.83Z"/><path class="cls-6" d="M116,173.53a3,3,0,0,1,.43-1.77,1.46,1.46,0,0,1,1.26-.61,1.3,1.3,0,0,1,1.13.58v-2.6h.83v7.14h-.76l0-.54a1.3,1.3,0,0,1-1.17.64,1.46,1.46,0,0,1-1.23-.61A2.93,2.93,0,0,1,116,174Zm.82.47a2.36,2.36,0,0,0,.26,1.24.9.9,0,0,0,.82.4,1,1,0,0,0,.92-.62v-2.54a1,1,0,0,0-.92-.6.9.9,0,0,0-.82.39,2.43,2.43,0,0,0-.26,1.22Z"/><path class="cls-6" d="M134.58,173.62v2.65h-.86V169.5h2.17a2,2,0,0,1,1.49.56,2.1,2.1,0,0,1,.54,1.51,2,2,0,0,1-.52,1.5,1.94,1.94,0,0,1-1.45.55Zm0-.73h1.31a1.09,1.09,0,0,0,.87-.34,1.38,1.38,0,0,0,.31-1,1.44,1.44,0,0,0-.32-1,1,1,0,0,0-.86-.37h-1.31Z"/><path class="cls-6" d="M141.46,176.27a1.66,1.66,0,0,1-.11-.54,1.33,1.33,0,0,1-1.12.64,1.35,1.35,0,0,1-1.46-1.47,1.56,1.56,0,0,1,.52-1.22,2.2,2.2,0,0,1,1.44-.46h.61v-.53a.86.86,0,0,0-.21-.65.87.87,0,0,0-.61-.19.85.85,0,0,0-.6.22.75.75,0,0,0-.24.57h-.82a1.33,1.33,0,0,1,.22-.74,1.57,1.57,0,0,1,.62-.55,1.8,1.8,0,0,1,.87-.2,1.6,1.6,0,0,1,1.17.38,1.52,1.52,0,0,1,.42,1.12v2.54a2.82,2.82,0,0,0,.16,1v.07Zm-1.1-.65a1.08,1.08,0,0,0,.57-.17,1,1,0,0,0,.41-.42v-1.2h-.47a1.6,1.6,0,0,0-.93.26.83.83,0,0,0-.34.71.92.92,0,0,0,.17.62A.76.76,0,0,0,140.36,175.62Z"/><path class="cls-6" d="M145.19,175.66a.86.86,0,0,0,.66-.25,1,1,0,0,0,.27-.72h.78a1.74,1.74,0,0,1-.51,1.2,1.66,1.66,0,0,1-1.2.48,1.78,1.78,0,0,1-1.43-.59,2.67,2.67,0,0,1-.49-1.75v-.56a2.62,2.62,0,0,1,.49-1.73,1.73,1.73,0,0,1,1.43-.59,1.63,1.63,0,0,1,1.23.48,2,2,0,0,1,.48,1.34h-.78a1.4,1.4,0,0,0-.27-.84.84.84,0,0,0-.66-.28,1,1,0,0,0-.82.36,2,2,0,0,0-.27,1.19V174a2.23,2.23,0,0,0,.26,1.26A1,1,0,0,0,145.19,175.66Z"/><path class="cls-6" d="M149.13,174l-.44.5v1.8h-.83v-7.14h.83v4.27l1.57-2.16h1l-1.61,2.1,1.82,2.93h-1Z"/><path class="cls-6" d="M154.77,176.27a1.66,1.66,0,0,1-.11-.54,1.33,1.33,0,0,1-1.12.64,1.35,1.35,0,0,1-1.46-1.47,1.53,1.53,0,0,1,.53-1.22,2.15,2.15,0,0,1,1.43-.46h.61v-.53a.86.86,0,0,0-.21-.65.87.87,0,0,0-.61-.19.85.85,0,0,0-.6.22.75.75,0,0,0-.24.57h-.82a1.33,1.33,0,0,1,.22-.74,1.57,1.57,0,0,1,.62-.55,1.79,1.79,0,0,1,.86-.2,1.63,1.63,0,0,1,1.18.38,1.52,1.52,0,0,1,.42,1.12v2.54a2.82,2.82,0,0,0,.16,1v.07Zm-1.11-.65a1.09,1.09,0,0,0,.58-.17,1,1,0,0,0,.41-.42v-1.2h-.47a1.6,1.6,0,0,0-.93.26.83.83,0,0,0-.34.71.92.92,0,0,0,.17.62A.75.75,0,0,0,153.66,175.62Z"/><path class="cls-6" d="M156.58,173.53a3.09,3.09,0,0,1,.43-1.78,1.46,1.46,0,0,1,1.26-.6,1.29,1.29,0,0,1,1.17.65l0-.56h.75v5.08a2,2,0,0,1-.48,1.44,1.79,1.79,0,0,1-1.34.5,2.39,2.39,0,0,1-.84-.19,1.77,1.77,0,0,1-.7-.45l.34-.57a1.56,1.56,0,0,0,1.13.5c.69,0,1-.37,1.06-1.12v-.65a1.29,1.29,0,0,1-1.14.59,1.44,1.44,0,0,1-1.22-.59,3,3,0,0,1-.46-1.69Zm.83.47a2.37,2.37,0,0,0,.25,1.24.91.91,0,0,0,.82.4,1,1,0,0,0,.92-.63v-2.52a1,1,0,0,0-.91-.61.89.89,0,0,0-.82.39,2.33,2.33,0,0,0-.26,1.22Z"/><path class="cls-6" d="M163.27,176.37a1.85,1.85,0,0,1-1.45-.56,2.4,2.4,0,0,1-.51-1.65v-.61a2.79,2.79,0,0,1,.49-1.76,1.62,1.62,0,0,1,1.37-.64,1.57,1.57,0,0,1,1.33.56,2.91,2.91,0,0,1,.45,1.75V174h-2.82v.12a1.88,1.88,0,0,0,.3,1.18,1.1,1.1,0,0,0,.88.36,1.48,1.48,0,0,0,.65-.13,1.72,1.72,0,0,0,.52-.44l.43.52A1.87,1.87,0,0,1,163.27,176.37Zm-.1-4.52a.88.88,0,0,0-.76.35,2.14,2.14,0,0,0-.28,1.1h2v-.12a1.9,1.9,0,0,0-.26-1A.81.81,0,0,0,163.17,171.85Z"/><circle class="cls-13" cx="149.16" cy="100.58" r="4.51"/><path class="cls-2" d="M149.16,96.77a3.81,3.81,0,1,1-3.81,3.81,3.82,3.82,0,0,1,3.81-3.81m0-1.41a5.22,5.22,0,1,0,5.21,5.22,5.22,5.22,0,0,0-5.21-5.22Z"/><path class="cls-6" d="M175.46,176.27V169.5h1.62a2.37,2.37,0,0,1,1.85.74,3,3,0,0,1,.66,2.09v1.13a3,3,0,0,1-.67,2.08,2.49,2.49,0,0,1-1.94.73Zm.85-6v5.31H177a1.61,1.61,0,0,0,1.32-.51,2.43,2.43,0,0,0,.42-1.53v-1.2a2.48,2.48,0,0,0-.41-1.57,1.54,1.54,0,0,0-1.25-.5Z"/><path class="cls-6" d="M182.61,176.37a1.87,1.87,0,0,1-1.45-.56,2.4,2.4,0,0,1-.51-1.65v-.61a2.79,2.79,0,0,1,.49-1.76,1.64,1.64,0,0,1,1.38-.64,1.55,1.55,0,0,1,1.32.56,2.91,2.91,0,0,1,.45,1.75V174h-2.82v.12a1.81,1.81,0,0,0,.31,1.18,1.07,1.07,0,0,0,.87.36,1.48,1.48,0,0,0,.65-.13,1.61,1.61,0,0,0,.52-.44l.43.52A1.87,1.87,0,0,1,182.61,176.37Zm-.09-4.52a.89.89,0,0,0-.77.35,2.14,2.14,0,0,0-.28,1.1h2v-.12a1.82,1.82,0,0,0-.26-1A.81.81,0,0,0,182.52,171.85Z"/><path class="cls-6" d="M188.93,174a3,3,0,0,1-.43,1.78,1.44,1.44,0,0,1-1.22.59,1.33,1.33,0,0,1-1.17-.58v2.42h-.83v-7H186l0,.56a1.33,1.33,0,0,1,1.19-.65,1.45,1.45,0,0,1,1.25.57,3.1,3.1,0,0,1,.42,1.73Zm-.82-.47a2.38,2.38,0,0,0-.26-1.25.93.93,0,0,0-.84-.4,1,1,0,0,0-.9.59v2.62a1,1,0,0,0,.91.57.91.91,0,0,0,.82-.4,2.24,2.24,0,0,0,.27-1.23Z"/><path class="cls-6" d="M190.89,176.27h-.83v-7.14h.83Z"/><path class="cls-6" d="M192,173.52a2.58,2.58,0,0,1,.54-1.73,1.89,1.89,0,0,1,2.82,0,2.57,2.57,0,0,1,.55,1.7V174a2.59,2.59,0,0,1-.53,1.73,1.77,1.77,0,0,1-1.42.64,1.79,1.79,0,0,1-1.41-.62,2.62,2.62,0,0,1-.55-1.68Zm.83.48a2.08,2.08,0,0,0,.31,1.22.92.92,0,0,0,.82.44c.73,0,1.1-.52,1.13-1.57v-.57a2.18,2.18,0,0,0-.31-1.22,1,1,0,0,0-.83-.45.93.93,0,0,0-.81.45,2.1,2.1,0,0,0-.31,1.22Z"/><path class="cls-6" d="M198.3,174.91l.92-3.67h.88L198.44,177a2.21,2.21,0,0,1-.52,1,1.11,1.11,0,0,1-.78.34,1.73,1.73,0,0,1-.43-.08v-.7l.18,0a.84.84,0,0,0,.57-.17,1.3,1.3,0,0,0,.33-.58l.16-.57-1.49-5h.91Z"/><path class="cls-13" d="M187.5,105.08a4.5,4.5,0,1,1,4.51-4.5A4.51,4.51,0,0,1,187.5,105.08Z"/><path class="cls-2" d="M187.51,96.78a3.8,3.8,0,1,1-3.81,3.8,3.8,3.8,0,0,1,3.81-3.8m0-1.41a5.21,5.21,0,1,0,5.2,5.21,5.21,5.21,0,0,0-5.2-5.21Z"/><rect class="cls-2" x="334.1" y="97.08" width="3.24" height="6.7"/><use width="22.76" height="22.68" transform="translate(50.96 89.36)" xlink:href="#logo_git"/></svg>