<svg id="svg8" xmlns="http://www.w3.org/2000/svg" xmlns:xlink="http://www.w3.org/1999/xlink" viewBox="0 0 510.72 252.16"><defs><style>.cls-1{fill:#37b1d9;}.cls-2{fill:#fff;}.cls-3{fill:#8dbf55;}.cls-4{fill:#f05133;}.cls-10,.cls-11,.cls-12,.cls-13,.cls-14,.cls-5,.cls-7{fill:none;}.cls-12,.cls-5{stroke:#949393;}.cls-14,.cls-5{stroke-miterlimit:10;}.cls-10,.cls-11,.cls-12,.cls-13,.cls-5{stroke-width:1.5px;}.cls-6{fill:#949393;}.cls-7{stroke:#6c757e;stroke-width:1.31px;}.cls-10,.cls-11,.cls-12,.cls-13,.cls-7{stroke-linecap:round;stroke-linejoin:round;}.cls-8{fill:#444b51;}.cls-9{fill:#6c757e;}.cls-10{stroke:#444b51;}.cls-10,.cls-11,.cls-12,.cls-13{stroke-dasharray:0 5;}.cls-11{stroke:#f05133;}.cls-13{stroke:#8dbf55;}.cls-14{stroke:#333;stroke-width:1.2px;stroke-dasharray:3.61 3.61;}</style><symbol id="rechner" data-name="rechner" viewBox="0 0 42.37 51.94"><rect class="cls-1" x="8.47" y="2.82" width="8.47" height="1.41"/><rect class="cls-1" x="8.47" y="5.65" width="8.47" height="1.41"/><rect class="cls-1" x="18.36" y="2.82" width="1.41" height="1.41"/><rect class="cls-1" x="21.18" y="2.82" width="1.41" height="1.41"/><rect class="cls-1" x="24.01" y="2.82" width="1.41" height="1.41"/><rect class="cls-1" x="18.36" y="5.65" width="1.41" height="1.41"/><rect class="cls-1" x="21.18" y="5.65" width="1.41" height="1.41"/><rect class="cls-1" x="24.01" y="5.65" width="1.41" height="1.41"/><path class="cls-1" d="M31.07,2.82a2.12,2.12,0,1,0,2.12,2.12A2.12,2.12,0,0,0,31.07,2.82Zm0,2.83a.71.71,0,0,1-.71-.71.71.71,0,0,1,1.42,0A.71.71,0,0,1,31.07,5.65Z"/><path class="cls-1" d="M29,26.83a2.12,2.12,0,0,0,0,4.24V29.66a.71.71,0,0,1,0-1.42.71.71,0,0,1,.71.71h1.41A2.12,2.12,0,0,0,29,26.83Z"/><rect class="cls-1" x="8.47" y="14.83" width="8.47" height="1.41"/><rect class="cls-1" x="8.47" y="17.65" width="8.47" height="1.41"/><rect class="cls-1" x="18.36" y="14.83" width="1.41" height="1.41"/><rect class="cls-1" x="21.18" y="14.83" width="1.41" height="1.41"/><rect class="cls-1" x="24.01" y="14.83" width="1.41" height="1.41"/><rect class="cls-1" x="18.36" y="17.65" width="1.41" height="1.41"/><rect class="cls-1" x="21.18" y="17.65" width="1.41" height="1.41"/><rect class="cls-1" x="24.01" y="17.65" width="1.41" height="1.41"/><circle class="cls-1" cx="27.54" cy="16.95" r="0.71"/><circle class="cls-1" cx="33.19" cy="16.95" r="0.71"/><circle class="cls-1" cx="30.36" cy="16.95" r="0.71"/><rect class="cls-1" x="8.47" y="26.83" width="8.47" height="1.41"/><rect class="cls-1" x="8.47" y="29.66" width="8.47" height="1.41"/><rect class="cls-1" x="18.36" y="26.83" width="1.41" height="1.41"/><rect class="cls-1" x="21.18" y="29.66" width="1.41" height="1.41"/><rect class="cls-1" x="24.01" y="26.83" width="1.41" height="1.41"/><circle class="cls-1" cx="21.89" cy="27.54" r="0.71"/><circle class="cls-1" cx="24.71" cy="30.36" r="0.71"/><circle class="cls-1" cx="33.19" cy="28.95" r="0.71"/><circle class="cls-1" cx="19.07" cy="30.36" r="0.71"/><path class="cls-1" d="M21.89,45.31V33.89H36a.7.7,0,0,0,.71-.7V24.71A.7.7,0,0,0,36,24H6.36a.7.7,0,0,0-.71.7v3.53H4.11A2.19,2.19,0,0,0,2.83,27V17.65H5.65v3.53a.71.71,0,0,0,.71.71H36a.71.71,0,0,0,.71-.71V17.65h3.53A.7.7,0,0,0,41,17V12.58a2.11,2.11,0,0,0,0-4V4.94a.7.7,0,0,0-.71-.7H36.72V.71A.71.71,0,0,0,36,0H6.36a.71.71,0,0,0-.71.71V9.18a.71.71,0,0,0,.71.71H36a.71.71,0,0,0,.71-.71V5.65h2.82V8.6a2.11,2.11,0,0,0,0,4v3.66H36.72V12.71A.71.71,0,0,0,36,12H6.36a.71.71,0,0,0-.71.71v3.53H2.12a.71.71,0,0,0-.71.71V27a2.11,2.11,0,1,0,2.7,2.7H5.65v3.53a.7.7,0,0,0,.71.7H20.48V45.31M35.31,8.47H7.06V1.41H35.31Zm4.94,1.42a.7.7,0,0,1,.71.7.71.71,0,0,1-1.42,0A.7.7,0,0,1,40.25,9.89ZM7.06,13.42H35.31v7.06H7.06ZM2.12,29.66A.71.71,0,1,1,2.83,29,.71.71,0,0,1,2.12,29.66Zm4.94,2.82V25.42H35.31v7.06Z"/><path class="cls-1" d="M21.19,51.24a4.52,4.52,0,1,1,4.51-4.52A4.53,4.53,0,0,1,21.19,51.24Z"/><path class="cls-2" d="M21.19,42.91a3.81,3.81,0,1,1-3.81,3.81,3.82,3.82,0,0,1,3.81-3.81m0-1.4a5.22,5.22,0,1,0,5.21,5.21,5.22,5.22,0,0,0-5.21-5.21Z"/></symbol><symbol id="hotfix" data-name="hotfix" viewBox="0 0 10.5 10.5"><g id="circle58-4" data-name="circle58"><path class="cls-4" d="M5.25,9.73A4.48,4.48,0,1,1,9.73,5.25,4.49,4.49,0,0,1,5.25,9.73Z"/><path class="cls-2" d="M5.25,1.54A3.71,3.71,0,1,1,1.54,5.25,3.71,3.71,0,0,1,5.25,1.54M5.25,0A5.25,5.25,0,1,0,10.5,5.25,5.26,5.26,0,0,0,5.25,0Z"/></g></symbol><symbol id="feature" data-name="feature" viewBox="0 0 10.5 10.5"><g id="circle58-5" data-name="circle58"><path class="cls-3" d="M5.25,9.73A4.48,4.48,0,1,1,9.73,5.25,4.49,4.49,0,0,1,5.25,9.73Z"/><path class="cls-2" d="M5.25,1.54A3.71,3.71,0,1,1,1.54,5.25,3.71,3.71,0,0,1,5.25,1.54M5.25,0A5.25,5.25,0,1,0,10.5,5.25,5.26,5.26,0,0,0,5.25,0Z"/></g></symbol><symbol id="develop" data-name="develop" viewBox="0 0 10.5 10.5"><g id="circle58-11" data-name="circle58"><circle class="cls-1" cx="5.25" cy="5.25" r="4.48"/><path class="cls-2" d="M5.25,1.54A3.71,3.71,0,1,1,1.54,5.25,3.71,3.71,0,0,1,5.25,1.54M5.25,0A5.25,5.25,0,1,0,10.5,5.25,5.26,5.26,0,0,0,5.25,0Z"/></g></symbol></defs><title>git-flow</title><line class="cls-5" x1="49.33" y1="156.53" x2="472.92" y2="156.53"/><path class="cls-1" d="M341.48,161a4.51,4.51,0,1,1,4.52-4.51A4.52,4.52,0,0,1,341.48,161Z"/><path class="cls-2" d="M341.48,152.72a3.81,3.81,0,1,1-3.81,3.81,3.8,3.8,0,0,1,3.81-3.81m0-1.41a5.22,5.22,0,1,0,5.22,5.22,5.22,5.22,0,0,0-5.22-5.22Z"/><path class="cls-6" d="M332.73,232.22v-6.77h1.94a2,2,0,0,1,1.4.45,1.8,1.8,0,0,1,.47,1.35,1.48,1.48,0,0,1-.24.84,1.58,1.58,0,0,1-.64.56,1.33,1.33,0,0,1,.74.58,1.92,1.92,0,0,1,.27,1,2,2,0,0,1-.5,1.43,1.89,1.89,0,0,1-1.43.52Zm.86-3.88h1.1a.91.91,0,0,0,.71-.3,1.09,1.09,0,0,0,.28-.79,1.16,1.16,0,0,0-.25-.82,1,1,0,0,0-.76-.25h-1.08Zm0,.72v2.43h1.17a1,1,0,0,0,.77-.32,1.28,1.28,0,0,0,.28-.89c0-.82-.34-1.22-1-1.22Z"/><path class="cls-6" d="M340.41,231.78a1.41,1.41,0,0,1-1.2.54,1.18,1.18,0,0,1-1-.48,2.22,2.22,0,0,1-.36-1.37v-3.28h.82v3.22c0,.78.24,1.18.71,1.18a1,1,0,0,0,1-.67v-3.73h.83v5h-.79Z"/><path class="cls-6" d="M343.41,225.85a.51.51,0,0,1-.11.35.43.43,0,0,1-.36.14.42.42,0,0,1-.35-.14.51.51,0,0,1-.11-.35.52.52,0,0,1,.11-.35.42.42,0,0,1,.35-.14.43.43,0,0,1,.36.14A.54.54,0,0,1,343.41,225.85Zm-.06,6.37h-.83v-5h.83Z"/><path class="cls-6" d="M345.54,232.22h-.83v-7.14h.83Z"/><path class="cls-6" d="M346.67,229.48a3,3,0,0,1,.43-1.77,1.44,1.44,0,0,1,1.26-.61,1.3,1.3,0,0,1,1.13.58v-2.6h.82v7.14h-.75l-.05-.54a1.29,1.29,0,0,1-1.16.64,1.46,1.46,0,0,1-1.23-.61,2.84,2.84,0,0,1-.45-1.72Zm.82.47a2.48,2.48,0,0,0,.25,1.24.93.93,0,0,0,.83.4,1,1,0,0,0,.92-.62v-2.54a1,1,0,0,0-.92-.6.9.9,0,0,0-.82.39,2.33,2.33,0,0,0-.26,1.22Z"/><path class="cls-6" d="M365.26,229.57v2.65h-.86v-6.77h2.17a2,2,0,0,1,1.49.56,2.1,2.1,0,0,1,.54,1.51,2,2,0,0,1-.52,1.5,2,2,0,0,1-1.45.55Zm0-.73h1.31a1.09,1.09,0,0,0,.87-.34,1.43,1.43,0,0,0,.3-1,1.44,1.44,0,0,0-.31-1,1.05,1.05,0,0,0-.86-.37h-1.31Z"/><path class="cls-6" d="M372.13,232.22a1.73,1.73,0,0,1-.1-.55,1.33,1.33,0,0,1-1.12.65,1.34,1.34,0,0,1-1.46-1.47,1.52,1.52,0,0,1,.52-1.22,2.2,2.2,0,0,1,1.44-.46h.6v-.53a.84.84,0,0,0-.2-.65,1,1,0,0,0-1.22,0,.77.77,0,0,0-.23.56h-.83a1.34,1.34,0,0,1,.23-.73,1.5,1.5,0,0,1,.62-.55,1.79,1.79,0,0,1,.86-.2,1.63,1.63,0,0,1,1.18.38,1.51,1.51,0,0,1,.42,1.12v2.54a3.07,3.07,0,0,0,.15,1v.07Zm-1.1-.65a1.12,1.12,0,0,0,.58-.17,1,1,0,0,0,.4-.42v-1.2h-.46a1.56,1.56,0,0,0-.93.26.83.83,0,0,0-.34.71.87.87,0,0,0,.17.62A.74.74,0,0,0,371,231.57Z"/><path class="cls-6" d="M375.87,231.61a.89.89,0,0,0,.66-.25,1.12,1.12,0,0,0,.27-.72h.78a1.7,1.7,0,0,1-.52,1.2,1.62,1.62,0,0,1-1.19.48,1.76,1.76,0,0,1-1.43-.59A2.67,2.67,0,0,1,374,230v-.56a2.62,2.62,0,0,1,.49-1.73,1.72,1.72,0,0,1,1.43-.59,1.63,1.63,0,0,1,1.23.48,2,2,0,0,1,.48,1.34h-.78a1.4,1.4,0,0,0-.27-.84.84.84,0,0,0-.66-.28,1,1,0,0,0-.82.36,2.1,2.1,0,0,0-.28,1.19V230a2.22,2.22,0,0,0,.27,1.26A1,1,0,0,0,375.87,231.61Z"/><path class="cls-6" d="M379.8,229.92l-.44.5v1.8h-.82v-7.14h.82v4.27l1.58-2.16h1l-1.61,2.1,1.82,2.93h-1Z"/><path class="cls-6" d="M385.44,232.22a1.73,1.73,0,0,1-.1-.55,1.33,1.33,0,0,1-1.12.65,1.34,1.34,0,0,1-1.46-1.47,1.52,1.52,0,0,1,.52-1.22,2.2,2.2,0,0,1,1.44-.46h.6v-.53a.84.84,0,0,0-.2-.65,1,1,0,0,0-1.22,0,.77.77,0,0,0-.23.56h-.83a1.34,1.34,0,0,1,.23-.73,1.5,1.5,0,0,1,.62-.55,1.76,1.76,0,0,1,.86-.2,1.63,1.63,0,0,1,1.18.38,1.47,1.47,0,0,1,.41,1.12v2.54a3.34,3.34,0,0,0,.16,1v.07Zm-1.1-.65a1.12,1.12,0,0,0,.58-.17,1,1,0,0,0,.4-.42v-1.2h-.46a1.56,1.56,0,0,0-.93.26.83.83,0,0,0-.34.71.87.87,0,0,0,.17.62A.74.74,0,0,0,384.34,231.57Z"/><path class="cls-6" d="M387.26,229.48a3,3,0,0,1,.43-1.78,1.46,1.46,0,0,1,1.26-.6,1.29,1.29,0,0,1,1.17.65l0-.56h.75v5.08a2,2,0,0,1-.48,1.44,1.79,1.79,0,0,1-1.34.5,2.19,2.19,0,0,1-.84-.19,1.77,1.77,0,0,1-.7-.45l.34-.57a1.56,1.56,0,0,0,1.13.5c.69,0,1-.37,1.06-1.12v-.65a1.31,1.31,0,0,1-1.14.59,1.44,1.44,0,0,1-1.22-.59,2.88,2.88,0,0,1-.46-1.69Zm.83.47a2.37,2.37,0,0,0,.25,1.24.9.9,0,0,0,.82.4,1,1,0,0,0,.92-.63v-2.52a1,1,0,0,0-.91-.61.92.92,0,0,0-.83.39,2.44,2.44,0,0,0-.25,1.22Z"/><path class="cls-6" d="M393.94,232.32a1.83,1.83,0,0,1-1.44-.56,2.45,2.45,0,0,1-.52-1.65v-.61a2.91,2.91,0,0,1,.49-1.77,1.66,1.66,0,0,1,1.38-.63,1.58,1.58,0,0,1,1.33.56,2.91,2.91,0,0,1,.45,1.75V230H392.8v.12a1.87,1.87,0,0,0,.31,1.18,1.09,1.09,0,0,0,.88.36,1.44,1.44,0,0,0,.64-.13,1.51,1.51,0,0,0,.52-.44l.43.52A1.89,1.89,0,0,1,393.94,232.32Zm-.09-4.52a.87.87,0,0,0-.76.35,2,2,0,0,0-.28,1.09h2v-.11a1.9,1.9,0,0,0-.26-1A.79.79,0,0,0,393.85,227.8Z"/><path class="cls-1" d="M379.83,161a4.51,4.51,0,1,1,4.52-4.51A4.52,4.52,0,0,1,379.83,161Z"/><path class="cls-2" d="M379.83,152.72a3.81,3.81,0,1,1-3.81,3.81,3.8,3.8,0,0,1,3.81-3.81m0-1.41a5.22,5.22,0,1,0,5.22,5.22,5.22,5.22,0,0,0-5.22-5.22Z"/><path class="cls-6" d="M406.14,232.22v-6.77h1.62a2.37,2.37,0,0,1,1.85.74,3.09,3.09,0,0,1,.65,2.09v1.13a3,3,0,0,1-.66,2.08,2.49,2.49,0,0,1-1.94.73Zm.85-6v5.31h.69A1.58,1.58,0,0,0,409,231a2.43,2.43,0,0,0,.43-1.53v-1.2a2.48,2.48,0,0,0-.41-1.57,1.56,1.56,0,0,0-1.25-.5Z"/><path class="cls-6" d="M413.29,232.32a1.85,1.85,0,0,1-1.45-.56,2.45,2.45,0,0,1-.52-1.65v-.61a2.84,2.84,0,0,1,.5-1.77,1.64,1.64,0,0,1,1.37-.63,1.57,1.57,0,0,1,1.33.56,2.91,2.91,0,0,1,.45,1.75V230h-2.82v.12a1.88,1.88,0,0,0,.3,1.18,1.1,1.1,0,0,0,.88.36,1.41,1.41,0,0,0,.64-.13,1.64,1.64,0,0,0,.53-.44l.43.52A1.9,1.9,0,0,1,413.29,232.32Zm-.1-4.52a.88.88,0,0,0-.76.35,2.13,2.13,0,0,0-.28,1.09h2v-.11a1.9,1.9,0,0,0-.26-1A.79.79,0,0,0,413.19,227.8Z"/><path class="cls-6" d="M419.61,230a3,3,0,0,1-.43,1.78,1.44,1.44,0,0,1-1.22.59,1.36,1.36,0,0,1-1.18-.58v2.42H416v-7h.75l0,.56a1.33,1.33,0,0,1,1.19-.65,1.41,1.41,0,0,1,1.24.57,3,3,0,0,1,.43,1.73Zm-.82-.47a2.38,2.38,0,0,0-.26-1.25.94.94,0,0,0-.85-.4,1,1,0,0,0-.9.59V231a1,1,0,0,0,.91.57.92.92,0,0,0,.83-.4,2.44,2.44,0,0,0,.27-1.23Z"/><path class="cls-6" d="M421.57,232.22h-.83v-7.14h.83Z"/><path class="cls-6" d="M422.69,229.47a2.62,2.62,0,0,1,.54-1.74,1.74,1.74,0,0,1,1.41-.63,1.76,1.76,0,0,1,1.41.62,2.57,2.57,0,0,1,.55,1.7V230a2.65,2.65,0,0,1-.53,1.73,1.78,1.78,0,0,1-1.42.64,1.76,1.76,0,0,1-1.41-.62,2.57,2.57,0,0,1-.55-1.68Zm.83.48a2.16,2.16,0,0,0,.3,1.22,1,1,0,0,0,.83.44c.73,0,1.1-.52,1.12-1.57v-.57a2.18,2.18,0,0,0-.3-1.22,1,1,0,0,0-.83-.45,1,1,0,0,0-.82.45,2.18,2.18,0,0,0-.3,1.22Z"/><path class="cls-6" d="M429,230.86l.92-3.67h.88l-1.66,5.75a2.12,2.12,0,0,1-.53,1,1,1,0,0,1-.77.34,1.65,1.65,0,0,1-.43-.08v-.7l.18,0a.8.8,0,0,0,.56-.17,1.13,1.13,0,0,0,.33-.59l.17-.56-1.49-5h.9Z"/><circle class="cls-1" cx="418.18" cy="156.53" r="4.5"/><path class="cls-2" d="M418.18,152.73a3.8,3.8,0,1,1-3.8,3.8,3.8,3.8,0,0,1,3.8-3.8m0-1.41a5.21,5.21,0,1,0,5.21,5.21,5.21,5.21,0,0,0-5.21-5.21Z"/><path class="cls-6" d="M448.93,232.22h-.85v-6.77h.85Z"/><path class="cls-6" d="M451.09,227.19l0,.54a1.48,1.48,0,0,1,1.23-.63c.89,0,1.34.59,1.35,1.78v3.34h-.82v-3.31a1.33,1.33,0,0,0-.2-.84.72.72,0,0,0-.59-.24.85.85,0,0,0-.55.2,1.47,1.47,0,0,0-.4.54v3.65h-.83v-5Z"/><path class="cls-6" d="M455.31,232.22v-4.37h-.66v-.66h.66v-.58a1.82,1.82,0,0,1,.39-1.2,1.32,1.32,0,0,1,1.06-.43,1.49,1.49,0,0,1,.5.08l0,.69a1.58,1.58,0,0,0-.38,0c-.47,0-.71.33-.71,1v.48H457v.66h-.87v4.37Z"/><path class="cls-6" d="M460.06,228a2.25,2.25,0,0,0-.38,0,.89.89,0,0,0-.88.69v3.6H458v-5h.8l0,.51a1,1,0,0,1,.93-.6.81.81,0,0,1,.33.06Z"/><path class="cls-6" d="M463.29,232.22a2,2,0,0,1-.11-.55,1.31,1.31,0,0,1-1.12.65,1.34,1.34,0,0,1-1.45-1.47,1.52,1.52,0,0,1,.52-1.22,2.19,2.19,0,0,1,1.43-.46h.61v-.53a.85.85,0,0,0-1.42-.62.77.77,0,0,0-.23.56h-.83a1.34,1.34,0,0,1,.23-.73,1.5,1.5,0,0,1,.62-.55,1.73,1.73,0,0,1,.86-.2,1.63,1.63,0,0,1,1.18.38,1.47,1.47,0,0,1,.41,1.12v2.54a3.34,3.34,0,0,0,.16,1v.07Zm-1.1-.65a1.12,1.12,0,0,0,.58-.17,1,1,0,0,0,.4-.42v-1.2h-.47a1.6,1.6,0,0,0-.93.26,1,1,0,0,0-.16,1.33A.74.74,0,0,0,462.19,231.57Z"/><path class="cls-6" d="M467.73,230.93a.62.62,0,0,0-.2-.45,2.9,2.9,0,0,0-.78-.45,5,5,0,0,1-.94-.47,1.41,1.41,0,0,1-.41-.44,1.26,1.26,0,0,1-.13-.6,1.31,1.31,0,0,1,.45-1,1.65,1.65,0,0,1,1.15-.4,1.68,1.68,0,0,1,1.19.42,1.48,1.48,0,0,1,.44,1.1h-.82a.79.79,0,0,0-.23-.58.75.75,0,0,0-.58-.24.85.85,0,0,0-.57.19.64.64,0,0,0-.21.5.56.56,0,0,0,.15.41,2.66,2.66,0,0,0,.73.4,3.58,3.58,0,0,1,1.25.7,1.22,1.22,0,0,1,.34.87,1.33,1.33,0,0,1-.46,1,1.73,1.73,0,0,1-1.21.4,1.8,1.8,0,0,1-1.28-.45,1.51,1.51,0,0,1-.49-1.15H466a.9.9,0,0,0,.26.66.92.92,0,0,0,.68.23.94.94,0,0,0,.62-.18A.61.61,0,0,0,467.73,230.93Z"/><path class="cls-6" d="M470.71,226v1.22h.76v.66h-.76V231a.88.88,0,0,0,.1.45.37.37,0,0,0,.34.16,1,1,0,0,0,.33-.06v.7a1.9,1.9,0,0,1-.58.09.87.87,0,0,1-.74-.35,1.67,1.67,0,0,1-.26-1v-3.13h-.77v-.66h.77V226Z"/><path class="cls-6" d="M474.54,228a2.13,2.13,0,0,0-.37,0,.91.91,0,0,0-.89.69v3.6h-.83v-5h.81v.51a1,1,0,0,1,.94-.6.81.81,0,0,1,.33.06Z"/><path class="cls-6" d="M477.94,231.78a1.41,1.41,0,0,1-1.2.54,1.18,1.18,0,0,1-1-.48,2.22,2.22,0,0,1-.36-1.37v-3.28h.82v3.22c0,.78.24,1.18.71,1.18a1,1,0,0,0,1-.67v-3.73h.83v5H478Z"/><path class="cls-6" d="M481.74,231.61a.86.86,0,0,0,.66-.25,1,1,0,0,0,.27-.72h.78a1.74,1.74,0,0,1-.51,1.2,1.66,1.66,0,0,1-1.2.48,1.78,1.78,0,0,1-1.43-.59,2.67,2.67,0,0,1-.49-1.75v-.56a2.62,2.62,0,0,1,.49-1.73,1.73,1.73,0,0,1,1.43-.59,1.6,1.6,0,0,1,1.23.48,2,2,0,0,1,.48,1.34h-.78a1.4,1.4,0,0,0-.27-.84.84.84,0,0,0-.66-.28,1,1,0,0,0-.82.36,2,2,0,0,0-.27,1.19V230a2.23,2.23,0,0,0,.26,1.26A1,1,0,0,0,481.74,231.61Z"/><path class="cls-6" d="M485.49,226v1.22h.76v.66h-.76V231a.79.79,0,0,0,.1.45.34.34,0,0,0,.33.16,1.06,1.06,0,0,0,.34-.06v.7a1.9,1.9,0,0,1-.58.09.9.9,0,0,1-.75-.35,1.67,1.67,0,0,1-.25-1v-3.13h-.77v-.66h.77V226Z"/><path class="cls-6" d="M489.81,231.78a1.41,1.41,0,0,1-1.2.54,1.21,1.21,0,0,1-1-.48,2.29,2.29,0,0,1-.35-1.37v-3.28H488v3.22c0,.78.24,1.18.71,1.18a1,1,0,0,0,1-.67v-3.73h.82v5h-.78Z"/><path class="cls-6" d="M493.94,228a2.13,2.13,0,0,0-.37,0,.91.91,0,0,0-.89.69v3.6h-.83v-5h.81v.51a1,1,0,0,1,.94-.6.81.81,0,0,1,.33.06Z"/><path class="cls-6" d="M496.48,232.32a1.87,1.87,0,0,1-1.45-.56,2.5,2.5,0,0,1-.51-1.65v-.61a2.91,2.91,0,0,1,.49-1.77,1.66,1.66,0,0,1,1.38-.63,1.58,1.58,0,0,1,1.33.56,2.85,2.85,0,0,1,.44,1.75V230h-2.82v.12a1.87,1.87,0,0,0,.31,1.18,1.09,1.09,0,0,0,.88.36,1.44,1.44,0,0,0,.64-.13,1.51,1.51,0,0,0,.52-.44l.43.52A1.89,1.89,0,0,1,496.48,232.32Zm-.09-4.52a.87.87,0,0,0-.76.35,2,2,0,0,0-.28,1.09h2v-.11a1.9,1.9,0,0,0-.26-1A.79.79,0,0,0,496.39,227.8Z"/><use width="42.37" height="51.94" transform="translate(451.74 109.8)" xlink:href="#rechner"/><path id="path4" class="cls-5" d="M151.21,166.37a10.09,10.09,0,0,1,10.09-10.09"/><path id="path6" class="cls-5" d="M95.4,166.37a10.1,10.1,0,0,0-10.1-10.09M66,196.58h70.1"/><path id="path14" class="cls-5" d="M266.5,156.28H71.08"/><path id="path22" class="cls-5" d="M95.4,166.37a10.09,10.09,0,0,0,10.09,10.09h35.36M40,105.77A10.1,10.1,0,0,0,50,115.87h5.67"/><path id="path28" class="cls-5" d="M140.85,176.43h.3a10.09,10.09,0,0,0,10.09-10.09"/><path id="path48" class="cls-5" d="M40,105.91a10.1,10.1,0,0,0-10.1-10.1m51.65,10a10.1,10.1,0,0,1-10.09,10.1H55.68m25.82-10a10.1,10.1,0,0,1,10.1-10.1m10.06,60.47a10.1,10.1,0,0,1-10.1-10.1V125.93m0,0a10.09,10.09,0,0,0-10.09-10.09"/><path id="path52" class="cls-5" d="M223.5,95.81H25"/><path id="path64" class="cls-7" d="M19.16,84.7V78.93m2.69,3.64-2.69,2.69-2.65-2.69"/><path id="path70" class="cls-7" d="M115.62,84.7V78.93m2.68,3.64-2.68,2.69L113,82.57"/><path id="path76" class="cls-7" d="M223.5,84.7V78.93m2.69,3.64-2.69,2.69-2.65-2.69"/><path id="path120" class="cls-5" d="M40,105.77v40.44A10.1,10.1,0,0,0,50,156.31H81.4"/><path id="path128" class="cls-5" d="M187.94,146.21a10.1,10.1,0,0,1-10.09,10.1m65.87-10.1a10.1,10.1,0,0,0,10.1,10.1h7.53M198.3,136.12H198a10.1,10.1,0,0,0-10.1,10.09m55.81,0a10.09,10.09,0,0,0-10.09-10.09H198.3"/><path id="path134" class="cls-5" d="M60.86,161.45v30M66,115.84H81.5M223.5,131V101"/><path id="path108" class="cls-8" d="M12.18,17.36h40V33.74h-40Z"/><path class="cls-2" d="M20.83,21.56l1.77,5.53,1.78-5.53h1.1v6.77h-.86V25.69l.08-2.64-1.78,5.28h-.65L20.5,23.07l.08,2.62v2.64h-.85V21.56Z"/><path class="cls-2" d="M29.43,28.33a2.07,2.07,0,0,1-.1-.55,1.32,1.32,0,0,1-1.12.65A1.34,1.34,0,0,1,26.75,27a1.52,1.52,0,0,1,.52-1.22,2.2,2.2,0,0,1,1.44-.46h.6v-.53a.84.84,0,0,0-.2-.65,1,1,0,0,0-1.22,0,.77.77,0,0,0-.23.56h-.83a1.34,1.34,0,0,1,.23-.73,1.57,1.57,0,0,1,.62-.55,1.79,1.79,0,0,1,.86-.2,1.63,1.63,0,0,1,1.18.38,1.52,1.52,0,0,1,.42,1.12v2.54a3.07,3.07,0,0,0,.15,1v.07Zm-1.1-.65a1.09,1.09,0,0,0,.58-.17,1,1,0,0,0,.4-.42v-1.2h-.46a1.56,1.56,0,0,0-.93.26.83.83,0,0,0-.34.71.87.87,0,0,0,.17.62A.74.74,0,0,0,28.33,27.68Z"/><path class="cls-2" d="M33.87,27a.62.62,0,0,0-.2-.45,2.8,2.8,0,0,0-.77-.45,5.15,5.15,0,0,1-.95-.47,1.37,1.37,0,0,1-.4-.44,1.27,1.27,0,0,1-.14-.6,1.31,1.31,0,0,1,.45-1,1.66,1.66,0,0,1,1.15-.4,1.68,1.68,0,0,1,1.19.42,1.45,1.45,0,0,1,.45,1.1h-.82a.83.83,0,0,0-.23-.58.79.79,0,0,0-.59-.24.85.85,0,0,0-.57.19.64.64,0,0,0-.21.5.56.56,0,0,0,.15.41,3.11,3.11,0,0,0,.74.4,3.68,3.68,0,0,1,1.25.7,1.21,1.21,0,0,1,.33.87A1.32,1.32,0,0,1,34.25,28a1.78,1.78,0,0,1-1.22.4A1.82,1.82,0,0,1,31.75,28a1.51,1.51,0,0,1-.49-1.15h.83a1,1,0,0,0,.26.66.92.92,0,0,0,.68.23,1,1,0,0,0,.63-.18A.63.63,0,0,0,33.87,27Z"/><path class="cls-2" d="M36.86,22.08V23.3h.76V24h-.76v3.13a.89.89,0,0,0,.09.45.37.37,0,0,0,.34.16,1,1,0,0,0,.33-.06v.69a1.59,1.59,0,0,1-.57.1.88.88,0,0,1-.75-.35,1.64,1.64,0,0,1-.26-1V24h-.77V23.3H36V22.08Z"/><path class="cls-2" d="M40.41,28.43A1.85,1.85,0,0,1,39,27.87a2.45,2.45,0,0,1-.52-1.65v-.61a2.79,2.79,0,0,1,.5-1.76,1.62,1.62,0,0,1,1.37-.64,1.57,1.57,0,0,1,1.33.56,2.91,2.91,0,0,1,.45,1.75v.54H39.27v.12a1.88,1.88,0,0,0,.3,1.18,1.1,1.1,0,0,0,.88.36,1.41,1.41,0,0,0,.64-.13,1.64,1.64,0,0,0,.53-.44l.42.52A1.84,1.84,0,0,1,40.41,28.43Zm-.1-4.52a.88.88,0,0,0-.76.35,2.13,2.13,0,0,0-.28,1.09h2v-.11a1.9,1.9,0,0,0-.26-1A.81.81,0,0,0,40.31,23.91Z"/><path class="cls-2" d="M45.16,24.07a2.13,2.13,0,0,0-.37,0,.91.91,0,0,0-.89.69v3.6h-.82v-5h.8v.51a1,1,0,0,1,.94-.6.81.81,0,0,1,.33.06Z"/><path id="path108-2" data-name="path108" class="cls-4" d="M132.91,17.36h40V33.74h-40Z"/><path class="cls-2" d="M146.6,28.33h-.86V25.2H143v3.13h-.86V21.56H143v2.91h2.73V21.56h.86Z"/><path class="cls-2" d="M147.8,25.58a2.58,2.58,0,0,1,.53-1.73,1.75,1.75,0,0,1,1.41-.64,1.77,1.77,0,0,1,1.42.62,2.6,2.6,0,0,1,.54,1.7v.53a2.59,2.59,0,0,1-.53,1.73,1.77,1.77,0,0,1-1.42.64,1.79,1.79,0,0,1-1.41-.62,2.56,2.56,0,0,1-.54-1.68Zm.82.48a2.08,2.08,0,0,0,.31,1.22.94.94,0,0,0,.82.44c.73,0,1.11-.52,1.13-1.57v-.57a2.18,2.18,0,0,0-.31-1.22,1,1,0,0,0-.83-.45.93.93,0,0,0-.81.45,2.1,2.1,0,0,0-.31,1.22Z"/><path class="cls-2" d="M153.85,22.08V23.3h.76V24h-.76v3.13a.79.79,0,0,0,.1.45.37.37,0,0,0,.34.16,1,1,0,0,0,.33-.06v.69a1.65,1.65,0,0,1-.58.1.87.87,0,0,1-.74-.35,1.64,1.64,0,0,1-.26-1V24h-.77V23.3H153V22.08Z"/><path class="cls-2" d="M156,28.33V24h-.66V23.3H156v-.58a1.82,1.82,0,0,1,.39-1.2,1.32,1.32,0,0,1,1.06-.43,1.45,1.45,0,0,1,.5.08l0,.69a1.58,1.58,0,0,0-.38,0c-.47,0-.7.33-.7,1v.48h.86V24h-.86v4.37Z"/><path class="cls-2" d="M159.58,22a.51.51,0,0,1-.12.35.45.45,0,0,1-.35.14.42.42,0,0,1-.35-.14.51.51,0,0,1-.12-.35.53.53,0,0,1,.12-.35.4.4,0,0,1,.35-.14.42.42,0,0,1,.35.14A.55.55,0,0,1,159.58,22Zm-.07,6.37h-.82v-5h.82Z"/><path class="cls-2" d="M162.27,25.14l.87-1.84h1l-1.37,2.49,1.41,2.54h-.95l-.89-1.88-.9,1.88h-.95l1.4-2.54-1.37-2.49h.95Z"/><path id="path108-3" data-name="path108" class="cls-1" d="M193.27,17.36h40V33.74h-40Z"/><path class="cls-2" d="M199,28.33V21.56h1.62a2.37,2.37,0,0,1,1.85.74,3.09,3.09,0,0,1,.65,2.09v1.13a3,3,0,0,1-.66,2.08,2.5,2.5,0,0,1-1.94.73Zm.85-6V27.6h.69a1.58,1.58,0,0,0,1.31-.51,2.43,2.43,0,0,0,.43-1.53v-1.2a2.48,2.48,0,0,0-.41-1.57,1.56,1.56,0,0,0-1.25-.5Z"/><path class="cls-2" d="M206.11,28.43a1.85,1.85,0,0,1-1.45-.56,2.45,2.45,0,0,1-.52-1.65v-.61a2.79,2.79,0,0,1,.5-1.76,1.62,1.62,0,0,1,1.37-.64,1.57,1.57,0,0,1,1.33.56,2.91,2.91,0,0,1,.45,1.75v.54H205v.12a1.88,1.88,0,0,0,.3,1.18,1.1,1.1,0,0,0,.88.36,1.44,1.44,0,0,0,.64-.13,1.51,1.51,0,0,0,.52-.44l.43.52A1.84,1.84,0,0,1,206.11,28.43Zm-.1-4.52a.88.88,0,0,0-.76.35,2.13,2.13,0,0,0-.28,1.09h2v-.11a1.9,1.9,0,0,0-.26-1A.81.81,0,0,0,206,23.91Z"/><path class="cls-2" d="M210.15,27.08l1-3.78H212l-1.5,5h-.62l-1.52-5h.85Z"/><path class="cls-2" d="M214.55,28.43a1.83,1.83,0,0,1-1.44-.56,2.45,2.45,0,0,1-.52-1.65v-.61a2.85,2.85,0,0,1,.49-1.76,1.64,1.64,0,0,1,1.38-.64,1.58,1.58,0,0,1,1.33.56,2.85,2.85,0,0,1,.44,1.75v.54h-2.82v.12a1.87,1.87,0,0,0,.31,1.18,1.09,1.09,0,0,0,.88.36,1.44,1.44,0,0,0,.64-.13,1.51,1.51,0,0,0,.52-.44l.43.52A1.86,1.86,0,0,1,214.55,28.43Zm-.09-4.52a.87.87,0,0,0-.76.35,2,2,0,0,0-.28,1.09h2v-.11a1.9,1.9,0,0,0-.26-1A.81.81,0,0,0,214.46,23.91Z"/><path class="cls-2" d="M218.12,28.33h-.83V21.19h.83Z"/><path class="cls-2" d="M219.24,25.58a2.58,2.58,0,0,1,.54-1.73,1.89,1.89,0,0,1,2.82,0,2.55,2.55,0,0,1,.55,1.7v.53a2.65,2.65,0,0,1-.53,1.73,1.78,1.78,0,0,1-1.42.64,1.76,1.76,0,0,1-1.41-.62,2.62,2.62,0,0,1-.55-1.68Zm.83.48a2.08,2.08,0,0,0,.31,1.22.92.92,0,0,0,.82.44c.73,0,1.1-.52,1.13-1.57v-.57a2.18,2.18,0,0,0-.31-1.22,1,1,0,0,0-.83-.45.93.93,0,0,0-.81.45,2.1,2.1,0,0,0-.31,1.22Z"/><path class="cls-2" d="M227.87,26.06a3.07,3.07,0,0,1-.43,1.78,1.44,1.44,0,0,1-1.22.59,1.36,1.36,0,0,1-1.18-.58v2.42h-.82v-7H225l0,.56a1.32,1.32,0,0,1,1.19-.65,1.41,1.41,0,0,1,1.24.57,3,3,0,0,1,.43,1.73Zm-.82-.47a2.38,2.38,0,0,0-.26-1.25.94.94,0,0,0-.85-.4,1,1,0,0,0-.9.59v2.62a1,1,0,0,0,.91.57.92.92,0,0,0,.83-.4,2.44,2.44,0,0,0,.27-1.23Z"/><path id="path108-4" data-name="path108" class="cls-3" d="M253.63,17.36h40V33.74h-40Z"/><path class="cls-2" d="M263.37,25.34h-2.3v3h-.86V21.56h3.54v.73h-2.68v2.32h2.3Z"/><path class="cls-2" d="M266.4,28.43a1.87,1.87,0,0,1-1.45-.56,2.5,2.5,0,0,1-.51-1.65v-.61a2.79,2.79,0,0,1,.49-1.76,1.64,1.64,0,0,1,1.38-.64,1.55,1.55,0,0,1,1.32.56,2.78,2.78,0,0,1,.45,1.75v.54h-2.82v.12a1.81,1.81,0,0,0,.31,1.18,1.08,1.08,0,0,0,.88.36,1.47,1.47,0,0,0,.64-.13,1.61,1.61,0,0,0,.52-.44l.43.52A1.86,1.86,0,0,1,266.4,28.43Zm-.09-4.52a.86.86,0,0,0-.76.35,2,2,0,0,0-.28,1.09h2v-.11a2,2,0,0,0-.26-1A.81.81,0,0,0,266.31,23.91Z"/><path class="cls-2" d="M271.67,28.33a1.73,1.73,0,0,1-.1-.55,1.33,1.33,0,0,1-1.12.65A1.34,1.34,0,0,1,269,27a1.52,1.52,0,0,1,.52-1.22,2.19,2.19,0,0,1,1.43-.46h.61v-.53a.85.85,0,0,0-1.42-.62.77.77,0,0,0-.23.56h-.83a1.34,1.34,0,0,1,.23-.73,1.5,1.5,0,0,1,.62-.55,1.76,1.76,0,0,1,.86-.2,1.63,1.63,0,0,1,1.18.38,1.48,1.48,0,0,1,.41,1.12v2.54a3.34,3.34,0,0,0,.16,1v.07Zm-1.1-.65a1.12,1.12,0,0,0,.58-.17,1,1,0,0,0,.4-.42v-1.2h-.47a1.55,1.55,0,0,0-.92.26.84.84,0,0,0-.35.71.87.87,0,0,0,.18.62A.74.74,0,0,0,270.57,27.68Z"/><path class="cls-2" d="M274.74,22.08V23.3h.76V24h-.76v3.13a.89.89,0,0,0,.09.45.37.37,0,0,0,.34.16,1,1,0,0,0,.33-.06v.69a1.56,1.56,0,0,1-.57.1.88.88,0,0,1-.75-.35,1.64,1.64,0,0,1-.26-1V24h-.77V23.3h.77V22.08Z"/><path class="cls-2" d="M279.06,27.89a1.43,1.43,0,0,1-1.2.54,1.2,1.2,0,0,1-1-.48,2.29,2.29,0,0,1-.35-1.37V23.3h.82v3.22c0,.78.23,1.18.71,1.18a1,1,0,0,0,1-.67V23.3h.83v5h-.78Z"/><path class="cls-2" d="M283.19,24.07a2.22,2.22,0,0,0-.37,0,.9.9,0,0,0-.89.69v3.6h-.83v-5h.81v.51a1,1,0,0,1,.94-.6.73.73,0,0,1,.32.06Z"/><path class="cls-2" d="M285.73,28.43a1.87,1.87,0,0,1-1.45-.56,2.5,2.5,0,0,1-.51-1.65v-.61a2.79,2.79,0,0,1,.49-1.76,1.64,1.64,0,0,1,1.38-.64,1.55,1.55,0,0,1,1.32.56,2.78,2.78,0,0,1,.45,1.75v.54h-2.82v.12a1.81,1.81,0,0,0,.31,1.18,1.08,1.08,0,0,0,.88.36,1.47,1.47,0,0,0,.64-.13,1.61,1.61,0,0,0,.52-.44l.43.52A1.86,1.86,0,0,1,285.73,28.43Zm-.09-4.52a.86.86,0,0,0-.76.35,2,2,0,0,0-.28,1.09h2v-.11a1.91,1.91,0,0,0-.25-1A.83.83,0,0,0,285.64,23.91Z"/><g id="circle58"><circle class="cls-8" cx="223.52" cy="95.81" r="4.46"/><path class="cls-2" d="M223.52,92.1a3.71,3.71,0,1,1-3.71,3.71,3.71,3.71,0,0,1,3.71-3.71m0-1.5a5.21,5.21,0,1,0,5.21,5.21,5.22,5.22,0,0,0-5.21-5.21Z"/></g><g id="circle58-2" data-name="circle58"><circle class="cls-8" cx="115.58" cy="95.81" r="4.46"/><path class="cls-2" d="M115.58,92.1a3.71,3.71,0,1,1-3.71,3.71,3.72,3.72,0,0,1,3.71-3.71m0-1.5a5.21,5.21,0,1,0,5.21,5.21,5.22,5.22,0,0,0-5.21-5.21Z"/></g><g id="circle58-3" data-name="circle58"><circle class="cls-8" cx="19.17" cy="95.81" r="4.46"/><path class="cls-2" d="M19.17,92.1a3.71,3.71,0,1,1-3.71,3.71,3.71,3.71,0,0,1,3.71-3.71m0-1.5a5.21,5.21,0,1,0,5.21,5.21,5.22,5.22,0,0,0-5.21-5.21Z"/></g><use width="10.5" height="10.5" transform="translate(55.61 110.59)" xlink:href="#hotfix"/><use width="10.5" height="10.5" transform="translate(125.74 191.33)" xlink:href="#feature"/><use width="10.5" height="10.5" transform="translate(110.33 191.33)" xlink:href="#feature"/><use width="10.5" height="10.5" transform="translate(86.18 191.33)" xlink:href="#feature"/><use width="10.5" height="10.5" transform="translate(55.61 191.33)" xlink:href="#feature"/><use width="10.5" height="10.5" transform="translate(110.33 171.18)" xlink:href="#feature"/><use width="10.5" height="10.5" transform="translate(125.74 171.18)" xlink:href="#feature"/><use width="10.5" height="10.5" transform="translate(261.28 151.18)" xlink:href="#develop"/><use width="10.5" height="10.5" transform="translate(165.88 151.18)" xlink:href="#develop"/><g id="circle58-13" data-name="circle58"><circle class="cls-9" cx="223.52" cy="136.12" r="4.48"/><path class="cls-2" d="M223.52,132.41a3.71,3.71,0,1,1-3.71,3.71,3.71,3.71,0,0,1,3.71-3.71m0-1.54a5.25,5.25,0,1,0,5.25,5.25,5.26,5.26,0,0,0-5.25-5.25Z"/></g><use width="10.5" height="10.5" transform="translate(110.33 151.18)" xlink:href="#develop"/><use width="10.5" height="10.5" transform="translate(70.42 151.18)" xlink:href="#develop"/><use width="10.5" height="10.5" transform="translate(55.61 151.18)" xlink:href="#develop"/><path id="path60" class="cls-8" d="M12.18,61.24H26.11V73.53H12.18Z"/><path class="cls-2" d="M15.38,68.35,16,66h.52l-.94,3.17h-.39L14.23,66h.53Z"/><path class="cls-2" d="M19.3,67.32A2.79,2.79,0,0,1,19,68.73a.92.92,0,0,1-.86.46,1,1,0,0,1-.86-.44A2.55,2.55,0,0,1,17,67.4v-.73a2.84,2.84,0,0,1,.27-1.4,1.06,1.06,0,0,1,1.73,0,2.63,2.63,0,0,1,.29,1.32Zm-.52-.75a2.44,2.44,0,0,0-.15-1,.52.52,0,0,0-.95,0,2.47,2.47,0,0,0-.16,1v.88a2.55,2.55,0,0,0,.16,1,.5.5,0,0,0,.48.34.47.47,0,0,0,.46-.32,2.55,2.55,0,0,0,.16-1Z"/><path class="cls-2" d="M20.06,68.85a.32.32,0,0,1,.09-.23.36.36,0,0,1,.5,0,.34.34,0,1,1-.59.23Z"/><path class="cls-2" d="M23.12,69.14H22.6V65.52l-.9.4v-.49L23,64.85h.08Z"/><path id="path60-2" data-name="path60" class="cls-8" d="M108.62,61.24h13.93V73.53H108.62Z"/><path class="cls-2" d="M111.82,68.35l.6-2.38H113L112,69.14h-.39l-1-3.17h.53Z"/><path class="cls-2" d="M115.74,67.32a2.79,2.79,0,0,1-.28,1.41.93.93,0,0,1-.87.46,1,1,0,0,1-.85-.44,2.64,2.64,0,0,1-.3-1.35v-.73a2.83,2.83,0,0,1,.28-1.4,1,1,0,0,1,.87-.46,1,1,0,0,1,.86.44,2.63,2.63,0,0,1,.29,1.32Zm-.52-.75a2.44,2.44,0,0,0-.15-1,.49.49,0,0,0-.48-.32.48.48,0,0,0-.47.31,2.47,2.47,0,0,0-.16,1v.88a2.38,2.38,0,0,0,.16,1,.49.49,0,0,0,.47.34.48.48,0,0,0,.47-.32,2.55,2.55,0,0,0,.16-1Z"/><path class="cls-2" d="M116.5,68.85a.32.32,0,0,1,.09-.23.29.29,0,0,1,.25-.1.3.3,0,0,1,.25.1.34.34,0,0,1,0,.46.33.33,0,0,1-.25.09.31.31,0,0,1-.34-.32Z"/><path class="cls-2" d="M120.4,69.14H118v-.39l1.22-1.62a3.32,3.32,0,0,0,.38-.61,1.22,1.22,0,0,0,.11-.5.86.86,0,0,0-.16-.55.51.51,0,0,0-.42-.21.59.59,0,0,0-.5.22,1,1,0,0,0-.18.65h-.52a1.43,1.43,0,0,1,.32-1,1.13,1.13,0,0,1,.88-.36,1.06,1.06,0,0,1,.81.31,1.2,1.2,0,0,1,.29.83,2.63,2.63,0,0,1-.66,1.5l-1,1.24h1.77Z"/><path id="path60-3" data-name="path60" class="cls-8" d="M216.55,61.24h13.93V73.53H216.55Z"/><path class="cls-2" d="M219.76,68.35l.6-2.38h.53l-.95,3.17h-.38l-1-3.17h.53Z"/><path class="cls-2" d="M222.93,69.14h-.52V65.52l-.9.4v-.49l1.34-.58h.08Z"/><path class="cls-2" d="M224.44,68.85a.31.31,0,0,1,.08-.23.3.3,0,0,1,.25-.1.33.33,0,0,1,.26.1.32.32,0,0,1-.26.55.33.33,0,0,1-.25-.09A.31.31,0,0,1,224.44,68.85Z"/><path class="cls-2" d="M228.23,67.32a2.79,2.79,0,0,1-.28,1.41.92.92,0,0,1-.86.46,1,1,0,0,1-.86-.44,2.55,2.55,0,0,1-.29-1.35v-.73a2.84,2.84,0,0,1,.27-1.4,1.06,1.06,0,0,1,1.73,0,2.63,2.63,0,0,1,.29,1.32Zm-.52-.75a2.44,2.44,0,0,0-.15-1,.52.52,0,0,0-.95,0,2.47,2.47,0,0,0-.16,1v.88a2.55,2.55,0,0,0,.16,1,.5.5,0,0,0,.48.34.47.47,0,0,0,.46-.32,2.55,2.55,0,0,0,.16-1Z"/><path id="path108-5" data-name="path108" class="cls-9" d="M72.54,17.36h40V33.74h-40Z"/><path class="cls-2" d="M80.51,25.59H79.32v2.74h-.86V21.56h1.9a2,2,0,0,1,1.52.52,2.07,2.07,0,0,1,.51,1.52,2,2,0,0,1-.28,1.09,1.76,1.76,0,0,1-.79.71l1.32,2.88v0h-.92Zm-1.19-.73h1a1.11,1.11,0,0,0,.86-.34,1.33,1.33,0,0,0,.32-.93c0-.87-.4-1.3-1.19-1.3h-1Z"/><path class="cls-2" d="M85.22,28.43a1.85,1.85,0,0,1-1.44-.56,2.45,2.45,0,0,1-.52-1.65v-.61a2.79,2.79,0,0,1,.5-1.76,1.61,1.61,0,0,1,1.37-.64,1.58,1.58,0,0,1,1.33.56,2.91,2.91,0,0,1,.45,1.75v.54H84.08v.12a1.87,1.87,0,0,0,.31,1.18,1.09,1.09,0,0,0,.88.36,1.44,1.44,0,0,0,.64-.13,1.51,1.51,0,0,0,.52-.44l.43.52A1.85,1.85,0,0,1,85.22,28.43Zm-.09-4.52a.87.87,0,0,0-.76.35,2,2,0,0,0-.28,1.09h2v-.11a1.9,1.9,0,0,0-.26-1A.81.81,0,0,0,85.13,23.91Z"/><path class="cls-2" d="M88.79,28.33H88V21.19h.83Z"/><path class="cls-2" d="M91.89,28.43a1.83,1.83,0,0,1-1.44-.56,2.45,2.45,0,0,1-.52-1.65v-.61a2.85,2.85,0,0,1,.49-1.76,1.64,1.64,0,0,1,1.38-.64,1.58,1.58,0,0,1,1.33.56,2.85,2.85,0,0,1,.44,1.75v.54H90.75v.12a1.87,1.87,0,0,0,.31,1.18,1.09,1.09,0,0,0,.88.36,1.44,1.44,0,0,0,.64-.13,1.51,1.51,0,0,0,.52-.44l.43.52A1.86,1.86,0,0,1,91.89,28.43Zm-.09-4.52a.87.87,0,0,0-.76.35,2,2,0,0,0-.28,1.09h2v-.11a1.9,1.9,0,0,0-.26-1A.81.81,0,0,0,91.8,23.91Z"/><path class="cls-2" d="M97.17,28.33a1.67,1.67,0,0,1-.11-.55,1.32,1.32,0,0,1-1.12.65A1.35,1.35,0,0,1,94.48,27,1.52,1.52,0,0,1,95,25.74a2.2,2.2,0,0,1,1.44-.46H97v-.53a.84.84,0,0,0-.2-.65.87.87,0,0,0-.61-.19.89.89,0,0,0-.61.22.77.77,0,0,0-.23.56h-.83a1.34,1.34,0,0,1,.23-.73,1.57,1.57,0,0,1,.62-.55,1.79,1.79,0,0,1,.86-.2,1.63,1.63,0,0,1,1.18.38,1.52,1.52,0,0,1,.42,1.12v2.54a3.07,3.07,0,0,0,.15,1v.07Zm-1.11-.65a1.09,1.09,0,0,0,.58-.17,1,1,0,0,0,.4-.42v-1.2h-.46a1.56,1.56,0,0,0-.93.26.83.83,0,0,0-.34.71.87.87,0,0,0,.17.62A.74.74,0,0,0,96.06,27.68Z"/><path class="cls-2" d="M101.6,27a.59.59,0,0,0-.2-.45,2.8,2.8,0,0,0-.77-.45,5.15,5.15,0,0,1-.95-.47,1.37,1.37,0,0,1-.4-.44,1.27,1.27,0,0,1-.14-.6,1.31,1.31,0,0,1,.45-1,1.66,1.66,0,0,1,1.15-.4,1.68,1.68,0,0,1,1.19.42,1.45,1.45,0,0,1,.45,1.1h-.82a.83.83,0,0,0-.23-.58.79.79,0,0,0-.59-.24.85.85,0,0,0-.57.19.64.64,0,0,0-.21.5.56.56,0,0,0,.15.41,3.11,3.11,0,0,0,.74.4,3.68,3.68,0,0,1,1.25.7,1.21,1.21,0,0,1,.33.87A1.32,1.32,0,0,1,102,28a1.78,1.78,0,0,1-1.22.4A1.84,1.84,0,0,1,99.48,28,1.54,1.54,0,0,1,99,26.83h.83a1,1,0,0,0,.26.66.92.92,0,0,0,.68.23,1,1,0,0,0,.63-.18A.63.63,0,0,0,101.6,27Z"/><path class="cls-2" d="M105.31,28.43a1.87,1.87,0,0,1-1.45-.56,2.5,2.5,0,0,1-.51-1.65v-.61a2.79,2.79,0,0,1,.49-1.76,1.64,1.64,0,0,1,1.38-.64,1.55,1.55,0,0,1,1.32.56,2.78,2.78,0,0,1,.45,1.75v.54h-2.82v.12a1.81,1.81,0,0,0,.31,1.18,1.08,1.08,0,0,0,.88.36,1.47,1.47,0,0,0,.64-.13,1.61,1.61,0,0,0,.52-.44l.43.52A1.86,1.86,0,0,1,105.31,28.43Zm-.09-4.52a.86.86,0,0,0-.76.35,2,2,0,0,0-.28,1.09h2v-.11a1.91,1.91,0,0,0-.25-1A.83.83,0,0,0,105.22,23.91Z"/><path id="path46" class="cls-10" d="M435.88,95.81H231.64"/><path id="path34" class="cls-11" d="M435.88,116H92.38"/><path id="path42" class="cls-12" d="M435.88,136.12H244.71"/><path id="path86" class="cls-13" d="M435.88,176.43H150.07"/><path id="path94" class="cls-13" d="M435.88,196.58H139.81"/><rect class="cls-2" x="314.34" y="59.18" width="7.59" height="153.48"/><line class="cls-14" x1="318.13" y1="61.24" x2="318.13" y2="212.66"/><rect class="cls-2" x="436.82" y="59.18" width="7.59" height="153.48"/><line class="cls-14" x1="440.61" y1="61.24" x2="440.61" y2="212.66"/><rect class="cls-8" x="372.58" y="88.56" width="14.5" height="14.5"/><path class="cls-2" d="M386.33,89.31v13h-13v-13h13m1.5-1.5h-16v16h16v-16Z"/><path class="cls-2" d="M379.28,97.05a2.91,2.91,0,0,1,.12-.91,3.15,3.15,0,0,1,.57-.88l.33-.42a1.67,1.67,0,0,0,.32-1,1.23,1.23,0,0,0-.2-.76.67.67,0,0,0-.58-.28.75.75,0,0,0-.59.25.93.93,0,0,0-.24.67h-.82a1.68,1.68,0,0,1,.47-1.22,1.59,1.59,0,0,1,1.18-.45,1.5,1.5,0,0,1,1.18.47,1.81,1.81,0,0,1,.43,1.29,2.53,2.53,0,0,1-.65,1.59l-.43.51a1.87,1.87,0,0,0-.27,1.09Zm.45,1a.44.44,0,0,1,.35.14.56.56,0,0,1,.12.36.51.51,0,0,1-.12.35.44.44,0,0,1-.35.14.42.42,0,0,1-.35-.14.51.51,0,0,1-.12-.35.56.56,0,0,1,.12-.36A.42.42,0,0,1,379.73,98Z"/><rect class="cls-4" x="372.58" y="108.73" width="14.5" height="14.5"/><path class="cls-2" d="M386.33,109.48v13h-13v-13h13m1.5-1.5h-16v16h16V108Z"/><path class="cls-2" d="M379.28,117.22a2.91,2.91,0,0,1,.12-.91,3.15,3.15,0,0,1,.57-.88l.33-.42a1.64,1.64,0,0,0,.32-1,1.23,1.23,0,0,0-.2-.76.67.67,0,0,0-.58-.28.75.75,0,0,0-.59.25.93.93,0,0,0-.24.67h-.82a1.68,1.68,0,0,1,.47-1.22,1.59,1.59,0,0,1,1.18-.45,1.5,1.5,0,0,1,1.18.47,1.81,1.81,0,0,1,.43,1.29,2.53,2.53,0,0,1-.65,1.59l-.43.51a1.87,1.87,0,0,0-.27,1.09Zm.45,1a.44.44,0,0,1,.35.14.56.56,0,0,1,.12.36.51.51,0,0,1-.12.35.44.44,0,0,1-.35.14.42.42,0,0,1-.35-.14.51.51,0,0,1-.12-.35.56.56,0,0,1,.12-.36A.42.42,0,0,1,379.73,118.2Z"/><rect class="cls-6" x="372.58" y="128.87" width="14.5" height="14.5"/><path class="cls-2" d="M386.33,129.62v13h-13v-13h13m1.5-1.5h-16v16h16v-16Z"/><path class="cls-2" d="M379.28,137.36a2.91,2.91,0,0,1,.12-.91,3.15,3.15,0,0,1,.57-.88l.33-.42a1.67,1.67,0,0,0,.32-1,1.23,1.23,0,0,0-.2-.76.67.67,0,0,0-.58-.28.75.75,0,0,0-.59.25.93.93,0,0,0-.24.67h-.82a1.68,1.68,0,0,1,.47-1.22,1.59,1.59,0,0,1,1.18-.45,1.5,1.5,0,0,1,1.18.47,1.81,1.81,0,0,1,.43,1.29,2.53,2.53,0,0,1-.65,1.59l-.43.51a1.87,1.87,0,0,0-.27,1.09Zm.45,1a.44.44,0,0,1,.35.14.56.56,0,0,1,.12.36.51.51,0,0,1-.12.35.44.44,0,0,1-.35.14.42.42,0,0,1-.35-.14.51.51,0,0,1-.12-.35.56.56,0,0,1,.12-.36A.42.42,0,0,1,379.73,138.34Z"/><rect class="cls-3" x="372.58" y="169.18" width="14.5" height="14.5"/><path class="cls-2" d="M386.33,169.93v13h-13v-13h13m1.5-1.5h-16v16h16v-16Z"/><path class="cls-2" d="M379.28,177.67a2.86,2.86,0,0,1,.12-.91,3.17,3.17,0,0,1,.57-.89l.33-.41a1.67,1.67,0,0,0,.32-1,1.26,1.26,0,0,0-.2-.77.69.69,0,0,0-.58-.27.75.75,0,0,0-.59.25.93.93,0,0,0-.24.67h-.82a1.67,1.67,0,0,1,.47-1.22,1.59,1.59,0,0,1,1.18-.45,1.53,1.53,0,0,1,1.18.46,1.86,1.86,0,0,1,.43,1.3,2.49,2.49,0,0,1-.65,1.58l-.43.52a1.85,1.85,0,0,0-.27,1.09Zm.45,1a.44.44,0,0,1,.35.14.56.56,0,0,1,.12.36.53.53,0,0,1-.12.35.43.43,0,0,1-.35.13.42.42,0,0,1-.35-.13.53.53,0,0,1-.12-.35.56.56,0,0,1,.12-.36A.42.42,0,0,1,379.73,178.65Z"/><rect class="cls-3" x="372.58" y="189.43" width="14.5" height="14.5"/><path class="cls-2" d="M386.33,190.18v13h-13v-13h13m1.5-1.5h-16v16h16v-16Z"/><path class="cls-2" d="M379.28,197.92a2.86,2.86,0,0,1,.12-.91,3,3,0,0,1,.57-.88l.33-.42a1.67,1.67,0,0,0,.32-1,1.26,1.26,0,0,0-.2-.77.69.69,0,0,0-.58-.27.75.75,0,0,0-.59.25.93.93,0,0,0-.24.67h-.82a1.68,1.68,0,0,1,.47-1.22,1.59,1.59,0,0,1,1.18-.45,1.53,1.53,0,0,1,1.18.46,1.86,1.86,0,0,1,.43,1.3,2.49,2.49,0,0,1-.65,1.58l-.43.52a1.85,1.85,0,0,0-.27,1.09Zm.45,1a.44.44,0,0,1,.35.14.56.56,0,0,1,.12.36.53.53,0,0,1-.12.35.44.44,0,0,1-.35.14.42.42,0,0,1-.35-.14.53.53,0,0,1-.12-.35.56.56,0,0,1,.12-.36A.42.42,0,0,1,379.73,198.9Z"/></svg>