<svg id="svg8" xmlns="http://www.w3.org/2000/svg" xmlns:xlink="http://www.w3.org/1999/xlink" viewBox="0 0 508.82 198.43"><defs><style>.cls-1,.cls-12,.cls-3,.cls-6{fill:none;}.cls-11,.cls-2,.cls-9{fill:#fff;}.cls-3{stroke:#949393;stroke-width:1.5px;}.cls-12,.cls-3,.cls-6,.cls-9{stroke-miterlimit:10;}.cls-4{fill:#333;}.cls-5{fill:#f05133;}.cls-6,.cls-9{stroke:#333;}.cls-6{stroke-width:1.2px;stroke-dasharray:3.61 3.61;}.cls-7{clip-path:url(#clip-path);}.cls-8{fill:#e1e2e1;}.cls-9{stroke-width:0.4px;}.cls-10{fill:#6c757e;}.cls-11{opacity:0.75;}.cls-12{stroke:#6c757e;stroke-width:0.5px;}.cls-13{fill:#37b1d9;}.cls-14{fill:#8dbf55;}</style><clipPath id="clip-path"><rect class="cls-1" x="337.81" y="44.9" width="156.46" height="110.61" rx="7.53"/></clipPath></defs><title>in-a-nutshell</title><rect class="cls-2" width="508.82" height="198.43"/><polyline class="cls-3" points="57.34 144.08 242.31 144.08 242.31 110.82 242.31 56.88 58.73 56.88"/><line class="cls-3" x1="57.34" y1="100.58" x2="351.02" y2="100.58"/><path d="M281.79,176.27h-.86V169.5h.86Z"/><path d="M284,171.24l0,.54a1.48,1.48,0,0,1,1.23-.63c.9,0,1.35.59,1.36,1.78v3.34h-.82V173a1.36,1.36,0,0,0-.2-.84.7.7,0,0,0-.59-.25.87.87,0,0,0-.56.2,1.57,1.57,0,0,0-.39.54v3.65h-.83v-5Z"/><path d="M288.16,176.27V171.9h-.66v-.66h.66v-.58a1.84,1.84,0,0,1,.39-1.2,1.34,1.34,0,0,1,1.07-.43,1.4,1.4,0,0,1,.49.08l0,.69a1.53,1.53,0,0,0-.38,0c-.47,0-.7.33-.7,1v.48h.86v.66H289v4.37Z"/><path d="M292.91,172a2.13,2.13,0,0,0-.37,0,.91.91,0,0,0-.89.69v3.6h-.83v-5h.81v.51a1,1,0,0,1,.94-.6.81.81,0,0,1,.33.06Z"/><path d="M296.15,176.27a1.66,1.66,0,0,1-.11-.54,1.33,1.33,0,0,1-1.12.64,1.35,1.35,0,0,1-1.46-1.47,1.53,1.53,0,0,1,.53-1.22,2.15,2.15,0,0,1,1.43-.46H296v-.53a.9.9,0,0,0-.2-.65.92.92,0,0,0-.62-.19.85.85,0,0,0-.6.22.75.75,0,0,0-.24.57h-.82a1.27,1.27,0,0,1,.23-.74,1.48,1.48,0,0,1,.61-.55,1.8,1.8,0,0,1,.87-.2,1.64,1.64,0,0,1,1.18.38,1.56,1.56,0,0,1,.41,1.12v2.54a3,3,0,0,0,.16,1v.07Zm-1.1-.65a1.08,1.08,0,0,0,.57-.17A1,1,0,0,0,296,175v-1.2h-.47a1.6,1.6,0,0,0-.93.26.83.83,0,0,0-.34.71.92.92,0,0,0,.17.62A.76.76,0,0,0,295.05,175.62Z"/><path d="M300.58,175a.59.59,0,0,0-.2-.46,2.8,2.8,0,0,0-.77-.45,4.69,4.69,0,0,1-.94-.47,1.41,1.41,0,0,1-.41-.44,1.25,1.25,0,0,1-.14-.59,1.35,1.35,0,0,1,.45-1,1.87,1.87,0,0,1,2.34,0,1.47,1.47,0,0,1,.45,1.1h-.82a.83.83,0,0,0-.23-.58.77.77,0,0,0-.58-.24.86.86,0,0,0-.58.19.65.65,0,0,0-.2.5.56.56,0,0,0,.15.41,2.51,2.51,0,0,0,.73.4,3.85,3.85,0,0,1,1.25.7,1.21,1.21,0,0,1,.33.87A1.32,1.32,0,0,1,301,176a1.76,1.76,0,0,1-1.22.4,1.84,1.84,0,0,1-1.28-.45,1.53,1.53,0,0,1-.49-1.15h.84a.9.9,0,0,0,.25.66.92.92,0,0,0,.68.24,1,1,0,0,0,.63-.19A.62.62,0,0,0,300.58,175Z"/><path d="M303.57,170v1.22h.76v.66h-.76V175a.79.79,0,0,0,.1.45.34.34,0,0,0,.33.16,1,1,0,0,0,.33-.06v.7a1.9,1.9,0,0,1-.58.09A.88.88,0,0,1,303,176a1.65,1.65,0,0,1-.25-1V171.9H302v-.66h.77V170Z"/><path d="M307.4,172a2.25,2.25,0,0,0-.38,0,.9.9,0,0,0-.88.69v3.6h-.83v-5h.8l0,.51a1,1,0,0,1,.94-.6.73.73,0,0,1,.32.06Z"/><path d="M310.8,175.83a1.42,1.42,0,0,1-1.2.54,1.22,1.22,0,0,1-1-.47,2.34,2.34,0,0,1-.35-1.38v-3.28H309v3.22c0,.78.24,1.18.71,1.18a1,1,0,0,0,1-.67v-3.73h.82v5h-.78Z"/><path d="M314.6,175.67a.9.9,0,0,0,.66-.26,1.12,1.12,0,0,0,.27-.72h.78a1.7,1.7,0,0,1-.52,1.2,1.62,1.62,0,0,1-1.19.48,1.76,1.76,0,0,1-1.43-.59,2.67,2.67,0,0,1-.49-1.75v-.56a2.62,2.62,0,0,1,.49-1.73,1.72,1.72,0,0,1,1.43-.59,1.63,1.63,0,0,1,1.23.48,2,2,0,0,1,.48,1.34h-.78a1.4,1.4,0,0,0-.27-.84.84.84,0,0,0-.66-.28.94.94,0,0,0-.82.36,2.12,2.12,0,0,0-.28,1.19V174a2.22,2.22,0,0,0,.27,1.26A1,1,0,0,0,314.6,175.67Z"/><path d="M318.35,170v1.22h.76v.66h-.76V175a.89.89,0,0,0,.09.45.37.37,0,0,0,.34.16,1,1,0,0,0,.33-.06v.7a1.88,1.88,0,0,1-.57.09.88.88,0,0,1-.75-.35,1.64,1.64,0,0,1-.26-1V171.9h-.77v-.66h.77V170Z"/><path d="M322.67,175.83a1.43,1.43,0,0,1-1.2.54,1.22,1.22,0,0,1-1-.47,2.41,2.41,0,0,1-.36-1.38v-3.28h.83v3.22c0,.78.23,1.18.71,1.18a1,1,0,0,0,1-.67v-3.73h.83v5h-.79Z"/><path d="M326.8,172a2.25,2.25,0,0,0-.38,0,.9.9,0,0,0-.88.69v3.6h-.83v-5h.8l0,.51a1,1,0,0,1,.94-.6.73.73,0,0,1,.32.06Z"/><path d="M329.34,176.37a1.87,1.87,0,0,1-1.45-.56,2.4,2.4,0,0,1-.51-1.65v-.61a2.79,2.79,0,0,1,.49-1.76,1.64,1.64,0,0,1,1.38-.64,1.55,1.55,0,0,1,1.32.56,2.93,2.93,0,0,1,.45,1.75V174H328.2v.12a1.88,1.88,0,0,0,.3,1.18,1.12,1.12,0,0,0,.89.37,1.47,1.47,0,0,0,.64-.14,1.61,1.61,0,0,0,.52-.44l.43.52A1.87,1.87,0,0,1,329.34,176.37Zm-.09-4.52a.87.87,0,0,0-.77.36,2.17,2.17,0,0,0-.28,1.09h2v-.12a1.93,1.93,0,0,0-.26-1A.81.81,0,0,0,329.25,171.85Z"/><path d="M227.85,173.53h-1.2v2.74h-.86V169.5h1.91a2,2,0,0,1,1.51.52,2.07,2.07,0,0,1,.51,1.52,2.12,2.12,0,0,1-.27,1.09,1.76,1.76,0,0,1-.79.71l1.32,2.88v.05h-.92Zm-1.2-.73h1a1.12,1.12,0,0,0,.86-.34,1.32,1.32,0,0,0,.32-.92c0-.87-.4-1.31-1.19-1.31h-1Z"/><path d="M234.13,173.14h-2.41v2.4h2.81v.73h-3.66V169.5h3.61v.73h-2.76v2.18h2.41Z"/><path d="M238.59,174.56a1,1,0,0,0-.28-.77,2.59,2.59,0,0,0-1-.53,4.16,4.16,0,0,1-1.1-.54,1.8,1.8,0,0,1-.57-.64,1.72,1.72,0,0,1-.19-.83,1.75,1.75,0,0,1,.54-1.32,1.93,1.93,0,0,1,1.41-.52,2.12,2.12,0,0,1,1.07.26,1.9,1.9,0,0,1,.72.74,2.31,2.31,0,0,1,.25,1h-.86a1.43,1.43,0,0,0-.3-1,1.12,1.12,0,0,0-.88-.34,1.05,1.05,0,0,0-.8.29,1.1,1.1,0,0,0-.29.81,1,1,0,0,0,.31.71,2.61,2.61,0,0,0,1,.52,3.23,3.23,0,0,1,1.44.82,1.8,1.8,0,0,1,.43,1.26,1.73,1.73,0,0,1-.53,1.32,2.09,2.09,0,0,1-1.47.5,2.37,2.37,0,0,1-1.09-.26,1.86,1.86,0,0,1-.79-.73,2,2,0,0,1-.29-1.07h.86a1.21,1.21,0,0,0,1.31,1.33,1.15,1.15,0,0,0,.85-.29A1.08,1.08,0,0,0,238.59,174.56Z"/><path d="M244.55,170.23h-1.79v6h-.86v-6h-1.78v-.73h4.43Z"/><path d="M245.88,173.75H244V173h1.93Z"/><path d="M250,174.5h-2.3l-.52,1.77h-.88l2.19-6.77h.73l2.2,6.77h-.88Zm-2.07-.73h1.85l-.93-3.08Z"/><path d="M253.21,173.62v2.65h-.86V169.5h2.17a2,2,0,0,1,1.49.56,2.1,2.1,0,0,1,.54,1.51,2.07,2.07,0,0,1-.52,1.51,2,2,0,0,1-1.45.54Zm0-.73h1.31a1.09,1.09,0,0,0,.87-.34,1.43,1.43,0,0,0,.31-1,1.44,1.44,0,0,0-.32-1,1.05,1.05,0,0,0-.86-.37h-1.31Z"/><path d="M258.54,176.27h-.85V169.5h.85Z"/><path class="cls-4" d="M242.16,114.32a13.77,13.77,0,0,1-13.76-13.76v-.34a13.79,13.79,0,0,1,27.57,0v.34a13.77,13.77,0,0,1-13.76,13.76Z"/><path class="cls-2" d="M242.21,88.26a12,12,0,0,1,11.95,12v.34a12,12,0,0,1-11.95,12h-.05a12,12,0,0,1-12-12v-.34a12,12,0,0,1,12-12h.05m0-3.62h-.05a15.6,15.6,0,0,0-15.57,15.58v.34a15.6,15.6,0,0,0,31.19,0v-.34a15.6,15.6,0,0,0-15.57-15.58Z"/><path class="cls-2" d="M238.43,105.55a2.35,2.35,0,0,1-1.26-.9,2.86,2.86,0,0,1-.42-1.63v-1.14c0-.88-.32-1.32-.95-1.32v-.8c.63,0,.95-.44.95-1.32V97.31a2.86,2.86,0,0,1,.42-1.63,2.23,2.23,0,0,1,1.26-.9l.19.63c-.58.23-.88.84-.9,1.84v1.18a1.84,1.84,0,0,1-.81,1.73,1.87,1.87,0,0,1,.81,1.74v1.2c0,1,.32,1.59.9,1.82Z"/><path class="cls-2" d="M239.64,103a.64.64,0,0,1,.16-.44.58.58,0,0,1,.47-.18.62.62,0,0,1,.48.18.6.6,0,0,1,.16.44.58.58,0,0,1-.16.42.65.65,0,0,1-.48.17.61.61,0,0,1-.47-.17A.63.63,0,0,1,239.64,103Zm2.06,0a.6.6,0,0,1,.16-.44.58.58,0,0,1,.47-.18.62.62,0,0,1,.48.18.64.64,0,0,1,.16.44.63.63,0,0,1-.16.42.65.65,0,0,1-.48.17.61.61,0,0,1-.47-.17A.58.58,0,0,1,241.7,103Zm2,0a.64.64,0,0,1,.16-.44.58.58,0,0,1,.47-.18.62.62,0,0,1,.48.18.6.6,0,0,1,.16.44.58.58,0,0,1-.16.42.65.65,0,0,1-.48.17.61.61,0,0,1-.47-.17A.63.63,0,0,1,243.66,103Z"/><path class="cls-2" d="M245.73,104.92c.59-.24.89-.84.91-1.82v-1.21a1.78,1.78,0,0,1,.87-1.73,1.77,1.77,0,0,1-.87-1.74V97.28c0-1-.31-1.64-.91-1.87l.2-.63a2.34,2.34,0,0,1,1.24.87,3,3,0,0,1,.44,1.58v1.3c0,.82.33,1.23.94,1.23v.8c-.63,0-.94.44-.94,1.32V103a2.39,2.39,0,0,1-1.68,2.55Z"/><path d="M17.88,144.55a1,1,0,0,0-.28-.78,2.75,2.75,0,0,0-1-.52,4.49,4.49,0,0,1-1.1-.54,1.8,1.8,0,0,1-.57-.64,1.72,1.72,0,0,1-.19-.83,1.77,1.77,0,0,1,.54-1.33,2,2,0,0,1,1.41-.52,2.13,2.13,0,0,1,1.07.27,1.75,1.75,0,0,1,.71.74,2.14,2.14,0,0,1,.26,1h-.86a1.38,1.38,0,0,0-.31-1,1.09,1.09,0,0,0-.87-.35,1.07,1.07,0,0,0-.8.29,1.11,1.11,0,0,0-.29.81.92.92,0,0,0,.31.72,2.77,2.77,0,0,0,1,.52,3.33,3.33,0,0,1,1.44.81,1.84,1.84,0,0,1,.43,1.27,1.7,1.7,0,0,1-.54,1.32,2,2,0,0,1-1.46.49,2.36,2.36,0,0,1-1.09-.25,2,2,0,0,1-.79-.73,2,2,0,0,1-.29-1.07h.86a1.31,1.31,0,0,0,.35,1,1.29,1.29,0,0,0,1,.35,1.15,1.15,0,0,0,.85-.28A1.1,1.1,0,0,0,17.88,144.55Z"/><path d="M21.55,146.35a1.83,1.83,0,0,1-1.45-.56,2.45,2.45,0,0,1-.51-1.64v-.61a2.91,2.91,0,0,1,.49-1.77,1.66,1.66,0,0,1,1.38-.64,1.59,1.59,0,0,1,1.33.57,2.85,2.85,0,0,1,.44,1.75V144H20.41v.12a1.82,1.82,0,0,0,.31,1.17,1.07,1.07,0,0,0,.88.37,1.31,1.31,0,0,0,.64-.14,1.48,1.48,0,0,0,.52-.43l.43.52A1.88,1.88,0,0,1,21.55,146.35Zm-.09-4.51a.87.87,0,0,0-.76.35,2,2,0,0,0-.28,1.09h2v-.11a1.88,1.88,0,0,0-.26-1A.79.79,0,0,0,21.46,141.84Z"/><path d="M26.31,142a2.13,2.13,0,0,0-.37,0,.9.9,0,0,0-.89.69v3.6h-.83v-5H25v.51a1,1,0,0,1,.94-.61.67.67,0,0,1,.33.07Z"/><path d="M28.65,145l1-3.78h.84l-1.5,5h-.62l-1.51-5h.84Z"/><path d="M32.27,139.89a.51.51,0,0,1-.12.35.46.46,0,0,1-.36.14.45.45,0,0,1-.35-.14.61.61,0,0,1,0-.7.43.43,0,0,1,.35-.15.43.43,0,0,1,.36.15A.53.53,0,0,1,32.27,139.89Zm-.07,6.37h-.83v-5h.83Z"/><path d="M35.26,145.65a.85.85,0,0,0,.65-.25,1,1,0,0,0,.27-.73H37a1.7,1.7,0,0,1-.51,1.21,1.63,1.63,0,0,1-1.19.47,1.78,1.78,0,0,1-1.44-.58,2.76,2.76,0,0,1-.49-1.76v-.55a2.62,2.62,0,0,1,.49-1.73,1.74,1.74,0,0,1,1.43-.6,1.61,1.61,0,0,1,1.23.49A2,2,0,0,1,37,143h-.78a1.33,1.33,0,0,0-.26-.84.83.83,0,0,0-.67-.28,1,1,0,0,0-.82.36,2.09,2.09,0,0,0-.27,1.18V144a2.26,2.26,0,0,0,.26,1.25A1,1,0,0,0,35.26,145.65Z"/><path d="M39.72,146.35a1.81,1.81,0,0,1-1.44-.56,2.4,2.4,0,0,1-.52-1.64v-.61a2.84,2.84,0,0,1,.5-1.77,1.63,1.63,0,0,1,1.37-.64,1.59,1.59,0,0,1,1.33.57,2.91,2.91,0,0,1,.45,1.75V144H38.58v.12a1.82,1.82,0,0,0,.31,1.17,1.07,1.07,0,0,0,.88.37,1.31,1.31,0,0,0,.64-.14,1.48,1.48,0,0,0,.52-.43l.43.52A1.87,1.87,0,0,1,39.72,146.35Zm-.09-4.51a.88.88,0,0,0-.76.35,2,2,0,0,0-.28,1.09h2v-.11a1.88,1.88,0,0,0-.26-1A.79.79,0,0,0,39.63,141.84Z"/><path d="M49,144.11a2.51,2.51,0,0,1-.62,1.66,2.07,2.07,0,0,1-1.57.58,1.93,1.93,0,0,1-1.63-.77,3.36,3.36,0,0,1-.6-2.1v-1.23a3.2,3.2,0,0,1,.62-2.09,2,2,0,0,1,1.69-.77,2,2,0,0,1,1.52.59,2.55,2.55,0,0,1,.59,1.68H48.1a2,2,0,0,0-.35-1.18,1.07,1.07,0,0,0-.89-.36,1.2,1.2,0,0,0-1.07.55,2.77,2.77,0,0,0-.38,1.58v1.25a3,3,0,0,0,.35,1.57,1.12,1.12,0,0,0,1,.55,1.24,1.24,0,0,0,1-.33,2,2,0,0,0,.36-1.18Z"/><rect class="cls-5" x="55.46" y="137.33" width="13.75" height="13.51"/><path class="cls-2" d="M68.32,138.22V150h-12V138.22h12m1.78-1.78H54.57v15.29H70.1V136.44Z"/><rect class="cls-2" x="84.66" y="40.97" width="7.59" height="115.74"/><line class="cls-6" x1="88.46" y1="44.68" x2="88.46" y2="156.71"/><g class="cls-7"><rect class="cls-8" x="337.81" y="44.9" width="156.57" height="110.61"/><rect class="cls-4" x="337.81" y="63.71" width="156.57" height="91.8" rx="0.11"/><rect class="cls-9" x="343.27" y="51.55" width="92.86" height="5.93"/></g><path class="cls-4" d="M486.73,44.9a7.53,7.53,0,0,1,7.53,7.53V148a7.53,7.53,0,0,1-7.53,7.53H345.34a7.53,7.53,0,0,1-7.53-7.53V52.43a7.53,7.53,0,0,1,7.53-7.53H486.73m0-.38H345.34a7.92,7.92,0,0,0-7.91,7.91V148a7.92,7.92,0,0,0,7.91,7.91H486.73a7.92,7.92,0,0,0,7.92-7.91V52.43a7.92,7.92,0,0,0-7.92-7.91Z"/><rect class="cls-2" x="445.72" y="85.01" width="41.42" height="55.14"/><rect class="cls-10" x="445.72" y="85.01" width="41.42" height="14.49"/><path class="cls-2" d="M452.88,92.06h-2.2v2.87h-.82v-6.5h3.39v.7h-2.57v2.23h2.2Z"/><path class="cls-2" d="M455.79,95a1.75,1.75,0,0,1-1.38-.54,2.3,2.3,0,0,1-.5-1.58v-.58a2.77,2.77,0,0,1,.47-1.7A1.58,1.58,0,0,1,455.7,90a1.52,1.52,0,0,1,1.28.54,2.8,2.8,0,0,1,.43,1.68v.52H454.7v.11A1.78,1.78,0,0,0,455,94a1,1,0,0,0,.85.36,1.31,1.31,0,0,0,.61-.14,1.35,1.35,0,0,0,.5-.41l.42.5A1.82,1.82,0,0,1,455.79,95Zm-.09-4.33A.85.85,0,0,0,455,91a2.22,2.22,0,0,0-.27,1h1.91V92a1.91,1.91,0,0,0-.24-1A.8.8,0,0,0,455.7,90.69Z"/><path class="cls-2" d="M460.85,94.93a1.64,1.64,0,0,1-.1-.53,1.27,1.27,0,0,1-1.08.62,1.36,1.36,0,0,1-1-.37,1.38,1.38,0,0,1-.37-1,1.45,1.45,0,0,1,.5-1.17,2.06,2.06,0,0,1,1.37-.44h.59v-.51a.68.68,0,0,0-.78-.8.84.84,0,0,0-.59.21.7.7,0,0,0-.22.54h-.79a1.24,1.24,0,0,1,.22-.71,1.45,1.45,0,0,1,.59-.53A1.75,1.75,0,0,1,460,90a1.57,1.57,0,0,1,1.13.37,1.43,1.43,0,0,1,.4,1.07v2.44a2.82,2.82,0,0,0,.15,1v.07Zm-1.05-.63a1,1,0,0,0,.55-.16,1,1,0,0,0,.39-.4V92.59h-.45a1.45,1.45,0,0,0-.89.25.8.8,0,0,0-.33.68.86.86,0,0,0,.17.6A.72.72,0,0,0,459.8,94.3Z"/><path class="cls-2" d="M463.79,88.93V90.1h.73v.64h-.73v3a.74.74,0,0,0,.1.43.35.35,0,0,0,.32.15,1,1,0,0,0,.32-.06v.67A1.71,1.71,0,0,1,464,95a.82.82,0,0,1-.72-.34,1.57,1.57,0,0,1-.25-.94v-3h-.74V90.1H463V88.93Z"/><path class="cls-2" d="M467.94,94.51a1.38,1.38,0,0,1-1.15.51,1.17,1.17,0,0,1-1-.45,2.26,2.26,0,0,1-.34-1.32V90.1h.79v3.09c0,.75.23,1.13.68,1.13a1,1,0,0,0,1-.64V90.1h.8v4.83H468Z"/><path class="cls-2" d="M471.9,90.84a2,2,0,0,0-.36,0,.87.87,0,0,0-.85.66v3.46h-.79V90.1h.77v.49a1,1,0,0,1,.9-.58.76.76,0,0,1,.32.06Z"/><path class="cls-2" d="M474.34,95a1.77,1.77,0,0,1-1.39-.54,2.3,2.3,0,0,1-.49-1.58v-.58a2.77,2.77,0,0,1,.47-1.7,1.58,1.58,0,0,1,1.32-.61,1.5,1.5,0,0,1,1.27.54,2.73,2.73,0,0,1,.43,1.68v.52h-2.7v.11a1.72,1.72,0,0,0,.29,1.13,1,1,0,0,0,.84.36,1.39,1.39,0,0,0,1.12-.55l.41.5A1.8,1.8,0,0,1,474.34,95Zm-.09-4.33a.84.84,0,0,0-.73.33,2,2,0,0,0-.27,1h1.91V92a1.81,1.81,0,0,0-.25-1A.77.77,0,0,0,474.25,90.69Z"/><path class="cls-2" d="M482.16,93.23H480l-.5,1.7h-.84l2.1-6.5h.7l2.11,6.5h-.85Zm-2-.7H482l-.89-3Z"/><rect class="cls-2" x="445.72" y="99.5" width="41.42" height="13.55"/><path d="M460.22,120.9a.67.67,0,0,0-.18-.5,1.62,1.62,0,0,0-.63-.33,2.92,2.92,0,0,1-.71-.35,1.25,1.25,0,0,1-.36-.41,1.23,1.23,0,0,1,.22-1.38,1.27,1.27,0,0,1,.91-.33,1.3,1.3,0,0,1,.68.17,1.16,1.16,0,0,1,.46.47,1.38,1.38,0,0,1,.16.67h-.55a.89.89,0,0,0-.19-.62.7.7,0,0,0-.56-.22.73.73,0,0,0-.52.18.71.71,0,0,0-.18.52.61.61,0,0,0,.2.46,1.79,1.79,0,0,0,.61.33,2.18,2.18,0,0,1,.92.52,1.2,1.2,0,0,1,.27.81,1.09,1.09,0,0,1-.34.85,1.33,1.33,0,0,1-.93.32,1.55,1.55,0,0,1-.71-.17,1.23,1.23,0,0,1-.5-.46,1.31,1.31,0,0,1-.18-.69h.55a.81.81,0,0,0,.22.62.85.85,0,0,0,.62.23.7.7,0,0,0,.54-.19A.68.68,0,0,0,460.22,120.9Z"/><path d="M462.57,122.06a1.16,1.16,0,0,1-.92-.36,1.51,1.51,0,0,1-.33-1.06v-.39a1.83,1.83,0,0,1,.31-1.13,1.06,1.06,0,0,1,.88-.41,1,1,0,0,1,.85.36,1.82,1.82,0,0,1,.29,1.13v.34h-1.81v.08a1.18,1.18,0,0,0,.2.75.68.68,0,0,0,.56.24.86.86,0,0,0,.41-.09,1.08,1.08,0,0,0,.34-.28l.27.33A1.21,1.21,0,0,1,462.57,122.06Zm-.06-2.89a.53.53,0,0,0-.48.22,1.25,1.25,0,0,0-.18.7h1.27V120a1.17,1.17,0,0,0-.17-.66A.5.5,0,0,0,462.51,119.17Z"/><path d="M465.62,119.27a.9.9,0,0,0-.24,0,.58.58,0,0,0-.57.44V122h-.53v-3.23h.52v.33a.64.64,0,0,1,.81-.35Z"/><path d="M467.12,121.19l.61-2.42h.54l-1,3.23h-.4l-1-3.23h.54Z"/><path d="M469.43,117.92a.32.32,0,0,1-.07.22.34.34,0,0,1-.46,0,.32.32,0,0,1-.07-.22.35.35,0,0,1,.07-.23.29.29,0,0,1,.23-.09.27.27,0,0,1,.22.09A.36.36,0,0,1,469.43,117.92Zm0,4.08h-.53v-3.23h.53Z"/><path d="M471.34,121.61a.54.54,0,0,0,.42-.17.65.65,0,0,0,.18-.46h.5a1.07,1.07,0,0,1-.33.77,1.09,1.09,0,0,1-.77.31,1.12,1.12,0,0,1-.91-.38,1.72,1.72,0,0,1-.32-1.12v-.36a1.73,1.73,0,0,1,.32-1.11,1.11,1.11,0,0,1,.91-.38,1,1,0,0,1,.79.32,1.25,1.25,0,0,1,.31.85h-.5a.89.89,0,0,0-.17-.54.54.54,0,0,0-.43-.17.59.59,0,0,0-.52.23,1.29,1.29,0,0,0-.18.75v.42a1.44,1.44,0,0,0,.17.8A.6.6,0,0,0,471.34,121.61Z"/><path d="M474.2,122.06a1.16,1.16,0,0,1-.92-.36,1.51,1.51,0,0,1-.33-1.06v-.39a1.83,1.83,0,0,1,.31-1.13,1.06,1.06,0,0,1,.88-.41,1,1,0,0,1,.85.36,1.82,1.82,0,0,1,.29,1.13v.34h-1.81v.08a1.18,1.18,0,0,0,.2.75.68.68,0,0,0,.56.24.86.86,0,0,0,.41-.09,1.08,1.08,0,0,0,.34-.28l.27.33A1.21,1.21,0,0,1,474.2,122.06Zm-.06-2.89a.53.53,0,0,0-.48.22,1.25,1.25,0,0,0-.18.7h1.27V120a1.17,1.17,0,0,0-.17-.66A.5.5,0,0,0,474.14,119.17Z"/><path d="M477.39,122v-4.34h1.24a1.19,1.19,0,0,1,.89.29,1.14,1.14,0,0,1,.31.86,1,1,0,0,1-.16.54,1,1,0,0,1-.41.36.79.79,0,0,1,.47.37,1.16,1.16,0,0,1,.18.66,1.29,1.29,0,0,1-.32.92,1.24,1.24,0,0,1-.92.34Zm.55-2.49h.7a.63.63,0,0,0,.46-.19.77.77,0,0,0,.17-.51.7.7,0,0,0-.16-.52.62.62,0,0,0-.48-.16h-.69Zm0,.46v1.56h.74a.64.64,0,0,0,.5-.21.81.81,0,0,0,.18-.57q0-.78-.66-.78Z"/><path class="cls-5" d="M453,122.5a3.05,3.05,0,1,1,3-3.09,3,3,0,0,1-3,3.09Z"/><path class="cls-2" d="M453,116.8a2.62,2.62,0,0,1,2.61,2.61v.08A2.62,2.62,0,0,1,453,122.1h0a2.62,2.62,0,0,1-2.62-2.61v-.08A2.62,2.62,0,0,1,453,116.8h0m0-.79h0a3.41,3.41,0,0,0-3.41,3.4v.08a3.41,3.41,0,0,0,6.82,0v-.08A3.4,3.4,0,0,0,453,116Z"/><path d="M459.82,134.07a.65.65,0,0,0-.18-.5,1.69,1.69,0,0,0-.63-.34,2.77,2.77,0,0,1-.71-.34,1.25,1.25,0,0,1-.36-.41,1.15,1.15,0,0,1-.12-.53,1.12,1.12,0,0,1,.34-.85,1.26,1.26,0,0,1,.91-.34,1.4,1.4,0,0,1,.68.17,1.25,1.25,0,0,1,.46.48,1.35,1.35,0,0,1,.16.67h-.55a.93.93,0,0,0-.2-.63.7.7,0,0,0-.55-.22.67.67,0,0,0-.52.19.7.7,0,0,0-.18.52.63.63,0,0,0,.2.46,1.79,1.79,0,0,0,.61.33,2.08,2.08,0,0,1,.92.52,1.2,1.2,0,0,1,.27.81,1.08,1.08,0,0,1-.34.84,1.29,1.29,0,0,1-.94.32,1.53,1.53,0,0,1-.7-.16,1.26,1.26,0,0,1-.5-.47,1.23,1.23,0,0,1-.19-.69h.55a.85.85,0,0,0,.23.63.82.82,0,0,0,.61.22.76.76,0,0,0,.55-.18A.68.68,0,0,0,459.82,134.07Z"/><path d="M462.17,135.22a1.16,1.16,0,0,1-.92-.36,1.5,1.5,0,0,1-.33-1.05v-.39a1.81,1.81,0,0,1,.31-1.13,1,1,0,0,1,.88-.41,1,1,0,0,1,.85.36,1.86,1.86,0,0,1,.29,1.12v.35h-1.81v.07a1.19,1.19,0,0,0,.2.76.71.71,0,0,0,.56.23.88.88,0,0,0,.41-.09,1,1,0,0,0,.34-.27l.27.33A1.21,1.21,0,0,1,462.17,135.22Zm-.06-2.89a.57.57,0,0,0-.49.23,1.34,1.34,0,0,0-.17.69h1.27v-.07a1.24,1.24,0,0,0-.17-.65A.5.5,0,0,0,462.11,132.33Z"/><path d="M465.22,132.43l-.24,0a.59.59,0,0,0-.57.45v2.3h-.53v-3.22h.51v.33a.66.66,0,0,1,.6-.39.41.41,0,0,1,.21,0Z"/><path d="M466.71,134.36l.62-2.42h.54l-1,3.22h-.4l-1-3.22h.54Z"/><path d="M469,131.08a.36.36,0,0,1-.08.23.27.27,0,0,1-.22.09.29.29,0,0,1-.23-.09.35.35,0,0,1-.07-.23.32.32,0,0,1,.07-.22.26.26,0,0,1,.23-.1.25.25,0,0,1,.22.1A.35.35,0,0,1,469,131.08Zm0,4.08h-.53v-3.22H469Z"/><path d="M470.94,134.77a.54.54,0,0,0,.42-.16.67.67,0,0,0,.18-.46h.5a1.14,1.14,0,0,1-.34.77,1,1,0,0,1-.76.3,1.09,1.09,0,0,1-.91-.38,1.65,1.65,0,0,1-.32-1.12v-.35a1.69,1.69,0,0,1,.31-1.11,1.11,1.11,0,0,1,.92-.38,1,1,0,0,1,.79.31,1.33,1.33,0,0,1,.31.86h-.5a.89.89,0,0,0-.18-.54.52.52,0,0,0-.42-.18.63.63,0,0,0-.53.23,1.35,1.35,0,0,0-.17.76v.41a1.39,1.39,0,0,0,.17.81A.62.62,0,0,0,470.94,134.77Z"/><path d="M473.8,135.22a1.2,1.2,0,0,1-.93-.36,1.55,1.55,0,0,1-.32-1.05v-.39a1.81,1.81,0,0,1,.31-1.13,1,1,0,0,1,.88-.41,1,1,0,0,1,.85.36,1.86,1.86,0,0,1,.29,1.12v.35h-1.81v.07a1.19,1.19,0,0,0,.2.76.71.71,0,0,0,.56.23.88.88,0,0,0,.41-.09,1,1,0,0,0,.34-.27l.27.33A1.21,1.21,0,0,1,473.8,135.22Zm-.06-2.89a.57.57,0,0,0-.49.23,1.34,1.34,0,0,0-.17.69h1.27v-.07a1.24,1.24,0,0,0-.17-.65A.5.5,0,0,0,473.74,132.33Z"/><path d="M479.72,133.78a1.63,1.63,0,0,1-.4,1.07,1.32,1.32,0,0,1-1,.37,1.26,1.26,0,0,1-1-.49,2.21,2.21,0,0,1-.38-1.35v-.79a2.07,2.07,0,0,1,.39-1.33,1.33,1.33,0,0,1,1.08-.5,1.26,1.26,0,0,1,1,.38,1.64,1.64,0,0,1,.38,1.07h-.56a1.33,1.33,0,0,0-.22-.75.72.72,0,0,0-.58-.23.79.79,0,0,0-.68.35,1.79,1.79,0,0,0-.24,1v.79a2,2,0,0,0,.22,1,.72.72,0,0,0,.65.35.8.8,0,0,0,.62-.21,1.36,1.36,0,0,0,.23-.76Z"/><rect class="cls-5" x="450.15" y="130.42" width="4.94" height="5.27"/><path class="cls-2" d="M454.75,130.76v4.6h-4.27v-4.6h4.27m.67-.67h-5.61V136h5.61v-5.94Z"/><path d="M459.87,107.12a.67.67,0,0,0-.18-.5,1.85,1.85,0,0,0-.63-.34,2.77,2.77,0,0,1-.71-.34,1.25,1.25,0,0,1-.36-.41,1.23,1.23,0,0,1,.22-1.38,1.26,1.26,0,0,1,.91-.33,1.3,1.3,0,0,1,.68.17,1.16,1.16,0,0,1,.46.47,1.38,1.38,0,0,1,.16.67h-.55a.93.93,0,0,0-.2-.63.71.71,0,0,0-.55-.22.7.7,0,0,0-.52.19.71.71,0,0,0-.18.52.61.61,0,0,0,.2.46,1.79,1.79,0,0,0,.61.33,2.18,2.18,0,0,1,.92.52,1.2,1.2,0,0,1,.27.81,1.1,1.1,0,0,1-.34.85,1.33,1.33,0,0,1-.94.31,1.53,1.53,0,0,1-.7-.16,1.26,1.26,0,0,1-.5-.47,1.2,1.2,0,0,1-.19-.68h.55a.79.79,0,0,0,.84.85.72.72,0,0,0,.55-.19A.68.68,0,0,0,459.87,107.12Z"/><path d="M462.22,108.27a1.23,1.23,0,0,1-.93-.35,1.56,1.56,0,0,1-.32-1.06v-.39a1.81,1.81,0,0,1,.31-1.13,1.06,1.06,0,0,1,.88-.41,1,1,0,0,1,.85.36,1.89,1.89,0,0,1,.29,1.13v.34h-1.81v.08a1.18,1.18,0,0,0,.2.75.68.68,0,0,0,.56.23,1,1,0,0,0,.41-.08,1.08,1.08,0,0,0,.34-.28l.27.33A1.21,1.21,0,0,1,462.22,108.27Zm-.06-2.89a.57.57,0,0,0-.49.23,1.35,1.35,0,0,0-.17.7h1.27v-.07a1.25,1.25,0,0,0-.17-.66A.5.5,0,0,0,462.16,105.38Z"/><path d="M465.27,105.49a1,1,0,0,0-.24,0,.59.59,0,0,0-.57.45v2.3h-.53V105h.51v.33a.65.65,0,0,1,.6-.39.56.56,0,0,1,.21,0Z"/><path d="M466.76,107.41l.62-2.42h.53l-1,3.22h-.39l-1-3.22h.54Z"/><path d="M469.08,104.14a.35.35,0,0,1-.08.22.27.27,0,0,1-.22.09.29.29,0,0,1-.23-.09.34.34,0,0,1-.07-.22.35.35,0,0,1,.07-.23.29.29,0,0,1,.23-.09.28.28,0,0,1,.22.09A.36.36,0,0,1,469.08,104.14Zm0,4.07h-.53V105H469Z"/><path d="M471,107.82a.54.54,0,0,0,.42-.16.67.67,0,0,0,.18-.46h.49a1.07,1.07,0,0,1-.33.77,1,1,0,0,1-.76.3,1.11,1.11,0,0,1-.91-.37,1.66,1.66,0,0,1-.32-1.12v-.36a1.69,1.69,0,0,1,.31-1.11,1.14,1.14,0,0,1,.92-.38,1.07,1.07,0,0,1,.79.31,1.3,1.3,0,0,1,.3.86h-.49a.89.89,0,0,0-.18-.54.52.52,0,0,0-.42-.18.61.61,0,0,0-.53.24,1.3,1.3,0,0,0-.17.75v.41a1.39,1.39,0,0,0,.17.81A.6.6,0,0,0,471,107.82Z"/><path d="M473.85,108.27a1.23,1.23,0,0,1-.93-.35,1.56,1.56,0,0,1-.32-1.06v-.39a1.81,1.81,0,0,1,.31-1.13,1.05,1.05,0,0,1,.88-.41,1,1,0,0,1,.85.36,1.89,1.89,0,0,1,.29,1.13v.34h-1.81v.08a1.18,1.18,0,0,0,.2.75.68.68,0,0,0,.56.23,1,1,0,0,0,.41-.08,1,1,0,0,0,.33-.28l.28.33A1.21,1.21,0,0,1,473.85,108.27Zm-.06-2.89a.57.57,0,0,0-.49.23,1.44,1.44,0,0,0-.18.7h1.28v-.07a1.25,1.25,0,0,0-.17-.66A.5.5,0,0,0,473.79,105.38Z"/><path d="M479.07,107.08H477.6l-.34,1.13h-.56l1.4-4.33h.47l1.4,4.33h-.56Zm-1.33-.47h1.19l-.6-2Z"/><path class="cls-5" d="M455.57,105.4,453,102.8a.38.38,0,0,0-.54,0l-2.6,2.59a.38.38,0,0,0,0,.54l2.61,2.61a.38.38,0,0,0,.54,0l2.6-2.59A.39.39,0,0,0,455.57,105.4Z"/><rect class="cls-11" x="445.72" y="113.05" width="41.42" height="13.55"/><rect class="cls-11" x="445.72" y="126.6" width="41.42" height="13.55"/><line class="cls-12" x1="445.72" y1="126.6" x2="487.14" y2="126.6"/><line class="cls-12" x1="445.72" y1="113.05" x2="487.14" y2="113.05"/><rect class="cls-2" x="395.16" y="85.01" width="41.42" height="55.14"/><rect class="cls-10" x="395.16" y="85.01" width="41.42" height="14.49"/><path class="cls-2" d="M401.52,94.93v-6.5h1.86a1.89,1.89,0,0,1,1.35.43,1.72,1.72,0,0,1,.45,1.3,1.44,1.44,0,0,1-.23.8,1.47,1.47,0,0,1-.62.54,1.29,1.29,0,0,1,.71.55,2.15,2.15,0,0,1-.22,2.38,1.83,1.83,0,0,1-1.37.5Zm.82-3.73h1.06a.88.88,0,0,0,.68-.29,1.05,1.05,0,0,0,.27-.76,1.07,1.07,0,0,0-.24-.78,1,1,0,0,0-.73-.24h-1Zm0,.69v2.34h1.12a.92.92,0,0,0,.74-.31,1.2,1.2,0,0,0,.28-.86c0-.78-.33-1.17-1-1.17Z"/><path class="cls-2" d="M408.89,94.51a1.37,1.37,0,0,1-1.15.51,1.18,1.18,0,0,1-1-.45,2.33,2.33,0,0,1-.34-1.32V90.1h.79v3.09c0,.75.23,1.13.68,1.13a1,1,0,0,0,1-.64V90.1h.79v4.83h-.75Z"/><path class="cls-2" d="M410.7,92.29a2.86,2.86,0,0,1,.41-1.7,1.37,1.37,0,0,1,1.2-.58,1.24,1.24,0,0,1,1.13.63l0-.54h.72V95a1.9,1.9,0,0,1-.47,1.37,1.67,1.67,0,0,1-1.28.48,2.18,2.18,0,0,1-.81-.17,1.82,1.82,0,0,1-.67-.44l.33-.54a1.51,1.51,0,0,0,1.09.48c.66,0,1-.36,1-1.08v-.63a1.23,1.23,0,0,1-1.09.57,1.39,1.39,0,0,1-1.17-.56,2.7,2.7,0,0,1-.44-1.63Zm.79.45a2.32,2.32,0,0,0,.24,1.2.87.87,0,0,0,.79.38.94.94,0,0,0,.88-.6V91.3a1,1,0,0,0-.88-.59.86.86,0,0,0-.78.38,2.14,2.14,0,0,0-.25,1.17Z"/><path class="cls-2" d="M415.72,94.93V90.74h-.63V90.1h.63v-.56a1.74,1.74,0,0,1,.38-1.15,1.27,1.27,0,0,1,1-.42,1.61,1.61,0,0,1,.48.08l0,.67a1.5,1.5,0,0,0-.37,0c-.45,0-.67.32-.67,1v.46h.83v.64h-.83v4.19Z"/><path class="cls-2" d="M419.2,88.81a.49.49,0,0,1-.12.34.4.4,0,0,1-.34.13.39.39,0,0,1-.33-.13.48.48,0,0,1-.11-.34.47.47,0,0,1,.11-.33.37.37,0,0,1,.33-.14.39.39,0,0,1,.34.14A.48.48,0,0,1,419.2,88.81Zm-.07,6.12h-.79V90.1h.79Z"/><path class="cls-2" d="M421.78,91.86l.83-1.76h.92l-1.32,2.39,1.35,2.44h-.91l-.85-1.81-.86,1.81H420l1.35-2.44-1.31-2.39H421Z"/><path class="cls-2" d="M426.62,94.93v-6.5h1.86a1.85,1.85,0,0,1,1.34.43,1.72,1.72,0,0,1,.45,1.3,1.37,1.37,0,0,1-.23.8,1.39,1.39,0,0,1-.61.54,1.29,1.29,0,0,1,.71.55,2.15,2.15,0,0,1-.22,2.38,1.84,1.84,0,0,1-1.38.5Zm.82-3.73h1.05a.88.88,0,0,0,.69-.29,1,1,0,0,0,.26-.76,1.07,1.07,0,0,0-.23-.78,1,1,0,0,0-.73-.24h-1Zm0,.69v2.34h1.12a.92.92,0,0,0,.74-.31,1.25,1.25,0,0,0,.27-.86q0-1.17-1-1.17Z"/><rect class="cls-2" x="395.16" y="113.05" width="41.42" height="13.55"/><path d="M409.67,120.9a.67.67,0,0,0-.18-.5,1.77,1.77,0,0,0-.64-.33,2.83,2.83,0,0,1-.7-.35,1.42,1.42,0,0,1-.37-.41,1.12,1.12,0,0,1-.12-.53,1.14,1.14,0,0,1,.35-.85,1.41,1.41,0,0,1,1.58-.16,1.1,1.1,0,0,1,.46.47,1.39,1.39,0,0,1,.17.67h-.55a.89.89,0,0,0-.2-.62.82.82,0,0,0-1.07,0,.71.71,0,0,0-.18.52.6.6,0,0,0,.19.46,1.89,1.89,0,0,0,.61.33,2.12,2.12,0,0,1,.92.52,1.16,1.16,0,0,1,.28.81,1.09,1.09,0,0,1-.35.85,1.31,1.31,0,0,1-.93.32,1.51,1.51,0,0,1-.7-.17,1.26,1.26,0,0,1-.51-.46,1.31,1.31,0,0,1-.18-.69h.55a.78.78,0,0,0,.23.62.82.82,0,0,0,.61.23.7.7,0,0,0,.54-.19A.65.65,0,0,0,409.67,120.9Z"/><path d="M412,122.06a1.2,1.2,0,0,1-.93-.36,1.62,1.62,0,0,1-.33-1.06v-.39a1.83,1.83,0,0,1,.32-1.13,1.05,1.05,0,0,1,.88-.41,1,1,0,0,1,.85.36,1.89,1.89,0,0,1,.28,1.13v.34h-1.8v.08a1.18,1.18,0,0,0,.19.75.7.7,0,0,0,.57.24.91.91,0,0,0,.41-.09,1,1,0,0,0,.33-.28l.28.33A1.21,1.21,0,0,1,412,122.06Zm-.06-2.89a.56.56,0,0,0-.49.22,1.44,1.44,0,0,0-.18.7h1.28V120a1.25,1.25,0,0,0-.17-.66A.51.51,0,0,0,412,119.17Z"/><path d="M415.06,119.27a.9.9,0,0,0-.24,0,.56.56,0,0,0-.56.44V122h-.53v-3.23h.51v.33a.64.64,0,0,1,.81-.35Z"/><path d="M416.56,121.19l.61-2.42h.54l-1,3.23h-.39l-1-3.23h.53Z"/><path d="M418.87,117.92a.32.32,0,0,1-.07.22.29.29,0,0,1-.23.09.27.27,0,0,1-.22-.09.33.33,0,0,1-.08-.22.36.36,0,0,1,.08-.23.27.27,0,0,1,.22-.09.29.29,0,0,1,.23.09A.35.35,0,0,1,418.87,117.92Zm0,4.08h-.53v-3.23h.53Z"/><path d="M420.79,121.61a.57.57,0,0,0,.42-.17.69.69,0,0,0,.17-.46h.5a1.09,1.09,0,0,1-1.09,1.08,1.14,1.14,0,0,1-.92-.38,1.72,1.72,0,0,1-.31-1.12v-.36a1.73,1.73,0,0,1,.31-1.11,1.13,1.13,0,0,1,.92-.38,1,1,0,0,1,.78.32,1.21,1.21,0,0,1,.31.85h-.5a.89.89,0,0,0-.17-.54.51.51,0,0,0-.42-.17.6.6,0,0,0-.53.23,1.3,1.3,0,0,0-.17.75v.42a1.45,1.45,0,0,0,.16.8A.62.62,0,0,0,420.79,121.61Z"/><path d="M423.65,122.06a1.2,1.2,0,0,1-.93-.36,1.62,1.62,0,0,1-.33-1.06v-.39a1.83,1.83,0,0,1,.32-1.13,1.05,1.05,0,0,1,.88-.41,1,1,0,0,1,.85.36,1.89,1.89,0,0,1,.28,1.13v.34h-1.8v.08a1.18,1.18,0,0,0,.19.75.7.7,0,0,0,.57.24.91.91,0,0,0,.41-.09,1,1,0,0,0,.33-.28l.28.33A1.21,1.21,0,0,1,423.65,122.06Zm-.06-2.89a.56.56,0,0,0-.49.22,1.44,1.44,0,0,0-.18.7h1.28V120a1.25,1.25,0,0,0-.17-.66A.51.51,0,0,0,423.59,119.17Z"/><path d="M426.83,122v-4.34h1.24a1.22,1.22,0,0,1,.9.29,1.14,1.14,0,0,1,.3.86,1,1,0,0,1-.15.54,1,1,0,0,1-.42.36.83.83,0,0,1,.48.37,1.43,1.43,0,0,1-.15,1.58,1.21,1.21,0,0,1-.91.34Zm.55-2.49h.7a.63.63,0,0,0,.46-.19.72.72,0,0,0,.18-.51.75.75,0,0,0-.16-.52.66.66,0,0,0-.49-.16h-.69Zm0,.46v1.56h.75a.62.62,0,0,0,.49-.21.81.81,0,0,0,.18-.57q0-.78-.66-.78Z"/><path class="cls-5" d="M402.39,122.5a3.05,3.05,0,1,1,3-3.09,3,3,0,0,1-3,3.09Z"/><path class="cls-2" d="M402.4,116.8a2.62,2.62,0,0,1,2.62,2.61v.08a2.62,2.62,0,0,1-2.62,2.61h0a2.61,2.61,0,0,1-2.61-2.61v-.08a2.61,2.61,0,0,1,2.61-2.61h0m0-.79h0a3.4,3.4,0,0,0-3.4,3.4v.08a3.41,3.41,0,0,0,6.82,0v-.08a3.41,3.41,0,0,0-3.41-3.4Z"/><path d="M409.26,134.07a.69.69,0,0,0-.17-.5,1.76,1.76,0,0,0-.64-.34,2.68,2.68,0,0,1-.7-.34,1.18,1.18,0,0,1-.37-.41,1.15,1.15,0,0,1-.12-.53,1.12,1.12,0,0,1,.35-.85,1.25,1.25,0,0,1,.9-.34,1.37,1.37,0,0,1,.68.17,1.25,1.25,0,0,1,.46.48,1.35,1.35,0,0,1,.16.67h-.55a.93.93,0,0,0-.19-.63.74.74,0,0,0-.56-.22.66.66,0,0,0-.51.19.67.67,0,0,0-.19.52.63.63,0,0,0,.2.46,1.89,1.89,0,0,0,.61.33,2,2,0,0,1,.92.52,1.21,1.21,0,0,1,.28.81,1.09,1.09,0,0,1-.35.84,1.28,1.28,0,0,1-.93.32,1.47,1.47,0,0,1-.7-.16,1.22,1.22,0,0,1-.51-.47,1.31,1.31,0,0,1-.18-.69h.55a.85.85,0,0,0,.22.63.84.84,0,0,0,.62.22.73.73,0,0,0,.54-.18A.68.68,0,0,0,409.26,134.07Z"/><path d="M411.62,135.22a1.17,1.17,0,0,1-.93-.36,1.5,1.5,0,0,1-.33-1.05v-.39a1.81,1.81,0,0,1,.32-1.13,1,1,0,0,1,.88-.41,1,1,0,0,1,.84.36,1.79,1.79,0,0,1,.29,1.12v.35h-1.8v.07a1.2,1.2,0,0,0,.19.76.72.72,0,0,0,.57.23.91.91,0,0,0,.41-.09,1,1,0,0,0,.33-.27l.27.33A1.18,1.18,0,0,1,411.62,135.22Zm-.06-2.89a.56.56,0,0,0-.49.23,1.24,1.24,0,0,0-.18.69h1.27v-.07a1.25,1.25,0,0,0-.16-.65A.53.53,0,0,0,411.56,132.33Z"/><path d="M414.66,132.43l-.24,0a.59.59,0,0,0-.57.45v2.3h-.52v-3.22h.51v.33a.65.65,0,0,1,.6-.39.46.46,0,0,1,.21,0Z"/><path d="M416.16,134.36l.61-2.42h.54l-1,3.22H416l-1-3.22h.54Z"/><path d="M418.47,131.08a.35.35,0,0,1-.07.23.29.29,0,0,1-.23.09.27.27,0,0,1-.22-.09.36.36,0,0,1-.08-.23.33.33,0,0,1,.08-.22.25.25,0,0,1,.22-.1.28.28,0,0,1,.23.1A.34.34,0,0,1,418.47,131.08Zm0,4.08h-.53v-3.22h.53Z"/><path d="M420.39,134.77a.57.57,0,0,0,.42-.16.71.71,0,0,0,.17-.46h.5a1.09,1.09,0,0,1-.33.77,1.06,1.06,0,0,1-.76.3,1.11,1.11,0,0,1-.92-.38,1.7,1.7,0,0,1-.32-1.12v-.35a1.69,1.69,0,0,1,.32-1.11,1.09,1.09,0,0,1,.91-.38,1,1,0,0,1,.79.31,1.28,1.28,0,0,1,.31.86H421a.89.89,0,0,0-.17-.54.54.54,0,0,0-.43-.18.61.61,0,0,0-.52.23,1.43,1.43,0,0,0-.18.76v.41a1.48,1.48,0,0,0,.17.81A.63.63,0,0,0,420.39,134.77Z"/><path d="M423.25,135.22a1.17,1.17,0,0,1-.93-.36,1.5,1.5,0,0,1-.33-1.05v-.39a1.81,1.81,0,0,1,.32-1.13,1,1,0,0,1,.88-.41,1,1,0,0,1,.84.36,1.79,1.79,0,0,1,.29,1.12v.35h-1.8v.07a1.2,1.2,0,0,0,.19.76.72.72,0,0,0,.57.23.91.91,0,0,0,.41-.09,1,1,0,0,0,.33-.27l.27.33A1.18,1.18,0,0,1,423.25,135.22Zm-.06-2.89a.56.56,0,0,0-.49.23,1.24,1.24,0,0,0-.18.69h1.27v-.07a1.25,1.25,0,0,0-.16-.65A.53.53,0,0,0,423.19,132.33Z"/><path d="M429.16,133.78a1.63,1.63,0,0,1-.39,1.07,1.34,1.34,0,0,1-1,.37,1.24,1.24,0,0,1-1-.49,2.15,2.15,0,0,1-.39-1.35v-.79a2,2,0,0,1,.4-1.33,1.3,1.3,0,0,1,1.08-.5,1.29,1.29,0,0,1,1,.38,1.69,1.69,0,0,1,.37,1.07h-.55a1.33,1.33,0,0,0-.23-.75.69.69,0,0,0-.57-.23.79.79,0,0,0-.69.35,1.79,1.79,0,0,0-.23,1v.79a1.87,1.87,0,0,0,.22,1,.71.71,0,0,0,.65.35.78.78,0,0,0,.61-.21,1.28,1.28,0,0,0,.24-.76Z"/><rect class="cls-5" x="399.59" y="130.42" width="4.94" height="5.27"/><path class="cls-2" d="M404.2,130.76v4.6h-4.28v-4.6h4.28m.66-.67h-5.6V136h5.6v-5.94Z"/><path d="M409.31,107.12a.7.7,0,0,0-.17-.5,1.92,1.92,0,0,0-.64-.34,2.68,2.68,0,0,1-.7-.34,1.18,1.18,0,0,1-.37-.41,1.12,1.12,0,0,1-.12-.53,1.14,1.14,0,0,1,.35-.85,1.25,1.25,0,0,1,.9-.33,1.27,1.27,0,0,1,.68.17,1.16,1.16,0,0,1,.46.47,1.38,1.38,0,0,1,.16.67h-.55a.93.93,0,0,0-.19-.63.74.74,0,0,0-.56-.22.69.69,0,0,0-.51.19.68.68,0,0,0-.19.52.61.61,0,0,0,.2.46,1.89,1.89,0,0,0,.61.33,2.12,2.12,0,0,1,.92.52,1.21,1.21,0,0,1,.28.81,1.11,1.11,0,0,1-.35.85,1.32,1.32,0,0,1-.93.31,1.47,1.47,0,0,1-.7-.16,1.22,1.22,0,0,1-.51-.47,1.28,1.28,0,0,1-.18-.68h.55a.83.83,0,0,0,.22.62.85.85,0,0,0,.62.23.7.7,0,0,0,.54-.19A.68.68,0,0,0,409.31,107.12Z"/><path d="M411.66,108.27a1.19,1.19,0,0,1-.92-.35,1.51,1.51,0,0,1-.33-1.06v-.39a1.81,1.81,0,0,1,.32-1.13,1.05,1.05,0,0,1,.88-.41,1,1,0,0,1,.84.36,1.82,1.82,0,0,1,.29,1.13v.34h-1.8v.08a1.18,1.18,0,0,0,.19.75.69.69,0,0,0,.57.23,1.07,1.07,0,0,0,.41-.08,1.05,1.05,0,0,0,.33-.28l.27.33A1.18,1.18,0,0,1,411.66,108.27Zm-.05-2.89a.56.56,0,0,0-.49.23,1.25,1.25,0,0,0-.18.7h1.27v-.07a1.27,1.27,0,0,0-.16-.66A.53.53,0,0,0,411.61,105.38Z"/><path d="M414.71,105.49a.88.88,0,0,0-.24,0,.59.59,0,0,0-.57.45v2.3h-.53V105h.52v.33a.64.64,0,0,1,.81-.35Z"/><path d="M416.21,107.41l.61-2.42h.54l-1,3.22H416L415,105h.54Z"/><path d="M418.52,104.14a.34.34,0,0,1-.07.22.29.29,0,0,1-.23.09.27.27,0,0,1-.22-.09.35.35,0,0,1-.08-.22.36.36,0,0,1,.08-.23.27.27,0,0,1,.22-.09.3.3,0,0,1,.23.09A.35.35,0,0,1,418.52,104.14Zm0,4.07H418V105h.53Z"/><path d="M420.44,107.82a.57.57,0,0,0,.42-.16.71.71,0,0,0,.17-.46h.5a1.07,1.07,0,0,1-.33.77,1.06,1.06,0,0,1-.76.3,1.14,1.14,0,0,1-.92-.37,1.72,1.72,0,0,1-.32-1.12v-.36a1.69,1.69,0,0,1,.32-1.11,1.12,1.12,0,0,1,.91-.38,1.05,1.05,0,0,1,.79.31,1.3,1.3,0,0,1,.31.86H421a.89.89,0,0,0-.17-.54.54.54,0,0,0-.43-.18.59.59,0,0,0-.52.24,1.37,1.37,0,0,0-.18.75v.41a1.48,1.48,0,0,0,.17.81A.6.6,0,0,0,420.44,107.82Z"/><path d="M423.29,108.27a1.19,1.19,0,0,1-.92-.35,1.51,1.51,0,0,1-.33-1.06v-.39a1.81,1.81,0,0,1,.32-1.13,1.05,1.05,0,0,1,.88-.41,1,1,0,0,1,.84.36,1.82,1.82,0,0,1,.29,1.13v.34h-1.8v.08a1.18,1.18,0,0,0,.19.75.69.69,0,0,0,.57.23,1.07,1.07,0,0,0,.41-.08,1.05,1.05,0,0,0,.33-.28l.27.33A1.18,1.18,0,0,1,423.29,108.27Zm-.05-2.89a.56.56,0,0,0-.49.23,1.25,1.25,0,0,0-.18.7h1.27v-.07a1.27,1.27,0,0,0-.16-.66A.53.53,0,0,0,423.24,105.38Z"/><path d="M428.51,107.08H427l-.34,1.13h-.56l1.4-4.33H428l1.41,4.33h-.57Zm-1.33-.47h1.19l-.59-2Z"/><path class="cls-5" d="M405,105.4l-2.61-2.6a.39.39,0,0,0-.55,0l-2.6,2.59a.38.38,0,0,0,0,.54l2.61,2.61a.39.39,0,0,0,.55,0L405,106A.39.39,0,0,0,405,105.4Z"/><rect class="cls-11" x="395.16" y="99.5" width="41.42" height="13.55"/><rect class="cls-11" x="395.16" y="126.6" width="41.42" height="13.55"/><line class="cls-12" x1="395.16" y1="126.6" x2="436.58" y2="126.6"/><line class="cls-12" x1="395.16" y1="113.05" x2="436.58" y2="113.05"/><rect class="cls-2" x="343.84" y="85.01" width="41.42" height="55.14"/><rect class="cls-10" x="343.84" y="85.01" width="41.42" height="14.49"/><path class="cls-2" d="M353.65,88.43l1.71,5.3,1.7-5.3h1.06v6.5h-.82V92.4l.07-2.54-1.7,5.07H355l-1.7-5.05.08,2.52v2.53h-.82v-6.5Z"/><path class="cls-2" d="M361.91,94.93a1.64,1.64,0,0,1-.1-.53,1.27,1.27,0,0,1-1.08.62,1.35,1.35,0,0,1-1-.37,1.38,1.38,0,0,1-.37-1,1.45,1.45,0,0,1,.5-1.17,2.06,2.06,0,0,1,1.37-.44h.59v-.51a.68.68,0,0,0-.78-.8.84.84,0,0,0-.59.21.7.7,0,0,0-.22.54h-.79a1.24,1.24,0,0,1,.22-.71,1.45,1.45,0,0,1,.59-.53,1.75,1.75,0,0,1,.83-.19,1.57,1.57,0,0,1,1.13.37,1.39,1.39,0,0,1,.39,1.07v2.44a3.07,3.07,0,0,0,.16,1v.07Zm-1.05-.63a1,1,0,0,0,.55-.16,1,1,0,0,0,.39-.4V92.59h-.45a1.45,1.45,0,0,0-.89.25.8.8,0,0,0-.33.68.92.92,0,0,0,.16.6A.76.76,0,0,0,360.86,94.3Z"/><path class="cls-2" d="M366.17,93.69a.56.56,0,0,0-.19-.43,2.59,2.59,0,0,0-.75-.43,6.1,6.1,0,0,1-.9-.45,1.43,1.43,0,0,1-.39-.43,1.14,1.14,0,0,1-.13-.57,1.26,1.26,0,0,1,.43-1,1.6,1.6,0,0,1,1.11-.39,1.53,1.53,0,0,1,1.13.41,1.37,1.37,0,0,1,.43,1h-.79a.79.79,0,0,0-.21-.55.73.73,0,0,0-.56-.23.78.78,0,0,0-.55.18.59.59,0,0,0-.2.48.56.56,0,0,0,.14.39,2.87,2.87,0,0,0,.7.39,3.48,3.48,0,0,1,1.21.67,1.16,1.16,0,0,1,.31.83,1.27,1.27,0,0,1-.43,1,2,2,0,0,1-2.39,0,1.43,1.43,0,0,1-.48-1.1h.8a.87.87,0,0,0,.25.63.89.89,0,0,0,.65.23.86.86,0,0,0,.6-.18A.6.6,0,0,0,366.17,93.69Z"/><path class="cls-2" d="M369,88.93V90.1h.73v.64H369v3a.74.74,0,0,0,.1.43.35.35,0,0,0,.32.15,1,1,0,0,0,.32-.06v.67a1.71,1.71,0,0,1-.55.09.83.83,0,0,1-.72-.34,1.57,1.57,0,0,1-.24-.94v-3h-.74V90.1h.74V88.93Z"/><path class="cls-2" d="M372.44,95a1.76,1.76,0,0,1-1.39-.54,2.3,2.3,0,0,1-.49-1.58v-.58a2.7,2.7,0,0,1,.47-1.7,1.55,1.55,0,0,1,1.32-.61,1.5,1.5,0,0,1,1.27.54,2.8,2.8,0,0,1,.43,1.68v.52h-2.71v.11a1.72,1.72,0,0,0,.3,1.13,1,1,0,0,0,.84.36,1.35,1.35,0,0,0,.62-.14,1.44,1.44,0,0,0,.5-.41l.41.5A1.8,1.8,0,0,1,372.44,95Zm-.09-4.33a.84.84,0,0,0-.73.33,2,2,0,0,0-.27,1h1.91V92a1.9,1.9,0,0,0-.25-1A.79.79,0,0,0,372.35,90.69Z"/><path class="cls-2" d="M377,90.84a2,2,0,0,0-.35,0,.88.88,0,0,0-.86.66v3.46H375V90.1h.77l0,.49a1,1,0,0,1,.9-.58.71.71,0,0,1,.31.06Z"/><rect class="cls-2" x="343.84" y="99.5" width="41.42" height="13.55"/><rect class="cls-2" x="343.84" y="113.05" width="41.42" height="13.55"/><rect class="cls-2" x="343.84" y="126.6" width="41.42" height="13.55"/><path d="M358.34,120.9a.7.7,0,0,0-.17-.5,1.77,1.77,0,0,0-.64-.33,2.66,2.66,0,0,1-.7-.35,1.18,1.18,0,0,1-.37-.41,1.12,1.12,0,0,1-.12-.53,1.1,1.1,0,0,1,.35-.85,1.25,1.25,0,0,1,.9-.33,1.3,1.3,0,0,1,.68.17,1.16,1.16,0,0,1,.46.47,1.38,1.38,0,0,1,.16.67h-.55a.89.89,0,0,0-.19-.62.7.7,0,0,0-.56-.22.69.69,0,0,0-.51.18.68.68,0,0,0-.19.52.61.61,0,0,0,.2.46,1.79,1.79,0,0,0,.61.33,2.18,2.18,0,0,1,.92.52,1.21,1.21,0,0,1,.28.81,1.09,1.09,0,0,1-.35.85,1.33,1.33,0,0,1-.93.32,1.48,1.48,0,0,1-.7-.17,1.2,1.2,0,0,1-.51-.46,1.31,1.31,0,0,1-.18-.69h.55a.81.81,0,0,0,.22.62.85.85,0,0,0,.62.23.7.7,0,0,0,.54-.19A.68.68,0,0,0,358.34,120.9Z"/><path d="M360.69,122.06a1.16,1.16,0,0,1-.92-.36,1.51,1.51,0,0,1-.33-1.06v-.39a1.83,1.83,0,0,1,.31-1.13,1.06,1.06,0,0,1,.88-.41,1,1,0,0,1,.85.36,1.82,1.82,0,0,1,.29,1.13v.34H360v.08a1.18,1.18,0,0,0,.19.75.68.68,0,0,0,.56.24.93.93,0,0,0,.42-.09,1.05,1.05,0,0,0,.33-.28l.27.33A1.21,1.21,0,0,1,360.69,122.06Zm-.06-2.89a.54.54,0,0,0-.48.22,1.25,1.25,0,0,0-.18.7h1.27V120a1.27,1.27,0,0,0-.16-.66A.53.53,0,0,0,360.63,119.17Z"/><path d="M363.74,119.27a.9.9,0,0,0-.24,0,.58.58,0,0,0-.57.44V122h-.53v-3.23h.52v.33a.64.64,0,0,1,.81-.35Z"/><path d="M365.24,121.19l.61-2.42h.54l-1,3.23H365l-1-3.23h.54Z"/><path d="M367.55,117.92a.32.32,0,0,1-.07.22.29.29,0,0,1-.23.09.27.27,0,0,1-.22-.09.33.33,0,0,1-.08-.22.36.36,0,0,1,.08-.23.31.31,0,0,1,.44,0A.31.31,0,0,1,367.55,117.92Zm0,4.08H367v-3.23h.53Z"/><path d="M369.46,121.61a.58.58,0,0,0,.43-.17.69.69,0,0,0,.17-.46h.5a1.09,1.09,0,0,1-1.1,1.08,1.12,1.12,0,0,1-.91-.38,1.72,1.72,0,0,1-.32-1.12v-.36a1.73,1.73,0,0,1,.32-1.11,1.12,1.12,0,0,1,.91-.38,1,1,0,0,1,.79.32,1.25,1.25,0,0,1,.31.85h-.5a.89.89,0,0,0-.17-.54.53.53,0,0,0-.43-.17.59.59,0,0,0-.52.23,1.37,1.37,0,0,0-.18.75v.42a1.44,1.44,0,0,0,.17.8A.6.6,0,0,0,369.46,121.61Z"/><path d="M372.32,122.06a1.16,1.16,0,0,1-.92-.36,1.51,1.51,0,0,1-.33-1.06v-.39a1.83,1.83,0,0,1,.31-1.13,1.06,1.06,0,0,1,.88-.41,1,1,0,0,1,.85.36,1.82,1.82,0,0,1,.29,1.13v.34h-1.8v.08a1.18,1.18,0,0,0,.19.75.68.68,0,0,0,.56.24.93.93,0,0,0,.42-.09,1.05,1.05,0,0,0,.33-.28l.27.33A1.21,1.21,0,0,1,372.32,122.06Zm-.06-2.89a.54.54,0,0,0-.48.22,1.25,1.25,0,0,0-.18.7h1.27V120a1.27,1.27,0,0,0-.16-.66A.53.53,0,0,0,372.26,119.17Z"/><path d="M375.51,122v-4.34h1.24a1.22,1.22,0,0,1,.9.29,1.14,1.14,0,0,1,.3.86.89.89,0,0,1-.16.54,1,1,0,0,1-.41.36.83.83,0,0,1,.48.37,1.24,1.24,0,0,1,.17.66,1.29,1.29,0,0,1-.32.92,1.24,1.24,0,0,1-.92.34Zm.55-2.49h.7a.63.63,0,0,0,.46-.19.77.77,0,0,0,.17-.51.7.7,0,0,0-.16-.52.62.62,0,0,0-.48-.16h-.69Zm0,.46v1.56h.74a.63.63,0,0,0,.5-.21.81.81,0,0,0,.18-.57q0-.78-.66-.78Z"/><path class="cls-5" d="M351.07,122.5a3.05,3.05,0,1,1,3-3.09,3,3,0,0,1-3,3.09Z"/><path class="cls-2" d="M351.08,116.8a2.61,2.61,0,0,1,2.61,2.61v.08a2.61,2.61,0,0,1-2.61,2.61h0a2.62,2.62,0,0,1-2.62-2.61v-.08a2.62,2.62,0,0,1,2.62-2.61h0m0-.79h0a3.41,3.41,0,0,0-3.41,3.4v.08a3.41,3.41,0,0,0,6.82,0v-.08a3.4,3.4,0,0,0-3.4-3.4Z"/><path d="M357.94,134.07a.65.65,0,0,0-.18-.5,1.69,1.69,0,0,0-.63-.34,3,3,0,0,1-.71-.34,1.25,1.25,0,0,1-.36-.41,1.15,1.15,0,0,1-.12-.53,1.12,1.12,0,0,1,.34-.85,1.26,1.26,0,0,1,.91-.34,1.4,1.4,0,0,1,.68.17,1.25,1.25,0,0,1,.46.48,1.35,1.35,0,0,1,.16.67h-.55a.93.93,0,0,0-.19-.63.74.74,0,0,0-.56-.22.68.68,0,0,0-.52.19.7.7,0,0,0-.18.52.63.63,0,0,0,.2.46,1.79,1.79,0,0,0,.61.33,2.08,2.08,0,0,1,.92.52,1.2,1.2,0,0,1,.27.81,1.08,1.08,0,0,1-.34.84,1.29,1.29,0,0,1-.94.32,1.53,1.53,0,0,1-.7-.16,1.26,1.26,0,0,1-.5-.47,1.32,1.32,0,0,1-.19-.69h.55a.85.85,0,0,0,.23.63.82.82,0,0,0,.61.22.76.76,0,0,0,.55-.18A.68.68,0,0,0,357.94,134.07Z"/><path d="M360.29,135.22a1.16,1.16,0,0,1-.92-.36,1.5,1.5,0,0,1-.33-1.05v-.39a1.81,1.81,0,0,1,.31-1.13,1,1,0,0,1,.88-.41,1,1,0,0,1,.85.36,1.86,1.86,0,0,1,.29,1.12v.35h-1.81v.07a1.19,1.19,0,0,0,.2.76.71.71,0,0,0,.56.23.88.88,0,0,0,.41-.09,1,1,0,0,0,.34-.27l.27.33A1.21,1.21,0,0,1,360.29,135.22Zm-.06-2.89a.54.54,0,0,0-.48.23,1.24,1.24,0,0,0-.18.69h1.27v-.07a1.15,1.15,0,0,0-.17-.65A.5.5,0,0,0,360.23,132.33Z"/><path d="M363.34,132.43l-.24,0a.59.59,0,0,0-.57.45v2.3H362v-3.22h.52v.33a.65.65,0,0,1,.6-.39.4.4,0,0,1,.2,0Z"/><path d="M364.84,134.36l.61-2.42H366l-1,3.22h-.4l-1-3.22h.54Z"/><path d="M367.15,131.08a.36.36,0,0,1-.08.23.27.27,0,0,1-.22.09.29.29,0,0,1-.23-.09.35.35,0,0,1-.07-.23.32.32,0,0,1,.07-.22.26.26,0,0,1,.23-.1.25.25,0,0,1,.22.1A.35.35,0,0,1,367.15,131.08Zm0,4.08h-.53v-3.22h.53Z"/><path d="M369.06,134.77a.54.54,0,0,0,.42-.16.67.67,0,0,0,.18-.46h.5a1.18,1.18,0,0,1-.33.77,1.21,1.21,0,0,1-1.68-.08,1.7,1.7,0,0,1-.32-1.12v-.35a1.75,1.75,0,0,1,.31-1.11,1.11,1.11,0,0,1,.92-.38,1,1,0,0,1,.79.31,1.33,1.33,0,0,1,.31.86h-.5a.89.89,0,0,0-.17-.54.55.55,0,0,0-.43-.18.6.6,0,0,0-.52.23,1.27,1.27,0,0,0-.18.76v.41a1.48,1.48,0,0,0,.17.81A.62.62,0,0,0,369.06,134.77Z"/><path d="M371.92,135.22a1.16,1.16,0,0,1-.92-.36,1.5,1.5,0,0,1-.33-1.05v-.39a1.81,1.81,0,0,1,.31-1.13,1,1,0,0,1,.88-.41,1,1,0,0,1,.85.36,1.86,1.86,0,0,1,.29,1.12v.35h-1.81v.07a1.19,1.19,0,0,0,.2.76.71.71,0,0,0,.56.23.88.88,0,0,0,.41-.09,1,1,0,0,0,.34-.27l.27.33A1.21,1.21,0,0,1,371.92,135.22Zm-.06-2.89a.57.57,0,0,0-.49.23,1.34,1.34,0,0,0-.17.69h1.27v-.07a1.24,1.24,0,0,0-.17-.65A.5.5,0,0,0,371.86,132.33Z"/><path d="M377.84,133.78a1.63,1.63,0,0,1-.4,1.07,1.32,1.32,0,0,1-1,.37,1.26,1.26,0,0,1-1-.49,2.21,2.21,0,0,1-.38-1.35v-.79a2,2,0,0,1,.4-1.33,1.3,1.3,0,0,1,1.08-.5,1.25,1.25,0,0,1,1,.38,1.64,1.64,0,0,1,.38,1.07h-.56a1.26,1.26,0,0,0-.22-.75.72.72,0,0,0-.57-.23.79.79,0,0,0-.69.35,1.79,1.79,0,0,0-.24,1v.79a1.86,1.86,0,0,0,.23,1,.69.69,0,0,0,.64.35.8.8,0,0,0,.62-.21,1.28,1.28,0,0,0,.23-.76Z"/><rect class="cls-5" x="348.27" y="130.42" width="4.94" height="5.27"/><path class="cls-2" d="M352.87,130.76v4.6H348.6v-4.6h4.27m.67-.67h-5.61V136h5.61v-5.94Z"/><path d="M358,107.12a.67.67,0,0,0-.18-.5,1.85,1.85,0,0,0-.63-.34,3,3,0,0,1-.71-.34,1.25,1.25,0,0,1-.36-.41,1.23,1.23,0,0,1,.22-1.38,1.26,1.26,0,0,1,.91-.33,1.3,1.3,0,0,1,.68.17,1.16,1.16,0,0,1,.46.47,1.38,1.38,0,0,1,.16.67H358a.93.93,0,0,0-.19-.63.74.74,0,0,0-.56-.22.64.64,0,0,0-.7.71.61.61,0,0,0,.2.46,1.79,1.79,0,0,0,.61.33,2.18,2.18,0,0,1,.92.52,1.2,1.2,0,0,1,.27.81,1.1,1.1,0,0,1-.34.85,1.33,1.33,0,0,1-.94.31,1.53,1.53,0,0,1-.7-.16,1.26,1.26,0,0,1-.5-.47,1.29,1.29,0,0,1-.19-.68h.55a.79.79,0,0,0,.84.85.72.72,0,0,0,.55-.19A.68.68,0,0,0,358,107.12Z"/><path d="M360.34,108.27a1.19,1.19,0,0,1-.92-.35,1.51,1.51,0,0,1-.33-1.06v-.39a1.81,1.81,0,0,1,.31-1.13,1.06,1.06,0,0,1,.88-.41,1,1,0,0,1,.85.36,1.89,1.89,0,0,1,.29,1.13v.34h-1.81v.08a1.18,1.18,0,0,0,.2.75.68.68,0,0,0,.56.23,1,1,0,0,0,.41-.08,1.08,1.08,0,0,0,.34-.28l.27.33A1.21,1.21,0,0,1,360.34,108.27Zm-.06-2.89a.57.57,0,0,0-.49.23,1.35,1.35,0,0,0-.17.7h1.27v-.07a1.25,1.25,0,0,0-.17-.66A.5.5,0,0,0,360.28,105.38Z"/><path d="M363.39,105.49a1,1,0,0,0-.24,0,.59.59,0,0,0-.57.45v2.3h-.53V105h.52v.33a.65.65,0,0,1,.6-.39.54.54,0,0,1,.2,0Z"/><path d="M364.89,107.41l.61-2.42H366l-1,3.22h-.4l-1-3.22h.54Z"/><path d="M367.2,104.14a.35.35,0,0,1-.08.22.27.27,0,0,1-.22.09.29.29,0,0,1-.23-.09.34.34,0,0,1-.07-.22.35.35,0,0,1,.07-.23.29.29,0,0,1,.23-.09.27.27,0,0,1,.22.09A.36.36,0,0,1,367.2,104.14Zm0,4.07h-.53V105h.53Z"/><path d="M369.11,107.82a.54.54,0,0,0,.42-.16.67.67,0,0,0,.18-.46h.5a1.16,1.16,0,0,1-.33.77,1.08,1.08,0,0,1-.77.3,1.11,1.11,0,0,1-.91-.37,1.72,1.72,0,0,1-.32-1.12v-.36a1.75,1.75,0,0,1,.31-1.11,1.14,1.14,0,0,1,.92-.38,1.07,1.07,0,0,1,.79.31,1.36,1.36,0,0,1,.31.86h-.5a.89.89,0,0,0-.17-.54.55.55,0,0,0-.43-.18.58.58,0,0,0-.52.24,1.21,1.21,0,0,0-.18.75v.41a1.48,1.48,0,0,0,.17.81A.6.6,0,0,0,369.11,107.82Z"/><path d="M372,108.27a1.19,1.19,0,0,1-.92-.35,1.51,1.51,0,0,1-.33-1.06v-.39a1.81,1.81,0,0,1,.31-1.13,1.06,1.06,0,0,1,.88-.41,1,1,0,0,1,.85.36,1.89,1.89,0,0,1,.29,1.13v.34h-1.81v.08a1.18,1.18,0,0,0,.2.75.68.68,0,0,0,.56.23,1,1,0,0,0,.41-.08,1.08,1.08,0,0,0,.34-.28l.27.33A1.21,1.21,0,0,1,372,108.27Zm-.06-2.89a.57.57,0,0,0-.49.23,1.35,1.35,0,0,0-.17.7h1.27v-.07a1.25,1.25,0,0,0-.17-.66A.5.5,0,0,0,371.91,105.38Z"/><path d="M377.19,107.08h-1.47l-.34,1.13h-.56l1.4-4.33h.47l1.4,4.33h-.56Zm-1.33-.47h1.19l-.6-2Z"/><path class="cls-5" d="M353.69,105.4l-2.61-2.6a.38.38,0,0,0-.54,0l-2.6,2.59a.38.38,0,0,0,0,.54l2.61,2.61a.38.38,0,0,0,.54,0l2.6-2.59A.39.39,0,0,0,353.69,105.4Z"/><line class="cls-12" x1="343.84" y1="113.05" x2="385.26" y2="113.05"/><line class="cls-12" x1="343.84" y1="126.6" x2="385.26" y2="126.6"/><path class="cls-2" d="M345.39,74.87v3h-1V70.2h2.45a2.22,2.22,0,0,1,1.69.64,2.74,2.74,0,0,1,0,3.41,2.29,2.29,0,0,1-1.65.62Zm0-.83h1.49a1.25,1.25,0,0,0,1-.39,1.58,1.58,0,0,0,.34-1.1,1.64,1.64,0,0,0-.35-1.11,1.21,1.21,0,0,0-1-.42h-1.5Z"/><path class="cls-2" d="M352.76,74.77H351.4v3.1h-1V70.2h2.16a2.28,2.28,0,0,1,1.71.59,2.32,2.32,0,0,1,.58,1.71,2.42,2.42,0,0,1-.31,1.25,2,2,0,0,1-.89.79l1.49,3.27v.06h-1.05Zm-1.36-.83h1.18a1.28,1.28,0,0,0,1-.39,1.49,1.49,0,0,0,.36-1c0-1-.45-1.48-1.34-1.48H351.4Z"/><path class="cls-2" d="M359.87,74.32h-2.73V77h3.18v.83h-4.14V70.2h4.08V71h-3.12V73.5h2.73Z"/><path class="cls-2" d="M362.91,76.45,364,72.17h1l-1.7,5.7h-.7l-1.72-5.7h.95Z"/><path class="cls-2" d="M368.78,77.87a2.47,2.47,0,0,1-.12-.62,1.48,1.48,0,0,1-1.27.72,1.63,1.63,0,0,1-1.21-.43,1.67,1.67,0,0,1-.44-1.23,1.75,1.75,0,0,1,.6-1.38,2.44,2.44,0,0,1,1.62-.52h.69v-.6a.81.81,0,0,0-.92-1,1,1,0,0,0-.69.25.84.84,0,0,0-.27.64h-.93a1.48,1.48,0,0,1,.26-.84,1.76,1.76,0,0,1,.7-.62,2.07,2.07,0,0,1,1-.23,1.88,1.88,0,0,1,1.34.44,1.72,1.72,0,0,1,.47,1.26v2.88a3.35,3.35,0,0,0,.18,1.15v.08Zm-1.24-.74a1.32,1.32,0,0,0,.65-.19,1.24,1.24,0,0,0,.46-.48V75.1h-.53a1.77,1.77,0,0,0-1.05.3.94.94,0,0,0-.39.8,1.06,1.06,0,0,0,.19.71A.9.9,0,0,0,367.54,77.13Z"/><path class="cls-2" d="M371.91,72.17l0,.61a1.66,1.66,0,0,1,1.39-.72c1,0,1.52.68,1.54,2v3.79h-.94V74.12a1.56,1.56,0,0,0-.22-1,.81.81,0,0,0-.67-.28,1,1,0,0,0-.63.23,1.65,1.65,0,0,0-.45.61v4.14H371v-5.7Z"/><path class="cls-2" d="M377.49,70.79v1.38h.87v.75h-.87v3.54a1,1,0,0,0,.11.51.43.43,0,0,0,.39.18,1,1,0,0,0,.37-.07v.79a2.05,2.05,0,0,1-.65.1,1,1,0,0,1-.85-.39,1.89,1.89,0,0,1-.29-1.12V72.92h-.87v-.75h.87V70.79Z"/><path d="M17.88,57.89a1,1,0,0,0-.28-.78,2.75,2.75,0,0,0-1-.52,4.16,4.16,0,0,1-1.1-.54,1.8,1.8,0,0,1-.57-.64,1.72,1.72,0,0,1-.19-.83,1.77,1.77,0,0,1,.54-1.33,2,2,0,0,1,1.41-.52,2.13,2.13,0,0,1,1.07.27,1.75,1.75,0,0,1,.71.74,2.14,2.14,0,0,1,.26,1h-.86a1.38,1.38,0,0,0-.31-1,1.09,1.09,0,0,0-.87-.35,1.07,1.07,0,0,0-.8.29,1.13,1.13,0,0,0-.29.81.92.92,0,0,0,.31.72,2.77,2.77,0,0,0,1,.52,3.33,3.33,0,0,1,1.44.81,1.84,1.84,0,0,1,.43,1.27,1.7,1.7,0,0,1-.54,1.32,2,2,0,0,1-1.46.49,2.36,2.36,0,0,1-1.09-.25,2,2,0,0,1-.79-.73,2,2,0,0,1-.29-1.07h.86a1.35,1.35,0,0,0,.35,1,1.33,1.33,0,0,0,1,.34,1.15,1.15,0,0,0,.85-.28A1.1,1.1,0,0,0,17.88,57.89Z"/><path d="M21.55,59.69a1.83,1.83,0,0,1-1.45-.56,2.45,2.45,0,0,1-.51-1.64v-.61a2.91,2.91,0,0,1,.49-1.77,1.66,1.66,0,0,1,1.38-.64,1.59,1.59,0,0,1,1.33.57,2.85,2.85,0,0,1,.44,1.75v.54H20.41v.12a1.82,1.82,0,0,0,.31,1.17,1.07,1.07,0,0,0,.88.37,1.31,1.31,0,0,0,.64-.14,1.48,1.48,0,0,0,.52-.43l.43.52A1.88,1.88,0,0,1,21.55,59.69Zm-.09-4.51a.87.87,0,0,0-.76.35,2,2,0,0,0-.28,1.09h2v-.11a1.88,1.88,0,0,0-.26-1A.79.79,0,0,0,21.46,55.18Z"/><path d="M26.31,55.34a2.13,2.13,0,0,0-.37,0,.9.9,0,0,0-.89.69v3.6h-.83v-5H25v.51a1,1,0,0,1,.94-.61.81.81,0,0,1,.33.07Z"/><path d="M28.65,58.35l1-3.78h.84l-1.5,5h-.62l-1.51-5h.84Z"/><path d="M32.27,53.23a.51.51,0,0,1-.12.35.46.46,0,0,1-.36.14.45.45,0,0,1-.35-.14.61.61,0,0,1,0-.7.43.43,0,0,1,.35-.15.43.43,0,0,1,.36.15A.53.53,0,0,1,32.27,53.23ZM32.2,59.6h-.83v-5h.83Z"/><path d="M35.26,59a.85.85,0,0,0,.65-.25,1,1,0,0,0,.27-.73H37a1.7,1.7,0,0,1-.51,1.21,1.63,1.63,0,0,1-1.19.47,1.78,1.78,0,0,1-1.44-.58,2.76,2.76,0,0,1-.49-1.76V56.8a2.62,2.62,0,0,1,.49-1.73,1.74,1.74,0,0,1,1.43-.6,1.61,1.61,0,0,1,1.23.49A2,2,0,0,1,37,56.3h-.78a1.33,1.33,0,0,0-.26-.84.83.83,0,0,0-.67-.28,1,1,0,0,0-.82.36,2.11,2.11,0,0,0-.27,1.19v.64a2.26,2.26,0,0,0,.26,1.25A1,1,0,0,0,35.26,59Z"/><path d="M39.72,59.69a1.81,1.81,0,0,1-1.44-.56,2.4,2.4,0,0,1-.52-1.64v-.61a2.84,2.84,0,0,1,.5-1.77,1.63,1.63,0,0,1,1.37-.64A1.59,1.59,0,0,1,41,55a2.91,2.91,0,0,1,.45,1.75v.54H38.58v.12a1.82,1.82,0,0,0,.31,1.17,1.07,1.07,0,0,0,.88.37,1.31,1.31,0,0,0,.64-.14,1.48,1.48,0,0,0,.52-.43l.43.52A1.87,1.87,0,0,1,39.72,59.69Zm-.09-4.51a.88.88,0,0,0-.76.35,2,2,0,0,0-.28,1.09h2v-.11a1.88,1.88,0,0,0-.26-1A.79.79,0,0,0,39.63,55.18Z"/><path d="M47.87,57.83H45.58l-.53,1.77h-.88l2.19-6.77h.73l2.2,6.77h-.88ZM45.8,57.1h1.85L46.73,54Z"/><path class="cls-2" d="M60.53,67.48l-8.83-8.8a2.54,2.54,0,0,1,0-3.59l8.83-8.8a2.55,2.55,0,0,1,3.61,0L73,55.09a2.54,2.54,0,0,1,0,3.59l-8.83,8.8A2.57,2.57,0,0,1,60.53,67.48Z"/><path class="cls-5" d="M71.16,56.07l-8-8a1.18,1.18,0,0,0-1.67,0l-1.66,1.66,2.11,2.1a1.4,1.4,0,0,1,1.78,1.78l2,2a1.43,1.43,0,0,1,1.45.34,1.39,1.39,0,0,1,0,2,1.42,1.42,0,0,1-2,0,1.41,1.41,0,0,1-.3-1.53L63,54.56v5a1.31,1.31,0,0,1,.37.26,1.4,1.4,0,1,1-2,2,1.41,1.41,0,0,1,0-2,1.39,1.39,0,0,1,.47-.3v-5a1.42,1.42,0,0,1-.47-.31,1.41,1.41,0,0,1-.3-1.53L59,50.56,53.51,56a1.18,1.18,0,0,0,0,1.67l8,8a1.18,1.18,0,0,0,1.67,0l8-7.94A1.17,1.17,0,0,0,71.16,56.07Z"/><rect class="cls-4" x="220.79" y="19.57" width="42.73" height="12.5"/><path class="cls-2" d="M226.37,26.87v3h-1V22.2h2.46a2.23,2.23,0,0,1,1.69.64,2.37,2.37,0,0,1,.61,1.7,2.35,2.35,0,0,1-.59,1.71,2.26,2.26,0,0,1-1.64.62Zm0-.83h1.49a1.25,1.25,0,0,0,1-.39,1.58,1.58,0,0,0,.34-1.1,1.7,1.7,0,0,0-.35-1.11,1.21,1.21,0,0,0-1-.42h-1.49Z"/><path class="cls-2" d="M233.73,26.77h-1.35v3.1h-1V22.2h2.15a2.29,2.29,0,0,1,1.72.59,2.32,2.32,0,0,1,.58,1.71,2.42,2.42,0,0,1-.32,1.25,1.91,1.91,0,0,1-.89.79l1.49,3.27v.06h-1Zm-1.35-.83h1.17a1.25,1.25,0,0,0,1-.39,1.45,1.45,0,0,0,.37-1.05c0-1-.45-1.48-1.35-1.48h-1.16Z"/><path class="cls-2" d="M240.85,26.32h-2.73V29h3.18v.83h-4.15V22.2h4.09V23h-3.12V25.5h2.73Z"/><path class="cls-2" d="M243.89,28.45,245,24.17h.95l-1.69,5.7h-.7l-1.72-5.7h.95Z"/><path class="cls-2" d="M249.76,29.87a1.81,1.81,0,0,1-.12-.62,1.48,1.48,0,0,1-1.27.72,1.63,1.63,0,0,1-1.21-.43,1.67,1.67,0,0,1-.44-1.23,1.77,1.77,0,0,1,.59-1.38,2.49,2.49,0,0,1,1.63-.52h.68v-.6a1,1,0,0,0-.22-.73,1,1,0,0,0-.7-.22,1,1,0,0,0-.68.25.84.84,0,0,0-.27.64h-.93a1.48,1.48,0,0,1,.26-.84,1.8,1.8,0,0,1,.69-.62,2.14,2.14,0,0,1,1-.23,1.88,1.88,0,0,1,1.34.44,1.68,1.68,0,0,1,.46,1.26v2.88a3.91,3.91,0,0,0,.18,1.15v.08Zm-1.25-.74a1.32,1.32,0,0,0,.66-.19,1.14,1.14,0,0,0,.45-.48V27.1h-.52a1.83,1.83,0,0,0-1.06.3,1,1,0,0,0-.38.8,1.06,1.06,0,0,0,.19.71A.87.87,0,0,0,248.51,29.13Z"/><path class="cls-2" d="M252.89,24.17l0,.61a1.69,1.69,0,0,1,1.39-.72c1,0,1.53.68,1.54,2v3.79h-.93V26.12a1.56,1.56,0,0,0-.22-.95.81.81,0,0,0-.68-.28,1,1,0,0,0-.62.23,1.65,1.65,0,0,0-.45.61v4.14H252v-5.7Z"/><path class="cls-2" d="M258.47,22.79v1.38h.86v.75h-.86v3.54a1,1,0,0,0,.11.51.42.42,0,0,0,.38.18,1,1,0,0,0,.38-.07v.79a2.05,2.05,0,0,1-.65.1,1,1,0,0,1-.85-.39,1.89,1.89,0,0,1-.29-1.12V24.92h-.87v-.75h.87V22.79Z"/><path d="M17.88,100.69a1,1,0,0,0-.28-.78,2.75,2.75,0,0,0-1-.52,4.16,4.16,0,0,1-1.1-.54,1.8,1.8,0,0,1-.57-.64,1.72,1.72,0,0,1-.19-.83,1.77,1.77,0,0,1,.54-1.33,2,2,0,0,1,1.41-.52,2.06,2.06,0,0,1,1.06.27,1.71,1.71,0,0,1,.72.74,2.17,2.17,0,0,1,.26,1h-.86a1.38,1.38,0,0,0-.31-1,1.09,1.09,0,0,0-.87-.35,1.07,1.07,0,0,0-.8.29,1.13,1.13,0,0,0-.29.81.92.92,0,0,0,.31.72,2.61,2.61,0,0,0,1,.52,3.23,3.23,0,0,1,1.44.82,1.8,1.8,0,0,1,.43,1.26A1.7,1.7,0,0,1,18.2,102a2.05,2.05,0,0,1-1.46.5,2.37,2.37,0,0,1-1.09-.26,1.92,1.92,0,0,1-.79-.73,2,2,0,0,1-.29-1.07h.86a1.35,1.35,0,0,0,.35,1,1.33,1.33,0,0,0,1,.34,1.15,1.15,0,0,0,.85-.28A1.1,1.1,0,0,0,17.88,100.69Z"/><path d="M21.55,102.5a1.84,1.84,0,0,1-1.45-.57,2.45,2.45,0,0,1-.51-1.64v-.61a2.84,2.84,0,0,1,.49-1.77,1.66,1.66,0,0,1,1.38-.64,1.59,1.59,0,0,1,1.33.57,2.85,2.85,0,0,1,.44,1.75v.54H20.41v.12a1.76,1.76,0,0,0,.31,1.17,1.07,1.07,0,0,0,.88.37,1.44,1.44,0,0,0,.64-.13,1.63,1.63,0,0,0,.52-.44l.43.52A1.89,1.89,0,0,1,21.55,102.5ZM21.46,98a.87.87,0,0,0-.76.35,2,2,0,0,0-.28,1.09h2v-.11a1.9,1.9,0,0,0-.26-1A.79.79,0,0,0,21.46,98Z"/><path d="M26.31,98.14a2.13,2.13,0,0,0-.37,0,.9.9,0,0,0-.89.69v3.6h-.83v-5H25v.51a1,1,0,0,1,.94-.61.81.81,0,0,1,.33.07Z"/><path d="M28.65,101.15l1-3.78h.84l-1.5,5h-.62l-1.51-5h.84Z"/><path d="M32.27,96a.51.51,0,0,1-.12.35.46.46,0,0,1-.36.14.45.45,0,0,1-.35-.14.61.61,0,0,1,0-.7.43.43,0,0,1,.35-.15.43.43,0,0,1,.36.15A.55.55,0,0,1,32.27,96Zm-.07,6.37h-.83v-5h.83Z"/><path d="M35.25,101.79a.86.86,0,0,0,.66-.25,1,1,0,0,0,.27-.72H37a1.69,1.69,0,0,1-.51,1.2,1.64,1.64,0,0,1-1.2.48,1.78,1.78,0,0,1-1.43-.59,2.7,2.7,0,0,1-.49-1.76V99.6a2.62,2.62,0,0,1,.49-1.73,1.74,1.74,0,0,1,1.43-.6,1.61,1.61,0,0,1,1.23.49A2,2,0,0,1,37,99.1h-.78a1.33,1.33,0,0,0-.26-.84.83.83,0,0,0-.67-.28,1,1,0,0,0-.82.36,2.11,2.11,0,0,0-.27,1.19v.64a2.26,2.26,0,0,0,.26,1.25A.94.94,0,0,0,35.25,101.79Z"/><path d="M39.72,102.5a1.82,1.82,0,0,1-1.44-.57,2.4,2.4,0,0,1-.52-1.64v-.61a2.84,2.84,0,0,1,.5-1.77,1.63,1.63,0,0,1,1.37-.64,1.59,1.59,0,0,1,1.33.57,2.91,2.91,0,0,1,.45,1.75v.54H38.58v.12a1.82,1.82,0,0,0,.31,1.17,1.07,1.07,0,0,0,.88.37,1.44,1.44,0,0,0,.64-.13,1.63,1.63,0,0,0,.52-.44l.43.52A1.87,1.87,0,0,1,39.72,102.5ZM39.63,98a.87.87,0,0,0-.76.35,2,2,0,0,0-.28,1.09h2v-.11a1.9,1.9,0,0,0-.26-1A.79.79,0,0,0,39.63,98Z"/><path d="M44.7,102.4V95.63h1.94a2,2,0,0,1,1.4.45,1.8,1.8,0,0,1,.47,1.35,1.48,1.48,0,0,1-.24.84,1.58,1.58,0,0,1-.64.56,1.36,1.36,0,0,1,.74.58,1.89,1.89,0,0,1,.27,1,2,2,0,0,1-.5,1.43,1.89,1.89,0,0,1-1.43.52Zm.86-3.88h1.09a.92.92,0,0,0,.72-.3,1.15,1.15,0,0,0,.27-.79,1.16,1.16,0,0,0-.24-.82,1,1,0,0,0-.76-.25H45.56Zm0,.71v2.44h1.16a1,1,0,0,0,.78-.32,1.34,1.34,0,0,0,.28-.89c0-.82-.35-1.23-1-1.23Z"/><path class="cls-5" d="M62.34,108.38a8,8,0,1,1,8-8A8,8,0,0,1,62.34,108.38Z"/><path class="cls-2" d="M62.34,93.41a7,7,0,1,1-7,7,7,7,0,0,1,7-7m0-2a9,9,0,1,0,9,9,9,9,0,0,0-9-9Z"/><rect class="cls-2" x="206.06" y="40.97" width="7.59" height="115.74"/><line class="cls-6" x1="209.85" y1="44.68" x2="209.85" y2="156.71"/><rect class="cls-2" x="270.67" y="40.97" width="7.59" height="115.74"/><line class="cls-6" x1="274.47" y1="44.68" x2="274.47" y2="156.71"/><rect class="cls-13" x="293.07" y="56.37" width="8.47" height="1.41"/><rect class="cls-13" x="293.07" y="59.19" width="8.47" height="1.41"/><rect class="cls-13" x="302.95" y="56.37" width="1.41" height="1.41"/><rect class="cls-13" x="305.78" y="56.37" width="1.41" height="1.41"/><rect class="cls-13" x="308.6" y="56.37" width="1.41" height="1.41"/><rect class="cls-13" x="302.95" y="59.19" width="1.41" height="1.41"/><rect class="cls-13" x="305.78" y="59.19" width="1.41" height="1.41"/><rect class="cls-13" x="308.6" y="59.19" width="1.41" height="1.41"/><path class="cls-13" d="M315.66,56.37a2.12,2.12,0,1,0,2.12,2.12A2.11,2.11,0,0,0,315.66,56.37Zm0,2.82a.7.7,0,0,1-.7-.7.7.7,0,0,1,.7-.71.71.71,0,0,1,.71.71A.7.7,0,0,1,315.66,59.19Z"/><path class="cls-13" d="M313.55,80.38a2.12,2.12,0,1,0,0,4.23V83.2a.7.7,0,0,1-.71-.7.71.71,0,0,1,.71-.71.7.7,0,0,1,.7.71h1.41A2.11,2.11,0,0,0,313.55,80.38Z"/><rect class="cls-13" x="293.07" y="68.37" width="8.47" height="1.41"/><rect class="cls-13" x="293.07" y="71.2" width="8.47" height="1.41"/><rect class="cls-13" x="302.95" y="68.37" width="1.41" height="1.41"/><rect class="cls-13" x="305.78" y="68.37" width="1.41" height="1.41"/><rect class="cls-13" x="308.6" y="68.37" width="1.41" height="1.41"/><rect class="cls-13" x="302.95" y="71.2" width="1.41" height="1.41"/><rect class="cls-13" x="305.78" y="71.2" width="1.41" height="1.41"/><rect class="cls-13" x="308.6" y="71.2" width="1.41" height="1.41"/><circle class="cls-13" cx="312.13" cy="70.49" r="0.71"/><circle class="cls-13" cx="317.78" cy="70.49" r="0.71"/><circle class="cls-13" cx="314.96" cy="70.49" r="0.71"/><rect class="cls-13" x="293.07" y="80.38" width="8.47" height="1.41"/><rect class="cls-13" x="293.07" y="83.2" width="8.47" height="1.41"/><rect class="cls-13" x="302.95" y="80.38" width="1.41" height="1.41"/><rect class="cls-13" x="305.78" y="83.2" width="1.41" height="1.41"/><rect class="cls-13" x="308.6" y="80.38" width="1.41" height="1.41"/><circle class="cls-13" cx="306.48" cy="81.08" r="0.71"/><circle class="cls-13" cx="309.31" cy="83.91" r="0.71"/><circle class="cls-13" cx="317.78" cy="82.5" r="0.71"/><circle class="cls-13" cx="303.66" cy="83.91" r="0.71"/><path class="cls-13" d="M306.48,98.85V87.44h14.13a.7.7,0,0,0,.7-.71V78.26a.7.7,0,0,0-.7-.71H291a.71.71,0,0,0-.71.71v3.53H288.7a2.08,2.08,0,0,0-1.28-1.28V71.2h2.82v3.53a.71.71,0,0,0,.71.71h29.66a.7.7,0,0,0,.7-.71V71.2h3.53a.71.71,0,0,0,.71-.71V66.13a2.11,2.11,0,0,0,0-4V58.49a.71.71,0,0,0-.71-.71h-3.53V54.25a.7.7,0,0,0-.7-.7H291a.7.7,0,0,0-.71.7v8.48a.7.7,0,0,0,.71.7h29.66a.7.7,0,0,0,.7-.7V59.19h2.83v3a2.11,2.11,0,0,0,0,4v3.66h-2.83V66.26a.7.7,0,0,0-.7-.71H291a.71.71,0,0,0-.71.71v3.53h-3.53a.7.7,0,0,0-.7.7v10a2.11,2.11,0,1,0,2.69,2.69h1.54v3.53a.71.71,0,0,0,.71.71h14.12V98.85M319.9,62H291.66V55H319.9Zm4.94,1.41a.71.71,0,0,1,.71.71.7.7,0,0,1-.71.7.7.7,0,0,1-.7-.7A.7.7,0,0,1,324.84,63.43ZM291.66,67H319.9V74H291.66Zm-5,16.24a.7.7,0,0,1-.7-.7.7.7,0,0,1,.7-.71.71.71,0,0,1,.71.71A.7.7,0,0,1,286.71,83.2Zm5,2.83V79H319.9V86Z"/><path class="cls-13" d="M305.78,105.21a4.52,4.52,0,1,1,4.51-4.52A4.52,4.52,0,0,1,305.78,105.21Z"/><path class="cls-2" d="M305.78,96.88a3.81,3.81,0,1,1-3.81,3.81,3.82,3.82,0,0,1,3.81-3.81m0-1.4a5.22,5.22,0,1,0,5.21,5.21,5.22,5.22,0,0,0-5.21-5.21Z"/><circle class="cls-14" cx="110.81" cy="100.58" r="4.51"/><path class="cls-2" d="M110.81,96.77a3.81,3.81,0,1,1-3.81,3.81,3.82,3.82,0,0,1,3.81-3.81m0-1.41a5.22,5.22,0,1,0,5.21,5.22,5.22,5.22,0,0,0-5.21-5.22Z"/><path d="M102.06,176.27V169.5H104a2,2,0,0,1,1.4.45,1.76,1.76,0,0,1,.47,1.35,1.48,1.48,0,0,1-.24.84,1.61,1.61,0,0,1-.64.57,1.27,1.27,0,0,1,.74.57,2.23,2.23,0,0,1-.23,2.47,1.87,1.87,0,0,1-1.43.52Zm.85-3.88H104a1,1,0,0,0,.72-.3,1.13,1.13,0,0,0,.27-.79,1.12,1.12,0,0,0-.25-.82,1,1,0,0,0-.76-.25h-1.08Zm0,.72v2.43h1.17a1,1,0,0,0,.77-.32,1.28,1.28,0,0,0,.28-.89c0-.82-.34-1.22-1-1.22Z"/><path d="M109.73,175.83a1.41,1.41,0,0,1-1.2.54,1.21,1.21,0,0,1-1-.47,2.34,2.34,0,0,1-.36-1.38v-3.28H108v3.22c0,.78.24,1.18.71,1.18a1,1,0,0,0,1-.67v-3.73h.83v5h-.79Z"/><path d="M112.74,169.9a.51.51,0,0,1-.12.35.42.42,0,0,1-.35.14.4.4,0,0,1-.35-.14.51.51,0,0,1-.12-.35.53.53,0,0,1,.12-.35.4.4,0,0,1,.35-.14.45.45,0,0,1,.35.14A.55.55,0,0,1,112.74,169.9Zm-.07,6.37h-.82v-5h.82Z"/><path d="M114.86,176.27H114v-7.14h.82Z"/><path d="M116,173.53a3,3,0,0,1,.43-1.77,1.46,1.46,0,0,1,1.26-.61,1.3,1.3,0,0,1,1.13.58v-2.6h.83v7.14h-.76l0-.54a1.3,1.3,0,0,1-1.17.64,1.44,1.44,0,0,1-1.23-.61A2.91,2.91,0,0,1,116,174Zm.82.47a2.36,2.36,0,0,0,.26,1.24.9.9,0,0,0,.82.4,1,1,0,0,0,.92-.62v-2.54a1,1,0,0,0-.92-.6.9.9,0,0,0-.82.39,2.43,2.43,0,0,0-.26,1.22Z"/><path class="cls-14" d="M110.81,61.45a4.51,4.51,0,1,1,4.51-4.51A4.52,4.52,0,0,1,110.81,61.45Z"/><path class="cls-2" d="M110.81,53.13A3.81,3.81,0,1,1,107,56.94a3.82,3.82,0,0,1,3.81-3.81m0-1.41A5.22,5.22,0,1,0,116,56.94a5.22,5.22,0,0,0-5.21-5.22Z"/><circle class="cls-14" cx="110.81" cy="144.25" r="4.51"/><path class="cls-2" d="M110.81,140.44a3.81,3.81,0,1,1-3.81,3.81,3.81,3.81,0,0,1,3.81-3.81m0-1.41a5.22,5.22,0,1,0,5.21,5.22,5.22,5.22,0,0,0-5.21-5.22Z"/><path d="M134.58,173.62v2.65h-.86V169.5h2.17a2,2,0,0,1,1.49.56,2.43,2.43,0,0,1,0,3,2,2,0,0,1-1.46.54Zm0-.73h1.31a1.09,1.09,0,0,0,.87-.34,1.38,1.38,0,0,0,.31-1,1.44,1.44,0,0,0-.32-1,1,1,0,0,0-.86-.37h-1.31Z"/><path d="M141.46,176.27a1.66,1.66,0,0,1-.11-.54,1.33,1.33,0,0,1-1.12.64,1.35,1.35,0,0,1-1.46-1.47,1.56,1.56,0,0,1,.52-1.22,2.2,2.2,0,0,1,1.44-.46h.61v-.53a.86.86,0,0,0-.21-.65.87.87,0,0,0-.61-.19.85.85,0,0,0-.6.22.75.75,0,0,0-.24.57h-.82a1.33,1.33,0,0,1,.22-.74,1.57,1.57,0,0,1,.62-.55,1.79,1.79,0,0,1,.86-.2,1.61,1.61,0,0,1,1.18.38,1.52,1.52,0,0,1,.42,1.12v2.54a2.78,2.78,0,0,0,.16,1v.07Zm-1.11-.65a1.09,1.09,0,0,0,.58-.17,1,1,0,0,0,.41-.42v-1.2h-.47a1.6,1.6,0,0,0-.93.26.83.83,0,0,0-.34.71.92.92,0,0,0,.17.62A.75.75,0,0,0,140.35,175.62Z"/><path d="M145.19,175.67a.87.87,0,0,0,.66-.26,1,1,0,0,0,.27-.72h.78a1.74,1.74,0,0,1-.51,1.2,1.66,1.66,0,0,1-1.2.48,1.78,1.78,0,0,1-1.43-.59,2.67,2.67,0,0,1-.49-1.75v-.56a2.62,2.62,0,0,1,.49-1.73,1.73,1.73,0,0,1,1.43-.59,1.62,1.62,0,0,1,1.23.48,2,2,0,0,1,.48,1.34h-.78a1.4,1.4,0,0,0-.27-.84.84.84,0,0,0-.66-.28,1,1,0,0,0-.82.36,2,2,0,0,0-.27,1.19V174a2.23,2.23,0,0,0,.26,1.26A1,1,0,0,0,145.19,175.67Z"/><path d="M149.13,174l-.44.5v1.8h-.83v-7.14h.83v4.27l1.57-2.16h1l-1.61,2.1,1.82,2.93h-1Z"/><path d="M154.77,176.27a1.66,1.66,0,0,1-.11-.54,1.33,1.33,0,0,1-1.12.64,1.35,1.35,0,0,1-1.46-1.47,1.56,1.56,0,0,1,.52-1.22,2.2,2.2,0,0,1,1.44-.46h.61v-.53a.86.86,0,0,0-.21-.65.87.87,0,0,0-.61-.19.85.85,0,0,0-.6.22.75.75,0,0,0-.24.57h-.82a1.33,1.33,0,0,1,.22-.74,1.57,1.57,0,0,1,.62-.55,1.79,1.79,0,0,1,.86-.2,1.61,1.61,0,0,1,1.18.38,1.52,1.52,0,0,1,.42,1.12v2.54a2.78,2.78,0,0,0,.16,1v.07Zm-1.11-.65a1.09,1.09,0,0,0,.58-.17,1,1,0,0,0,.41-.42v-1.2h-.47a1.6,1.6,0,0,0-.93.26.83.83,0,0,0-.34.71.92.92,0,0,0,.17.62A.75.75,0,0,0,153.66,175.62Z"/><path d="M156.58,173.53a3.09,3.09,0,0,1,.43-1.78,1.46,1.46,0,0,1,1.26-.6,1.3,1.3,0,0,1,1.17.65l0-.56h.75v5.08a2,2,0,0,1-.48,1.44,1.79,1.79,0,0,1-1.34.5,2.19,2.19,0,0,1-.84-.19,1.77,1.77,0,0,1-.7-.45l.34-.57a1.56,1.56,0,0,0,1.13.5c.69,0,1-.37,1.06-1.12v-.65a1.29,1.29,0,0,1-1.14.59,1.44,1.44,0,0,1-1.22-.59,3,3,0,0,1-.46-1.69Zm.83.47a2.37,2.37,0,0,0,.25,1.24.91.91,0,0,0,.82.4,1,1,0,0,0,.92-.63V172.5a1,1,0,0,0-.91-.62.89.89,0,0,0-.82.39,2.33,2.33,0,0,0-.26,1.22Z"/><path d="M163.27,176.37a1.87,1.87,0,0,1-1.45-.56,2.4,2.4,0,0,1-.51-1.65v-.61a2.79,2.79,0,0,1,.49-1.76,1.62,1.62,0,0,1,1.37-.64,1.57,1.57,0,0,1,1.33.56,2.93,2.93,0,0,1,.45,1.75V174h-2.82v.12a1.88,1.88,0,0,0,.3,1.18,1.11,1.11,0,0,0,.88.37,1.48,1.48,0,0,0,.65-.14,1.72,1.72,0,0,0,.52-.44l.43.52A1.87,1.87,0,0,1,163.27,176.37Zm-.1-4.52a.87.87,0,0,0-.76.36,2.07,2.07,0,0,0-.28,1.09h2v-.12a1.93,1.93,0,0,0-.26-1A.81.81,0,0,0,163.17,171.85Z"/><circle class="cls-14" cx="149.16" cy="100.58" r="4.51"/><path class="cls-2" d="M149.16,96.77a3.81,3.81,0,1,1-3.81,3.81,3.82,3.82,0,0,1,3.81-3.81m0-1.41a5.22,5.22,0,1,0,5.21,5.22,5.22,5.22,0,0,0-5.21-5.22Z"/><path class="cls-14" d="M149.16,61.45a4.51,4.51,0,1,1,4.51-4.51A4.52,4.52,0,0,1,149.16,61.45Z"/><path class="cls-2" d="M149.16,53.13a3.81,3.81,0,1,1-3.81,3.81,3.82,3.82,0,0,1,3.81-3.81m0-1.41a5.22,5.22,0,1,0,5.21,5.22,5.22,5.22,0,0,0-5.21-5.22Z"/><circle class="cls-14" cx="149.16" cy="144.25" r="4.51"/><path class="cls-2" d="M149.16,140.44a3.81,3.81,0,1,1-3.81,3.81,3.81,3.81,0,0,1,3.81-3.81m0-1.41a5.22,5.22,0,1,0,5.21,5.22,5.22,5.22,0,0,0-5.21-5.22Z"/><path d="M175.46,176.27V169.5h1.62a2.37,2.37,0,0,1,1.85.74,3,3,0,0,1,.66,2.09v1.13a3,3,0,0,1-.67,2.08,2.49,2.49,0,0,1-1.94.73Zm.85-6v5.31H177a1.61,1.61,0,0,0,1.32-.51,2.43,2.43,0,0,0,.42-1.53v-1.2a2.48,2.48,0,0,0-.41-1.57,1.54,1.54,0,0,0-1.25-.5Z"/><path d="M182.61,176.37a1.87,1.87,0,0,1-1.45-.56,2.4,2.4,0,0,1-.51-1.65v-.61a2.79,2.79,0,0,1,.49-1.76,1.64,1.64,0,0,1,1.38-.64,1.55,1.55,0,0,1,1.32.56,2.93,2.93,0,0,1,.45,1.75V174h-2.82v.12a1.88,1.88,0,0,0,.3,1.18,1.12,1.12,0,0,0,.89.37,1.47,1.47,0,0,0,.64-.14,1.61,1.61,0,0,0,.52-.44l.43.52A1.87,1.87,0,0,1,182.61,176.37Zm-.09-4.52a.87.87,0,0,0-.77.36,2.17,2.17,0,0,0-.28,1.09h2v-.12a1.93,1.93,0,0,0-.26-1A.81.81,0,0,0,182.52,171.85Z"/><path d="M188.93,174a3,3,0,0,1-.43,1.78,1.44,1.44,0,0,1-1.22.59,1.33,1.33,0,0,1-1.17-.58v2.42h-.83v-7H186l0,.56a1.33,1.33,0,0,1,1.19-.65,1.45,1.45,0,0,1,1.25.57,3.1,3.1,0,0,1,.42,1.73Zm-.82-.47a2.38,2.38,0,0,0-.26-1.25.93.93,0,0,0-.84-.4,1,1,0,0,0-.9.59v2.62a1,1,0,0,0,.91.58.92.92,0,0,0,.82-.41,2.24,2.24,0,0,0,.27-1.23Z"/><path d="M190.89,176.27h-.83v-7.14h.83Z"/><path d="M192,173.52a2.58,2.58,0,0,1,.54-1.73,1.89,1.89,0,0,1,2.82,0,2.57,2.57,0,0,1,.55,1.7V174a2.59,2.59,0,0,1-.53,1.73,1.74,1.74,0,0,1-1.42.64,1.79,1.79,0,0,1-1.41-.62,2.62,2.62,0,0,1-.55-1.68Zm.83.48a2.08,2.08,0,0,0,.31,1.22.93.93,0,0,0,.82.45c.73,0,1.1-.53,1.13-1.58v-.57a2.18,2.18,0,0,0-.31-1.22,1,1,0,0,0-.83-.45.93.93,0,0,0-.81.45,2.1,2.1,0,0,0-.31,1.22Z"/><path d="M198.3,174.91l.92-3.67h.88L198.44,177a2.21,2.21,0,0,1-.52,1,1.07,1.07,0,0,1-.78.34,1.73,1.73,0,0,1-.43-.08v-.69h.18a.84.84,0,0,0,.57-.17,1.25,1.25,0,0,0,.33-.58l.16-.57-1.49-5h.91Z"/><path class="cls-14" d="M187.5,105.08a4.5,4.5,0,1,1,4.51-4.5A4.51,4.51,0,0,1,187.5,105.08Z"/><path class="cls-2" d="M187.51,96.78a3.8,3.8,0,1,1-3.81,3.8,3.8,3.8,0,0,1,3.81-3.8m0-1.41a5.21,5.21,0,1,0,5.2,5.21,5.21,5.21,0,0,0-5.2-5.21Z"/><path class="cls-14" d="M187.5,61.45A4.51,4.51,0,1,1,192,56.94,4.52,4.52,0,0,1,187.5,61.45Z"/><path class="cls-2" d="M187.51,53.13a3.81,3.81,0,1,1-3.82,3.81,3.82,3.82,0,0,1,3.82-3.81m0-1.41a5.22,5.22,0,1,0,5.21,5.22,5.22,5.22,0,0,0-5.21-5.22Z"/><circle class="cls-14" cx="187.5" cy="144.25" r="4.51"/><path class="cls-2" d="M187.51,140.44a3.81,3.81,0,1,1-3.82,3.81,3.81,3.81,0,0,1,3.82-3.81m0-1.41a5.22,5.22,0,1,0,5.21,5.22,5.22,5.22,0,0,0-5.21-5.22Z"/><rect class="cls-2" x="334.1" y="97.08" width="3.24" height="6.7"/></svg>