<svg id="svg8" xmlns="http://www.w3.org/2000/svg" xmlns:xlink="http://www.w3.org/1999/xlink" viewBox="0 0 508.82 198.43"><defs><style>.cls-1,.cls-10,.cls-12,.cls-13{fill:none;}.cls-2{clip-path:url(#clip-path);}.cls-3{fill:#e1e2e1;}.cls-4{fill:#333;}.cls-5,.cls-6,.cls-9{fill:#fff;}.cls-13,.cls-5{stroke:#333;}.cls-10,.cls-12,.cls-13,.cls-5{stroke-miterlimit:10;}.cls-5{stroke-width:0.4px;}.cls-7{fill:#6c757e;}.cls-8{fill:#f05133;}.cls-9{opacity:0.75;}.cls-10{stroke:#6c757e;stroke-width:0.5px;}.cls-11{fill:#37b1d9;}.cls-12{stroke:#949393;stroke-width:1.5px;}.cls-13{stroke-width:1.2px;stroke-dasharray:3.61 3.61;}.cls-14{fill:#8dbf55;}</style><clipPath id="clip-path"><rect class="cls-1" x="0.38" y="0.38" width="156.46" height="110.61" rx="7.53"/></clipPath><symbol id="browser" data-name="browser" viewBox="0 0 157.22 111.37"><g class="cls-2"><rect class="cls-3" x="0.38" y="0.38" width="156.57" height="110.61"/><rect class="cls-4" x="0.38" y="19.19" width="156.57" height="91.8" rx="0.11"/><rect class="cls-5" x="5.84" y="7.03" width="92.86" height="5.93"/></g><path class="cls-4" d="M149.31.38a7.53,7.53,0,0,1,7.53,7.53v95.55a7.53,7.53,0,0,1-7.53,7.53H7.91a7.53,7.53,0,0,1-7.53-7.53V7.91A7.53,7.53,0,0,1,7.91.38h141.4m0-.38H7.91A7.92,7.92,0,0,0,0,7.91v95.55a7.92,7.92,0,0,0,7.91,7.91h141.4a7.92,7.92,0,0,0,7.91-7.91V7.91A7.92,7.92,0,0,0,149.31,0Z"/><rect class="cls-6" x="108.29" y="40.49" width="41.42" height="55.14"/><rect class="cls-7" x="108.29" y="40.49" width="41.42" height="14.49"/><path class="cls-6" d="M115.46,47.54h-2.21v2.87h-.82v-6.5h3.4v.7h-2.58v2.23h2.21Z"/><path class="cls-6" d="M118.37,50.5A1.76,1.76,0,0,1,117,50a2.3,2.3,0,0,1-.49-1.58V47.8a2.7,2.7,0,0,1,.47-1.7,1.55,1.55,0,0,1,1.32-.61,1.5,1.5,0,0,1,1.27.54,2.8,2.8,0,0,1,.43,1.68v.52h-2.71v.11a1.72,1.72,0,0,0,.3,1.13,1,1,0,0,0,.84.36,1.49,1.49,0,0,0,.62-.13,1.6,1.6,0,0,0,.5-.42l.41.5A1.8,1.8,0,0,1,118.37,50.5Zm-.09-4.33a.82.82,0,0,0-.73.34,1.94,1.94,0,0,0-.27,1h1.91v-.1a1.91,1.91,0,0,0-.25-1A.79.79,0,0,0,118.28,46.17Z"/><path class="cls-6" d="M123.43,50.41a1.58,1.58,0,0,1-.11-.53,1.24,1.24,0,0,1-1.07.62,1.28,1.28,0,0,1-1.4-1.41,1.48,1.48,0,0,1,.5-1.17,2.09,2.09,0,0,1,1.38-.44h.58V47a.82.82,0,0,0-.19-.62.85.85,0,0,0-.59-.18.81.81,0,0,0-.58.21.71.71,0,0,0-.23.54h-.79a1.26,1.26,0,0,1,.22-.71,1.59,1.59,0,0,1,.59-.53,1.78,1.78,0,0,1,.83-.19,1.56,1.56,0,0,1,1.13.37,1.43,1.43,0,0,1,.4,1.07v2.44a2.82,2.82,0,0,0,.15,1v.07Zm-1.06-.63a1.11,1.11,0,0,0,.94-.56V48.07h-.45a1.49,1.49,0,0,0-.89.25.8.8,0,0,0-.33.68.91.91,0,0,0,.17.6A.74.74,0,0,0,122.37,49.78Z"/><path class="cls-6" d="M126.37,44.41v1.17h.73v.64h-.73v3a.83.83,0,0,0,.09.43.35.35,0,0,0,.32.15,1.19,1.19,0,0,0,.32,0v.66a1.71,1.71,0,0,1-.55.09.86.86,0,0,1-.72-.33,1.63,1.63,0,0,1-.24-1v-3h-.74v-.64h.74V44.41Z"/><path class="cls-6" d="M130.51,50a1.37,1.37,0,0,1-1.15.51,1.18,1.18,0,0,1-1-.45,2.29,2.29,0,0,1-.34-1.32V45.58h.79v3.09c0,.75.23,1.13.68,1.13a1,1,0,0,0,1-.64V45.58h.79v4.83h-.75Z"/><path class="cls-6" d="M134.48,46.32a2,2,0,0,0-.36,0,.86.86,0,0,0-.85.66v3.46h-.8V45.58h.77l0,.49a1,1,0,0,1,.9-.58.71.71,0,0,1,.31.06Z"/><path class="cls-6" d="M136.91,50.5a1.79,1.79,0,0,1-1.39-.54,2.35,2.35,0,0,1-.49-1.58V47.8a2.77,2.77,0,0,1,.47-1.7,1.58,1.58,0,0,1,1.32-.61,1.52,1.52,0,0,1,1.28.54,2.8,2.8,0,0,1,.43,1.68v.52h-2.71v.11a1.78,1.78,0,0,0,.29,1.13,1,1,0,0,0,.85.36,1.44,1.44,0,0,0,.61-.13,1.5,1.5,0,0,0,.5-.42l.42.5A1.82,1.82,0,0,1,136.91,50.5Zm-.09-4.33a.83.83,0,0,0-.73.34,2.14,2.14,0,0,0-.27,1h1.91v-.1a1.82,1.82,0,0,0-.25-1A.77.77,0,0,0,136.82,46.17Z"/><path class="cls-6" d="M144.73,48.71h-2.2l-.51,1.7h-.84l2.1-6.5h.7l2.11,6.5h-.84Zm-2-.7h1.78l-.89-3Z"/><rect class="cls-6" x="108.29" y="54.98" width="41.42" height="13.55"/><path d="M122.79,76.38a.66.66,0,0,0-.17-.5,1.94,1.94,0,0,0-.64-.33,2.66,2.66,0,0,1-.7-.35,1.19,1.19,0,0,1-.37-.41,1.12,1.12,0,0,1-.12-.53,1.15,1.15,0,0,1,.35-.85,1.25,1.25,0,0,1,.9-.33,1.37,1.37,0,0,1,.68.17,1.1,1.1,0,0,1,.46.47,1.41,1.41,0,0,1,.16.67h-.55a.89.89,0,0,0-.19-.62.82.82,0,0,0-1.07,0,.73.73,0,0,0-.18.52.6.6,0,0,0,.19.46,1.72,1.72,0,0,0,.61.33,2.12,2.12,0,0,1,.92.52,1.16,1.16,0,0,1,.28.81,1.09,1.09,0,0,1-.35.85,1.31,1.31,0,0,1-.93.32,1.51,1.51,0,0,1-.7-.17,1.26,1.26,0,0,1-.51-.46,1.31,1.31,0,0,1-.18-.69h.55a.85.85,0,0,0,.22.63.88.88,0,0,0,.62.22.7.7,0,0,0,.54-.19A.68.68,0,0,0,122.79,76.38Z"/><path d="M125.15,77.54a1.18,1.18,0,0,1-.93-.36,1.56,1.56,0,0,1-.33-1.06v-.39a1.83,1.83,0,0,1,.32-1.13,1.05,1.05,0,0,1,.88-.41,1,1,0,0,1,.85.36,1.89,1.89,0,0,1,.28,1.13V76h-1.8v.08a1.16,1.16,0,0,0,.19.75.69.69,0,0,0,.57.24.91.91,0,0,0,.41-.09,1,1,0,0,0,.33-.28l.28.33A1.19,1.19,0,0,1,125.15,77.54Zm-.06-2.89a.56.56,0,0,0-.49.22,1.25,1.25,0,0,0-.18.7h1.27V75.5a1.27,1.27,0,0,0-.16-.66A.52.52,0,0,0,125.09,74.65Z"/><path d="M128.19,74.75a.9.9,0,0,0-.24,0,.56.56,0,0,0-.56.44v2.31h-.53V74.25h.51v.33a.65.65,0,0,1,.6-.39.46.46,0,0,1,.21,0Z"/><path d="M129.69,76.68l.61-2.43h.54l-1,3.23h-.39l-1-3.23h.53Z"/><path d="M132,73.4a.32.32,0,0,1-.07.22.29.29,0,0,1-.23.09.27.27,0,0,1-.22-.09.33.33,0,0,1-.08-.22.36.36,0,0,1,.08-.23.27.27,0,0,1,.22-.09.29.29,0,0,1,.23.09A.37.37,0,0,1,132,73.4Zm0,4.08h-.53V74.25H132Z"/><path d="M133.92,77.09a.57.57,0,0,0,.42-.17.69.69,0,0,0,.17-.46h.5a1.07,1.07,0,0,1-.33.77,1,1,0,0,1-.76.31,1.14,1.14,0,0,1-.92-.38,1.7,1.7,0,0,1-.31-1.12v-.36a1.73,1.73,0,0,1,.31-1.11,1.12,1.12,0,0,1,.91-.38,1,1,0,0,1,.79.32,1.21,1.21,0,0,1,.31.85h-.5a.83.83,0,0,0-.17-.53.54.54,0,0,0-.43-.18.59.59,0,0,0-.52.23,1.38,1.38,0,0,0-.18.76v.41a1.42,1.42,0,0,0,.17.8A.62.62,0,0,0,133.92,77.09Z"/><path d="M136.78,77.54a1.18,1.18,0,0,1-.93-.36,1.56,1.56,0,0,1-.33-1.06v-.39a1.83,1.83,0,0,1,.32-1.13,1.05,1.05,0,0,1,.88-.41,1,1,0,0,1,.85.36,1.89,1.89,0,0,1,.28,1.13V76h-1.8v.08a1.16,1.16,0,0,0,.19.75.69.69,0,0,0,.57.24.91.91,0,0,0,.41-.09,1,1,0,0,0,.33-.28l.28.33A1.19,1.19,0,0,1,136.78,77.54Zm-.06-2.89a.55.55,0,0,0-.49.22,1.25,1.25,0,0,0-.18.7h1.27V75.5a1.27,1.27,0,0,0-.16-.66A.52.52,0,0,0,136.72,74.65Z"/><path d="M140,77.48V73.14h1.24a1.26,1.26,0,0,1,.9.29,1.14,1.14,0,0,1,.3.86,1,1,0,0,1-.15.54,1,1,0,0,1-.42.36.83.83,0,0,1,.48.37,1.28,1.28,0,0,1,.17.67,1.26,1.26,0,0,1-.32.91,1.19,1.19,0,0,1-.92.34Zm.55-2.49h.7a.59.59,0,0,0,.46-.19.72.72,0,0,0,.18-.51.75.75,0,0,0-.16-.52.66.66,0,0,0-.49-.16h-.69Zm0,.46V77h.75a.65.65,0,0,0,.49-.2.86.86,0,0,0,.18-.58q0-.78-.66-.78Z"/><path class="cls-8" d="M115.52,78a3.05,3.05,0,1,1,3-3.09,3,3,0,0,1-3,3.09Z"/><path class="cls-6" d="M115.53,72.28a2.62,2.62,0,0,1,2.61,2.61V75a2.62,2.62,0,0,1-2.61,2.62h0A2.62,2.62,0,0,1,112.91,75v-.08a2.62,2.62,0,0,1,2.61-2.61h0m0-.79h0a3.4,3.4,0,0,0-3.4,3.4V75a3.41,3.41,0,1,0,6.82,0v-.08a3.41,3.41,0,0,0-3.41-3.4Z"/><path d="M122.39,89.55a.69.69,0,0,0-.17-.5,1.76,1.76,0,0,0-.64-.34,2.68,2.68,0,0,1-.7-.34,1.18,1.18,0,0,1-.37-.41,1.15,1.15,0,0,1-.12-.53,1.09,1.09,0,0,1,.35-.85,1.25,1.25,0,0,1,.9-.34,1.3,1.3,0,0,1,.68.18,1.16,1.16,0,0,1,.46.47,1.35,1.35,0,0,1,.16.67h-.55a.93.93,0,0,0-.19-.63.81.81,0,0,0-1.08,0,.71.71,0,0,0-.18.52.63.63,0,0,0,.2.46,1.79,1.79,0,0,0,.61.33,2.08,2.08,0,0,1,.92.52,1.21,1.21,0,0,1,.28.81,1.12,1.12,0,0,1-.35.85,1.32,1.32,0,0,1-.93.31,1.47,1.47,0,0,1-.7-.16,1.22,1.22,0,0,1-.51-.47,1.3,1.3,0,0,1-.18-.68h.55a.78.78,0,0,0,.84.85.74.74,0,0,0,.54-.19A.68.68,0,0,0,122.39,89.55Z"/><path d="M124.74,90.7a1.16,1.16,0,0,1-.92-.36,1.5,1.5,0,0,1-.33-1V88.9a1.81,1.81,0,0,1,.31-1.13,1.06,1.06,0,0,1,.88-.41,1,1,0,0,1,.85.36,1.79,1.79,0,0,1,.29,1.12v.35H124v.07a1.2,1.2,0,0,0,.19.76.71.71,0,0,0,.56.23.93.93,0,0,0,.42-.09,1.12,1.12,0,0,0,.33-.27l.27.33A1.21,1.21,0,0,1,124.74,90.7Zm-.06-2.89a.55.55,0,0,0-.48.23,1.25,1.25,0,0,0-.18.7h1.27v-.08a1.25,1.25,0,0,0-.16-.65A.54.54,0,0,0,124.68,87.81Z"/><path d="M127.79,87.91l-.24,0a.59.59,0,0,0-.57.45v2.3h-.53V87.42H127v.33a.65.65,0,0,1,.6-.39.46.46,0,0,1,.21,0Z"/><path d="M129.29,89.84l.61-2.42h.54l-1,3.22h-.4l-1-3.22h.54Z"/><path d="M131.6,86.56a.35.35,0,0,1-.07.23.29.29,0,0,1-.23.09.25.25,0,0,1-.22-.09.36.36,0,0,1-.08-.23.33.33,0,0,1,.08-.22.26.26,0,0,1,.22-.1.27.27,0,0,1,.22.1A.3.3,0,0,1,131.6,86.56Zm0,4.08H131V87.42h.53Z"/><path d="M133.51,90.25a.57.57,0,0,0,.43-.16.71.71,0,0,0,.17-.46h.5a1.09,1.09,0,0,1-.33.77,1.06,1.06,0,0,1-.77.3,1.11,1.11,0,0,1-.91-.37,1.73,1.73,0,0,1-.32-1.13v-.35a1.69,1.69,0,0,1,.32-1.11,1.12,1.12,0,0,1,.91-.38,1,1,0,0,1,.79.31,1.3,1.3,0,0,1,.31.86h-.5a.89.89,0,0,0-.17-.54.55.55,0,0,0-.43-.18A.61.61,0,0,0,133,88a1.35,1.35,0,0,0-.18.76v.41A1.48,1.48,0,0,0,133,90,.62.62,0,0,0,133.51,90.25Z"/><path d="M136.37,90.7a1.16,1.16,0,0,1-.92-.36,1.5,1.5,0,0,1-.33-1V88.9a1.81,1.81,0,0,1,.31-1.13,1.06,1.06,0,0,1,.88-.41,1,1,0,0,1,.85.36,1.79,1.79,0,0,1,.29,1.12v.35h-1.8v.07a1.2,1.2,0,0,0,.19.76.71.71,0,0,0,.56.23.93.93,0,0,0,.42-.09,1.12,1.12,0,0,0,.33-.27l.27.33A1.21,1.21,0,0,1,136.37,90.7Zm-.06-2.89a.55.55,0,0,0-.48.23,1.25,1.25,0,0,0-.18.7h1.27v-.08a1.25,1.25,0,0,0-.16-.65A.54.54,0,0,0,136.31,87.81Z"/><path d="M142.29,89.26a1.68,1.68,0,0,1-.39,1.07,1.34,1.34,0,0,1-1,.37,1.23,1.23,0,0,1-1-.49,2.13,2.13,0,0,1-.39-1.35v-.78a2,2,0,0,1,.4-1.34,1.3,1.3,0,0,1,1.08-.5,1.25,1.25,0,0,1,1,.38,1.65,1.65,0,0,1,.38,1.08h-.55a1.34,1.34,0,0,0-.23-.76.69.69,0,0,0-.57-.23.79.79,0,0,0-.69.35,1.79,1.79,0,0,0-.24,1v.79a1.86,1.86,0,0,0,.23,1,.71.71,0,0,0,.65.36.78.78,0,0,0,.61-.22,1.28,1.28,0,0,0,.24-.76Z"/><rect class="cls-8" x="112.72" y="85.91" width="4.94" height="5.27"/><path class="cls-6" d="M117.33,86.24v4.61h-4.28V86.24h4.28m.66-.67h-5.6v5.94H118V85.57Z"/><path d="M122.44,62.6a.7.7,0,0,0-.17-.5,1.77,1.77,0,0,0-.64-.33,2.66,2.66,0,0,1-.7-.35,1.18,1.18,0,0,1-.37-.41,1.12,1.12,0,0,1-.12-.53,1.1,1.1,0,0,1,.35-.85,1.25,1.25,0,0,1,.9-.33,1.3,1.3,0,0,1,.68.17,1.16,1.16,0,0,1,.46.47,1.38,1.38,0,0,1,.16.67h-.55a.89.89,0,0,0-.19-.62.7.7,0,0,0-.56-.22.73.73,0,0,0-.52.18.71.71,0,0,0-.18.52.61.61,0,0,0,.2.46,1.79,1.79,0,0,0,.61.33,2.18,2.18,0,0,1,.92.52,1.21,1.21,0,0,1,.28.81,1.09,1.09,0,0,1-.35.85,1.33,1.33,0,0,1-.93.32,1.48,1.48,0,0,1-.7-.17,1.2,1.2,0,0,1-.51-.46,1.31,1.31,0,0,1-.18-.69h.55a.81.81,0,0,0,.22.62.85.85,0,0,0,.62.23.7.7,0,0,0,.54-.19A.68.68,0,0,0,122.44,62.6Z"/><path d="M124.79,63.76a1.16,1.16,0,0,1-.92-.36,1.51,1.51,0,0,1-.33-1.06V62a1.83,1.83,0,0,1,.31-1.13,1.06,1.06,0,0,1,.88-.41,1,1,0,0,1,.85.36,1.82,1.82,0,0,1,.29,1.13v.34h-1.8v.08a1.18,1.18,0,0,0,.19.75.68.68,0,0,0,.56.24.93.93,0,0,0,.42-.09,1.17,1.17,0,0,0,.33-.28l.27.33A1.21,1.21,0,0,1,124.79,63.76Zm-.06-2.89a.54.54,0,0,0-.48.22,1.25,1.25,0,0,0-.18.7h1.27v-.07a1.27,1.27,0,0,0-.16-.66A.53.53,0,0,0,124.73,60.87Z"/><path d="M127.84,61a.9.9,0,0,0-.24,0,.58.58,0,0,0-.57.44V63.7h-.53V60.47H127v.33a.64.64,0,0,1,.81-.35Z"/><path d="M129.34,62.89l.61-2.42h.54l-1,3.23h-.4l-1-3.23h.54Z"/><path d="M131.65,59.62a.32.32,0,0,1-.07.22.34.34,0,0,1-.46,0,.38.38,0,0,1-.07-.22.42.42,0,0,1,.07-.23.29.29,0,0,1,.23-.09.27.27,0,0,1,.22.09A.36.36,0,0,1,131.65,59.62Zm0,4.08h-.53V60.47h.53Z"/><path d="M133.56,63.31a.58.58,0,0,0,.43-.17.69.69,0,0,0,.17-.46h.5a1.09,1.09,0,0,1-1.1,1.08,1.12,1.12,0,0,1-.91-.38,1.72,1.72,0,0,1-.32-1.12V61.9a1.73,1.73,0,0,1,.32-1.11,1.12,1.12,0,0,1,.91-.38,1,1,0,0,1,.79.32,1.25,1.25,0,0,1,.31.85h-.5A.89.89,0,0,0,134,61a.54.54,0,0,0-.43-.17.59.59,0,0,0-.52.23,1.29,1.29,0,0,0-.18.75v.42a1.44,1.44,0,0,0,.17.8A.6.6,0,0,0,133.56,63.31Z"/><path d="M136.42,63.76a1.16,1.16,0,0,1-.92-.36,1.51,1.51,0,0,1-.33-1.06V62a1.83,1.83,0,0,1,.31-1.13,1.06,1.06,0,0,1,.88-.41,1,1,0,0,1,.85.36,1.82,1.82,0,0,1,.29,1.13v.34h-1.8v.08a1.18,1.18,0,0,0,.19.75.68.68,0,0,0,.56.24.93.93,0,0,0,.42-.09,1.17,1.17,0,0,0,.33-.28l.27.33A1.21,1.21,0,0,1,136.42,63.76Zm-.06-2.89a.54.54,0,0,0-.48.22,1.25,1.25,0,0,0-.18.7H137v-.07a1.27,1.27,0,0,0-.16-.66A.53.53,0,0,0,136.36,60.87Z"/><path d="M141.64,62.56h-1.47l-.34,1.14h-.56l1.4-4.34h.47l1.4,4.34H142Zm-1.33-.47h1.19l-.6-2Z"/><path class="cls-8" d="M118.14,60.88l-2.61-2.6a.38.38,0,0,0-.54,0l-2.6,2.59a.39.39,0,0,0,0,.55L115,64a.39.39,0,0,0,.55,0l2.59-2.59A.38.38,0,0,0,118.14,60.88Z"/><rect class="cls-9" x="108.29" y="68.53" width="41.42" height="13.55"/><rect class="cls-9" x="108.29" y="82.08" width="41.42" height="13.55"/><line class="cls-10" x1="108.29" y1="82.08" x2="149.71" y2="82.08"/><line class="cls-10" x1="108.29" y1="68.53" x2="149.71" y2="68.53"/><rect class="cls-6" x="57.73" y="40.49" width="41.42" height="55.14"/><rect class="cls-7" x="57.73" y="40.49" width="41.42" height="14.49"/><path class="cls-6" d="M64.1,50.41v-6.5H66a1.86,1.86,0,0,1,1.34.43,1.72,1.72,0,0,1,.45,1.3,1.5,1.5,0,0,1-.23.81,1.55,1.55,0,0,1-.62.54,1.21,1.21,0,0,1,.71.55,1.77,1.77,0,0,1,.26,1,1.89,1.89,0,0,1-.48,1.37,1.83,1.83,0,0,1-1.37.5Zm.82-3.73h1a.9.9,0,0,0,.69-.28,1.14,1.14,0,0,0,.26-.77,1.1,1.1,0,0,0-.24-.78,1,1,0,0,0-.72-.24h-1Zm0,.69v2.34H66a.94.94,0,0,0,.74-.31,1.25,1.25,0,0,0,.27-.86q0-1.17-1-1.17Z"/><path class="cls-6" d="M71.46,50a1.35,1.35,0,0,1-1.15.51,1.15,1.15,0,0,1-1-.45A2.14,2.14,0,0,1,69,48.73V45.58h.78v3.09c0,.75.23,1.13.69,1.13a1,1,0,0,0,1-.64V45.58h.79v4.83h-.75Z"/><path class="cls-6" d="M73.27,47.78a3,3,0,0,1,.41-1.71,1.39,1.39,0,0,1,1.21-.58,1.24,1.24,0,0,1,1.12.63l0-.54h.72v4.88a1.88,1.88,0,0,1-.46,1.37,1.68,1.68,0,0,1-1.29.49,2.12,2.12,0,0,1-.8-.18,1.63,1.63,0,0,1-.67-.44l.32-.54a1.53,1.53,0,0,0,1.09.48q1,0,1-1.08v-.63a1.26,1.26,0,0,1-1.1.57,1.39,1.39,0,0,1-1.17-.56,2.77,2.77,0,0,1-.44-1.63Zm.79.44a2.32,2.32,0,0,0,.24,1.2.87.87,0,0,0,.79.38,1,1,0,0,0,.89-.6V46.78a1,1,0,0,0-.88-.59.87.87,0,0,0-.79.38,2.37,2.37,0,0,0-.25,1.17Z"/><path class="cls-6" d="M78.3,50.41V46.22h-.63v-.64h.63V45a1.76,1.76,0,0,1,.37-1.15,1.26,1.26,0,0,1,1-.41,1.59,1.59,0,0,1,.48.07l0,.67a1.37,1.37,0,0,0-.36,0c-.45,0-.68.32-.68,1v.46h.83v.64h-.83v4.19Z"/><path class="cls-6" d="M81.77,44.3a.52.52,0,0,1-.11.33.48.48,0,0,1-.68,0,.52.52,0,0,1-.11-.33A.53.53,0,0,1,81,44a.4.4,0,0,1,.34-.14.43.43,0,0,1,.34.14A.53.53,0,0,1,81.77,44.3Zm-.06,6.11h-.8V45.58h.8Z"/><path class="cls-6" d="M84.36,47.34l.82-1.76h.92L84.79,48l1.34,2.44h-.91l-.85-1.81-.86,1.81h-.92L83.94,48l-1.31-2.39h.91Z"/><path class="cls-6" d="M89.19,50.41v-6.5h1.86a1.87,1.87,0,0,1,1.35.43,1.72,1.72,0,0,1,.45,1.3,1.5,1.5,0,0,1-.23.81A1.55,1.55,0,0,1,92,47a1.21,1.21,0,0,1,.71.55,1.86,1.86,0,0,1,.26,1,1.89,1.89,0,0,1-.48,1.37,1.83,1.83,0,0,1-1.37.5ZM90,46.68h1.06a.9.9,0,0,0,.69-.28,1.14,1.14,0,0,0,.26-.77,1.1,1.1,0,0,0-.24-.78,1,1,0,0,0-.73-.24H90Zm0,.69v2.34h1.12a.91.91,0,0,0,.74-.31,1.2,1.2,0,0,0,.28-.86c0-.78-.33-1.17-1-1.17Z"/><rect class="cls-6" x="57.73" y="68.53" width="41.42" height="13.55"/><path d="M72.24,76.38a.67.67,0,0,0-.18-.5,1.87,1.87,0,0,0-.63-.33,2.75,2.75,0,0,1-.71-.35,1.16,1.16,0,0,1-.36-.41,1.12,1.12,0,0,1-.12-.53,1.15,1.15,0,0,1,.34-.85,1.26,1.26,0,0,1,.91-.33,1.4,1.4,0,0,1,.68.17,1.16,1.16,0,0,1,.46.47,1.41,1.41,0,0,1,.16.67h-.55a.89.89,0,0,0-.2-.62.68.68,0,0,0-.55-.22.7.7,0,0,0-.52.18.73.73,0,0,0-.18.52.61.61,0,0,0,.2.46,1.63,1.63,0,0,0,.61.33,2.18,2.18,0,0,1,.92.52,1.2,1.2,0,0,1,.27.81,1.09,1.09,0,0,1-.34.85,1.34,1.34,0,0,1-.94.32,1.54,1.54,0,0,1-.7-.17,1.27,1.27,0,0,1-.69-1.15h.55a.78.78,0,0,0,.84.85.72.72,0,0,0,.55-.19A.68.68,0,0,0,72.24,76.38Z"/><path d="M74.59,77.54a1.2,1.2,0,0,1-.93-.36,1.56,1.56,0,0,1-.32-1.06v-.39a1.83,1.83,0,0,1,.31-1.13,1.06,1.06,0,0,1,.88-.41,1,1,0,0,1,.85.36,1.89,1.89,0,0,1,.29,1.13V76H73.86v.08a1.16,1.16,0,0,0,.2.75.68.68,0,0,0,.56.24A.88.88,0,0,0,75,77a1.08,1.08,0,0,0,.34-.28l.27.33A1.19,1.19,0,0,1,74.59,77.54Zm-.06-2.89a.56.56,0,0,0-.49.22,1.35,1.35,0,0,0-.17.7h1.27V75.5a1.25,1.25,0,0,0-.17-.66A.5.5,0,0,0,74.53,74.65Z"/><path d="M77.64,74.75a1,1,0,0,0-.24,0,.58.58,0,0,0-.57.44v2.31H76.3V74.25h.51v.33a.65.65,0,0,1,.6-.39.41.41,0,0,1,.21,0Z"/><path d="M79.13,76.68l.62-2.43h.54l-1,3.23h-.4l-1-3.23h.54Z"/><path d="M81.45,73.4a.33.33,0,0,1-.08.22.27.27,0,0,1-.22.09.29.29,0,0,1-.23-.09.32.32,0,0,1-.07-.22.35.35,0,0,1,.07-.23.29.29,0,0,1,.23-.09.27.27,0,0,1,.22.09A.38.38,0,0,1,81.45,73.4Zm0,4.08h-.53V74.25h.53Z"/><path d="M83.36,77.09a.54.54,0,0,0,.42-.17.65.65,0,0,0,.18-.46h.5a1.12,1.12,0,0,1-.34.77,1,1,0,0,1-.76.31,1.12,1.12,0,0,1-.91-.38A1.65,1.65,0,0,1,82.13,76v-.36a1.73,1.73,0,0,1,.31-1.11,1.14,1.14,0,0,1,.92-.38,1,1,0,0,1,.79.32,1.31,1.31,0,0,1,.31.85H84a.83.83,0,0,0-.18-.53.52.52,0,0,0-.42-.18.61.61,0,0,0-.53.23,1.31,1.31,0,0,0-.17.76v.41a1.34,1.34,0,0,0,.17.8A.6.6,0,0,0,83.36,77.09Z"/><path d="M86.22,77.54a1.2,1.2,0,0,1-.93-.36A1.56,1.56,0,0,1,85,76.12v-.39a1.83,1.83,0,0,1,.31-1.13,1.06,1.06,0,0,1,.88-.41,1,1,0,0,1,.85.36,1.89,1.89,0,0,1,.29,1.13V76H85.49v.08a1.16,1.16,0,0,0,.2.75.68.68,0,0,0,.56.24.88.88,0,0,0,.41-.09,1.08,1.08,0,0,0,.34-.28l.27.33A1.19,1.19,0,0,1,86.22,77.54Zm-.06-2.89a.56.56,0,0,0-.49.22,1.35,1.35,0,0,0-.17.7h1.27V75.5a1.25,1.25,0,0,0-.17-.66A.5.5,0,0,0,86.16,74.65Z"/><path d="M89.41,77.48V73.14h1.24a1.25,1.25,0,0,1,.89.29,1.14,1.14,0,0,1,.3.86,1,1,0,0,1-.56.9.81.81,0,0,1,.47.37,1.2,1.2,0,0,1,.18.67,1.26,1.26,0,0,1-.32.91,1.21,1.21,0,0,1-.92.34ZM90,75h.71a.59.59,0,0,0,.46-.19.77.77,0,0,0,.17-.51.7.7,0,0,0-.16-.52.63.63,0,0,0-.48-.16H90Zm0,.46V77h.75a.63.63,0,0,0,.49-.2.81.81,0,0,0,.19-.58c0-.52-.22-.78-.67-.78Z"/><path class="cls-8" d="M65,78a3.05,3.05,0,1,1,3-3.09A3,3,0,0,1,65,78Z"/><path class="cls-6" d="M65,72.28a2.63,2.63,0,0,1,2.62,2.61V75A2.63,2.63,0,0,1,65,77.59h0A2.63,2.63,0,0,1,62.35,75v-.08A2.63,2.63,0,0,1,65,72.28h0m0-.79h0a3.41,3.41,0,0,0-3.41,3.4V75a3.41,3.41,0,0,0,6.82,0v-.08A3.41,3.41,0,0,0,65,71.49Z"/><path d="M71.84,89.55a.65.65,0,0,0-.18-.5,1.76,1.76,0,0,0-.64-.34,2.85,2.85,0,0,1-.7-.34A1.25,1.25,0,0,1,70,88a1,1,0,0,1-.13-.53,1.12,1.12,0,0,1,.35-.85,1.25,1.25,0,0,1,.9-.34,1.31,1.31,0,0,1,.69.18,1.22,1.22,0,0,1,.46.47,1.47,1.47,0,0,1,.16.67h-.55a.93.93,0,0,0-.2-.63.72.72,0,0,0-.56-.22.69.69,0,0,0-.51.19.71.71,0,0,0-.18.52.62.62,0,0,0,.19.46,2,2,0,0,0,.61.33,2,2,0,0,1,.92.52,1.16,1.16,0,0,1,.28.81,1.12,1.12,0,0,1-.34.85,1.35,1.35,0,0,1-.94.31,1.5,1.5,0,0,1-.7-.16,1.35,1.35,0,0,1-.51-.47,1.3,1.3,0,0,1-.18-.68h.55a.85.85,0,0,0,.23.62.82.82,0,0,0,.61.23.74.74,0,0,0,.54-.19A.65.65,0,0,0,71.84,89.55Z"/><path d="M74.19,90.7a1.2,1.2,0,0,1-.93-.36,1.61,1.61,0,0,1-.33-1V88.9a1.81,1.81,0,0,1,.32-1.13,1.05,1.05,0,0,1,.88-.41,1,1,0,0,1,.85.36,1.86,1.86,0,0,1,.28,1.12v.35h-1.8v.07a1.13,1.13,0,0,0,.2.76.69.69,0,0,0,.56.23.91.91,0,0,0,.74-.36l.28.33A1.21,1.21,0,0,1,74.19,90.7Zm-.06-2.89a.57.57,0,0,0-.49.23,1.44,1.44,0,0,0-.18.7h1.28v-.08a1.24,1.24,0,0,0-.17-.65A.52.52,0,0,0,74.13,87.81Z"/><path d="M77.23,87.91l-.23,0a.58.58,0,0,0-.57.45v2.3H75.9V87.42h.51v.33a.65.65,0,0,1,.6-.39.41.41,0,0,1,.21,0Z"/><path d="M78.73,89.84l.61-2.42h.54l-1,3.22h-.39l-1-3.22h.54Z"/><path d="M81,86.56a.35.35,0,0,1-.07.23.29.29,0,0,1-.23.09.27.27,0,0,1-.22-.09.36.36,0,0,1-.08-.23.33.33,0,0,1,.08-.22.27.27,0,0,1,.22-.1.29.29,0,0,1,.23.1A.34.34,0,0,1,81,86.56Zm0,4.08h-.53V87.42H81Z"/><path d="M83,90.25a.57.57,0,0,0,.42-.16.66.66,0,0,0,.17-.46h.5a1.09,1.09,0,0,1-.33.77,1.06,1.06,0,0,1-.76.3,1.14,1.14,0,0,1-.92-.37,1.73,1.73,0,0,1-.31-1.13v-.35A1.69,1.69,0,0,1,82,87.74a1.14,1.14,0,0,1,.92-.38,1,1,0,0,1,.78.31,1.25,1.25,0,0,1,.31.86h-.5a.89.89,0,0,0-.17-.54.52.52,0,0,0-.42-.18.63.63,0,0,0-.53.23,1.35,1.35,0,0,0-.17.76v.41a1.49,1.49,0,0,0,.16.81A.65.65,0,0,0,83,90.25Z"/><path d="M85.82,90.7a1.2,1.2,0,0,1-.93-.36,1.61,1.61,0,0,1-.33-1V88.9a1.81,1.81,0,0,1,.32-1.13,1.05,1.05,0,0,1,.88-.41,1,1,0,0,1,.85.36,1.86,1.86,0,0,1,.28,1.12v.35h-1.8v.07a1.13,1.13,0,0,0,.2.76.69.69,0,0,0,.56.23.91.91,0,0,0,.74-.36l.28.33A1.21,1.21,0,0,1,85.82,90.7Zm-.06-2.89a.57.57,0,0,0-.49.23,1.44,1.44,0,0,0-.18.7h1.28v-.08A1.24,1.24,0,0,0,86.2,88,.52.52,0,0,0,85.76,87.81Z"/><path d="M91.73,89.26a1.58,1.58,0,0,1-.39,1.07,1.32,1.32,0,0,1-1,.37,1.26,1.26,0,0,1-1-.49,2.12,2.12,0,0,1-.38-1.35v-.78a2.08,2.08,0,0,1,.39-1.34,1.33,1.33,0,0,1,1.08-.5,1.27,1.27,0,0,1,1,.38,1.65,1.65,0,0,1,.37,1.08h-.55a1.34,1.34,0,0,0-.22-.76.72.72,0,0,0-.58-.23.78.78,0,0,0-.68.35,1.79,1.79,0,0,0-.24,1v.79a1.87,1.87,0,0,0,.22,1,.73.73,0,0,0,.65.36A.8.8,0,0,0,91,90a1.36,1.36,0,0,0,.23-.76Z"/><rect class="cls-8" x="62.16" y="85.91" width="4.94" height="5.27"/><path class="cls-6" d="M66.77,86.24v4.61H62.5V86.24h4.27m.67-.67H61.83v5.94h5.61V85.57Z"/><path d="M71.89,62.6a.67.67,0,0,0-.18-.5,1.77,1.77,0,0,0-.64-.33,2.83,2.83,0,0,1-.7-.35A1.42,1.42,0,0,1,70,61a1.12,1.12,0,0,1-.12-.53,1.14,1.14,0,0,1,.35-.85,1.25,1.25,0,0,1,.9-.33,1.31,1.31,0,0,1,.69.17,1.22,1.22,0,0,1,.46.47,1.5,1.5,0,0,1,.16.67h-.55a.89.89,0,0,0-.2-.62.82.82,0,0,0-1.07,0,.71.71,0,0,0-.18.52.6.6,0,0,0,.19.46,2,2,0,0,0,.61.33,2.12,2.12,0,0,1,.92.52,1.16,1.16,0,0,1,.28.81,1.09,1.09,0,0,1-.34.85,1.35,1.35,0,0,1-.94.32,1.51,1.51,0,0,1-.7-.17,1.33,1.33,0,0,1-.51-.46,1.31,1.31,0,0,1-.18-.69h.55a.79.79,0,0,0,.84.85.7.7,0,0,0,.54-.19A.65.65,0,0,0,71.89,62.6Z"/><path d="M74.24,63.76a1.2,1.2,0,0,1-.93-.36A1.62,1.62,0,0,1,73,62.34V62a1.83,1.83,0,0,1,.32-1.13,1.05,1.05,0,0,1,.88-.41,1,1,0,0,1,.85.36,1.89,1.89,0,0,1,.28,1.13v.34h-1.8v.08a1.12,1.12,0,0,0,.2.75.67.67,0,0,0,.56.24.91.91,0,0,0,.41-.09,1,1,0,0,0,.33-.28l.28.33A1.21,1.21,0,0,1,74.24,63.76Zm-.06-2.89a.56.56,0,0,0-.49.22,1.44,1.44,0,0,0-.18.7h1.28v-.07a1.25,1.25,0,0,0-.17-.66A.51.51,0,0,0,74.18,60.87Z"/><path d="M77.28,61A.9.9,0,0,0,77,61a.56.56,0,0,0-.56.44V63.7H76V60.47h.51v.33a.65.65,0,0,1,.6-.39.56.56,0,0,1,.21,0Z"/><path d="M78.78,62.89l.61-2.42h.54L79,63.7h-.39l-1-3.23h.54Z"/><path d="M81.09,59.62a.32.32,0,0,1-.07.22.29.29,0,0,1-.23.09.27.27,0,0,1-.22-.09.33.33,0,0,1-.08-.22.36.36,0,0,1,.08-.23.27.27,0,0,1,.22-.09.29.29,0,0,1,.23.09A.35.35,0,0,1,81.09,59.62Zm0,4.08h-.53V60.47h.53Z"/><path d="M83,63.31a.57.57,0,0,0,.42-.17.64.64,0,0,0,.17-.46h.5A1.09,1.09,0,0,1,83,63.76a1.14,1.14,0,0,1-.92-.38,1.72,1.72,0,0,1-.31-1.12V61.9a1.73,1.73,0,0,1,.31-1.11,1.14,1.14,0,0,1,.92-.38,1,1,0,0,1,.78.32,1.21,1.21,0,0,1,.31.85h-.5a.89.89,0,0,0-.17-.54.51.51,0,0,0-.42-.17.61.61,0,0,0-.53.23,1.3,1.3,0,0,0-.17.75v.42a1.45,1.45,0,0,0,.16.8A.63.63,0,0,0,83,63.31Z"/><path d="M85.87,63.76a1.2,1.2,0,0,1-.93-.36,1.62,1.62,0,0,1-.33-1.06V62a1.83,1.83,0,0,1,.32-1.13,1.05,1.05,0,0,1,.88-.41,1,1,0,0,1,.85.36,1.89,1.89,0,0,1,.28,1.13v.34h-1.8v.08a1.18,1.18,0,0,0,.19.75.7.7,0,0,0,.57.24.91.91,0,0,0,.41-.09,1,1,0,0,0,.33-.28l.28.33A1.21,1.21,0,0,1,85.87,63.76Zm-.06-2.89a.56.56,0,0,0-.49.22,1.44,1.44,0,0,0-.18.7h1.28v-.07a1.25,1.25,0,0,0-.17-.66A.51.51,0,0,0,85.81,60.87Z"/><path d="M91.08,62.56H89.61l-.33,1.14h-.57l1.41-4.34h.46L92,63.7h-.56Zm-1.32-.47h1.18l-.59-2Z"/><path class="cls-8" d="M67.59,60.88,65,58.28a.39.39,0,0,0-.55,0l-2.6,2.59a.39.39,0,0,0,0,.55L64.45,64A.38.38,0,0,0,65,64l2.6-2.59A.39.39,0,0,0,67.59,60.88Z"/><rect class="cls-9" x="57.73" y="54.98" width="41.42" height="13.55"/><rect class="cls-9" x="57.73" y="82.08" width="41.42" height="13.55"/><line class="cls-10" x1="57.73" y1="82.08" x2="99.16" y2="82.08"/><line class="cls-10" x1="57.73" y1="68.53" x2="99.16" y2="68.53"/><rect class="cls-6" x="6.41" y="40.49" width="41.42" height="55.14"/><rect class="cls-7" x="6.41" y="40.49" width="41.42" height="14.49"/><path class="cls-6" d="M16.23,43.91l1.7,5.3,1.7-5.3h1.06v6.5h-.82V47.88L20,45.34l-1.71,5.07h-.63l-1.7-5L16,47.88v2.53h-.82v-6.5Z"/><path class="cls-6" d="M24.49,50.41a1.58,1.58,0,0,1-.11-.53,1.24,1.24,0,0,1-1.07.62,1.28,1.28,0,0,1-1.4-1.41,1.48,1.48,0,0,1,.5-1.17,2.09,2.09,0,0,1,1.38-.44h.58V47a.87.87,0,0,0-.19-.62.85.85,0,0,0-.59-.18.81.81,0,0,0-.58.21.71.71,0,0,0-.23.54H22a1.26,1.26,0,0,1,.22-.71,1.59,1.59,0,0,1,.59-.53,1.78,1.78,0,0,1,.83-.19,1.56,1.56,0,0,1,1.13.37,1.43,1.43,0,0,1,.4,1.07v2.44a2.82,2.82,0,0,0,.15,1v.07Zm-1.06-.63a1.11,1.11,0,0,0,.94-.56V48.07h-.45a1.47,1.47,0,0,0-.89.25.8.8,0,0,0-.33.68.91.91,0,0,0,.17.6A.72.72,0,0,0,23.43,49.78Z"/><path class="cls-6" d="M28.74,49.17a.56.56,0,0,0-.19-.43,2.92,2.92,0,0,0-.74-.43,5.83,5.83,0,0,1-.91-.45,1.43,1.43,0,0,1-.39-.43,1.14,1.14,0,0,1-.13-.57,1.29,1.29,0,0,1,.43-1,1.78,1.78,0,0,1,2.25,0A1.42,1.42,0,0,1,29.49,47H28.7a.8.8,0,0,0-.22-.55.72.72,0,0,0-.56-.23.79.79,0,0,0-.55.18.63.63,0,0,0-.2.48.53.53,0,0,0,.15.39,2.4,2.4,0,0,0,.7.39,3.48,3.48,0,0,1,1.2.67,1.16,1.16,0,0,1,.32.83,1.26,1.26,0,0,1-.44,1,2,2,0,0,1-2.39,0,1.45,1.45,0,0,1-.47-1.1H27a.86.86,0,0,0,.24.63.93.93,0,0,0,.66.23.9.9,0,0,0,.6-.18A.63.63,0,0,0,28.74,49.17Z"/><path class="cls-6" d="M31.61,44.41v1.17h.73v.64h-.73v3a.83.83,0,0,0,.09.43.35.35,0,0,0,.32.15,1.19,1.19,0,0,0,.32,0v.66a1.71,1.71,0,0,1-.55.09.86.86,0,0,1-.72-.33,1.63,1.63,0,0,1-.24-1v-3h-.74v-.64h.74V44.41Z"/><path class="cls-6" d="M35,50.5A1.77,1.77,0,0,1,33.62,50a2.3,2.3,0,0,1-.49-1.58V47.8a2.77,2.77,0,0,1,.47-1.7,1.58,1.58,0,0,1,1.32-.61,1.5,1.5,0,0,1,1.27.54,2.73,2.73,0,0,1,.43,1.68v.52h-2.7v.11a1.78,1.78,0,0,0,.29,1.13,1,1,0,0,0,.85.36,1.48,1.48,0,0,0,.61-.13,1.5,1.5,0,0,0,.5-.42l.41.5A1.79,1.79,0,0,1,35,50.5Zm-.09-4.33a.82.82,0,0,0-.73.34,1.94,1.94,0,0,0-.27,1h1.91v-.1a1.82,1.82,0,0,0-.25-1A.77.77,0,0,0,34.92,46.17Z"/><path class="cls-6" d="M39.58,46.32a2,2,0,0,0-.36,0,.86.86,0,0,0-.85.66v3.46h-.79V45.58h.77v.49a1,1,0,0,1,.9-.58.71.71,0,0,1,.31.06Z"/><rect class="cls-6" x="6.41" y="54.98" width="41.42" height="13.55"/><rect class="cls-6" x="6.41" y="68.53" width="41.42" height="13.55"/><rect class="cls-6" x="6.41" y="82.08" width="41.42" height="13.55"/><path d="M20.92,76.38a.67.67,0,0,0-.18-.5,1.94,1.94,0,0,0-.64-.33,2.83,2.83,0,0,1-.7-.35,1.3,1.3,0,0,1-.37-.41,1.12,1.12,0,0,1-.12-.53,1.15,1.15,0,0,1,.35-.85,1.25,1.25,0,0,1,.9-.33,1.34,1.34,0,0,1,.68.17,1.1,1.1,0,0,1,.46.47,1.42,1.42,0,0,1,.17.67h-.55a.89.89,0,0,0-.2-.62.82.82,0,0,0-1.07,0,.73.73,0,0,0-.18.52.6.6,0,0,0,.19.46,1.72,1.72,0,0,0,.61.33,2.12,2.12,0,0,1,.92.52,1.16,1.16,0,0,1,.28.81,1.09,1.09,0,0,1-.35.85,1.31,1.31,0,0,1-.93.32,1.51,1.51,0,0,1-.7-.17,1.26,1.26,0,0,1-.51-.46,1.31,1.31,0,0,1-.18-.69h.55a.82.82,0,0,0,.23.63.86.86,0,0,0,.61.22.7.7,0,0,0,.54-.19A.65.65,0,0,0,20.92,76.38Z"/><path d="M23.27,77.54a1.2,1.2,0,0,1-.93-.36A1.62,1.62,0,0,1,22,76.12v-.39a1.83,1.83,0,0,1,.32-1.13,1.05,1.05,0,0,1,.88-.41,1,1,0,0,1,.85.36,1.89,1.89,0,0,1,.28,1.13V76h-1.8v.08a1.16,1.16,0,0,0,.19.75.7.7,0,0,0,.57.24.91.91,0,0,0,.41-.09,1,1,0,0,0,.33-.28l.28.33A1.19,1.19,0,0,1,23.27,77.54Zm-.06-2.89a.56.56,0,0,0-.49.22,1.44,1.44,0,0,0-.18.7h1.28V75.5a1.25,1.25,0,0,0-.17-.66A.51.51,0,0,0,23.21,74.65Z"/><path d="M26.31,74.75a.9.9,0,0,0-.24,0,.56.56,0,0,0-.56.44v2.31H25V74.25h.51v.33a.65.65,0,0,1,.6-.39.46.46,0,0,1,.21,0Z"/><path d="M27.81,76.68l.61-2.43H29l-1,3.23h-.39l-1-3.23h.53Z"/><path d="M30.12,73.4a.32.32,0,0,1-.07.22.29.29,0,0,1-.23.09.27.27,0,0,1-.22-.09.33.33,0,0,1-.08-.22.36.36,0,0,1,.08-.23.27.27,0,0,1,.22-.09.29.29,0,0,1,.23.09A.37.37,0,0,1,30.12,73.4Zm0,4.08h-.53V74.25h.53Z"/><path d="M32,77.09a.57.57,0,0,0,.42-.17.69.69,0,0,0,.17-.46h.5a1.07,1.07,0,0,1-.33.77,1,1,0,0,1-.76.31,1.14,1.14,0,0,1-.92-.38A1.7,1.7,0,0,1,30.81,76v-.36a1.73,1.73,0,0,1,.31-1.11,1.13,1.13,0,0,1,.92-.38,1,1,0,0,1,.78.32,1.21,1.21,0,0,1,.31.85h-.5a.83.83,0,0,0-.17-.53.52.52,0,0,0-.42-.18.6.6,0,0,0-.53.23,1.31,1.31,0,0,0-.17.76v.41a1.43,1.43,0,0,0,.16.8A.62.62,0,0,0,32,77.09Z"/><path d="M34.9,77.54a1.2,1.2,0,0,1-.93-.36,1.62,1.62,0,0,1-.33-1.06v-.39A1.83,1.83,0,0,1,34,74.6a1.05,1.05,0,0,1,.88-.41,1,1,0,0,1,.85.36A1.89,1.89,0,0,1,36,75.68V76h-1.8v.08a1.16,1.16,0,0,0,.19.75.7.7,0,0,0,.57.24.91.91,0,0,0,.41-.09,1,1,0,0,0,.33-.28l.28.33A1.19,1.19,0,0,1,34.9,77.54Zm-.06-2.89a.56.56,0,0,0-.49.22,1.44,1.44,0,0,0-.18.7h1.28V75.5a1.25,1.25,0,0,0-.17-.66A.51.51,0,0,0,34.84,74.65Z"/><path d="M38.08,77.48V73.14h1.24a1.26,1.26,0,0,1,.9.29,1.14,1.14,0,0,1,.3.86,1,1,0,0,1-.15.54.93.93,0,0,1-.42.36.83.83,0,0,1,.48.37,1.28,1.28,0,0,1,.17.67,1.22,1.22,0,0,1-.32.91,1.18,1.18,0,0,1-.91.34ZM38.63,75h.7a.59.59,0,0,0,.46-.19.72.72,0,0,0,.18-.51.75.75,0,0,0-.16-.52.66.66,0,0,0-.49-.16h-.69Zm0,.46V77h.75a.65.65,0,0,0,.49-.2.86.86,0,0,0,.18-.58q0-.78-.66-.78Z"/><path class="cls-8" d="M13.64,78a3.05,3.05,0,1,1,3-3.09,3,3,0,0,1-3,3.09Z"/><path class="cls-6" d="M13.65,72.28a2.63,2.63,0,0,1,2.62,2.61V75a2.63,2.63,0,0,1-2.62,2.62h0A2.62,2.62,0,0,1,11,75v-.08a2.62,2.62,0,0,1,2.61-2.61h0m0-.79h0a3.4,3.4,0,0,0-3.4,3.4V75a3.41,3.41,0,1,0,6.82,0v-.08a3.41,3.41,0,0,0-3.41-3.4Z"/><path d="M20.51,89.55a.65.65,0,0,0-.17-.5,1.76,1.76,0,0,0-.64-.34,2.68,2.68,0,0,1-.7-.34,1.18,1.18,0,0,1-.37-.41,1.15,1.15,0,0,1-.12-.53,1.12,1.12,0,0,1,.35-.85,1.25,1.25,0,0,1,.9-.34,1.28,1.28,0,0,1,.68.18,1.16,1.16,0,0,1,.46.47,1.35,1.35,0,0,1,.16.67h-.55a.93.93,0,0,0-.19-.63.74.74,0,0,0-.56-.22.69.69,0,0,0-.51.19.68.68,0,0,0-.19.52.63.63,0,0,0,.2.46,1.89,1.89,0,0,0,.61.33,2,2,0,0,1,.92.52,1.21,1.21,0,0,1,.28.81,1.12,1.12,0,0,1-.35.85,1.32,1.32,0,0,1-.93.31,1.47,1.47,0,0,1-.7-.16,1.22,1.22,0,0,1-.51-.47,1.3,1.3,0,0,1-.18-.68H19a.78.78,0,0,0,.84.85.74.74,0,0,0,.54-.19A.68.68,0,0,0,20.51,89.55Z"/><path d="M22.87,90.7a1.17,1.17,0,0,1-.93-.36,1.5,1.5,0,0,1-.33-1V88.9a1.81,1.81,0,0,1,.32-1.13,1.05,1.05,0,0,1,.88-.41,1,1,0,0,1,.84.36,1.79,1.79,0,0,1,.29,1.12v.35h-1.8v.07a1.2,1.2,0,0,0,.19.76.72.72,0,0,0,.57.23.91.91,0,0,0,.41-.09,1,1,0,0,0,.33-.27l.27.33A1.18,1.18,0,0,1,22.87,90.7Zm-.06-2.89a.56.56,0,0,0-.49.23,1.25,1.25,0,0,0-.18.7h1.27v-.08a1.25,1.25,0,0,0-.16-.65A.53.53,0,0,0,22.81,87.81Z"/><path d="M25.91,87.91l-.24,0a.59.59,0,0,0-.57.45v2.3h-.52V87.42h.51v.33a.65.65,0,0,1,.6-.39.46.46,0,0,1,.21,0Z"/><path d="M27.41,89.84,28,87.42h.54l-1,3.22h-.39l-1-3.22h.54Z"/><path d="M29.72,86.56a.35.35,0,0,1-.07.23.29.29,0,0,1-.23.09.27.27,0,0,1-.22-.09.36.36,0,0,1-.08-.23.33.33,0,0,1,.08-.22.27.27,0,0,1,.22-.1.31.31,0,0,1,.23.1A.34.34,0,0,1,29.72,86.56Zm0,4.08h-.53V87.42h.53Z"/><path d="M31.64,90.25a.57.57,0,0,0,.42-.16.71.71,0,0,0,.17-.46h.5a1.09,1.09,0,0,1-.33.77,1.06,1.06,0,0,1-.76.3,1.14,1.14,0,0,1-.92-.37,1.73,1.73,0,0,1-.32-1.13v-.35a1.69,1.69,0,0,1,.32-1.11,1.12,1.12,0,0,1,.91-.38,1,1,0,0,1,.79.31,1.3,1.3,0,0,1,.31.86h-.5a.89.89,0,0,0-.17-.54.54.54,0,0,0-.43-.18.61.61,0,0,0-.52.23,1.43,1.43,0,0,0-.18.76v.41a1.48,1.48,0,0,0,.17.81A.63.63,0,0,0,31.64,90.25Z"/><path d="M34.5,90.7a1.17,1.17,0,0,1-.93-.36,1.5,1.5,0,0,1-.33-1V88.9a1.81,1.81,0,0,1,.32-1.13,1.05,1.05,0,0,1,.88-.41,1,1,0,0,1,.84.36,1.79,1.79,0,0,1,.29,1.12v.35h-1.8v.07A1.2,1.2,0,0,0,34,90a.72.72,0,0,0,.57.23.91.91,0,0,0,.41-.09,1,1,0,0,0,.33-.27l.27.33A1.18,1.18,0,0,1,34.5,90.7Zm-.06-2.89A.56.56,0,0,0,34,88a1.25,1.25,0,0,0-.18.7H35v-.08a1.25,1.25,0,0,0-.16-.65A.53.53,0,0,0,34.44,87.81Z"/><path d="M40.41,89.26A1.63,1.63,0,0,1,40,90.33a1.34,1.34,0,0,1-1,.37,1.24,1.24,0,0,1-1-.49,2.13,2.13,0,0,1-.39-1.35v-.78a2,2,0,0,1,.4-1.34,1.3,1.3,0,0,1,1.08-.5,1.29,1.29,0,0,1,1,.38,1.7,1.7,0,0,1,.37,1.08h-.55a1.34,1.34,0,0,0-.23-.76.69.69,0,0,0-.57-.23.79.79,0,0,0-.69.35,1.79,1.79,0,0,0-.23,1v.79a1.87,1.87,0,0,0,.22,1,.71.71,0,0,0,.65.36.78.78,0,0,0,.61-.22,1.28,1.28,0,0,0,.24-.76Z"/><rect class="cls-8" x="10.84" y="85.91" width="4.94" height="5.27"/><path class="cls-6" d="M15.45,86.24v4.61H11.17V86.24h4.28m.66-.67h-5.6v5.94h5.6V85.57Z"/><path d="M20.56,62.6a.7.7,0,0,0-.17-.5,1.77,1.77,0,0,0-.64-.33,2.66,2.66,0,0,1-.7-.35,1.18,1.18,0,0,1-.37-.41,1.12,1.12,0,0,1-.12-.53,1.14,1.14,0,0,1,.35-.85,1.25,1.25,0,0,1,.9-.33,1.27,1.27,0,0,1,.68.17,1.16,1.16,0,0,1,.46.47,1.38,1.38,0,0,1,.16.67h-.55a.89.89,0,0,0-.19-.62.7.7,0,0,0-.56-.22.69.69,0,0,0-.51.18.68.68,0,0,0-.19.52.61.61,0,0,0,.2.46,1.89,1.89,0,0,0,.61.33,2.12,2.12,0,0,1,.92.52,1.21,1.21,0,0,1,.28.81,1.09,1.09,0,0,1-.35.85,1.33,1.33,0,0,1-.93.32,1.48,1.48,0,0,1-.7-.17,1.2,1.2,0,0,1-.51-.46,1.31,1.31,0,0,1-.18-.69H19a.81.81,0,0,0,.22.62.85.85,0,0,0,.62.23.7.7,0,0,0,.54-.19A.68.68,0,0,0,20.56,62.6Z"/><path d="M22.91,63.76A1.16,1.16,0,0,1,22,63.4a1.51,1.51,0,0,1-.33-1.06V62A1.83,1.83,0,0,1,22,60.82a1.05,1.05,0,0,1,.88-.41,1,1,0,0,1,.84.36A1.82,1.82,0,0,1,24,61.9v.34h-1.8v.08a1.18,1.18,0,0,0,.19.75.69.69,0,0,0,.57.24.91.91,0,0,0,.41-.09,1.05,1.05,0,0,0,.33-.28l.27.33A1.19,1.19,0,0,1,22.91,63.76Zm-.05-2.89a.55.55,0,0,0-.49.22,1.25,1.25,0,0,0-.18.7h1.27v-.07a1.27,1.27,0,0,0-.16-.66A.52.52,0,0,0,22.86,60.87Z"/><path d="M26,61a.9.9,0,0,0-.24,0,.58.58,0,0,0-.57.44V63.7h-.53V60.47h.52v.33a.64.64,0,0,1,.81-.35Z"/><path d="M27.46,62.89l.61-2.42h.54l-1,3.23h-.4l-1-3.23h.54Z"/><path d="M29.77,59.62a.32.32,0,0,1-.07.22.29.29,0,0,1-.23.09.27.27,0,0,1-.22-.09.33.33,0,0,1-.08-.22.36.36,0,0,1,.08-.23.27.27,0,0,1,.22-.09.3.3,0,0,1,.23.09A.35.35,0,0,1,29.77,59.62Zm0,4.08H29.2V60.47h.53Z"/><path d="M31.69,63.31a.57.57,0,0,0,.42-.17.69.69,0,0,0,.17-.46h.5a1.09,1.09,0,0,1-1.09,1.08,1.14,1.14,0,0,1-.92-.38,1.72,1.72,0,0,1-.32-1.12V61.9a1.73,1.73,0,0,1,.32-1.11,1.12,1.12,0,0,1,.91-.38,1,1,0,0,1,.79.32,1.25,1.25,0,0,1,.31.85h-.5a.89.89,0,0,0-.17-.54.53.53,0,0,0-.43-.17.59.59,0,0,0-.52.23,1.37,1.37,0,0,0-.18.75v.42a1.44,1.44,0,0,0,.17.8A.61.61,0,0,0,31.69,63.31Z"/><path d="M34.54,63.76a1.16,1.16,0,0,1-.92-.36,1.51,1.51,0,0,1-.33-1.06V62a1.83,1.83,0,0,1,.32-1.13,1.05,1.05,0,0,1,.88-.41,1,1,0,0,1,.84.36,1.82,1.82,0,0,1,.29,1.13v.34h-1.8v.08a1.18,1.18,0,0,0,.19.75.69.69,0,0,0,.57.24.91.91,0,0,0,.41-.09,1.05,1.05,0,0,0,.33-.28l.27.33A1.19,1.19,0,0,1,34.54,63.76Zm0-2.89a.55.55,0,0,0-.49.22,1.25,1.25,0,0,0-.18.7h1.27v-.07a1.27,1.27,0,0,0-.16-.66A.52.52,0,0,0,34.49,60.87Z"/><path d="M39.76,62.56H38.29L38,63.7h-.56l1.4-4.34h.47l1.41,4.34H40.1Zm-1.33-.47h1.19l-.59-2Z"/><path class="cls-8" d="M16.27,60.88l-2.61-2.6a.39.39,0,0,0-.55,0l-2.6,2.59a.39.39,0,0,0,0,.55L13.12,64a.39.39,0,0,0,.55,0l2.6-2.59A.39.39,0,0,0,16.27,60.88Z"/><line class="cls-10" x1="6.41" y1="68.53" x2="47.83" y2="68.53"/><line class="cls-10" x1="6.41" y1="82.08" x2="47.83" y2="82.08"/><path class="cls-6" d="M8,30.35v3H7V25.68H9.45a2.22,2.22,0,0,1,1.69.64,2.74,2.74,0,0,1,0,3.41,2.29,2.29,0,0,1-1.65.62Zm0-.83H9.45a1.25,1.25,0,0,0,1-.39,1.58,1.58,0,0,0,.35-1.1,1.65,1.65,0,0,0-.36-1.11,1.22,1.22,0,0,0-1-.41H8Z"/><path class="cls-6" d="M15.33,30.25H14v3.1H13V25.68h2.16a2.28,2.28,0,0,1,1.71.59A2.32,2.32,0,0,1,17.45,28a2.4,2.4,0,0,1-.31,1.24,2,2,0,0,1-.89.8l1.49,3.26v.06h-1ZM14,29.42h1.18a1.27,1.27,0,0,0,1-.39A1.49,1.49,0,0,0,16.48,28c0-1-.45-1.47-1.34-1.47H14Z"/><path class="cls-6" d="M22.44,29.8H19.72v2.72h3.17v.83H18.75V25.68h4.09v.83H19.72V29h2.72Z"/><path class="cls-6" d="M25.48,31.93l1.09-4.28h.95l-1.7,5.7h-.7l-1.72-5.7h1Z"/><path class="cls-6" d="M31.36,33.35a2,2,0,0,1-.13-.62,1.49,1.49,0,0,1-1.26.73,1.51,1.51,0,0,1-1.65-1.66,1.71,1.71,0,0,1,.59-1.38,2.44,2.44,0,0,1,1.62-.53h.69v-.6a.81.81,0,0,0-.92-.95,1,1,0,0,0-.69.25.87.87,0,0,0-.26.64h-.94a1.56,1.56,0,0,1,.26-.84,1.83,1.83,0,0,1,.7-.62,2.11,2.11,0,0,1,1-.23,1.85,1.85,0,0,1,1.33.44,1.69,1.69,0,0,1,.47,1.27v2.87a3.35,3.35,0,0,0,.18,1.15v.08Zm-1.25-.74a1.26,1.26,0,0,0,.65-.19,1.24,1.24,0,0,0,.46-.48V30.58h-.53a1.79,1.79,0,0,0-1.05.3.94.94,0,0,0-.39.81,1,1,0,0,0,.2.7A.83.83,0,0,0,30.11,32.61Z"/><path class="cls-6" d="M34.48,27.65l0,.62a1.65,1.65,0,0,1,1.39-.73c1,0,1.52.68,1.54,2v3.79h-.93V29.6a1.56,1.56,0,0,0-.23-1,.79.79,0,0,0-.67-.28,1,1,0,0,0-.63.23,1.9,1.9,0,0,0-.45.61v4.14H33.6v-5.7Z"/><path class="cls-6" d="M40.07,26.27v1.38h.86v.75h-.86v3.54a.88.88,0,0,0,.11.51.41.41,0,0,0,.38.18,1.19,1.19,0,0,0,.37-.06v.78a2.06,2.06,0,0,1-.65.11,1,1,0,0,1-.84-.4,1.82,1.82,0,0,1-.29-1.12V28.4h-.88v-.75h.88V26.27Z"/></symbol><symbol id="logo_git" data-name="logo git" viewBox="0 0 22.76 22.68"><path class="cls-6" d="M9.58,21.93.75,13.13a2.52,2.52,0,0,1,0-3.59L9.58.74a2.55,2.55,0,0,1,3.6,0L22,9.54a2.52,2.52,0,0,1,0,3.59l-8.83,8.8A2.53,2.53,0,0,1,9.58,21.93Z"/><path class="cls-8" d="M20.2,10.52l-8-8a1.18,1.18,0,0,0-1.67,0L8.86,4.2,11,6.3a1.43,1.43,0,0,1,1.45.34,1.4,1.4,0,0,1,.33,1.45l2,2a1.4,1.4,0,1,1-.53,2.31,1.38,1.38,0,0,1-.31-1.52L12,9v5a1.65,1.65,0,0,1,.38.27,1.4,1.4,0,1,1-2,2,1.39,1.39,0,0,1,0-2,1.29,1.29,0,0,1,.46-.31v-5a1.29,1.29,0,0,1-.46-.31,1.37,1.37,0,0,1-.3-1.53L8.05,5l-5.5,5.47a1.17,1.17,0,0,0,0,1.66l8,8a1.18,1.18,0,0,0,1.67,0l8-7.94A1.17,1.17,0,0,0,20.2,10.52Z"/></symbol><symbol id="rechner" data-name="rechner" viewBox="0 0 42.37 51.94"><rect class="cls-11" x="8.47" y="2.82" width="8.47" height="1.41"/><rect class="cls-11" x="8.47" y="5.65" width="8.47" height="1.41"/><rect class="cls-11" x="18.36" y="2.82" width="1.41" height="1.41"/><rect class="cls-11" x="21.18" y="2.82" width="1.41" height="1.41"/><rect class="cls-11" x="24.01" y="2.82" width="1.41" height="1.41"/><rect class="cls-11" x="18.36" y="5.65" width="1.41" height="1.41"/><rect class="cls-11" x="21.18" y="5.65" width="1.41" height="1.41"/><rect class="cls-11" x="24.01" y="5.65" width="1.41" height="1.41"/><path class="cls-11" d="M31.07,2.82a2.12,2.12,0,1,0,2.12,2.12A2.12,2.12,0,0,0,31.07,2.82Zm0,2.83a.71.71,0,0,1-.71-.71.71.71,0,0,1,1.42,0A.71.71,0,0,1,31.07,5.65Z"/><path class="cls-11" d="M29,26.83a2.12,2.12,0,0,0,0,4.24V29.66a.71.71,0,0,1,0-1.42.71.71,0,0,1,.71.71h1.41A2.12,2.12,0,0,0,29,26.83Z"/><rect class="cls-11" x="8.47" y="14.83" width="8.47" height="1.41"/><rect class="cls-11" x="8.47" y="17.65" width="8.47" height="1.41"/><rect class="cls-11" x="18.36" y="14.83" width="1.41" height="1.41"/><rect class="cls-11" x="21.18" y="14.83" width="1.41" height="1.41"/><rect class="cls-11" x="24.01" y="14.83" width="1.41" height="1.41"/><rect class="cls-11" x="18.36" y="17.65" width="1.41" height="1.41"/><rect class="cls-11" x="21.18" y="17.65" width="1.41" height="1.41"/><rect class="cls-11" x="24.01" y="17.65" width="1.41" height="1.41"/><circle class="cls-11" cx="27.54" cy="16.95" r="0.71"/><circle class="cls-11" cx="33.19" cy="16.95" r="0.71"/><circle class="cls-11" cx="30.36" cy="16.95" r="0.71"/><rect class="cls-11" x="8.47" y="26.83" width="8.47" height="1.41"/><rect class="cls-11" x="8.47" y="29.66" width="8.47" height="1.41"/><rect class="cls-11" x="18.36" y="26.83" width="1.41" height="1.41"/><rect class="cls-11" x="21.18" y="29.66" width="1.41" height="1.41"/><rect class="cls-11" x="24.01" y="26.83" width="1.41" height="1.41"/><circle class="cls-11" cx="21.89" cy="27.54" r="0.71"/><circle class="cls-11" cx="24.71" cy="30.36" r="0.71"/><circle class="cls-11" cx="33.19" cy="28.95" r="0.71"/><circle class="cls-11" cx="19.07" cy="30.36" r="0.71"/><path class="cls-11" d="M21.89,45.31V33.89H36a.7.7,0,0,0,.71-.7V24.71A.7.7,0,0,0,36,24H6.36a.7.7,0,0,0-.71.7v3.53H4.11A2.19,2.19,0,0,0,2.83,27V17.65H5.65v3.53a.71.71,0,0,0,.71.71H36a.71.71,0,0,0,.71-.71V17.65h3.53A.7.7,0,0,0,41,17V12.58a2.11,2.11,0,0,0,0-4V4.94a.7.7,0,0,0-.71-.7H36.72V.71A.71.71,0,0,0,36,0H6.36a.71.71,0,0,0-.71.71V9.18a.71.71,0,0,0,.71.71H36a.71.71,0,0,0,.71-.71V5.65h2.82V8.6a2.11,2.11,0,0,0,0,4v3.66H36.72V12.71A.71.71,0,0,0,36,12H6.36a.71.71,0,0,0-.71.71v3.53H2.12a.71.71,0,0,0-.71.71V27a2.11,2.11,0,1,0,2.7,2.7H5.65v3.53a.7.7,0,0,0,.71.7H20.48V45.31M35.31,8.47H7.06V1.41H35.31Zm4.94,1.42a.7.7,0,0,1,.71.7.71.71,0,0,1-1.42,0A.7.7,0,0,1,40.25,9.89ZM7.06,13.42H35.31v7.06H7.06ZM2.12,29.66A.71.71,0,1,1,2.83,29,.71.71,0,0,1,2.12,29.66Zm4.94,2.82V25.42H35.31v7.06Z"/><path class="cls-11" d="M21.19,51.24a4.52,4.52,0,1,1,4.51-4.52A4.53,4.53,0,0,1,21.19,51.24Z"/><path class="cls-6" d="M21.19,42.91a3.81,3.81,0,1,1-3.81,3.81,3.82,3.82,0,0,1,3.81-3.81m0-1.4a5.22,5.22,0,1,0,5.21,5.21,5.22,5.22,0,0,0-5.21-5.21Z"/></symbol></defs><title>in-a-nutshell</title><rect class="cls-6" width="508.82" height="198.43"/><polyline class="cls-12" points="57.34 144.08 242.31 144.08 242.31 110.82 242.31 56.88 58.73 56.88"/><line class="cls-12" x1="57.34" y1="100.58" x2="351.02" y2="100.58"/><path class="cls-4" d="M281.79,176.27h-.86V169.5h.86Z"/><path class="cls-4" d="M284,171.24l0,.54a1.48,1.48,0,0,1,1.23-.63c.9,0,1.35.59,1.36,1.78v3.34h-.82V173a1.36,1.36,0,0,0-.2-.84.7.7,0,0,0-.59-.25.87.87,0,0,0-.56.2,1.57,1.57,0,0,0-.39.54v3.65h-.83v-5Z"/><path class="cls-4" d="M288.16,176.27V171.9h-.66v-.66h.66v-.58a1.84,1.84,0,0,1,.39-1.2,1.34,1.34,0,0,1,1.07-.43,1.4,1.4,0,0,1,.49.08l0,.69a1.53,1.53,0,0,0-.38,0c-.47,0-.7.33-.7,1v.48h.86v.66H289v4.37Z"/><path class="cls-4" d="M292.91,172a2.13,2.13,0,0,0-.37,0,.91.91,0,0,0-.89.69v3.6h-.83v-5h.81v.51a1,1,0,0,1,.94-.6.81.81,0,0,1,.33.06Z"/><path class="cls-4" d="M296.15,176.27a1.66,1.66,0,0,1-.11-.54,1.33,1.33,0,0,1-1.12.64,1.35,1.35,0,0,1-1.46-1.47,1.53,1.53,0,0,1,.53-1.22,2.15,2.15,0,0,1,1.43-.46H296v-.53a.9.9,0,0,0-.2-.65.92.92,0,0,0-.62-.19.85.85,0,0,0-.6.22.75.75,0,0,0-.24.57h-.82a1.27,1.27,0,0,1,.23-.74,1.48,1.48,0,0,1,.61-.55,1.8,1.8,0,0,1,.87-.2,1.64,1.64,0,0,1,1.18.38,1.56,1.56,0,0,1,.41,1.12v2.54a3,3,0,0,0,.16,1v.07Zm-1.1-.65a1.08,1.08,0,0,0,.57-.17A1,1,0,0,0,296,175v-1.2h-.47a1.6,1.6,0,0,0-.93.26.83.83,0,0,0-.34.71.92.92,0,0,0,.17.62A.76.76,0,0,0,295.05,175.62Z"/><path class="cls-4" d="M300.58,175a.59.59,0,0,0-.2-.46,2.8,2.8,0,0,0-.77-.45,4.69,4.69,0,0,1-.94-.47,1.41,1.41,0,0,1-.41-.44,1.25,1.25,0,0,1-.14-.59,1.35,1.35,0,0,1,.45-1,1.87,1.87,0,0,1,2.34,0,1.47,1.47,0,0,1,.45,1.1h-.82a.83.83,0,0,0-.23-.58.77.77,0,0,0-.58-.24.86.86,0,0,0-.58.19.65.65,0,0,0-.2.5.56.56,0,0,0,.15.41,2.51,2.51,0,0,0,.73.4,3.85,3.85,0,0,1,1.25.7,1.21,1.21,0,0,1,.33.87A1.32,1.32,0,0,1,301,176a1.76,1.76,0,0,1-1.22.4,1.84,1.84,0,0,1-1.28-.45,1.53,1.53,0,0,1-.49-1.15h.84a.9.9,0,0,0,.25.66.92.92,0,0,0,.68.24,1,1,0,0,0,.63-.19A.62.62,0,0,0,300.58,175Z"/><path class="cls-4" d="M303.57,170v1.22h.76v.66h-.76V175a.79.79,0,0,0,.1.45.34.34,0,0,0,.33.16,1,1,0,0,0,.33-.06v.7a1.9,1.9,0,0,1-.58.09A.88.88,0,0,1,303,176a1.65,1.65,0,0,1-.25-1V171.9H302v-.66h.77V170Z"/><path class="cls-4" d="M307.4,172a2.25,2.25,0,0,0-.38,0,.9.9,0,0,0-.88.69v3.6h-.83v-5h.8l0,.51a1,1,0,0,1,.94-.6.73.73,0,0,1,.32.06Z"/><path class="cls-4" d="M310.8,175.83a1.42,1.42,0,0,1-1.2.54,1.22,1.22,0,0,1-1-.47,2.34,2.34,0,0,1-.35-1.38v-3.28H309v3.22c0,.78.24,1.18.71,1.18a1,1,0,0,0,1-.67v-3.73h.82v5h-.78Z"/><path class="cls-4" d="M314.6,175.67a.9.9,0,0,0,.66-.26,1.12,1.12,0,0,0,.27-.72h.78a1.7,1.7,0,0,1-.52,1.2,1.62,1.62,0,0,1-1.19.48,1.76,1.76,0,0,1-1.43-.59,2.67,2.67,0,0,1-.49-1.75v-.56a2.62,2.62,0,0,1,.49-1.73,1.72,1.72,0,0,1,1.43-.59,1.63,1.63,0,0,1,1.23.48,2,2,0,0,1,.48,1.34h-.78a1.4,1.4,0,0,0-.27-.84.84.84,0,0,0-.66-.28.94.94,0,0,0-.82.36,2.12,2.12,0,0,0-.28,1.19V174a2.22,2.22,0,0,0,.27,1.26A1,1,0,0,0,314.6,175.67Z"/><path class="cls-4" d="M318.35,170v1.22h.76v.66h-.76V175a.89.89,0,0,0,.09.45.37.37,0,0,0,.34.16,1,1,0,0,0,.33-.06v.7a1.88,1.88,0,0,1-.57.09.88.88,0,0,1-.75-.35,1.64,1.64,0,0,1-.26-1V171.9h-.77v-.66h.77V170Z"/><path class="cls-4" d="M322.67,175.83a1.43,1.43,0,0,1-1.2.54,1.22,1.22,0,0,1-1-.47,2.41,2.41,0,0,1-.36-1.38v-3.28h.83v3.22c0,.78.23,1.18.71,1.18a1,1,0,0,0,1-.67v-3.73h.83v5h-.79Z"/><path class="cls-4" d="M326.8,172a2.25,2.25,0,0,0-.38,0,.9.9,0,0,0-.88.69v3.6h-.83v-5h.8l0,.51a1,1,0,0,1,.94-.6.73.73,0,0,1,.32.06Z"/><path class="cls-4" d="M329.34,176.37a1.87,1.87,0,0,1-1.45-.56,2.4,2.4,0,0,1-.51-1.65v-.61a2.79,2.79,0,0,1,.49-1.76,1.64,1.64,0,0,1,1.38-.64,1.55,1.55,0,0,1,1.32.56,2.93,2.93,0,0,1,.45,1.75V174H328.2v.12a1.88,1.88,0,0,0,.3,1.18,1.12,1.12,0,0,0,.89.37,1.47,1.47,0,0,0,.64-.14,1.61,1.61,0,0,0,.52-.44l.43.52A1.87,1.87,0,0,1,329.34,176.37Zm-.09-4.52a.87.87,0,0,0-.77.36,2.17,2.17,0,0,0-.28,1.09h2v-.12a1.93,1.93,0,0,0-.26-1A.81.81,0,0,0,329.25,171.85Z"/><path class="cls-4" d="M227.85,173.53h-1.2v2.74h-.86V169.5h1.91a2,2,0,0,1,1.51.52,2.07,2.07,0,0,1,.51,1.52,2.12,2.12,0,0,1-.27,1.09,1.76,1.76,0,0,1-.79.71l1.32,2.88v.05h-.92Zm-1.2-.73h1a1.12,1.12,0,0,0,.86-.34,1.32,1.32,0,0,0,.32-.92c0-.87-.4-1.31-1.19-1.31h-1Z"/><path class="cls-4" d="M234.13,173.14h-2.41v2.4h2.81v.73h-3.66V169.5h3.61v.73h-2.76v2.18h2.41Z"/><path class="cls-4" d="M238.59,174.56a1,1,0,0,0-.28-.77,2.59,2.59,0,0,0-1-.53,4.16,4.16,0,0,1-1.1-.54,1.8,1.8,0,0,1-.57-.64,1.72,1.72,0,0,1-.19-.83,1.75,1.75,0,0,1,.54-1.32,1.93,1.93,0,0,1,1.41-.52,2.12,2.12,0,0,1,1.07.26,1.9,1.9,0,0,1,.72.74,2.31,2.31,0,0,1,.25,1h-.86a1.43,1.43,0,0,0-.3-1,1.12,1.12,0,0,0-.88-.34,1.05,1.05,0,0,0-.8.29,1.1,1.1,0,0,0-.29.81,1,1,0,0,0,.31.71,2.61,2.61,0,0,0,1,.52,3.23,3.23,0,0,1,1.44.82,1.8,1.8,0,0,1,.43,1.26,1.73,1.73,0,0,1-.53,1.32,2.09,2.09,0,0,1-1.47.5,2.37,2.37,0,0,1-1.09-.26,1.86,1.86,0,0,1-.79-.73,2,2,0,0,1-.29-1.07h.86a1.21,1.21,0,0,0,1.31,1.33,1.15,1.15,0,0,0,.85-.29A1.08,1.08,0,0,0,238.59,174.56Z"/><path class="cls-4" d="M244.55,170.23h-1.79v6h-.86v-6h-1.78v-.73h4.43Z"/><path class="cls-4" d="M245.88,173.75H244V173h1.93Z"/><path class="cls-4" d="M250,174.5h-2.3l-.52,1.77h-.88l2.19-6.77h.73l2.2,6.77h-.88Zm-2.07-.73h1.85l-.93-3.08Z"/><path class="cls-4" d="M253.21,173.62v2.65h-.86V169.5h2.17a2,2,0,0,1,1.49.56,2.1,2.1,0,0,1,.54,1.51,2.07,2.07,0,0,1-.52,1.51,2,2,0,0,1-1.45.54Zm0-.73h1.31a1.09,1.09,0,0,0,.87-.34,1.43,1.43,0,0,0,.31-1,1.44,1.44,0,0,0-.32-1,1.05,1.05,0,0,0-.86-.37h-1.31Z"/><path class="cls-4" d="M258.54,176.27h-.85V169.5h.85Z"/><path class="cls-4" d="M242.16,114.32a13.77,13.77,0,0,1-13.76-13.76v-.34a13.79,13.79,0,0,1,27.57,0v.34a13.77,13.77,0,0,1-13.76,13.76Z"/><path class="cls-6" d="M242.21,88.26a12,12,0,0,1,11.95,12v.34a12,12,0,0,1-11.95,12h-.05a12,12,0,0,1-12-12v-.34a12,12,0,0,1,12-12h.05m0-3.62h-.05a15.6,15.6,0,0,0-15.57,15.58v.34a15.6,15.6,0,0,0,31.19,0v-.34a15.6,15.6,0,0,0-15.57-15.58Z"/><path class="cls-6" d="M238.43,105.55a2.35,2.35,0,0,1-1.26-.9,2.86,2.86,0,0,1-.42-1.63v-1.14c0-.88-.32-1.32-.95-1.32v-.8c.63,0,.95-.44.95-1.32V97.31a2.86,2.86,0,0,1,.42-1.63,2.23,2.23,0,0,1,1.26-.9l.19.63c-.58.23-.88.84-.9,1.84v1.18a1.84,1.84,0,0,1-.81,1.73,1.87,1.87,0,0,1,.81,1.74v1.2c0,1,.32,1.59.9,1.82Z"/><path class="cls-6" d="M239.64,103a.64.64,0,0,1,.16-.44.58.58,0,0,1,.47-.18.62.62,0,0,1,.48.18.6.6,0,0,1,.16.44.58.58,0,0,1-.16.42.65.65,0,0,1-.48.17.61.61,0,0,1-.47-.17A.63.63,0,0,1,239.64,103Zm2.06,0a.6.6,0,0,1,.16-.44.58.58,0,0,1,.47-.18.62.62,0,0,1,.48.18.64.64,0,0,1,.16.44.63.63,0,0,1-.16.42.65.65,0,0,1-.48.17.61.61,0,0,1-.47-.17A.58.58,0,0,1,241.7,103Zm2,0a.64.64,0,0,1,.16-.44.58.58,0,0,1,.47-.18.62.62,0,0,1,.48.18.6.6,0,0,1,.16.44.58.58,0,0,1-.16.42.65.65,0,0,1-.48.17.61.61,0,0,1-.47-.17A.63.63,0,0,1,243.66,103Z"/><path class="cls-6" d="M245.73,104.92c.59-.24.89-.84.91-1.82v-1.21a1.78,1.78,0,0,1,.87-1.73,1.77,1.77,0,0,1-.87-1.74V97.28c0-1-.31-1.64-.91-1.87l.2-.63a2.34,2.34,0,0,1,1.24.87,3,3,0,0,1,.44,1.58v1.3c0,.82.33,1.23.94,1.23v.8c-.63,0-.94.44-.94,1.32V103a2.39,2.39,0,0,1-1.68,2.55Z"/><path class="cls-4" d="M17.88,144.55a1,1,0,0,0-.28-.78,2.75,2.75,0,0,0-1-.52,4.49,4.49,0,0,1-1.1-.54,1.8,1.8,0,0,1-.57-.64,1.72,1.72,0,0,1-.19-.83,1.77,1.77,0,0,1,.54-1.33,2,2,0,0,1,1.41-.52,2.13,2.13,0,0,1,1.07.27,1.75,1.75,0,0,1,.71.74,2.14,2.14,0,0,1,.26,1h-.86a1.38,1.38,0,0,0-.31-1,1.09,1.09,0,0,0-.87-.35,1.07,1.07,0,0,0-.8.29,1.11,1.11,0,0,0-.29.81.92.92,0,0,0,.31.72,2.77,2.77,0,0,0,1,.52,3.33,3.33,0,0,1,1.44.81,1.84,1.84,0,0,1,.43,1.27,1.7,1.7,0,0,1-.54,1.32,2,2,0,0,1-1.46.49,2.36,2.36,0,0,1-1.09-.25,2,2,0,0,1-.79-.73,2,2,0,0,1-.29-1.07h.86a1.31,1.31,0,0,0,.35,1,1.29,1.29,0,0,0,1,.35,1.15,1.15,0,0,0,.85-.28A1.1,1.1,0,0,0,17.88,144.55Z"/><path class="cls-4" d="M21.55,146.35a1.83,1.83,0,0,1-1.45-.56,2.45,2.45,0,0,1-.51-1.64v-.61a2.91,2.91,0,0,1,.49-1.77,1.66,1.66,0,0,1,1.38-.64,1.59,1.59,0,0,1,1.33.57,2.85,2.85,0,0,1,.44,1.75V144H20.41v.12a1.82,1.82,0,0,0,.31,1.17,1.07,1.07,0,0,0,.88.37,1.31,1.31,0,0,0,.64-.14,1.48,1.48,0,0,0,.52-.43l.43.52A1.88,1.88,0,0,1,21.55,146.35Zm-.09-4.51a.87.87,0,0,0-.76.35,2,2,0,0,0-.28,1.09h2v-.11a1.88,1.88,0,0,0-.26-1A.79.79,0,0,0,21.46,141.84Z"/><path class="cls-4" d="M26.31,142a2.13,2.13,0,0,0-.37,0,.9.9,0,0,0-.89.69v3.6h-.83v-5H25v.51a1,1,0,0,1,.94-.61.67.67,0,0,1,.33.07Z"/><path class="cls-4" d="M28.65,145l1-3.78h.84l-1.5,5h-.62l-1.51-5h.84Z"/><path class="cls-4" d="M32.27,139.89a.51.51,0,0,1-.12.35.46.46,0,0,1-.36.14.45.45,0,0,1-.35-.14.61.61,0,0,1,0-.7.43.43,0,0,1,.35-.15.43.43,0,0,1,.36.15A.53.53,0,0,1,32.27,139.89Zm-.07,6.37h-.83v-5h.83Z"/><path class="cls-4" d="M35.26,145.65a.85.85,0,0,0,.65-.25,1,1,0,0,0,.27-.73H37a1.7,1.7,0,0,1-.51,1.21,1.63,1.63,0,0,1-1.19.47,1.78,1.78,0,0,1-1.44-.58,2.76,2.76,0,0,1-.49-1.76v-.55a2.62,2.62,0,0,1,.49-1.73,1.74,1.74,0,0,1,1.43-.6,1.61,1.61,0,0,1,1.23.49A2,2,0,0,1,37,143h-.78a1.33,1.33,0,0,0-.26-.84.83.83,0,0,0-.67-.28,1,1,0,0,0-.82.36,2.09,2.09,0,0,0-.27,1.18V144a2.26,2.26,0,0,0,.26,1.25A1,1,0,0,0,35.26,145.65Z"/><path class="cls-4" d="M39.72,146.35a1.81,1.81,0,0,1-1.44-.56,2.4,2.4,0,0,1-.52-1.64v-.61a2.84,2.84,0,0,1,.5-1.77,1.63,1.63,0,0,1,1.37-.64,1.59,1.59,0,0,1,1.33.57,2.91,2.91,0,0,1,.45,1.75V144H38.58v.12a1.82,1.82,0,0,0,.31,1.17,1.07,1.07,0,0,0,.88.37,1.31,1.31,0,0,0,.64-.14,1.48,1.48,0,0,0,.52-.43l.43.52A1.87,1.87,0,0,1,39.72,146.35Zm-.09-4.51a.88.88,0,0,0-.76.35,2,2,0,0,0-.28,1.09h2v-.11a1.88,1.88,0,0,0-.26-1A.79.79,0,0,0,39.63,141.84Z"/><path class="cls-4" d="M49,144.11a2.51,2.51,0,0,1-.62,1.66,2.07,2.07,0,0,1-1.57.58,1.93,1.93,0,0,1-1.63-.77,3.36,3.36,0,0,1-.6-2.1v-1.23a3.2,3.2,0,0,1,.62-2.09,2,2,0,0,1,1.69-.77,2,2,0,0,1,1.52.59,2.55,2.55,0,0,1,.59,1.68H48.1a2,2,0,0,0-.35-1.18,1.07,1.07,0,0,0-.89-.36,1.2,1.2,0,0,0-1.07.55,2.77,2.77,0,0,0-.38,1.58v1.25a3,3,0,0,0,.35,1.57,1.12,1.12,0,0,0,1,.55,1.24,1.24,0,0,0,1-.33,2,2,0,0,0,.36-1.18Z"/><rect class="cls-8" x="55.46" y="137.33" width="13.75" height="13.51"/><path class="cls-6" d="M68.32,138.22V150h-12V138.22h12m1.78-1.78H54.57v15.29H70.1V136.44Z"/><rect class="cls-6" x="84.66" y="40.97" width="7.59" height="115.74"/><line class="cls-13" x1="88.46" y1="44.68" x2="88.46" y2="156.71"/><use width="157.22" height="111.37" transform="translate(337.43 44.52)" xlink:href="#browser"/><path class="cls-4" d="M17.88,57.89a1,1,0,0,0-.28-.78,2.75,2.75,0,0,0-1-.52,4.16,4.16,0,0,1-1.1-.54,1.8,1.8,0,0,1-.57-.64,1.72,1.72,0,0,1-.19-.83,1.77,1.77,0,0,1,.54-1.33,2,2,0,0,1,1.41-.52,2.13,2.13,0,0,1,1.07.27,1.75,1.75,0,0,1,.71.74,2.14,2.14,0,0,1,.26,1h-.86a1.38,1.38,0,0,0-.31-1,1.09,1.09,0,0,0-.87-.35,1.07,1.07,0,0,0-.8.29,1.13,1.13,0,0,0-.29.81.92.92,0,0,0,.31.72,2.77,2.77,0,0,0,1,.52,3.33,3.33,0,0,1,1.44.81,1.84,1.84,0,0,1,.43,1.27,1.7,1.7,0,0,1-.54,1.32,2,2,0,0,1-1.46.49,2.36,2.36,0,0,1-1.09-.25,2,2,0,0,1-.79-.73,2,2,0,0,1-.29-1.07h.86a1.35,1.35,0,0,0,.35,1,1.33,1.33,0,0,0,1,.34,1.15,1.15,0,0,0,.85-.28A1.1,1.1,0,0,0,17.88,57.89Z"/><path class="cls-4" d="M21.55,59.69a1.83,1.83,0,0,1-1.45-.56,2.45,2.45,0,0,1-.51-1.64v-.61a2.91,2.91,0,0,1,.49-1.77,1.66,1.66,0,0,1,1.38-.64,1.59,1.59,0,0,1,1.33.57,2.85,2.85,0,0,1,.44,1.75v.54H20.41v.12a1.82,1.82,0,0,0,.31,1.17,1.07,1.07,0,0,0,.88.37,1.31,1.31,0,0,0,.64-.14,1.48,1.48,0,0,0,.52-.43l.43.52A1.88,1.88,0,0,1,21.55,59.69Zm-.09-4.51a.87.87,0,0,0-.76.35,2,2,0,0,0-.28,1.09h2v-.11a1.88,1.88,0,0,0-.26-1A.79.79,0,0,0,21.46,55.18Z"/><path class="cls-4" d="M26.31,55.34a2.13,2.13,0,0,0-.37,0,.9.9,0,0,0-.89.69v3.6h-.83v-5H25v.51a1,1,0,0,1,.94-.61.81.81,0,0,1,.33.07Z"/><path class="cls-4" d="M28.65,58.35l1-3.78h.84l-1.5,5h-.62l-1.51-5h.84Z"/><path class="cls-4" d="M32.27,53.23a.51.51,0,0,1-.12.35.46.46,0,0,1-.36.14.45.45,0,0,1-.35-.14.61.61,0,0,1,0-.7.43.43,0,0,1,.35-.15.43.43,0,0,1,.36.15A.53.53,0,0,1,32.27,53.23ZM32.2,59.6h-.83v-5h.83Z"/><path class="cls-4" d="M35.26,59a.85.85,0,0,0,.65-.25,1,1,0,0,0,.27-.73H37a1.7,1.7,0,0,1-.51,1.21,1.63,1.63,0,0,1-1.19.47,1.78,1.78,0,0,1-1.44-.58,2.76,2.76,0,0,1-.49-1.76V56.8a2.62,2.62,0,0,1,.49-1.73,1.74,1.74,0,0,1,1.43-.6,1.61,1.61,0,0,1,1.23.49A2,2,0,0,1,37,56.3h-.78a1.33,1.33,0,0,0-.26-.84.83.83,0,0,0-.67-.28,1,1,0,0,0-.82.36,2.11,2.11,0,0,0-.27,1.19v.64a2.26,2.26,0,0,0,.26,1.25A1,1,0,0,0,35.26,59Z"/><path class="cls-4" d="M39.72,59.69a1.81,1.81,0,0,1-1.44-.56,2.4,2.4,0,0,1-.52-1.64v-.61a2.84,2.84,0,0,1,.5-1.77,1.63,1.63,0,0,1,1.37-.64A1.59,1.59,0,0,1,41,55a2.91,2.91,0,0,1,.45,1.75v.54H38.58v.12a1.82,1.82,0,0,0,.31,1.17,1.07,1.07,0,0,0,.88.37,1.31,1.31,0,0,0,.64-.14,1.48,1.48,0,0,0,.52-.43l.43.52A1.87,1.87,0,0,1,39.72,59.69Zm-.09-4.51a.88.88,0,0,0-.76.35,2,2,0,0,0-.28,1.09h2v-.11a1.88,1.88,0,0,0-.26-1A.79.79,0,0,0,39.63,55.18Z"/><path class="cls-4" d="M47.87,57.83H45.58l-.53,1.77h-.88l2.19-6.77h.73l2.2,6.77h-.88ZM45.8,57.1h1.85L46.73,54Z"/><use width="22.76" height="22.68" transform="translate(50.96 45.54)" xlink:href="#logo_git"/><rect class="cls-4" x="220.79" y="19.57" width="42.73" height="12.5"/><path class="cls-6" d="M226.37,26.87v3h-1V22.2h2.46a2.23,2.23,0,0,1,1.69.64,2.37,2.37,0,0,1,.61,1.7,2.35,2.35,0,0,1-.59,1.71,2.26,2.26,0,0,1-1.64.62Zm0-.83h1.49a1.25,1.25,0,0,0,1-.39,1.58,1.58,0,0,0,.34-1.1,1.7,1.7,0,0,0-.35-1.11,1.21,1.21,0,0,0-1-.42h-1.49Z"/><path class="cls-6" d="M233.73,26.77h-1.35v3.1h-1V22.2h2.15a2.29,2.29,0,0,1,1.72.59,2.32,2.32,0,0,1,.58,1.71,2.42,2.42,0,0,1-.32,1.25,1.91,1.91,0,0,1-.89.79l1.49,3.27v.06h-1Zm-1.35-.83h1.17a1.25,1.25,0,0,0,1-.39,1.45,1.45,0,0,0,.37-1.05c0-1-.45-1.48-1.35-1.48h-1.16Z"/><path class="cls-6" d="M240.85,26.32h-2.73V29h3.18v.83h-4.15V22.2h4.09V23h-3.12V25.5h2.73Z"/><path class="cls-6" d="M243.89,28.45,245,24.17h.95l-1.69,5.7h-.7l-1.72-5.7h.95Z"/><path class="cls-6" d="M249.76,29.87a1.81,1.81,0,0,1-.12-.62,1.48,1.48,0,0,1-1.27.72,1.63,1.63,0,0,1-1.21-.43,1.67,1.67,0,0,1-.44-1.23,1.77,1.77,0,0,1,.59-1.38,2.49,2.49,0,0,1,1.63-.52h.68v-.6a1,1,0,0,0-.22-.73,1,1,0,0,0-.7-.22,1,1,0,0,0-.68.25.84.84,0,0,0-.27.64h-.93a1.48,1.48,0,0,1,.26-.84,1.8,1.8,0,0,1,.69-.62,2.14,2.14,0,0,1,1-.23,1.88,1.88,0,0,1,1.34.44,1.68,1.68,0,0,1,.46,1.26v2.88a3.91,3.91,0,0,0,.18,1.15v.08Zm-1.25-.74a1.32,1.32,0,0,0,.66-.19,1.14,1.14,0,0,0,.45-.48V27.1h-.52a1.83,1.83,0,0,0-1.06.3,1,1,0,0,0-.38.8,1.06,1.06,0,0,0,.19.71A.87.87,0,0,0,248.51,29.13Z"/><path class="cls-6" d="M252.89,24.17l0,.61a1.69,1.69,0,0,1,1.39-.72c1,0,1.53.68,1.54,2v3.79h-.93V26.12a1.56,1.56,0,0,0-.22-.95.81.81,0,0,0-.68-.28,1,1,0,0,0-.62.23,1.65,1.65,0,0,0-.45.61v4.14H252v-5.7Z"/><path class="cls-6" d="M258.47,22.79v1.38h.86v.75h-.86v3.54a1,1,0,0,0,.11.51.42.42,0,0,0,.38.18,1,1,0,0,0,.38-.07v.79a2.05,2.05,0,0,1-.65.1,1,1,0,0,1-.85-.39,1.89,1.89,0,0,1-.29-1.12V24.92h-.87v-.75h.87V22.79Z"/><path class="cls-4" d="M17.88,100.69a1,1,0,0,0-.28-.78,2.75,2.75,0,0,0-1-.52,4.16,4.16,0,0,1-1.1-.54,1.8,1.8,0,0,1-.57-.64,1.72,1.72,0,0,1-.19-.83,1.77,1.77,0,0,1,.54-1.33,2,2,0,0,1,1.41-.52,2.06,2.06,0,0,1,1.06.27,1.71,1.71,0,0,1,.72.74,2.17,2.17,0,0,1,.26,1h-.86a1.38,1.38,0,0,0-.31-1,1.09,1.09,0,0,0-.87-.35,1.07,1.07,0,0,0-.8.29,1.13,1.13,0,0,0-.29.81.92.92,0,0,0,.31.72,2.61,2.61,0,0,0,1,.52,3.23,3.23,0,0,1,1.44.82,1.8,1.8,0,0,1,.43,1.26A1.7,1.7,0,0,1,18.2,102a2.05,2.05,0,0,1-1.46.5,2.37,2.37,0,0,1-1.09-.26,1.92,1.92,0,0,1-.79-.73,2,2,0,0,1-.29-1.07h.86a1.35,1.35,0,0,0,.35,1,1.33,1.33,0,0,0,1,.34,1.15,1.15,0,0,0,.85-.28A1.1,1.1,0,0,0,17.88,100.69Z"/><path class="cls-4" d="M21.55,102.5a1.84,1.84,0,0,1-1.45-.57,2.45,2.45,0,0,1-.51-1.64v-.61a2.84,2.84,0,0,1,.49-1.77,1.66,1.66,0,0,1,1.38-.64,1.59,1.59,0,0,1,1.33.57,2.85,2.85,0,0,1,.44,1.75v.54H20.41v.12a1.76,1.76,0,0,0,.31,1.17,1.07,1.07,0,0,0,.88.37,1.44,1.44,0,0,0,.64-.13,1.63,1.63,0,0,0,.52-.44l.43.52A1.89,1.89,0,0,1,21.55,102.5ZM21.46,98a.87.87,0,0,0-.76.35,2,2,0,0,0-.28,1.09h2v-.11a1.9,1.9,0,0,0-.26-1A.79.79,0,0,0,21.46,98Z"/><path class="cls-4" d="M26.31,98.14a2.13,2.13,0,0,0-.37,0,.9.9,0,0,0-.89.69v3.6h-.83v-5H25v.51a1,1,0,0,1,.94-.61.81.81,0,0,1,.33.07Z"/><path class="cls-4" d="M28.65,101.15l1-3.78h.84l-1.5,5h-.62l-1.51-5h.84Z"/><path class="cls-4" d="M32.27,96a.51.51,0,0,1-.12.35.46.46,0,0,1-.36.14.45.45,0,0,1-.35-.14.61.61,0,0,1,0-.7.43.43,0,0,1,.35-.15.43.43,0,0,1,.36.15A.55.55,0,0,1,32.27,96Zm-.07,6.37h-.83v-5h.83Z"/><path class="cls-4" d="M35.25,101.79a.86.86,0,0,0,.66-.25,1,1,0,0,0,.27-.72H37a1.69,1.69,0,0,1-.51,1.2,1.64,1.64,0,0,1-1.2.48,1.78,1.78,0,0,1-1.43-.59,2.7,2.7,0,0,1-.49-1.76V99.6a2.62,2.62,0,0,1,.49-1.73,1.74,1.74,0,0,1,1.43-.6,1.61,1.61,0,0,1,1.23.49A2,2,0,0,1,37,99.1h-.78a1.33,1.33,0,0,0-.26-.84.83.83,0,0,0-.67-.28,1,1,0,0,0-.82.36,2.11,2.11,0,0,0-.27,1.19v.64a2.26,2.26,0,0,0,.26,1.25A.94.94,0,0,0,35.25,101.79Z"/><path class="cls-4" d="M39.72,102.5a1.82,1.82,0,0,1-1.44-.57,2.4,2.4,0,0,1-.52-1.64v-.61a2.84,2.84,0,0,1,.5-1.77,1.63,1.63,0,0,1,1.37-.64,1.59,1.59,0,0,1,1.33.57,2.91,2.91,0,0,1,.45,1.75v.54H38.58v.12a1.82,1.82,0,0,0,.31,1.17,1.07,1.07,0,0,0,.88.37,1.44,1.44,0,0,0,.64-.13,1.63,1.63,0,0,0,.52-.44l.43.52A1.87,1.87,0,0,1,39.72,102.5ZM39.63,98a.87.87,0,0,0-.76.35,2,2,0,0,0-.28,1.09h2v-.11a1.9,1.9,0,0,0-.26-1A.79.79,0,0,0,39.63,98Z"/><path class="cls-4" d="M44.7,102.4V95.63h1.94a2,2,0,0,1,1.4.45,1.8,1.8,0,0,1,.47,1.35,1.48,1.48,0,0,1-.24.84,1.58,1.58,0,0,1-.64.56,1.36,1.36,0,0,1,.74.58,1.89,1.89,0,0,1,.27,1,2,2,0,0,1-.5,1.43,1.89,1.89,0,0,1-1.43.52Zm.86-3.88h1.09a.92.92,0,0,0,.72-.3,1.15,1.15,0,0,0,.27-.79,1.16,1.16,0,0,0-.24-.82,1,1,0,0,0-.76-.25H45.56Zm0,.71v2.44h1.16a1,1,0,0,0,.78-.32,1.34,1.34,0,0,0,.28-.89c0-.82-.35-1.23-1-1.23Z"/><path class="cls-8" d="M62.34,108.38a8,8,0,1,1,8-8A8,8,0,0,1,62.34,108.38Z"/><path class="cls-6" d="M62.34,93.41a7,7,0,1,1-7,7,7,7,0,0,1,7-7m0-2a9,9,0,1,0,9,9,9,9,0,0,0-9-9Z"/><rect class="cls-6" x="206.06" y="40.97" width="7.59" height="115.74"/><line class="cls-13" x1="209.85" y1="44.68" x2="209.85" y2="156.71"/><rect class="cls-6" x="270.67" y="40.97" width="7.59" height="115.74"/><line class="cls-13" x1="274.47" y1="44.68" x2="274.47" y2="156.71"/><use width="42.37" height="51.94" transform="translate(284.59 53.55)" xlink:href="#rechner"/><path class="cls-11" d="M305.78,105.21a4.52,4.52,0,1,1,4.51-4.52A4.52,4.52,0,0,1,305.78,105.21Z"/><path class="cls-6" d="M305.78,96.88a3.81,3.81,0,1,1-3.81,3.81,3.82,3.82,0,0,1,3.81-3.81m0-1.4a5.22,5.22,0,1,0,5.21,5.21,5.22,5.22,0,0,0-5.21-5.21Z"/><circle class="cls-14" cx="110.81" cy="100.58" r="4.51"/><path class="cls-6" d="M110.81,96.77a3.81,3.81,0,1,1-3.81,3.81,3.82,3.82,0,0,1,3.81-3.81m0-1.41a5.22,5.22,0,1,0,5.21,5.22,5.22,5.22,0,0,0-5.21-5.22Z"/><path class="cls-4" d="M102.06,176.27V169.5H104a2,2,0,0,1,1.4.45,1.76,1.76,0,0,1,.47,1.35,1.48,1.48,0,0,1-.24.84,1.61,1.61,0,0,1-.64.57,1.27,1.27,0,0,1,.74.57,2.23,2.23,0,0,1-.23,2.47,1.87,1.87,0,0,1-1.43.52Zm.85-3.88H104a1,1,0,0,0,.72-.3,1.13,1.13,0,0,0,.27-.79,1.12,1.12,0,0,0-.25-.82,1,1,0,0,0-.76-.25h-1.08Zm0,.72v2.43h1.17a1,1,0,0,0,.77-.32,1.28,1.28,0,0,0,.28-.89c0-.82-.34-1.22-1-1.22Z"/><path class="cls-4" d="M109.73,175.83a1.41,1.41,0,0,1-1.2.54,1.21,1.21,0,0,1-1-.47,2.34,2.34,0,0,1-.36-1.38v-3.28H108v3.22c0,.78.24,1.18.71,1.18a1,1,0,0,0,1-.67v-3.73h.83v5h-.79Z"/><path class="cls-4" d="M112.74,169.9a.51.51,0,0,1-.12.35.42.42,0,0,1-.35.14.4.4,0,0,1-.35-.14.51.51,0,0,1-.12-.35.53.53,0,0,1,.12-.35.4.4,0,0,1,.35-.14.45.45,0,0,1,.35.14A.55.55,0,0,1,112.74,169.9Zm-.07,6.37h-.82v-5h.82Z"/><path class="cls-4" d="M114.86,176.27H114v-7.14h.82Z"/><path class="cls-4" d="M116,173.53a3,3,0,0,1,.43-1.77,1.46,1.46,0,0,1,1.26-.61,1.3,1.3,0,0,1,1.13.58v-2.6h.83v7.14h-.76l0-.54a1.3,1.3,0,0,1-1.17.64,1.44,1.44,0,0,1-1.23-.61A2.91,2.91,0,0,1,116,174Zm.82.47a2.36,2.36,0,0,0,.26,1.24.9.9,0,0,0,.82.4,1,1,0,0,0,.92-.62v-2.54a1,1,0,0,0-.92-.6.9.9,0,0,0-.82.39,2.43,2.43,0,0,0-.26,1.22Z"/><path class="cls-14" d="M110.81,61.45a4.51,4.51,0,1,1,4.51-4.51A4.52,4.52,0,0,1,110.81,61.45Z"/><path class="cls-6" d="M110.81,53.13A3.81,3.81,0,1,1,107,56.94a3.82,3.82,0,0,1,3.81-3.81m0-1.41A5.22,5.22,0,1,0,116,56.94a5.22,5.22,0,0,0-5.21-5.22Z"/><circle class="cls-14" cx="110.81" cy="144.25" r="4.51"/><path class="cls-6" d="M110.81,140.44a3.81,3.81,0,1,1-3.81,3.81,3.81,3.81,0,0,1,3.81-3.81m0-1.41a5.22,5.22,0,1,0,5.21,5.22,5.22,5.22,0,0,0-5.21-5.22Z"/><path class="cls-4" d="M134.58,173.62v2.65h-.86V169.5h2.17a2,2,0,0,1,1.49.56,2.43,2.43,0,0,1,0,3,2,2,0,0,1-1.46.54Zm0-.73h1.31a1.09,1.09,0,0,0,.87-.34,1.38,1.38,0,0,0,.31-1,1.44,1.44,0,0,0-.32-1,1,1,0,0,0-.86-.37h-1.31Z"/><path class="cls-4" d="M141.46,176.27a1.66,1.66,0,0,1-.11-.54,1.33,1.33,0,0,1-1.12.64,1.35,1.35,0,0,1-1.46-1.47,1.56,1.56,0,0,1,.52-1.22,2.2,2.2,0,0,1,1.44-.46h.61v-.53a.86.86,0,0,0-.21-.65.87.87,0,0,0-.61-.19.85.85,0,0,0-.6.22.75.75,0,0,0-.24.57h-.82a1.33,1.33,0,0,1,.22-.74,1.57,1.57,0,0,1,.62-.55,1.79,1.79,0,0,1,.86-.2,1.61,1.61,0,0,1,1.18.38,1.52,1.52,0,0,1,.42,1.12v2.54a2.78,2.78,0,0,0,.16,1v.07Zm-1.11-.65a1.09,1.09,0,0,0,.58-.17,1,1,0,0,0,.41-.42v-1.2h-.47a1.6,1.6,0,0,0-.93.26.83.83,0,0,0-.34.71.92.92,0,0,0,.17.62A.75.75,0,0,0,140.35,175.62Z"/><path class="cls-4" d="M145.19,175.67a.87.87,0,0,0,.66-.26,1,1,0,0,0,.27-.72h.78a1.74,1.74,0,0,1-.51,1.2,1.66,1.66,0,0,1-1.2.48,1.78,1.78,0,0,1-1.43-.59,2.67,2.67,0,0,1-.49-1.75v-.56a2.62,2.62,0,0,1,.49-1.73,1.73,1.73,0,0,1,1.43-.59,1.62,1.62,0,0,1,1.23.48,2,2,0,0,1,.48,1.34h-.78a1.4,1.4,0,0,0-.27-.84.84.84,0,0,0-.66-.28,1,1,0,0,0-.82.36,2,2,0,0,0-.27,1.19V174a2.23,2.23,0,0,0,.26,1.26A1,1,0,0,0,145.19,175.67Z"/><path class="cls-4" d="M149.13,174l-.44.5v1.8h-.83v-7.14h.83v4.27l1.57-2.16h1l-1.61,2.1,1.82,2.93h-1Z"/><path class="cls-4" d="M154.77,176.27a1.66,1.66,0,0,1-.11-.54,1.33,1.33,0,0,1-1.12.64,1.35,1.35,0,0,1-1.46-1.47,1.56,1.56,0,0,1,.52-1.22,2.2,2.2,0,0,1,1.44-.46h.61v-.53a.86.86,0,0,0-.21-.65.87.87,0,0,0-.61-.19.85.85,0,0,0-.6.22.75.75,0,0,0-.24.57h-.82a1.33,1.33,0,0,1,.22-.74,1.57,1.57,0,0,1,.62-.55,1.79,1.79,0,0,1,.86-.2,1.61,1.61,0,0,1,1.18.38,1.52,1.52,0,0,1,.42,1.12v2.54a2.78,2.78,0,0,0,.16,1v.07Zm-1.11-.65a1.09,1.09,0,0,0,.58-.17,1,1,0,0,0,.41-.42v-1.2h-.47a1.6,1.6,0,0,0-.93.26.83.83,0,0,0-.34.71.92.92,0,0,0,.17.62A.75.75,0,0,0,153.66,175.62Z"/><path class="cls-4" d="M156.58,173.53a3.09,3.09,0,0,1,.43-1.78,1.46,1.46,0,0,1,1.26-.6,1.3,1.3,0,0,1,1.17.65l0-.56h.75v5.08a2,2,0,0,1-.48,1.44,1.79,1.79,0,0,1-1.34.5,2.19,2.19,0,0,1-.84-.19,1.77,1.77,0,0,1-.7-.45l.34-.57a1.56,1.56,0,0,0,1.13.5c.69,0,1-.37,1.06-1.12v-.65a1.29,1.29,0,0,1-1.14.59,1.44,1.44,0,0,1-1.22-.59,3,3,0,0,1-.46-1.69Zm.83.47a2.37,2.37,0,0,0,.25,1.24.91.91,0,0,0,.82.4,1,1,0,0,0,.92-.63V172.5a1,1,0,0,0-.91-.62.89.89,0,0,0-.82.39,2.33,2.33,0,0,0-.26,1.22Z"/><path class="cls-4" d="M163.27,176.37a1.87,1.87,0,0,1-1.45-.56,2.4,2.4,0,0,1-.51-1.65v-.61a2.79,2.79,0,0,1,.49-1.76,1.62,1.62,0,0,1,1.37-.64,1.57,1.57,0,0,1,1.33.56,2.93,2.93,0,0,1,.45,1.75V174h-2.82v.12a1.88,1.88,0,0,0,.3,1.18,1.11,1.11,0,0,0,.88.37,1.48,1.48,0,0,0,.65-.14,1.72,1.72,0,0,0,.52-.44l.43.52A1.87,1.87,0,0,1,163.27,176.37Zm-.1-4.52a.87.87,0,0,0-.76.36,2.07,2.07,0,0,0-.28,1.09h2v-.12a1.93,1.93,0,0,0-.26-1A.81.81,0,0,0,163.17,171.85Z"/><circle class="cls-14" cx="149.16" cy="100.58" r="4.51"/><path class="cls-6" d="M149.16,96.77a3.81,3.81,0,1,1-3.81,3.81,3.82,3.82,0,0,1,3.81-3.81m0-1.41a5.22,5.22,0,1,0,5.21,5.22,5.22,5.22,0,0,0-5.21-5.22Z"/><path class="cls-14" d="M149.16,61.45a4.51,4.51,0,1,1,4.51-4.51A4.52,4.52,0,0,1,149.16,61.45Z"/><path class="cls-6" d="M149.16,53.13a3.81,3.81,0,1,1-3.81,3.81,3.82,3.82,0,0,1,3.81-3.81m0-1.41a5.22,5.22,0,1,0,5.21,5.22,5.22,5.22,0,0,0-5.21-5.22Z"/><circle class="cls-14" cx="149.16" cy="144.25" r="4.51"/><path class="cls-6" d="M149.16,140.44a3.81,3.81,0,1,1-3.81,3.81,3.81,3.81,0,0,1,3.81-3.81m0-1.41a5.22,5.22,0,1,0,5.21,5.22,5.22,5.22,0,0,0-5.21-5.22Z"/><path class="cls-4" d="M175.46,176.27V169.5h1.62a2.37,2.37,0,0,1,1.85.74,3,3,0,0,1,.66,2.09v1.13a3,3,0,0,1-.67,2.08,2.49,2.49,0,0,1-1.94.73Zm.85-6v5.31H177a1.61,1.61,0,0,0,1.32-.51,2.43,2.43,0,0,0,.42-1.53v-1.2a2.48,2.48,0,0,0-.41-1.57,1.54,1.54,0,0,0-1.25-.5Z"/><path class="cls-4" d="M182.61,176.37a1.87,1.87,0,0,1-1.45-.56,2.4,2.4,0,0,1-.51-1.65v-.61a2.79,2.79,0,0,1,.49-1.76,1.64,1.64,0,0,1,1.38-.64,1.55,1.55,0,0,1,1.32.56,2.93,2.93,0,0,1,.45,1.75V174h-2.82v.12a1.88,1.88,0,0,0,.3,1.18,1.12,1.12,0,0,0,.89.37,1.47,1.47,0,0,0,.64-.14,1.61,1.61,0,0,0,.52-.44l.43.52A1.87,1.87,0,0,1,182.61,176.37Zm-.09-4.52a.87.87,0,0,0-.77.36,2.17,2.17,0,0,0-.28,1.09h2v-.12a1.93,1.93,0,0,0-.26-1A.81.81,0,0,0,182.52,171.85Z"/><path class="cls-4" d="M188.93,174a3,3,0,0,1-.43,1.78,1.44,1.44,0,0,1-1.22.59,1.33,1.33,0,0,1-1.17-.58v2.42h-.83v-7H186l0,.56a1.33,1.33,0,0,1,1.19-.65,1.45,1.45,0,0,1,1.25.57,3.1,3.1,0,0,1,.42,1.73Zm-.82-.47a2.38,2.38,0,0,0-.26-1.25.93.93,0,0,0-.84-.4,1,1,0,0,0-.9.59v2.62a1,1,0,0,0,.91.58.92.92,0,0,0,.82-.41,2.24,2.24,0,0,0,.27-1.23Z"/><path class="cls-4" d="M190.89,176.27h-.83v-7.14h.83Z"/><path class="cls-4" d="M192,173.52a2.58,2.58,0,0,1,.54-1.73,1.89,1.89,0,0,1,2.82,0,2.57,2.57,0,0,1,.55,1.7V174a2.59,2.59,0,0,1-.53,1.73,1.74,1.74,0,0,1-1.42.64,1.79,1.79,0,0,1-1.41-.62,2.62,2.62,0,0,1-.55-1.68Zm.83.48a2.08,2.08,0,0,0,.31,1.22.93.93,0,0,0,.82.45c.73,0,1.1-.53,1.13-1.58v-.57a2.18,2.18,0,0,0-.31-1.22,1,1,0,0,0-.83-.45.93.93,0,0,0-.81.45,2.1,2.1,0,0,0-.31,1.22Z"/><path class="cls-4" d="M198.3,174.91l.92-3.67h.88L198.44,177a2.21,2.21,0,0,1-.52,1,1.07,1.07,0,0,1-.78.34,1.73,1.73,0,0,1-.43-.08v-.69h.18a.84.84,0,0,0,.57-.17,1.25,1.25,0,0,0,.33-.58l.16-.57-1.49-5h.91Z"/><path class="cls-14" d="M187.5,105.08a4.5,4.5,0,1,1,4.51-4.5A4.51,4.51,0,0,1,187.5,105.08Z"/><path class="cls-6" d="M187.51,96.78a3.8,3.8,0,1,1-3.81,3.8,3.8,3.8,0,0,1,3.81-3.8m0-1.41a5.21,5.21,0,1,0,5.2,5.21,5.21,5.21,0,0,0-5.2-5.21Z"/><path class="cls-14" d="M187.5,61.45A4.51,4.51,0,1,1,192,56.94,4.52,4.52,0,0,1,187.5,61.45Z"/><path class="cls-6" d="M187.51,53.13a3.81,3.81,0,1,1-3.82,3.81,3.82,3.82,0,0,1,3.82-3.81m0-1.41a5.22,5.22,0,1,0,5.21,5.22,5.22,5.22,0,0,0-5.21-5.22Z"/><circle class="cls-14" cx="187.5" cy="144.25" r="4.51"/><path class="cls-6" d="M187.51,140.44a3.81,3.81,0,1,1-3.82,3.81,3.81,3.81,0,0,1,3.82-3.81m0-1.41a5.22,5.22,0,1,0,5.21,5.22,5.22,5.22,0,0,0-5.21-5.22Z"/><rect class="cls-6" x="334.1" y="97.08" width="3.24" height="6.7"/></svg>