<svg id="svg8" xmlns="http://www.w3.org/2000/svg" viewBox="0 0 143.88 55.5"><defs><style>.cls-1,.cls-5{fill:#fff;}.cls-2{fill:#6c757e;}.cls-3{fill:#f05133;}.cls-4,.cls-6{fill:none;stroke:#6c757e;stroke-miterlimit:10;stroke-width:0.5px;}.cls-5{opacity:0.75;}.cls-6{stroke-dasharray:1 1;}</style></defs><title>replica</title><rect class="cls-1" width="42" height="55"/><rect class="cls-2" width="42" height="14.45"/><path class="cls-1" d="M10,3.41,11.68,8.7l1.73-5.29h1.07V9.89h-.83V7.37l.08-2.53L12,9.89h-.63l-1.72-5,.07,2.51V9.89H8.88V3.41Z"/><path class="cls-1" d="M18.33,9.89a1.51,1.51,0,0,1-.11-.52,1.26,1.26,0,0,1-1.09.61,1.45,1.45,0,0,1-1-.36,1.39,1.39,0,0,1-.37-1,1.48,1.48,0,0,1,.5-1.17A2.15,2.15,0,0,1,17.62,7h.59V6.46a.8.8,0,0,0-.2-.62,1,1,0,0,0-1.18,0,.71.71,0,0,0-.23.54h-.8A1.26,1.26,0,0,1,16,5.7a1.52,1.52,0,0,1,.6-.52,1.8,1.8,0,0,1,.84-.2,1.65,1.65,0,0,1,1.15.37A1.45,1.45,0,0,1,19,6.42V8.86a2.76,2.76,0,0,0,.15,1v.07Zm-1.07-.62a1.16,1.16,0,0,0,.56-.16,1,1,0,0,0,.39-.41V7.56h-.45a1.51,1.51,0,0,0-.91.25.8.8,0,0,0-.33.68.87.87,0,0,0,.17.59A.75.75,0,0,0,17.26,9.27Z"/><path class="cls-1" d="M22.64,8.66a.59.59,0,0,0-.19-.44,2.89,2.89,0,0,0-.75-.42,5.6,5.6,0,0,1-.92-.45,1.34,1.34,0,0,1-.4-.43,1.14,1.14,0,0,1-.13-.57,1.27,1.27,0,0,1,.44-1,1.81,1.81,0,0,1,2.27,0,1.41,1.41,0,0,1,.44,1.06h-.8a.76.76,0,0,0-.22-.56.78.78,0,0,0-.57-.23.82.82,0,0,0-.56.18.63.63,0,0,0-.2.48.53.53,0,0,0,.15.39,2.51,2.51,0,0,0,.71.39,3.62,3.62,0,0,1,1.22.67,1.15,1.15,0,0,1,.32.83,1.27,1.27,0,0,1-.44,1,1.77,1.77,0,0,1-1.18.37,1.79,1.79,0,0,1-1.25-.43,1.4,1.4,0,0,1-.47-1.1h.8a.91.91,0,0,0,.25.63.9.9,0,0,0,.67.23.92.92,0,0,0,.61-.18A.56.56,0,0,0,22.64,8.66Z"/><path class="cls-1" d="M25.55,3.91V5.07h.74v.64h-.74v3a.88.88,0,0,0,.09.44.37.37,0,0,0,.33.14.89.89,0,0,0,.32,0V9.9a2,2,0,0,1-.55.08A.85.85,0,0,1,25,9.65a1.54,1.54,0,0,1-.25-1v-3H24V5.07h.75V3.91Z"/><path class="cls-1" d="M29,10a1.85,1.85,0,0,1-1.41-.53,2.32,2.32,0,0,1-.5-1.58V7.29a2.67,2.67,0,0,1,.48-1.69A1.61,1.61,0,0,1,28.91,5a1.55,1.55,0,0,1,1.29.54,2.79,2.79,0,0,1,.44,1.68v.52H27.89v.11A1.74,1.74,0,0,0,28.19,9a1.07,1.07,0,0,0,.86.35,1.38,1.38,0,0,0,.62-.13,1.63,1.63,0,0,0,.51-.42l.42.5A1.85,1.85,0,0,1,29,10Zm-.09-4.32a.84.84,0,0,0-.74.34,1.94,1.94,0,0,0-.27,1h1.93v-.1a1.76,1.76,0,0,0-.25-1A.78.78,0,0,0,28.91,5.66Z"/><path class="cls-1" d="M33.63,5.81a2,2,0,0,0-.36,0,.89.89,0,0,0-.87.67V9.89h-.8V5.07h.78v.49A1,1,0,0,1,33.31,5a.63.63,0,0,1,.32.07Z"/><rect class="cls-1" y="14.45" width="42" height="13.52"/><rect class="cls-1" y="27.97" width="42" height="13.52"/><rect class="cls-1" y="41.48" width="42" height="13.52"/><path d="M14.71,35.79a.64.64,0,0,0-.18-.49,1.73,1.73,0,0,0-.65-.34,3,3,0,0,1-.71-.34,1.29,1.29,0,0,1-.37-.41A1.22,1.22,0,0,1,13,32.83,1.28,1.28,0,0,1,14,32.5a1.47,1.47,0,0,1,.69.17,1.22,1.22,0,0,1,.46.47,1.42,1.42,0,0,1,.17.67h-.56a.89.89,0,0,0-.2-.62A.7.7,0,0,0,14,33a.74.74,0,0,0-.53.18.73.73,0,0,0-.18.52.61.61,0,0,0,.2.46,1.85,1.85,0,0,0,.62.33A2.13,2.13,0,0,1,15,35a1.16,1.16,0,0,1,.28.81,1.09,1.09,0,0,1-.35.84A1.36,1.36,0,0,1,14,37a1.58,1.58,0,0,1-.71-.17,1.2,1.2,0,0,1-.51-.46,1.23,1.23,0,0,1-.19-.69h.56a.85.85,0,0,0,.23.63.84.84,0,0,0,.62.22.74.74,0,0,0,.55-.18A.67.67,0,0,0,14.71,35.79Z"/><path d="M17.09,37a1.22,1.22,0,0,1-.94-.36,1.55,1.55,0,0,1-.33-1.05v-.39A1.81,1.81,0,0,1,16.14,34a1.07,1.07,0,0,1,.89-.41,1,1,0,0,1,.86.36,1.81,1.81,0,0,1,.29,1.12v.35H16.35v.07a1.14,1.14,0,0,0,.2.75.69.69,0,0,0,.57.24.93.93,0,0,0,.42-.09,1.08,1.08,0,0,0,.34-.28l.28.34A1.24,1.24,0,0,1,17.09,37ZM17,34.07a.56.56,0,0,0-.49.22,1.25,1.25,0,0,0-.18.7h1.29v-.08a1.24,1.24,0,0,0-.17-.65A.53.53,0,0,0,17,34.07Z"/><path d="M20.18,34.17a.9.9,0,0,0-.24,0,.58.58,0,0,0-.58.44v2.3h-.53V33.67h.52V34a.66.66,0,0,1,.61-.39.46.46,0,0,1,.21,0Z"/><path d="M21.7,36.09l.62-2.42h.55l-1,3.22h-.4l-1-3.22h.54Z"/><path d="M24.05,32.82A.33.33,0,0,1,24,33a.34.34,0,0,1-.46,0,.32.32,0,0,1-.07-.22.37.37,0,0,1,.07-.23.29.29,0,0,1,.23-.09.26.26,0,0,1,.23.1A.33.33,0,0,1,24.05,32.82ZM24,36.89h-.53V33.67H24Z"/><path d="M26,36.5a.57.57,0,0,0,.43-.16.67.67,0,0,0,.18-.47h.5a1.07,1.07,0,0,1-.33.77A1.06,1.06,0,0,1,26,37a1.14,1.14,0,0,1-.92-.38,1.65,1.65,0,0,1-.32-1.12V35.1A1.69,1.69,0,0,1,25.05,34a1.18,1.18,0,0,1,.93-.38,1,1,0,0,1,.8.32,1.21,1.21,0,0,1,.31.85h-.5a.83.83,0,0,0-.18-.54.52.52,0,0,0-.43-.17.61.61,0,0,0-.53.23,1.37,1.37,0,0,0-.18.75v.41a1.42,1.42,0,0,0,.17.8A.63.63,0,0,0,26,36.5Z"/><path d="M28.89,37a1.19,1.19,0,0,1-.94-.36,1.55,1.55,0,0,1-.34-1.05v-.39A1.81,1.81,0,0,1,27.93,34a1.08,1.08,0,0,1,.89-.41,1.05,1.05,0,0,1,.87.36A2,2,0,0,1,30,35.09v.35H28.15v.07a1.15,1.15,0,0,0,.19.75.73.73,0,0,0,.58.24.91.91,0,0,0,.41-.09,1,1,0,0,0,.34-.28l.28.34A1.23,1.23,0,0,1,28.89,37Zm-.07-2.88a.56.56,0,0,0-.49.22,1.25,1.25,0,0,0-.18.7h1.29v-.08a1.15,1.15,0,0,0-.17-.65A.53.53,0,0,0,28.82,34.07Z"/><path d="M32.12,36.89V32.56h1.25a1.27,1.27,0,0,1,.91.29,1.14,1.14,0,0,1,.3.86,1,1,0,0,1-.15.54,1.06,1.06,0,0,1-.42.36.86.86,0,0,1,.48.36,1.22,1.22,0,0,1,.18.67,1.26,1.26,0,0,1-.33.92,1.23,1.23,0,0,1-.93.33Zm.55-2.48h.71a.65.65,0,0,0,.47-.19.72.72,0,0,0,.17-.51.7.7,0,0,0-.16-.52.64.64,0,0,0-.49-.16h-.7Zm0,.45v1.56h.76a.67.67,0,0,0,.5-.2.85.85,0,0,0,.18-.57c0-.53-.22-.79-.67-.79Z"/><path class="cls-3" d="M7.31,37.39a3.06,3.06,0,1,1,.05,0Z"/><path class="cls-1" d="M7.36,31.7A2.64,2.64,0,0,1,10,34.33v0A2.64,2.64,0,0,1,7.36,37H7.31a2.65,2.65,0,0,1-2.63-2.63v0A2.65,2.65,0,0,1,7.31,31.7h.05m0-.79H7.31a3.44,3.44,0,0,0,0,6.88h.05a3.44,3.44,0,0,0,0-6.88Z"/><path d="M14.3,48.93a.67.67,0,0,0-.18-.5,1.92,1.92,0,0,0-.64-.34,2.7,2.7,0,0,1-.72-.34,1.42,1.42,0,0,1-.37-.41A1.2,1.2,0,0,1,12.62,46a1.25,1.25,0,0,1,.92-.34,1.41,1.41,0,0,1,.69.17,1.21,1.21,0,0,1,.47.48,1.46,1.46,0,0,1,.16.66H14.3a.86.86,0,0,0-.2-.62.7.7,0,0,0-.56-.22.67.67,0,0,0-.52.19.66.66,0,0,0-.19.51.6.6,0,0,0,.2.46,1.85,1.85,0,0,0,.62.33,2.23,2.23,0,0,1,.93.52,1.16,1.16,0,0,1,.28.81,1.05,1.05,0,0,1-.35.84,1.35,1.35,0,0,1-.94.32,1.47,1.47,0,0,1-.72-.17,1.33,1.33,0,0,1-.51-.46,1.3,1.3,0,0,1-.18-.68h.55a.78.78,0,0,0,.86.84.78.78,0,0,0,.55-.18A.68.68,0,0,0,14.3,48.93Z"/><path d="M16.69,50.08a1.19,1.19,0,0,1-.94-.36,1.55,1.55,0,0,1-.34-1v-.39a1.83,1.83,0,0,1,.32-1.13,1.08,1.08,0,0,1,.89-.41,1.07,1.07,0,0,1,.87.36,1.89,1.89,0,0,1,.29,1.13v.34H16v.07a1.13,1.13,0,0,0,.2.76.72.72,0,0,0,.57.23.91.91,0,0,0,.41-.09.94.94,0,0,0,.34-.27l.28.33A1.23,1.23,0,0,1,16.69,50.08Zm-.07-2.88a.56.56,0,0,0-.49.22,1.25,1.25,0,0,0-.18.7h1.29v-.07a1.17,1.17,0,0,0-.17-.66A.52.52,0,0,0,16.62,47.2Z"/><path d="M19.77,47.3a.9.9,0,0,0-.24,0,.58.58,0,0,0-.57.44V50h-.54V46.8h.52v.33a.67.67,0,0,1,.61-.39.46.46,0,0,1,.21,0Z"/><path d="M21.29,49.22l.62-2.42h.55l-1,3.22h-.4l-1-3.22h.55Z"/><path d="M23.64,46a.31.31,0,0,1-.08.22.27.27,0,0,1-.23.09.27.27,0,0,1-.22-.09A.27.27,0,0,1,23,46a.29.29,0,0,1,.08-.22.25.25,0,0,1,.22-.1.26.26,0,0,1,.23.1A.33.33,0,0,1,23.64,46Zm0,4.07h-.54V46.8h.54Z"/><path d="M25.58,49.63a.55.55,0,0,0,.42-.16.67.67,0,0,0,.18-.46h.51a1.14,1.14,0,0,1-.34.77,1.08,1.08,0,0,1-.77.3,1.15,1.15,0,0,1-.93-.38,1.7,1.7,0,0,1-.32-1.12v-.35a1.73,1.73,0,0,1,.32-1.11,1.14,1.14,0,0,1,.92-.38,1,1,0,0,1,.8.32,1.28,1.28,0,0,1,.32.85h-.51a.89.89,0,0,0-.17-.54.59.59,0,0,0-.44-.17.62.62,0,0,0-.53.23,1.3,1.3,0,0,0-.17.75v.41a1.39,1.39,0,0,0,.17.81A.63.63,0,0,0,25.58,49.63Z"/><path d="M28.48,50.08a1.21,1.21,0,0,1-.94-.36,1.55,1.55,0,0,1-.34-1v-.39a1.77,1.77,0,0,1,.33-1.13,1.19,1.19,0,0,1,1.75,0,1.82,1.82,0,0,1,.29,1.13v.34H27.74v.07a1.13,1.13,0,0,0,.2.76.72.72,0,0,0,.57.23.88.88,0,0,0,.41-.09.94.94,0,0,0,.34-.27l.28.33A1.23,1.23,0,0,1,28.48,50.08Zm-.06-2.88a.58.58,0,0,0-.5.22,1.44,1.44,0,0,0-.18.7H29v-.07a1.17,1.17,0,0,0-.17-.66A.5.5,0,0,0,28.42,47.2Z"/><path d="M34.47,48.64a1.58,1.58,0,0,1-.39,1.07,1.38,1.38,0,0,1-1,.37,1.27,1.27,0,0,1-1-.5,2.1,2.1,0,0,1-.39-1.34v-.78a2.06,2.06,0,0,1,.4-1.34,1.36,1.36,0,0,1,1.1-.49,1.27,1.27,0,0,1,1,.38,1.59,1.59,0,0,1,.38,1.07h-.56a1.33,1.33,0,0,0-.22-.75.72.72,0,0,0-.58-.23.8.8,0,0,0-.7.35,1.77,1.77,0,0,0-.24,1v.79a1.87,1.87,0,0,0,.22,1,.72.72,0,0,0,.66.35.83.83,0,0,0,.63-.21,1.28,1.28,0,0,0,.23-.76Z"/><rect class="cls-3" x="4.5" y="45.3" width="5" height="5.26"/><path class="cls-1" d="M9.16,45.63v4.59H4.83V45.63H9.16M9.83,45H4.16v5.93H9.83V45Z"/><path d="M14.35,22.05a.67.67,0,0,0-.18-.5,1.94,1.94,0,0,0-.64-.33,3,3,0,0,1-.72-.35,1.3,1.3,0,0,1-.37-.41,1.11,1.11,0,0,1-.12-.52,1.12,1.12,0,0,1,.35-.85,1.28,1.28,0,0,1,.92-.33,1.31,1.31,0,0,1,.69.17,1.1,1.1,0,0,1,.46.47,1.35,1.35,0,0,1,.17.66h-.56a.87.87,0,0,0-.2-.62.74.74,0,0,0-.56-.22.7.7,0,0,0-.52.19.67.67,0,0,0-.19.52.59.59,0,0,0,.2.45,1.55,1.55,0,0,0,.62.33,2.23,2.23,0,0,1,.93.53,1.12,1.12,0,0,1,.28.8,1.07,1.07,0,0,1-.35.85,1.35,1.35,0,0,1-.94.31A1.58,1.58,0,0,1,12.9,23a1.35,1.35,0,0,1-.51-.47,1.28,1.28,0,0,1-.18-.68h.55a.81.81,0,0,0,.23.62.85.85,0,0,0,.63.23.78.78,0,0,0,.55-.19A.68.68,0,0,0,14.35,22.05Z"/><path d="M16.74,23.2a1.19,1.19,0,0,1-.94-.36,1.52,1.52,0,0,1-.34-1.05v-.38a1.81,1.81,0,0,1,.32-1.13,1.06,1.06,0,0,1,.89-.41,1,1,0,0,1,.87.36,1.86,1.86,0,0,1,.29,1.12v.34H16v.08a1.12,1.12,0,0,0,.2.75.69.69,0,0,0,.57.23,1.07,1.07,0,0,0,.41-.08,1,1,0,0,0,.34-.28l.28.33A1.23,1.23,0,0,1,16.74,23.2Zm-.07-2.88a.56.56,0,0,0-.49.22,1.28,1.28,0,0,0-.18.7h1.29v-.07a1.15,1.15,0,0,0-.17-.65A.54.54,0,0,0,16.67,20.32Z"/><path d="M19.82,20.42l-.24,0a.59.59,0,0,0-.57.44v2.3h-.54V19.93H19v.32a.68.68,0,0,1,.61-.38.46.46,0,0,1,.21,0Z"/><path d="M21.34,22.34,22,19.93h.55l-1,3.21h-.4l-1-3.21h.55Z"/><path d="M23.69,19.08a.35.35,0,0,1-.08.22.27.27,0,0,1-.23.09.25.25,0,0,1-.22-.09.3.3,0,0,1-.08-.22.31.31,0,0,1,.08-.23.25.25,0,0,1,.22-.09.29.29,0,0,1,.23.09A.36.36,0,0,1,23.69,19.08Zm0,4.06h-.54V19.93h.54Z"/><path d="M25.63,22.75a.55.55,0,0,0,.42-.16.67.67,0,0,0,.18-.46h.51a1.12,1.12,0,0,1-.34.77,1.08,1.08,0,0,1-.77.3,1.14,1.14,0,0,1-.93-.37,1.72,1.72,0,0,1-.32-1.12v-.36a1.68,1.68,0,0,1,.32-1.1,1.11,1.11,0,0,1,.92-.38,1,1,0,0,1,.8.31,1.28,1.28,0,0,1,.32.85h-.51a.88.88,0,0,0-.17-.53.56.56,0,0,0-.44-.18.65.65,0,0,0-.53.23,1.41,1.41,0,0,0-.18.76v.41a1.35,1.35,0,0,0,.18.8A.6.6,0,0,0,25.63,22.75Z"/><path d="M28.53,23.2a1.21,1.21,0,0,1-.94-.36,1.52,1.52,0,0,1-.34-1.05v-.38a1.75,1.75,0,0,1,.33-1.13,1.19,1.19,0,0,1,1.75-.05,1.79,1.79,0,0,1,.29,1.12v.34H27.79v.08a1.12,1.12,0,0,0,.2.75.69.69,0,0,0,.57.23,1,1,0,0,0,.41-.08,1,1,0,0,0,.34-.28l.28.33A1.23,1.23,0,0,1,28.53,23.2Zm-.06-2.88a.57.57,0,0,0-.5.22,1.48,1.48,0,0,0-.18.7h1.29v-.07a1.15,1.15,0,0,0-.17-.65A.5.5,0,0,0,28.47,20.32Z"/><path d="M33.82,22h-1.5L32,23.14h-.57l1.42-4.32h.48l1.42,4.32h-.57Zm-1.35-.47h1.2l-.6-2Z"/><path class="cls-3" d="M10,20.34l-2.64-2.6a.4.4,0,0,0-.56,0L4.16,20.33a.38.38,0,0,0,0,.54l2.65,2.6a.41.41,0,0,0,.55,0L10,20.88A.36.36,0,0,0,10,20.34Z"/><line class="cls-4" y1="27.97" x2="42" y2="27.97"/><line class="cls-4" y1="41.48" x2="42" y2="41.48"/><path class="cls-2" d="M42,.5V55H.5V.5H42m.5-.5H0V55.5H42.5V0Z"/><rect class="cls-1" x="101.88" width="42" height="55"/><rect class="cls-2" x="101.88" width="42" height="14.45"/><path class="cls-1" d="M109.05,7h-2.23V9.89H106V3.41h3.44v.7h-2.61V6.33h2.23Z"/><path class="cls-1" d="M112.1,10a1.85,1.85,0,0,1-1.41-.53,2.37,2.37,0,0,1-.5-1.58V7.29a2.67,2.67,0,0,1,.48-1.69A1.61,1.61,0,0,1,112,5a1.53,1.53,0,0,1,1.29.54,2.72,2.72,0,0,1,.44,1.68v.52H111v.11a1.74,1.74,0,0,0,.3,1.13,1.09,1.09,0,0,0,.86.35,1.38,1.38,0,0,0,.62-.13,1.63,1.63,0,0,0,.51-.42l.42.5A1.85,1.85,0,0,1,112.1,10ZM112,5.66a.84.84,0,0,0-.74.34A1.94,1.94,0,0,0,111,7h1.93v-.1a1.76,1.76,0,0,0-.25-1A.78.78,0,0,0,112,5.66Z"/><path class="cls-1" d="M117.23,9.89a1.56,1.56,0,0,1-.1-.52A1.29,1.29,0,0,1,116,10,1.45,1.45,0,0,1,115,9.62a1.39,1.39,0,0,1-.37-1,1.46,1.46,0,0,1,.51-1.17A2.12,2.12,0,0,1,116.52,7h.59V6.46a.84.84,0,0,0-.19-.62.86.86,0,0,0-.6-.18.84.84,0,0,0-.59.21.71.71,0,0,0-.23.54h-.8a1.26,1.26,0,0,1,.22-.71,1.52,1.52,0,0,1,.6-.52,1.8,1.8,0,0,1,.84-.2,1.64,1.64,0,0,1,1.15.37,1.41,1.41,0,0,1,.4,1.07V8.86a2.75,2.75,0,0,0,.16,1v.07Zm-1.07-.62a1.13,1.13,0,0,0,.56-.16,1,1,0,0,0,.39-.41V7.56h-.45a1.56,1.56,0,0,0-.91.25.8.8,0,0,0-.33.68.87.87,0,0,0,.17.59A.75.75,0,0,0,116.16,9.27Z"/><path class="cls-1" d="M120.21,3.91V5.07H121v.64h-.74v3a.78.78,0,0,0,.1.44.34.34,0,0,0,.32.14,1,1,0,0,0,.33,0V9.9a2.1,2.1,0,0,1-.56.08.86.86,0,0,1-.73-.33,1.54,1.54,0,0,1-.25-1v-3h-.75V5.07h.75V3.91Z"/><path class="cls-1" d="M124.41,9.47a1.37,1.37,0,0,1-1.16.51,1.17,1.17,0,0,1-1-.45,2.21,2.21,0,0,1-.35-1.32V5.07h.8V8.16c0,.75.23,1.12.69,1.12a1,1,0,0,0,1-.64V5.07h.81V9.89h-.77Z"/><path class="cls-1" d="M128.44,5.81a2.22,2.22,0,0,0-.37,0,.87.87,0,0,0-.86.67V9.89h-.81V5.07h.79v.49a1,1,0,0,1,.91-.58.61.61,0,0,1,.32.07Z"/><path class="cls-1" d="M131,10a1.85,1.85,0,0,1-1.41-.53,2.37,2.37,0,0,1-.5-1.58V7.29a2.67,2.67,0,0,1,.48-1.69A1.61,1.61,0,0,1,130.9,5a1.53,1.53,0,0,1,1.29.54,2.72,2.72,0,0,1,.44,1.68v.52h-2.75v.11a1.74,1.74,0,0,0,.3,1.13,1.09,1.09,0,0,0,.86.35,1.38,1.38,0,0,0,.62-.13,1.63,1.63,0,0,0,.51-.42l.42.5A1.85,1.85,0,0,1,131,10Zm-.09-4.32a.84.84,0,0,0-.74.34,1.94,1.94,0,0,0-.27,1h1.93v-.1a1.76,1.76,0,0,0-.25-1A.78.78,0,0,0,130.9,5.66Z"/><path class="cls-1" d="M138.92,8.2h-2.23l-.52,1.69h-.85l2.13-6.48h.71l2.14,6.48h-.86Zm-2-.7h1.81l-.91-2.95Z"/><rect class="cls-1" x="101.88" y="14.45" width="42" height="13.52"/><path d="M116.59,35.79a.64.64,0,0,0-.18-.49,1.82,1.82,0,0,0-.65-.34,2.77,2.77,0,0,1-.71-.34,1.18,1.18,0,0,1-.37-.41,1.22,1.22,0,0,1,.23-1.38,1.27,1.27,0,0,1,.91-.33,1.41,1.41,0,0,1,.69.17,1.18,1.18,0,0,1,.47.47,1.42,1.42,0,0,1,.17.67h-.56a.89.89,0,0,0-.2-.62.71.71,0,0,0-.57-.22.63.63,0,0,0-.7.7.58.58,0,0,0,.2.46,1.85,1.85,0,0,0,.62.33,2.13,2.13,0,0,1,.93.52,1.21,1.21,0,0,1,.28.81,1.09,1.09,0,0,1-.35.84,1.36,1.36,0,0,1-1,.32,1.55,1.55,0,0,1-.71-.17,1.2,1.2,0,0,1-.51-.46,1.23,1.23,0,0,1-.19-.69H115a.85.85,0,0,0,.23.63.84.84,0,0,0,.62.22.74.74,0,0,0,.55-.18A.67.67,0,0,0,116.59,35.79Z"/><path d="M119,37a1.21,1.21,0,0,1-.94-.36,1.5,1.5,0,0,1-.33-1.05v-.39A1.81,1.81,0,0,1,118,34a1.07,1.07,0,0,1,.89-.41,1,1,0,0,1,.86.36,1.81,1.81,0,0,1,.29,1.12v.35h-1.83v.07a1.14,1.14,0,0,0,.2.75.69.69,0,0,0,.57.24.93.93,0,0,0,.42-.09,1.08,1.08,0,0,0,.34-.28l.28.34A1.24,1.24,0,0,1,119,37Zm-.06-2.88a.55.55,0,0,0-.49.22,1.25,1.25,0,0,0-.18.7h1.29v-.08a1.24,1.24,0,0,0-.17-.65A.53.53,0,0,0,118.91,34.07Z"/><path d="M122.06,34.17a.93.93,0,0,0-.24,0,.58.58,0,0,0-.58.44v2.3h-.53V33.67h.52V34a.65.65,0,0,1,.6-.39.48.48,0,0,1,.22,0Z"/><path d="M123.58,36.09l.62-2.42h.55l-1,3.22h-.4l-1-3.22h.54Z"/><path d="M125.92,32.82a.32.32,0,0,1-.07.22.34.34,0,0,1-.46,0,.32.32,0,0,1-.07-.22.37.37,0,0,1,.07-.23.29.29,0,0,1,.23-.09.26.26,0,0,1,.23.1A.32.32,0,0,1,125.92,32.82Zm0,4.07h-.53V33.67h.53Z"/><path d="M127.86,36.5a.57.57,0,0,0,.43-.16.67.67,0,0,0,.18-.47h.5a1.07,1.07,0,0,1-.33.77,1.06,1.06,0,0,1-.78.31,1.18,1.18,0,0,1-.93-.38,1.7,1.7,0,0,1-.31-1.12V35.1a1.69,1.69,0,0,1,.31-1.11,1.16,1.16,0,0,1,.93-.38,1,1,0,0,1,.8.32,1.21,1.21,0,0,1,.31.85h-.5a.89.89,0,0,0-.18-.54.53.53,0,0,0-.43-.17.61.61,0,0,0-.53.23,1.29,1.29,0,0,0-.18.75v.41a1.42,1.42,0,0,0,.17.8A.63.63,0,0,0,127.86,36.5Z"/><path d="M130.76,37a1.18,1.18,0,0,1-.93-.36,1.5,1.5,0,0,1-.34-1.05v-.39a1.81,1.81,0,0,1,.32-1.13,1.07,1.07,0,0,1,.89-.41,1,1,0,0,1,.86.36,1.87,1.87,0,0,1,.3,1.12v.35H130v.07a1.14,1.14,0,0,0,.2.75.72.72,0,0,0,.57.24.93.93,0,0,0,.42-.09,1.08,1.08,0,0,0,.34-.28l.28.34A1.23,1.23,0,0,1,130.76,37Zm-.06-2.88a.56.56,0,0,0-.49.22,1.25,1.25,0,0,0-.18.7h1.29v-.08a1.24,1.24,0,0,0-.17-.65A.53.53,0,0,0,130.7,34.07Z"/><path d="M134,36.89V32.56h1.26a1.29,1.29,0,0,1,.91.29,1.14,1.14,0,0,1,.3.86,1,1,0,0,1-.15.54,1.06,1.06,0,0,1-.42.36.86.86,0,0,1,.48.36,1.22,1.22,0,0,1,.18.67,1.26,1.26,0,0,1-.33.92,1.23,1.23,0,0,1-.93.33Zm.56-2.48h.71a.65.65,0,0,0,.47-.19.77.77,0,0,0,.17-.51.7.7,0,0,0-.16-.52.64.64,0,0,0-.49-.16h-.7Zm0,.45v1.56h.76a.67.67,0,0,0,.5-.2.85.85,0,0,0,.18-.57c0-.53-.22-.79-.67-.79Z"/><path class="cls-3" d="M109.19,37.39a3,3,0,1,1,3.08-3.06,3,3,0,0,1-3.08,3.06Z"/><path class="cls-1" d="M109.24,31.7a2.64,2.64,0,0,1,2.63,2.63v0A2.64,2.64,0,0,1,109.24,37h0a2.64,2.64,0,0,1-2.63-2.63v0a2.64,2.64,0,0,1,2.63-2.63h0m0-.79h0a3.44,3.44,0,0,0,0,6.88h0a3.44,3.44,0,0,0,0-6.88Z"/><path d="M116.18,48.93a.67.67,0,0,0-.18-.5,1.92,1.92,0,0,0-.64-.34,2.55,2.55,0,0,1-.72-.34,1.29,1.29,0,0,1-.37-.41A1.2,1.2,0,0,1,114.5,46a1.25,1.25,0,0,1,.92-.34,1.41,1.41,0,0,1,.69.17,1.12,1.12,0,0,1,.46.48,1.35,1.35,0,0,1,.17.66h-.56a.86.86,0,0,0-.2-.62.7.7,0,0,0-.56-.22.67.67,0,0,0-.52.19.66.66,0,0,0-.19.51.6.6,0,0,0,.2.46,1.85,1.85,0,0,0,.62.33,2.23,2.23,0,0,1,.93.52,1.16,1.16,0,0,1,.28.81,1.09,1.09,0,0,1-.35.84,1.36,1.36,0,0,1-1,.32,1.46,1.46,0,0,1-.71-.17,1.33,1.33,0,0,1-.51-.46,1.3,1.3,0,0,1-.18-.68h.55a.78.78,0,0,0,.85.84.79.79,0,0,0,.56-.18A.68.68,0,0,0,116.18,48.93Z"/><path d="M118.57,50.08a1.19,1.19,0,0,1-.94-.36,1.55,1.55,0,0,1-.34-1v-.39a1.83,1.83,0,0,1,.32-1.13,1.2,1.2,0,0,1,1.76,0,2,2,0,0,1,.29,1.13v.34h-1.83v.07a1.2,1.2,0,0,0,.19.76.75.75,0,0,0,.58.23.91.91,0,0,0,.41-.09,1,1,0,0,0,.34-.27l.28.33A1.23,1.23,0,0,1,118.57,50.08Zm-.07-2.88a.56.56,0,0,0-.49.22,1.25,1.25,0,0,0-.18.7h1.29v-.07a1.17,1.17,0,0,0-.17-.66A.53.53,0,0,0,118.5,47.2Z"/><path d="M121.65,47.3a.9.9,0,0,0-.24,0,.59.59,0,0,0-.58.44V50h-.53V46.8h.52v.33a.66.66,0,0,1,.61-.39.46.46,0,0,1,.21,0Z"/><path d="M123.17,49.22l.62-2.42h.55l-1,3.22H123l-1-3.22h.55Z"/><path d="M125.52,46a.31.31,0,0,1-.08.22.34.34,0,0,1-.46,0,.31.31,0,0,1-.07-.22.32.32,0,0,1,.07-.22.31.31,0,0,1,.46,0A.33.33,0,0,1,125.52,46Zm0,4.07h-.53V46.8h.53Z"/><path d="M127.46,49.63a.55.55,0,0,0,.42-.16.67.67,0,0,0,.18-.46h.51a1.14,1.14,0,0,1-.34.77,1.08,1.08,0,0,1-.77.3,1.15,1.15,0,0,1-.93-.38,1.65,1.65,0,0,1-.32-1.12v-.35a1.67,1.67,0,0,1,.32-1.11,1.14,1.14,0,0,1,.92-.38,1,1,0,0,1,.8.32,1.28,1.28,0,0,1,.32.85h-.51a.89.89,0,0,0-.17-.54.59.59,0,0,0-.44-.17.61.61,0,0,0-.53.23,1.37,1.37,0,0,0-.18.75v.41a1.48,1.48,0,0,0,.17.81A.66.66,0,0,0,127.46,49.63Z"/><path d="M130.36,50.08a1.21,1.21,0,0,1-.94-.36,1.55,1.55,0,0,1-.34-1v-.39a1.83,1.83,0,0,1,.32-1.13,1.09,1.09,0,0,1,.9-.41,1.06,1.06,0,0,1,.86.36,1.89,1.89,0,0,1,.29,1.13v.34h-1.83v.07a1.13,1.13,0,0,0,.2.76.72.72,0,0,0,.57.23.91.91,0,0,0,.41-.09.94.94,0,0,0,.34-.27l.28.33A1.23,1.23,0,0,1,130.36,50.08Zm-.06-2.88a.57.57,0,0,0-.5.22,1.34,1.34,0,0,0-.18.7h1.29v-.07a1.17,1.17,0,0,0-.17-.66A.5.5,0,0,0,130.3,47.2Z"/><path d="M136.35,48.64a1.53,1.53,0,0,1-.4,1.07,1.35,1.35,0,0,1-1,.37,1.27,1.27,0,0,1-1.05-.5,2.1,2.1,0,0,1-.39-1.34v-.78a2.06,2.06,0,0,1,.4-1.34,1.36,1.36,0,0,1,1.09-.49,1.28,1.28,0,0,1,1,.38,1.59,1.59,0,0,1,.38,1.07h-.56a1.33,1.33,0,0,0-.22-.75.75.75,0,0,0-.59-.23.79.79,0,0,0-.69.35,1.77,1.77,0,0,0-.24,1v.79a1.87,1.87,0,0,0,.22,1,.72.72,0,0,0,.66.35.83.83,0,0,0,.63-.21,1.36,1.36,0,0,0,.23-.76Z"/><rect class="cls-3" x="106.38" y="45.3" width="5" height="5.26"/><path class="cls-1" d="M111,45.63v4.59h-4.33V45.63H111m.67-.67H106v5.93h5.67V45Z"/><path d="M116.23,22.05a.67.67,0,0,0-.18-.5,1.94,1.94,0,0,0-.64-.33,2.84,2.84,0,0,1-.72-.35,1.19,1.19,0,0,1-.37-.41,1.11,1.11,0,0,1-.12-.52,1.12,1.12,0,0,1,.35-.85,1.28,1.28,0,0,1,.92-.33,1.33,1.33,0,0,1,.69.17,1.1,1.1,0,0,1,.46.47,1.35,1.35,0,0,1,.17.66h-.56a.92.92,0,0,0-.2-.62.74.74,0,0,0-.56-.22.7.7,0,0,0-.52.19.67.67,0,0,0-.19.52.59.59,0,0,0,.2.45,1.55,1.55,0,0,0,.62.33,2.23,2.23,0,0,1,.93.53,1.24,1.24,0,0,1-.07,1.65,1.36,1.36,0,0,1-1,.31,1.57,1.57,0,0,1-.71-.16,1.35,1.35,0,0,1-.51-.47,1.29,1.29,0,0,1-.19-.68h.56a.81.81,0,0,0,.23.62.85.85,0,0,0,.62.23.79.79,0,0,0,.56-.19A.68.68,0,0,0,116.23,22.05Z"/><path d="M118.62,23.2a1.19,1.19,0,0,1-.94-.36,1.52,1.52,0,0,1-.34-1.05v-.38a1.81,1.81,0,0,1,.32-1.13,1,1,0,0,1,.89-.41,1,1,0,0,1,.86.36,1.85,1.85,0,0,1,.3,1.12v.34h-1.84v.08a1.18,1.18,0,0,0,.2.75.72.72,0,0,0,.58.23.87.87,0,0,0,.75-.36l.28.33A1.23,1.23,0,0,1,118.62,23.2Zm-.07-2.88a.56.56,0,0,0-.49.22,1.28,1.28,0,0,0-.18.7h1.29v-.07a1.15,1.15,0,0,0-.17-.65A.54.54,0,0,0,118.55,20.32Z"/><path d="M121.7,20.42l-.24,0a.6.6,0,0,0-.58.44v2.3h-.53V19.93h.52v.32a.67.67,0,0,1,.61-.38.46.46,0,0,1,.21,0Z"/><path d="M123.22,22.34l.62-2.41h.55l-1,3.21H123l-1-3.21h.55Z"/><path d="M125.57,19.08a.35.35,0,0,1-.08.22.34.34,0,0,1-.46,0,.34.34,0,0,1-.07-.22.35.35,0,0,1,.07-.23.34.34,0,0,1,.46,0A.36.36,0,0,1,125.57,19.08Zm0,4.06H125V19.93h.53Z"/><path d="M127.51,22.75a.55.55,0,0,0,.42-.16.67.67,0,0,0,.18-.46h.51a1.12,1.12,0,0,1-.34.77,1.08,1.08,0,0,1-.77.3,1.14,1.14,0,0,1-.93-.37,1.66,1.66,0,0,1-.32-1.12v-.36a1.62,1.62,0,0,1,.32-1.1,1.11,1.11,0,0,1,.92-.38,1,1,0,0,1,.8.31,1.28,1.28,0,0,1,.32.85h-.51a.88.88,0,0,0-.17-.53.56.56,0,0,0-.44-.18.63.63,0,0,0-.53.23,1.41,1.41,0,0,0-.18.76v.41a1.44,1.44,0,0,0,.17.8A.63.63,0,0,0,127.51,22.75Z"/><path d="M130.41,23.2a1.21,1.21,0,0,1-.94-.36,1.52,1.52,0,0,1-.34-1.05v-.38a1.81,1.81,0,0,1,.32-1.13,1.06,1.06,0,0,1,.9-.41,1,1,0,0,1,.86.36,1.86,1.86,0,0,1,.29,1.12v.34h-1.83v.08a1.12,1.12,0,0,0,.2.75.69.69,0,0,0,.57.23,1.07,1.07,0,0,0,.41-.08,1,1,0,0,0,.34-.28l.28.33A1.23,1.23,0,0,1,130.41,23.2Zm-.06-2.88a.57.57,0,0,0-.5.22,1.28,1.28,0,0,0-.18.7H131v-.07a1.15,1.15,0,0,0-.17-.65A.5.5,0,0,0,130.35,20.32Z"/><path d="M135.69,22H134.2l-.34,1.13h-.57l1.42-4.32h.48l1.42,4.32H136Zm-1.34-.47h1.2l-.6-2Z"/><path class="cls-3" d="M111.87,20.34l-2.64-2.6a.4.4,0,0,0-.56,0L106,20.33a.38.38,0,0,0,0,.54l2.65,2.6a.41.41,0,0,0,.55,0l2.63-2.59A.36.36,0,0,0,111.87,20.34Z"/><rect class="cls-5" x="101.88" y="27.97" width="42" height="13.52"/><rect class="cls-5" x="101.88" y="41.48" width="42" height="13.52"/><line class="cls-4" x1="101.88" y1="41.48" x2="143.88" y2="41.48"/><line class="cls-4" x1="101.88" y1="27.97" x2="143.88" y2="27.97"/><path class="cls-2" d="M143.38.5V55h-41.5V.5h41.5m.5-.5h-42.5V55.5h42.5V0Z"/><line class="cls-6" x1="44.92" y1="34.73" x2="94.64" y2="34.73"/><polygon class="cls-2" points="93.91 37.22 98.23 34.73 93.91 32.23 93.91 37.22"/><path class="cls-2" d="M64.41,30.51h-.78v1.75h-.55V27.93h1.23a1.36,1.36,0,0,1,1,.33,1.53,1.53,0,0,1,.15,1.67,1.12,1.12,0,0,1-.51.45l.85,1.84v0H65.2ZM63.63,30h.68a.69.69,0,0,0,.55-.22.82.82,0,0,0,.21-.59c0-.55-.26-.83-.77-.83h-.67Z"/><path class="cls-2" d="M67.47,32.32a1.21,1.21,0,0,1-.94-.36,1.5,1.5,0,0,1-.33-1.05v-.39a1.75,1.75,0,0,1,.32-1.13,1.07,1.07,0,0,1,.89-.41,1,1,0,0,1,.86.36,1.81,1.81,0,0,1,.29,1.12v.35H66.73v.07a1.09,1.09,0,0,0,.2.75.69.69,0,0,0,.57.24.88.88,0,0,0,.41-.09.9.9,0,0,0,.34-.28l.28.34A1.21,1.21,0,0,1,67.47,32.32Zm-.06-2.88a.58.58,0,0,0-.5.22,1.44,1.44,0,0,0-.18.7H68v-.07a1.17,1.17,0,0,0-.17-.66A.5.5,0,0,0,67.41,29.44Z"/><path class="cls-2" d="M71.57,30.81a1.86,1.86,0,0,1-.28,1.13.94.94,0,0,1-.79.38.87.87,0,0,1-.76-.37v1.54H69.2V29h.49l0,.36a.86.86,0,0,1,.77-.42,1,1,0,0,1,.81.37,2,2,0,0,1,.27,1.1ZM71,30.5a1.47,1.47,0,0,0-.17-.79.63.63,0,0,0-.55-.26.63.63,0,0,0-.58.38V31.5a.63.63,0,0,0,.59.37.59.59,0,0,0,.53-.26,1.36,1.36,0,0,0,.18-.78Z"/><path class="cls-2" d="M72.84,32.26H72.3V27.69h.54Z"/><path class="cls-2" d="M74.31,28.19a.33.33,0,0,1-.08.22.34.34,0,0,1-.46,0,.32.32,0,0,1-.07-.22.37.37,0,0,1,.07-.23.29.29,0,0,1,.23-.09.26.26,0,0,1,.23.1A.33.33,0,0,1,74.31,28.19Zm0,4.07h-.53V29h.53Z"/><path class="cls-2" d="M76.24,31.87a.57.57,0,0,0,.43-.16.67.67,0,0,0,.18-.47h.5A1.07,1.07,0,0,1,77,32a1.06,1.06,0,0,1-.78.31,1.14,1.14,0,0,1-.92-.38A1.65,1.65,0,0,1,75,30.82v-.35a1.71,1.71,0,0,1,.31-1.11,1.16,1.16,0,0,1,.93-.38,1,1,0,0,1,.8.32,1.21,1.21,0,0,1,.31.85h-.5a.83.83,0,0,0-.18-.54.52.52,0,0,0-.43-.17.61.61,0,0,0-.53.23,1.37,1.37,0,0,0-.18.75v.41a1.42,1.42,0,0,0,.17.8A.63.63,0,0,0,76.24,31.87Z"/><path class="cls-2" d="M79.66,32.26a1.11,1.11,0,0,1-.07-.35.86.86,0,0,1-.73.41.91.91,0,0,1-.69-.25.9.9,0,0,1-.25-.69,1,1,0,0,1,.34-.78,1.38,1.38,0,0,1,.93-.29h.39V30a.53.53,0,0,0-.13-.41.58.58,0,0,0-.4-.12.52.52,0,0,0-.39.14.45.45,0,0,0-.15.35H78a.84.84,0,0,1,.15-.47,1,1,0,0,1,.4-.35,1.28,1.28,0,0,1,.56-.13,1.11,1.11,0,0,1,.77.25,1,1,0,0,1,.27.71v1.63a1.79,1.79,0,0,0,.1.64v0ZM79,31.84a.72.72,0,0,0,.37-.11.61.61,0,0,0,.26-.27V30.7h-.3a1,1,0,0,0-.6.17.51.51,0,0,0-.23.45.58.58,0,0,0,.12.4A.49.49,0,0,0,79,31.84Z"/><line class="cls-6" x1="44.92" y1="47.97" x2="94.64" y2="47.97"/><polygon class="cls-2" points="93.91 50.46 98.23 47.97 93.91 45.48 93.91 50.46"/><path class="cls-2" d="M64.41,43.75h-.78V45.5h-.55V41.17h1.23a1.34,1.34,0,0,1,1.14,2,1.25,1.25,0,0,1-.51.45l.85,1.83v0H65.2Zm-.78-.47h.68a.69.69,0,0,0,.55-.22.8.8,0,0,0,.21-.59c0-.55-.26-.83-.77-.83h-.67Z"/><path class="cls-2" d="M67.47,45.56a1.21,1.21,0,0,1-.94-.36,1.5,1.5,0,0,1-.33-1.05v-.39a1.77,1.77,0,0,1,.32-1.13,1.21,1.21,0,0,1,1.75-.05,1.84,1.84,0,0,1,.29,1.13v.34H66.73v.07a1.13,1.13,0,0,0,.2.76.72.72,0,0,0,.57.23.88.88,0,0,0,.41-.09.87.87,0,0,0,.34-.27l.28.33A1.21,1.21,0,0,1,67.47,45.56Zm-.06-2.88a.58.58,0,0,0-.5.22,1.44,1.44,0,0,0-.18.7H68v-.07a1.17,1.17,0,0,0-.17-.66A.5.5,0,0,0,67.41,42.68Z"/><path class="cls-2" d="M71.57,44.05a1.88,1.88,0,0,1-.28,1.14.93.93,0,0,1-.79.37.89.89,0,0,1-.76-.36v1.54H69.2V42.29h.49l0,.35a.85.85,0,0,1,.77-.41,1,1,0,0,1,.81.36,2,2,0,0,1,.27,1.11Zm-.53-.3a1.51,1.51,0,0,0-.17-.8.63.63,0,0,0-.55-.26.63.63,0,0,0-.58.38v1.67a.63.63,0,0,0,.59.37.57.57,0,0,0,.53-.26,1.36,1.36,0,0,0,.18-.78Z"/><path class="cls-2" d="M72.84,45.5H72.3V40.94h.54Z"/><path class="cls-2" d="M74.31,41.43a.36.36,0,0,1-.08.23.37.37,0,0,1-.46,0,.35.35,0,0,1-.07-.23.32.32,0,0,1,.07-.22.31.31,0,0,1,.46,0A.33.33,0,0,1,74.31,41.43Zm0,4.07h-.53V42.29h.53Z"/><path class="cls-2" d="M76.24,45.11a.57.57,0,0,0,.43-.16.67.67,0,0,0,.18-.46h.5a1.08,1.08,0,0,1-1.11,1.07,1.11,1.11,0,0,1-.92-.38A1.63,1.63,0,0,1,75,44.07v-.36a1.73,1.73,0,0,1,.31-1.11,1.16,1.16,0,0,1,.93-.37,1,1,0,0,1,.8.31,1.23,1.23,0,0,1,.31.85h-.5a.78.78,0,0,0-.18-.53.52.52,0,0,0-.43-.18.61.61,0,0,0-.53.23,1.37,1.37,0,0,0-.18.75v.41a1.48,1.48,0,0,0,.17.81A.65.65,0,0,0,76.24,45.11Z"/><path class="cls-2" d="M79.66,45.5a1.11,1.11,0,0,1-.07-.35.86.86,0,0,1-.73.41,1,1,0,0,1-.69-.24,1.07,1.07,0,0,1,.09-1.47,1.38,1.38,0,0,1,.93-.3h.39v-.34a.53.53,0,0,0-.13-.41.58.58,0,0,0-.4-.12.52.52,0,0,0-.39.14.46.46,0,0,0-.15.36H78a.82.82,0,0,1,.15-.47,1.07,1.07,0,0,1,.4-.36,1.28,1.28,0,0,1,.56-.12,1.11,1.11,0,0,1,.77.24,1,1,0,0,1,.27.72v1.62a1.76,1.76,0,0,0,.1.64v0ZM79,45.08a.64.64,0,0,0,.37-.11.65.65,0,0,0,.26-.26v-.77h-.3a1,1,0,0,0-.6.17.53.53,0,0,0-.23.45.56.56,0,0,0,.12.4A.49.49,0,0,0,79,45.08Z"/></svg>