<svg id="svg8" xmlns="http://www.w3.org/2000/svg" xmlns:xlink="http://www.w3.org/1999/xlink" viewBox="0 0 352.98 206.2"><defs><style>.cls-1,.cls-15,.cls-31,.cls-32,.cls-33,.cls-35,.cls-36,.cls-37,.cls-38,.cls-39,.cls-40,.cls-41,.cls-42,.cls-43,.cls-6{fill:none;}.cls-10,.cls-2,.cls-28,.cls-29,.cls-5{fill:#fff;}.cls-3{fill:#6c757e;}.cls-4{fill:#f05133;}.cls-5{opacity:0.75;}.cls-6{stroke:#6c757e;stroke-width:0.5px;}.cls-10,.cls-15,.cls-33,.cls-35,.cls-36,.cls-37,.cls-38,.cls-39,.cls-40,.cls-41,.cls-42,.cls-43,.cls-6{stroke-miterlimit:10;}.cls-7{clip-path:url(#clip-path);}.cls-8{fill:#e1e2e1;}.cls-9{fill:#333;}.cls-10,.cls-43{stroke:#333;}.cls-10{stroke-width:0.25px;}.cls-11{clip-path:url(#clip-path-2);}.cls-12{fill:#8dbf55;}.cls-13{clip-path:url(#clip-path-3);}.cls-14{fill:#48c7de;}.cls-15,.cls-32{stroke:#31adce;}.cls-15,.cls-31,.cls-32,.cls-33,.cls-41{stroke-width:1.5px;}.cls-16{fill:#c9781f;}.cls-17{fill:#f6d2a2;}.cls-18{fill:#c6b198;}.cls-19{fill:#37abc8;}.cls-20{fill:#077e91;}.cls-21{fill:#ef9325;}.cls-22{fill:#e5e5e5;}.cls-23{fill:#d2e261;}.cls-24{fill:#9b9b9b;}.cls-25{fill:#960000;}.cls-26{fill:#595959;}.cls-27{fill:#353535;}.cls-28{opacity:0.6;}.cls-28,.cls-29{isolation:isolate;}.cls-29{opacity:0.5;}.cls-30{clip-path:url(#clip-path-4);}.cls-31,.cls-41{stroke:#f05133;}.cls-33{stroke:#6c9b2f;}.cls-34{clip-path:url(#clip-path-5);}.cls-35,.cls-36,.cls-37,.cls-38,.cls-39,.cls-40,.cls-42{stroke:#949393;}.cls-36{stroke-dasharray:0.98 0.98;}.cls-37{stroke-dasharray:1 1;}.cls-38{stroke-dasharray:1.01 1.01;}.cls-39{stroke-dasharray:0.97 0.97;}.cls-40{stroke-dasharray:0.98 0.98;}.cls-42{stroke-dasharray:0.98 0.98;}.cls-43{stroke-width:1.2px;stroke-dasharray:3.61 3.61;}</style><clipPath id="clip-path"><rect class="cls-1" x="0.38" y="0.38" width="94.89" height="59.24" rx="4.29"/></clipPath><clipPath id="clip-path-2"><rect class="cls-1" x="0.38" y="73.48" width="94.89" height="59.24" rx="4.29"/></clipPath><clipPath id="clip-path-3"><rect class="cls-1" x="0.38" y="146.58" width="94.89" height="59.24" rx="4.29"/></clipPath><clipPath id="clip-path-4"><rect class="cls-1" x="103.57" y="0.01" width="70" height="206"/></clipPath><clipPath id="clip-path-5"><rect class="cls-1" x="229.57" y="0.01" width="74" height="206"/></clipPath><symbol id="master-branch" data-name="master-branch" viewBox="0 0 42.5 55.5"><rect class="cls-2" width="42" height="55"/><rect class="cls-3" width="42" height="14.45"/><path class="cls-2" d="M10,3.41,11.68,8.7l1.73-5.29h1.07V9.89h-.83V7.37l.08-2.53L12,9.89h-.64l-1.72-5,.07,2.51V9.89H8.88V3.41Z"/><path class="cls-2" d="M18.33,9.89a1.8,1.8,0,0,1-.11-.52,1.26,1.26,0,0,1-1.09.61,1.45,1.45,0,0,1-1-.36,1.39,1.39,0,0,1-.37-1,1.48,1.48,0,0,1,.5-1.17A2.15,2.15,0,0,1,17.62,7h.59V6.46a.8.8,0,0,0-.2-.62,1,1,0,0,0-1.18,0,.71.71,0,0,0-.23.54h-.8A1.26,1.26,0,0,1,16,5.7a1.52,1.52,0,0,1,.6-.52,1.8,1.8,0,0,1,.84-.2,1.65,1.65,0,0,1,1.15.37A1.45,1.45,0,0,1,19,6.42V8.86a2.76,2.76,0,0,0,.15,1v.07Zm-1.07-.62a1.16,1.16,0,0,0,.56-.16,1,1,0,0,0,.39-.4V7.56h-.45a1.51,1.51,0,0,0-.91.25.8.8,0,0,0-.33.68.87.87,0,0,0,.17.59A.71.71,0,0,0,17.26,9.27Z"/><path class="cls-2" d="M22.64,8.66a.59.59,0,0,0-.19-.44,2.89,2.89,0,0,0-.75-.42,5.6,5.6,0,0,1-.92-.45,1.34,1.34,0,0,1-.4-.43,1.14,1.14,0,0,1-.13-.57,1.27,1.27,0,0,1,.44-1,1.81,1.81,0,0,1,2.27,0,1.41,1.41,0,0,1,.44,1.06h-.8a.76.76,0,0,0-.22-.56.78.78,0,0,0-.57-.23.82.82,0,0,0-.56.18.63.63,0,0,0-.2.48.53.53,0,0,0,.15.39,2.51,2.51,0,0,0,.71.39,3.62,3.62,0,0,1,1.22.67,1.15,1.15,0,0,1,.32.83,1.27,1.27,0,0,1-.44,1,1.77,1.77,0,0,1-1.18.37,1.79,1.79,0,0,1-1.25-.43,1.4,1.4,0,0,1-.47-1.09h.8a.83.83,0,0,0,.92.85.92.92,0,0,0,.61-.18A.56.56,0,0,0,22.64,8.66Z"/><path class="cls-2" d="M25.55,3.91V5.07h.74v.64h-.74v3a.88.88,0,0,0,.09.44.37.37,0,0,0,.33.14.89.89,0,0,0,.32,0V9.9a2,2,0,0,1-.55.08A.86.86,0,0,1,25,9.65a1.52,1.52,0,0,1-.25-.94v-3H24V5.07h.75V3.91Z"/><path class="cls-2" d="M29,10a1.85,1.85,0,0,1-1.41-.53,2.32,2.32,0,0,1-.5-1.58V7.29a2.67,2.67,0,0,1,.48-1.69A1.61,1.61,0,0,1,28.91,5a1.53,1.53,0,0,1,1.29.54,2.79,2.79,0,0,1,.44,1.68v.52H27.89v.11A1.74,1.74,0,0,0,28.19,9a1.07,1.07,0,0,0,.86.35,1.38,1.38,0,0,0,.62-.13,1.63,1.63,0,0,0,.51-.42l.42.5A1.86,1.86,0,0,1,29,10Zm-.09-4.32a.84.84,0,0,0-.74.34,1.94,1.94,0,0,0-.27,1h1.93v-.1a1.76,1.76,0,0,0-.25-1A.78.78,0,0,0,28.91,5.66Z"/><path class="cls-2" d="M33.63,5.81a2,2,0,0,0-.36,0,.89.89,0,0,0-.87.67V9.89h-.8V5.07h.78v.49A1,1,0,0,1,33.31,5a.63.63,0,0,1,.32.07Z"/><rect class="cls-2" y="14.45" width="42" height="13.52"/><rect class="cls-2" y="27.97" width="42" height="13.52"/><rect class="cls-2" y="41.48" width="42" height="13.52"/><path d="M14.71,35.79a.64.64,0,0,0-.18-.49,1.73,1.73,0,0,0-.65-.34,3,3,0,0,1-.71-.34,1.29,1.29,0,0,1-.37-.41A1.22,1.22,0,0,1,13,32.83,1.28,1.28,0,0,1,14,32.5a1.47,1.47,0,0,1,.69.17,1.22,1.22,0,0,1,.46.47,1.42,1.42,0,0,1,.17.67h-.56a.89.89,0,0,0-.2-.62A.7.7,0,0,0,14,33a.74.74,0,0,0-.53.18.73.73,0,0,0-.18.52.61.61,0,0,0,.2.46,1.85,1.85,0,0,0,.62.33A2.13,2.13,0,0,1,15,35a1.16,1.16,0,0,1,.28.81,1.09,1.09,0,0,1-.35.84A1.36,1.36,0,0,1,14,37a1.58,1.58,0,0,1-.71-.17,1.2,1.2,0,0,1-.51-.46,1.23,1.23,0,0,1-.19-.69h.56a.85.85,0,0,0,.23.63.84.84,0,0,0,.62.22.74.74,0,0,0,.55-.18A.67.67,0,0,0,14.71,35.79Z"/><path d="M17.09,37a1.22,1.22,0,0,1-.94-.36,1.55,1.55,0,0,1-.33-1.05v-.39A1.81,1.81,0,0,1,16.14,34a1.07,1.07,0,0,1,.89-.41,1,1,0,0,1,.86.36,1.81,1.81,0,0,1,.29,1.12v.35H16.35v.07a1.14,1.14,0,0,0,.2.75.7.7,0,0,0,.57.24.93.93,0,0,0,.42-.09,1.08,1.08,0,0,0,.34-.28l.28.34A1.24,1.24,0,0,1,17.09,37ZM17,34.07a.56.56,0,0,0-.49.22,1.25,1.25,0,0,0-.18.7h1.29v-.07a1.25,1.25,0,0,0-.17-.66A.53.53,0,0,0,17,34.07Z"/><path d="M20.18,34.17a.9.9,0,0,0-.24,0,.58.58,0,0,0-.58.44v2.3h-.53V33.67h.52V34a.66.66,0,0,1,.61-.39.46.46,0,0,1,.21,0Z"/><path d="M21.7,36.09l.62-2.42h.55l-1,3.22h-.4l-1-3.22h.54Z"/><path d="M24.05,32.82A.33.33,0,0,1,24,33a.34.34,0,0,1-.46,0,.32.32,0,0,1-.07-.22.37.37,0,0,1,.07-.23.29.29,0,0,1,.23-.09.26.26,0,0,1,.23.1A.33.33,0,0,1,24.05,32.82ZM24,36.89h-.53V33.67H24Z"/><path d="M26,36.5a.57.57,0,0,0,.43-.16.67.67,0,0,0,.18-.46h.5a1.07,1.07,0,0,1-.33.76A1.06,1.06,0,0,1,26,37a1.14,1.14,0,0,1-.92-.38,1.65,1.65,0,0,1-.32-1.12V35.1A1.71,1.71,0,0,1,25.05,34a1.18,1.18,0,0,1,.93-.38,1,1,0,0,1,.8.32,1.21,1.21,0,0,1,.31.85h-.5a.83.83,0,0,0-.18-.54.52.52,0,0,0-.43-.17.61.61,0,0,0-.53.23,1.37,1.37,0,0,0-.18.75v.41a1.42,1.42,0,0,0,.17.8A.63.63,0,0,0,26,36.5Z"/><path d="M28.89,37a1.19,1.19,0,0,1-.94-.36,1.55,1.55,0,0,1-.34-1.05v-.39A1.81,1.81,0,0,1,27.93,34a1.08,1.08,0,0,1,.89-.41,1,1,0,0,1,.87.36A1.88,1.88,0,0,1,30,35.09v.35H28.15v.07a1.15,1.15,0,0,0,.19.75.73.73,0,0,0,.58.24.91.91,0,0,0,.41-.09,1,1,0,0,0,.34-.28l.28.34A1.23,1.23,0,0,1,28.89,37Zm-.07-2.88a.56.56,0,0,0-.49.22,1.25,1.25,0,0,0-.18.7h1.29v-.07a1.17,1.17,0,0,0-.17-.66A.53.53,0,0,0,28.82,34.07Z"/><path d="M32.12,36.89V32.56h1.25a1.27,1.27,0,0,1,.91.29,1.14,1.14,0,0,1,.3.86,1,1,0,0,1-.15.54,1.06,1.06,0,0,1-.42.36.83.83,0,0,1,.48.36,1.22,1.22,0,0,1,.18.67,1.26,1.26,0,0,1-.33.92,1.22,1.22,0,0,1-.92.33Zm.55-2.48h.71a.65.65,0,0,0,.47-.19.72.72,0,0,0,.17-.51.7.7,0,0,0-.16-.52.64.64,0,0,0-.49-.16h-.7Zm0,.45v1.56h.76a.67.67,0,0,0,.5-.2.85.85,0,0,0,.18-.57c0-.53-.22-.79-.67-.79Z"/><path class="cls-4" d="M7.31,37.39a3.06,3.06,0,1,1,.05,0Z"/><path class="cls-2" d="M7.36,31.7A2.64,2.64,0,0,1,10,34.33v0A2.64,2.64,0,0,1,7.36,37H7.31a2.65,2.65,0,0,1-2.63-2.63v0A2.65,2.65,0,0,1,7.31,31.7h.05m0-.79H7.31a3.44,3.44,0,0,0,0,6.88h.05a3.44,3.44,0,0,0,0-6.88Z"/><path d="M14.3,48.93a.67.67,0,0,0-.18-.5,1.92,1.92,0,0,0-.64-.34,2.7,2.7,0,0,1-.72-.34,1.3,1.3,0,0,1-.37-.41A1.2,1.2,0,0,1,12.62,46a1.29,1.29,0,0,1,.92-.34,1.41,1.41,0,0,1,.69.17,1.21,1.21,0,0,1,.47.48,1.46,1.46,0,0,1,.16.66H14.3a.86.86,0,0,0-.2-.62.7.7,0,0,0-.56-.22.67.67,0,0,0-.52.19.66.66,0,0,0-.19.51.6.6,0,0,0,.2.46,1.78,1.78,0,0,0,.62.33,2.23,2.23,0,0,1,.93.52,1.16,1.16,0,0,1,.28.81,1.05,1.05,0,0,1-.35.84,1.35,1.35,0,0,1-.94.32,1.58,1.58,0,0,1-.72-.16,1.44,1.44,0,0,1-.51-.47,1.3,1.3,0,0,1-.18-.68h.55a.78.78,0,0,0,.86.84.78.78,0,0,0,.55-.18A.68.68,0,0,0,14.3,48.93Z"/><path d="M16.69,50.08a1.19,1.19,0,0,1-.94-.36,1.55,1.55,0,0,1-.34-1v-.39a1.83,1.83,0,0,1,.32-1.13,1.22,1.22,0,0,1,1.76,0,1.89,1.89,0,0,1,.29,1.13v.34H16v.07a1.13,1.13,0,0,0,.2.76.72.72,0,0,0,.57.23.91.91,0,0,0,.41-.09.94.94,0,0,0,.34-.27l.28.33A1.23,1.23,0,0,1,16.69,50.08Zm-.07-2.88a.56.56,0,0,0-.49.22,1.25,1.25,0,0,0-.18.7h1.29v-.07a1.17,1.17,0,0,0-.17-.66A.52.52,0,0,0,16.62,47.2Z"/><path d="M19.77,47.3a.9.9,0,0,0-.24,0,.58.58,0,0,0-.57.44V50h-.54V46.8h.52v.33a.66.66,0,0,1,.61-.38.46.46,0,0,1,.21,0Z"/><path d="M21.29,49.22l.62-2.42h.55l-1,3.22h-.4l-1-3.22h.55Z"/><path d="M23.64,46a.31.31,0,0,1-.08.22.27.27,0,0,1-.23.09.27.27,0,0,1-.22-.09A.27.27,0,0,1,23,46a.29.29,0,0,1,.08-.22.27.27,0,0,1,.22-.1.29.29,0,0,1,.23.1A.33.33,0,0,1,23.64,46Zm0,4.07h-.54V46.8h.54Z"/><path d="M25.58,49.63a.55.55,0,0,0,.42-.16.67.67,0,0,0,.18-.46h.51a1.14,1.14,0,0,1-.34.77,1.08,1.08,0,0,1-.77.3,1.12,1.12,0,0,1-.93-.38,1.7,1.7,0,0,1-.32-1.12v-.35a1.73,1.73,0,0,1,.32-1.11,1.14,1.14,0,0,1,.92-.37,1,1,0,0,1,.8.31,1.28,1.28,0,0,1,.32.85h-.51a.83.83,0,0,0-.17-.53.56.56,0,0,0-.44-.18.62.62,0,0,0-.53.23,1.3,1.3,0,0,0-.17.75v.41a1.39,1.39,0,0,0,.17.81A.63.63,0,0,0,25.58,49.63Z"/><path d="M28.48,50.08a1.21,1.21,0,0,1-.94-.36,1.5,1.5,0,0,1-.33-1v-.39a1.77,1.77,0,0,1,.32-1.13,1.21,1.21,0,0,1,1.75,0,1.82,1.82,0,0,1,.29,1.13v.34H27.74v.07a1.13,1.13,0,0,0,.2.76.72.72,0,0,0,.57.23.88.88,0,0,0,.41-.09.94.94,0,0,0,.34-.27l.28.33A1.21,1.21,0,0,1,28.48,50.08Zm-.06-2.88a.58.58,0,0,0-.5.22,1.44,1.44,0,0,0-.18.7H29v-.07a1.17,1.17,0,0,0-.17-.66A.5.5,0,0,0,28.42,47.2Z"/><path d="M34.47,48.64a1.58,1.58,0,0,1-.39,1.07,1.38,1.38,0,0,1-1,.37,1.24,1.24,0,0,1-1-.5,2.1,2.1,0,0,1-.39-1.34v-.78a2.06,2.06,0,0,1,.4-1.34,1.36,1.36,0,0,1,1.1-.49,1.27,1.27,0,0,1,1,.38,1.54,1.54,0,0,1,.38,1.07h-.56a1.33,1.33,0,0,0-.22-.75.72.72,0,0,0-.58-.23.8.8,0,0,0-.7.35,1.77,1.77,0,0,0-.24,1v.79a1.87,1.87,0,0,0,.22,1,.72.72,0,0,0,.66.35.83.83,0,0,0,.63-.21,1.28,1.28,0,0,0,.23-.76Z"/><rect class="cls-4" x="4.5" y="45.3" width="5" height="5.26"/><path class="cls-2" d="M9.16,45.63v4.59H4.83V45.63H9.16M9.83,45H4.16v5.93H9.83V45Z"/><path d="M14.35,22.05a.67.67,0,0,0-.18-.5,1.94,1.94,0,0,0-.64-.33,3,3,0,0,1-.72-.35,1.3,1.3,0,0,1-.37-.41,1.11,1.11,0,0,1-.12-.52,1.12,1.12,0,0,1,.35-.85,1.28,1.28,0,0,1,.92-.33,1.31,1.31,0,0,1,.69.17,1.18,1.18,0,0,1,.47.47,1.46,1.46,0,0,1,.16.66h-.56a.87.87,0,0,0-.2-.62.74.74,0,0,0-.56-.22.7.7,0,0,0-.52.19.67.67,0,0,0-.19.52.59.59,0,0,0,.2.45,1.55,1.55,0,0,0,.62.33,2.23,2.23,0,0,1,.93.53,1.12,1.12,0,0,1,.28.8,1.07,1.07,0,0,1-.35.85,1.35,1.35,0,0,1-.94.31A1.58,1.58,0,0,1,12.9,23a1.35,1.35,0,0,1-.51-.47,1.25,1.25,0,0,1-.18-.68h.55a.81.81,0,0,0,.23.62.85.85,0,0,0,.63.23.78.78,0,0,0,.55-.19A.68.68,0,0,0,14.35,22.05Z"/><path d="M16.74,23.2a1.19,1.19,0,0,1-.94-.36,1.52,1.52,0,0,1-.34-1.05v-.38a1.81,1.81,0,0,1,.32-1.13,1.06,1.06,0,0,1,.89-.41,1,1,0,0,1,.87.36,1.86,1.86,0,0,1,.29,1.12v.34H16v.08a1.12,1.12,0,0,0,.2.75.69.69,0,0,0,.57.23,1.07,1.07,0,0,0,.41-.08,1,1,0,0,0,.34-.28l.28.33A1.23,1.23,0,0,1,16.74,23.2Zm-.07-2.88a.56.56,0,0,0-.49.22,1.28,1.28,0,0,0-.18.7h1.29v-.07a1.15,1.15,0,0,0-.17-.65A.52.52,0,0,0,16.67,20.32Z"/><path d="M19.82,20.42l-.24,0a.59.59,0,0,0-.57.44v2.3h-.54V19.93H19v.32a.68.68,0,0,1,.61-.38.46.46,0,0,1,.21,0Z"/><path d="M21.34,22.34,22,19.93h.55l-1,3.21h-.4l-1-3.21h.55Z"/><path d="M23.69,19.08a.35.35,0,0,1-.08.22.27.27,0,0,1-.23.09.27.27,0,0,1-.22-.09.3.3,0,0,1-.08-.22.31.31,0,0,1,.08-.23.27.27,0,0,1,.22-.09.29.29,0,0,1,.23.09A.36.36,0,0,1,23.69,19.08Zm0,4.06h-.54V19.93h.54Z"/><path d="M25.63,22.75a.55.55,0,0,0,.42-.16.67.67,0,0,0,.18-.46h.51a1.12,1.12,0,0,1-.34.77,1.08,1.08,0,0,1-.77.3,1.14,1.14,0,0,1-.93-.37,1.72,1.72,0,0,1-.32-1.12v-.36a1.68,1.68,0,0,1,.32-1.1,1.14,1.14,0,0,1,.92-.38,1,1,0,0,1,.8.31,1.28,1.28,0,0,1,.32.85h-.51a.88.88,0,0,0-.17-.53.56.56,0,0,0-.44-.18.65.65,0,0,0-.53.23,1.33,1.33,0,0,0-.17.76v.41a1.36,1.36,0,0,0,.17.8A.6.6,0,0,0,25.63,22.75Z"/><path d="M28.53,23.2a1.21,1.21,0,0,1-.94-.36,1.52,1.52,0,0,1-.34-1.05v-.38a1.75,1.75,0,0,1,.33-1.13,1.19,1.19,0,0,1,1.75-.05,1.79,1.79,0,0,1,.29,1.12v.34H27.79v.08a1.12,1.12,0,0,0,.2.75.69.69,0,0,0,.57.23,1,1,0,0,0,.41-.08,1,1,0,0,0,.34-.28l.28.33A1.23,1.23,0,0,1,28.53,23.2Zm-.06-2.88a.58.58,0,0,0-.5.22,1.48,1.48,0,0,0-.18.7h1.29v-.07a1.15,1.15,0,0,0-.17-.65A.5.5,0,0,0,28.47,20.32Z"/><path d="M33.82,22h-1.5L32,23.14h-.57l1.42-4.32h.48l1.42,4.32h-.57Zm-1.35-.47h1.2l-.6-2Z"/><path class="cls-4" d="M10,20.34l-2.64-2.6a.4.4,0,0,0-.56,0L4.16,20.33a.38.38,0,0,0,0,.54l2.65,2.6a.41.41,0,0,0,.55,0L10,20.88A.36.36,0,0,0,10,20.34Z"/><line class="cls-6" y1="27.97" x2="42" y2="27.97"/><line class="cls-6" y1="41.48" x2="42" y2="41.48"/><path class="cls-3" d="M42,.5V55H.5V.5H42m.5-.5H0V55.5H42.5V0Z"/></symbol><symbol id="feature-branch" data-name="feature-branch" viewBox="0 0 42.5 55.5"><rect class="cls-2" x="0.5" width="42" height="55"/><rect class="cls-3" x="0.5" width="42" height="14.45"/><path class="cls-2" d="M7.67,7H5.44V9.89H4.61V3.41H8.05v.7H5.44V6.33H7.67Z"/><path class="cls-2" d="M10.72,10a1.85,1.85,0,0,1-1.41-.53,2.32,2.32,0,0,1-.49-1.58V7.29A2.67,2.67,0,0,1,9.29,5.6,1.61,1.61,0,0,1,10.63,5a1.53,1.53,0,0,1,1.29.54,2.72,2.72,0,0,1,.44,1.68v.52H9.61v.11A1.74,1.74,0,0,0,9.91,9a1.09,1.09,0,0,0,.86.35,1.38,1.38,0,0,0,.62-.13,1.63,1.63,0,0,0,.51-.42l.42.5A1.85,1.85,0,0,1,10.72,10Zm-.09-4.32A.84.84,0,0,0,9.89,6a1.94,1.94,0,0,0-.27,1h1.93v-.1a1.76,1.76,0,0,0-.25-1A.77.77,0,0,0,10.63,5.66Z"/><path class="cls-2" d="M15.85,9.89a1.56,1.56,0,0,1-.1-.52,1.29,1.29,0,0,1-1.09.61,1.45,1.45,0,0,1-1.05-.36,1.39,1.39,0,0,1-.37-1,1.46,1.46,0,0,1,.51-1.17A2.12,2.12,0,0,1,15.14,7h.59V6.46a.84.84,0,0,0-.19-.62.86.86,0,0,0-.6-.18.84.84,0,0,0-.59.21.7.7,0,0,0-.22.54h-.81a1.34,1.34,0,0,1,.22-.71,1.52,1.52,0,0,1,.6-.52A1.83,1.83,0,0,1,15,5a1.64,1.64,0,0,1,1.15.37,1.41,1.41,0,0,1,.4,1.07V8.86a3,3,0,0,0,.16,1v.07Zm-1.07-.62a1.13,1.13,0,0,0,.56-.16,1,1,0,0,0,.39-.4V7.56h-.45a1.56,1.56,0,0,0-.91.25.8.8,0,0,0-.33.68.87.87,0,0,0,.17.59A.71.71,0,0,0,14.78,9.27Z"/><path class="cls-2" d="M18.83,3.91V5.07h.74v.64h-.74v3a.78.78,0,0,0,.1.44.34.34,0,0,0,.32.14,1,1,0,0,0,.33,0V9.9A2.1,2.1,0,0,1,19,10a.86.86,0,0,1-.73-.33A1.59,1.59,0,0,1,18,8.71v-3h-.75V5.07H18V3.91Z"/><path class="cls-2" d="M23,9.47a1.41,1.41,0,0,1-1.17.51,1.19,1.19,0,0,1-1-.45,2.21,2.21,0,0,1-.35-1.32V5.07h.8V8.16c0,.75.23,1.12.69,1.12a1,1,0,0,0,1-.64V5.07h.81V9.89h-.77Z"/><path class="cls-2" d="M27.06,5.81a2.22,2.22,0,0,0-.37,0,.87.87,0,0,0-.86.67V9.89H25V5.07h.78v.49A1,1,0,0,1,26.73,5a.61.61,0,0,1,.32.07Z"/><path class="cls-2" d="M29.61,10a1.81,1.81,0,0,1-1.4-.53,2.27,2.27,0,0,1-.5-1.58V7.29a2.74,2.74,0,0,1,.47-1.69A1.61,1.61,0,0,1,29.52,5a1.53,1.53,0,0,1,1.29.54,2.72,2.72,0,0,1,.44,1.68v.52H28.5v.11A1.74,1.74,0,0,0,28.8,9a1.09,1.09,0,0,0,.86.35,1.35,1.35,0,0,0,.62-.13,1.63,1.63,0,0,0,.51-.42l.42.5A1.85,1.85,0,0,1,29.61,10Zm-.09-4.32a.84.84,0,0,0-.74.34,1.94,1.94,0,0,0-.27,1h1.94v-.1a1.83,1.83,0,0,0-.26-1A.77.77,0,0,0,29.52,5.66Z"/><path class="cls-2" d="M37.54,8.2H35.31l-.52,1.69h-.85l2.13-6.48h.71l2.14,6.48h-.86Zm-2-.7h1.8l-.91-2.95Z"/><rect class="cls-2" x="0.5" y="14.45" width="42" height="13.52"/><path d="M15.21,35.79A.64.64,0,0,0,15,35.3a1.73,1.73,0,0,0-.65-.34,3,3,0,0,1-.71-.34,1.29,1.29,0,0,1-.37-.41,1.22,1.22,0,0,1,.23-1.38,1.28,1.28,0,0,1,.92-.33,1.47,1.47,0,0,1,.69.17,1.22,1.22,0,0,1,.46.47,1.42,1.42,0,0,1,.17.67h-.56a.89.89,0,0,0-.2-.62.7.7,0,0,0-.56-.22.74.74,0,0,0-.53.18.73.73,0,0,0-.18.52.61.61,0,0,0,.2.46,1.85,1.85,0,0,0,.62.33,2.13,2.13,0,0,1,.93.52,1.16,1.16,0,0,1,.28.81,1.09,1.09,0,0,1-.35.84,1.36,1.36,0,0,1-.95.32,1.58,1.58,0,0,1-.71-.17,1.2,1.2,0,0,1-.51-.46,1.23,1.23,0,0,1-.19-.69h.56a.85.85,0,0,0,.23.63.84.84,0,0,0,.62.22A.74.74,0,0,0,15,36.3.67.67,0,0,0,15.21,35.79Z"/><path d="M17.59,37a1.22,1.22,0,0,1-.94-.36,1.55,1.55,0,0,1-.33-1.05v-.39A1.81,1.81,0,0,1,16.64,34a1.07,1.07,0,0,1,.89-.41,1,1,0,0,1,.86.36,1.81,1.81,0,0,1,.29,1.12v.35H16.85v.07a1.14,1.14,0,0,0,.2.75.69.69,0,0,0,.57.24.93.93,0,0,0,.42-.09,1.08,1.08,0,0,0,.34-.28l.28.34A1.24,1.24,0,0,1,17.59,37Zm-.06-2.88a.56.56,0,0,0-.49.22,1.25,1.25,0,0,0-.18.7h1.29v-.07a1.25,1.25,0,0,0-.17-.66A.53.53,0,0,0,17.53,34.07Z"/><path d="M20.68,34.17a.9.9,0,0,0-.24,0,.58.58,0,0,0-.58.44v2.3h-.53V33.67h.52V34a.66.66,0,0,1,.61-.39.46.46,0,0,1,.21,0Z"/><path d="M22.2,36.09l.62-2.42h.55l-1,3.22H22l-1-3.22h.54Z"/><path d="M24.55,32.82a.33.33,0,0,1-.08.22A.34.34,0,0,1,24,33a.32.32,0,0,1-.07-.22.37.37,0,0,1,.07-.23.29.29,0,0,1,.23-.09.26.26,0,0,1,.23.1A.33.33,0,0,1,24.55,32.82Zm-.05,4.07H24V33.67h.53Z"/><path d="M26.48,36.5a.57.57,0,0,0,.43-.16.67.67,0,0,0,.18-.47h.5a1.07,1.07,0,0,1-.33.77,1.06,1.06,0,0,1-.78.31,1.14,1.14,0,0,1-.92-.38,1.65,1.65,0,0,1-.32-1.12V35.1A1.71,1.71,0,0,1,25.55,34a1.18,1.18,0,0,1,.93-.38,1,1,0,0,1,.8.32,1.21,1.21,0,0,1,.31.85h-.5a.83.83,0,0,0-.18-.54.52.52,0,0,0-.43-.17.61.61,0,0,0-.53.23,1.37,1.37,0,0,0-.18.75v.41a1.42,1.42,0,0,0,.17.8A.63.63,0,0,0,26.48,36.5Z"/><path d="M29.39,37a1.19,1.19,0,0,1-.94-.36,1.55,1.55,0,0,1-.34-1.05v-.39A1.81,1.81,0,0,1,28.43,34a1.08,1.08,0,0,1,.89-.41,1,1,0,0,1,.87.36,2,2,0,0,1,.29,1.12v.35H28.65v.07a1.15,1.15,0,0,0,.19.75.73.73,0,0,0,.58.24.91.91,0,0,0,.41-.09,1,1,0,0,0,.34-.28l.28.34A1.23,1.23,0,0,1,29.39,37Zm-.07-2.88a.56.56,0,0,0-.49.22,1.25,1.25,0,0,0-.18.7h1.29v-.07a1.17,1.17,0,0,0-.17-.66A.53.53,0,0,0,29.32,34.07Z"/><path d="M32.62,36.89V32.56h1.25a1.27,1.27,0,0,1,.91.29,1.14,1.14,0,0,1,.3.86,1,1,0,0,1-.15.54,1.06,1.06,0,0,1-.42.36A.86.86,0,0,1,35,35a1.22,1.22,0,0,1,.18.67,1.26,1.26,0,0,1-.33.92,1.22,1.22,0,0,1-.92.33Zm.55-2.48h.71a.65.65,0,0,0,.47-.19.72.72,0,0,0,.17-.51.7.7,0,0,0-.16-.52.64.64,0,0,0-.49-.16h-.7Zm0,.45v1.56h.76a.67.67,0,0,0,.5-.2.85.85,0,0,0,.18-.57c0-.53-.22-.79-.67-.79Z"/><path class="cls-4" d="M7.81,37.39a3.06,3.06,0,1,1,.05,0Z"/><path class="cls-2" d="M7.86,31.7a2.64,2.64,0,0,1,2.63,2.63v0A2.64,2.64,0,0,1,7.86,37H7.81a2.65,2.65,0,0,1-2.63-2.63v0A2.65,2.65,0,0,1,7.81,31.7h.05m0-.79H7.81a3.44,3.44,0,0,0,0,6.88h.05a3.44,3.44,0,0,0,0-6.88Z"/><path d="M14.8,48.93a.67.67,0,0,0-.18-.5,1.92,1.92,0,0,0-.64-.34,2.7,2.7,0,0,1-.72-.34,1.3,1.3,0,0,1-.37-.41A1.2,1.2,0,0,1,13.12,46a1.29,1.29,0,0,1,.92-.34,1.41,1.41,0,0,1,.69.17,1.21,1.21,0,0,1,.47.48,1.46,1.46,0,0,1,.16.66H14.8a.86.86,0,0,0-.2-.62A.7.7,0,0,0,14,46.1a.67.67,0,0,0-.52.19.66.66,0,0,0-.19.51.6.6,0,0,0,.2.46,1.78,1.78,0,0,0,.62.33,2.23,2.23,0,0,1,.93.52,1.16,1.16,0,0,1,.28.81,1.05,1.05,0,0,1-.35.84,1.35,1.35,0,0,1-.94.32,1.58,1.58,0,0,1-.72-.16,1.44,1.44,0,0,1-.51-.47,1.3,1.3,0,0,1-.18-.68h.55a.78.78,0,0,0,.86.84.78.78,0,0,0,.55-.18A.68.68,0,0,0,14.8,48.93Z"/><path d="M17.19,50.08a1.19,1.19,0,0,1-.94-.36,1.55,1.55,0,0,1-.34-1v-.39a1.83,1.83,0,0,1,.32-1.13,1.22,1.22,0,0,1,1.76,0,1.89,1.89,0,0,1,.29,1.13v.34H16.45v.07a1.13,1.13,0,0,0,.2.76.72.72,0,0,0,.57.23.91.91,0,0,0,.41-.09.94.94,0,0,0,.34-.27l.28.33A1.23,1.23,0,0,1,17.19,50.08Zm-.07-2.88a.56.56,0,0,0-.49.22,1.25,1.25,0,0,0-.18.7h1.29v-.07a1.17,1.17,0,0,0-.17-.66A.52.52,0,0,0,17.12,47.2Z"/><path d="M20.27,47.3a.9.9,0,0,0-.24,0,.58.58,0,0,0-.57.44V50h-.54V46.8h.52v.33a.66.66,0,0,1,.61-.38.46.46,0,0,1,.21,0Z"/><path d="M21.79,49.22l.62-2.42H23L22,50h-.4l-1-3.22h.55Z"/><path d="M24.14,46a.31.31,0,0,1-.08.22.27.27,0,0,1-.23.09.27.27,0,0,1-.22-.09.27.27,0,0,1-.08-.22.29.29,0,0,1,.08-.22.27.27,0,0,1,.22-.1.29.29,0,0,1,.23.1A.33.33,0,0,1,24.14,46Zm0,4.07h-.54V46.8h.54Z"/><path d="M26.08,49.63a.55.55,0,0,0,.42-.16.67.67,0,0,0,.18-.46h.51a1.14,1.14,0,0,1-.34.77,1.08,1.08,0,0,1-.77.3,1.12,1.12,0,0,1-.93-.38,1.7,1.7,0,0,1-.32-1.12v-.35a1.73,1.73,0,0,1,.32-1.11,1.14,1.14,0,0,1,.92-.37,1,1,0,0,1,.8.31,1.28,1.28,0,0,1,.32.85h-.51a.89.89,0,0,0-.17-.54.59.59,0,0,0-.44-.17.62.62,0,0,0-.53.23,1.3,1.3,0,0,0-.17.75v.41a1.39,1.39,0,0,0,.17.81A.63.63,0,0,0,26.08,49.63Z"/><path d="M29,50.08a1.21,1.21,0,0,1-.94-.36,1.5,1.5,0,0,1-.33-1v-.39A1.77,1.77,0,0,1,28,47.15a1.21,1.21,0,0,1,1.75,0,1.82,1.82,0,0,1,.29,1.13v.34H28.24v.07a1.13,1.13,0,0,0,.2.76.72.72,0,0,0,.57.23.88.88,0,0,0,.41-.09.94.94,0,0,0,.34-.27l.28.33A1.21,1.21,0,0,1,29,50.08Zm-.06-2.88a.58.58,0,0,0-.5.22,1.44,1.44,0,0,0-.18.7h1.29v-.07a1.17,1.17,0,0,0-.17-.66A.5.5,0,0,0,28.92,47.2Z"/><path d="M35,48.64a1.58,1.58,0,0,1-.39,1.07,1.38,1.38,0,0,1-1,.37,1.24,1.24,0,0,1-1-.5,2.1,2.1,0,0,1-.39-1.34v-.78a2.06,2.06,0,0,1,.4-1.34,1.36,1.36,0,0,1,1.1-.49,1.27,1.27,0,0,1,1,.38A1.54,1.54,0,0,1,35,47.08h-.56a1.33,1.33,0,0,0-.22-.75.72.72,0,0,0-.58-.23.8.8,0,0,0-.7.35,1.77,1.77,0,0,0-.24,1v.79a1.87,1.87,0,0,0,.22,1,.72.72,0,0,0,.66.35.83.83,0,0,0,.63-.21,1.28,1.28,0,0,0,.23-.76Z"/><rect class="cls-4" x="5" y="45.3" width="5" height="5.26"/><path class="cls-2" d="M9.66,45.63v4.59H5.33V45.63H9.66m.67-.67H4.66v5.93h5.67V45Z"/><path d="M14.85,22.05a.67.67,0,0,0-.18-.5,1.94,1.94,0,0,0-.64-.33,3,3,0,0,1-.72-.35,1.3,1.3,0,0,1-.37-.41,1.11,1.11,0,0,1-.12-.52,1.12,1.12,0,0,1,.35-.85,1.28,1.28,0,0,1,.92-.33,1.31,1.31,0,0,1,.69.17,1.18,1.18,0,0,1,.47.47,1.46,1.46,0,0,1,.16.66h-.56a.87.87,0,0,0-.2-.62.74.74,0,0,0-.56-.22.7.7,0,0,0-.52.19.67.67,0,0,0-.19.52.59.59,0,0,0,.2.45,1.55,1.55,0,0,0,.62.33,2.23,2.23,0,0,1,.93.53,1.12,1.12,0,0,1,.28.8,1.07,1.07,0,0,1-.35.85,1.35,1.35,0,0,1-.94.31A1.58,1.58,0,0,1,13.4,23a1.35,1.35,0,0,1-.51-.47,1.28,1.28,0,0,1-.18-.68h.55a.81.81,0,0,0,.23.62.85.85,0,0,0,.63.23.78.78,0,0,0,.55-.19A.68.68,0,0,0,14.85,22.05Z"/><path d="M17.24,23.2a1.19,1.19,0,0,1-.94-.36A1.52,1.52,0,0,1,16,21.79v-.38a1.81,1.81,0,0,1,.32-1.13,1.06,1.06,0,0,1,.89-.41,1,1,0,0,1,.87.36,1.86,1.86,0,0,1,.29,1.12v.34H16.5v.08a1.12,1.12,0,0,0,.2.75.69.69,0,0,0,.57.23,1.07,1.07,0,0,0,.41-.08,1,1,0,0,0,.34-.28l.28.33A1.23,1.23,0,0,1,17.24,23.2Zm-.07-2.88a.56.56,0,0,0-.49.22,1.28,1.28,0,0,0-.18.7h1.29v-.07a1.15,1.15,0,0,0-.17-.65A.54.54,0,0,0,17.17,20.32Z"/><path d="M20.32,20.42l-.24,0a.59.59,0,0,0-.57.44v2.3H19V19.93h.52v.32a.68.68,0,0,1,.61-.38.46.46,0,0,1,.21,0Z"/><path d="M21.84,22.34l.62-2.41H23l-1,3.21h-.4l-1-3.21h.55Z"/><path d="M24.19,19.08a.35.35,0,0,1-.08.22.27.27,0,0,1-.23.09.27.27,0,0,1-.22-.09.3.3,0,0,1-.08-.22.31.31,0,0,1,.08-.23.27.27,0,0,1,.22-.09.29.29,0,0,1,.23.09A.36.36,0,0,1,24.19,19.08Zm0,4.06h-.54V19.93h.54Z"/><path d="M26.13,22.75a.55.55,0,0,0,.42-.16.67.67,0,0,0,.18-.46h.51a1.12,1.12,0,0,1-.34.77,1.08,1.08,0,0,1-.77.3,1.14,1.14,0,0,1-.93-.37,1.72,1.72,0,0,1-.32-1.12v-.36a1.68,1.68,0,0,1,.32-1.1,1.14,1.14,0,0,1,.92-.38,1,1,0,0,1,.8.31,1.28,1.28,0,0,1,.32.85h-.51a.88.88,0,0,0-.17-.53.56.56,0,0,0-.44-.18.65.65,0,0,0-.53.23,1.33,1.33,0,0,0-.17.76v.41a1.36,1.36,0,0,0,.17.8A.6.6,0,0,0,26.13,22.75Z"/><path d="M29,23.2a1.21,1.21,0,0,1-.94-.36,1.52,1.52,0,0,1-.34-1.05v-.38a1.75,1.75,0,0,1,.33-1.13,1.19,1.19,0,0,1,1.75-.05,1.79,1.79,0,0,1,.29,1.12v.34H28.29v.08a1.12,1.12,0,0,0,.2.75.69.69,0,0,0,.57.23,1,1,0,0,0,.41-.08,1,1,0,0,0,.34-.28l.28.33A1.23,1.23,0,0,1,29,23.2ZM29,20.32a.58.58,0,0,0-.5.22,1.48,1.48,0,0,0-.18.7h1.29v-.07a1.15,1.15,0,0,0-.17-.65A.5.5,0,0,0,29,20.32Z"/><path d="M34.32,22h-1.5l-.34,1.13h-.57l1.42-4.32h.48l1.42,4.32h-.57ZM33,21.54h1.2l-.6-2Z"/><path class="cls-4" d="M10.49,20.34l-2.64-2.6a.4.4,0,0,0-.56,0L4.66,20.33a.38.38,0,0,0,0,.54l2.65,2.6a.41.41,0,0,0,.55,0l2.63-2.59A.36.36,0,0,0,10.49,20.34Z"/><rect class="cls-5" x="0.5" y="27.97" width="42" height="13.52"/><rect class="cls-5" x="0.5" y="41.48" width="42" height="13.52"/><line class="cls-6" x1="0.5" y1="41.48" x2="42.5" y2="41.48"/><line class="cls-6" x1="0.5" y1="27.97" x2="42.5" y2="27.97"/><path class="cls-3" d="M42,.5V55H.5V.5H42m.5-.5H0V55.5H42.5V0Z"/></symbol></defs><title>traefik</title><use width="42.5" height="55.5" transform="translate(310.48 130.44)" xlink:href="#master-branch"/><use width="42.5" height="55.5" transform="translate(310.48 11.77)" xlink:href="#feature-branch"/><g class="cls-7"><rect class="cls-8" x="0.38" y="0.38" width="94.96" height="59.24"/><rect class="cls-9" x="0.38" y="10.46" width="94.96" height="49.16" rx="0.07"/><rect class="cls-10" x="3.94" y="2.76" width="87.84" height="5.49"/><path d="M6.35,3.83H6.7V5h0A.67.67,0,0,1,7,4.79a.75.75,0,0,1,.36-.1c.26,0,.68.16.68.83V6.67H7.64V5.56c0-.31-.11-.57-.44-.57a.5.5,0,0,0-.47.35.31.31,0,0,0,0,.17V6.67H6.35Z"/><path d="M9,4.18v.56h.5V5H9v1c0,.24.06.38.26.38a1,1,0,0,0,.21,0v.27a1.17,1.17,0,0,1-.31,0,.51.51,0,0,1-.38-.14.74.74,0,0,1-.14-.51V5h-.3V4.74h.3V4.28Z"/><path d="M10.3,4.18v.56h.51V5H10.3v1c0,.24.07.38.27.38a.77.77,0,0,0,.2,0v.27a1.05,1.05,0,0,1-.31,0,.52.52,0,0,1-.38-.14A.74.74,0,0,1,10,6.06V5h-.3V4.74H10V4.28Z"/><path d="M11.2,5.37c0-.25,0-.45,0-.63h.32l0,.33h0a.77.77,0,0,1,.69-.38.88.88,0,0,1,.82,1,.92.92,0,0,1-.88,1,.66.66,0,0,1-.59-.31h0V7.47H11.2Zm.35.52c0,.05,0,.1,0,.14a.56.56,0,0,0,.53.41c.37,0,.59-.3.59-.75S12.48,5,12.1,5a.57.57,0,0,0-.53.44.68.68,0,0,0,0,.14Z"/><path d="M13.39,5.06a.23.23,0,0,1,.24-.25.24.24,0,0,1,.24.25.23.23,0,0,1-.24.25A.24.24,0,0,1,13.39,5.06Zm0,1.41a.23.23,0,0,1,.24-.25.24.24,0,0,1,.24.25.23.23,0,0,1-.24.25A.24.24,0,0,1,13.39,6.47Z"/><path d="M14,6.83l1.11-2.89h.28L14.28,6.83Z"/><path d="M15.38,6.83,16.5,3.94h.27L15.65,6.83Z"/><path d="M17.05,5.37c0-.25,0-.45,0-.63h.32v.33h0a.76.76,0,0,1,.69-.38.88.88,0,0,1,.82,1,.92.92,0,0,1-.88,1,.65.65,0,0,1-.59-.31h0V7.47h-.35Zm.35.52c0,.05,0,.1,0,.14a.56.56,0,0,0,.53.41c.37,0,.59-.3.59-.75S18.32,5,18,5a.57.57,0,0,0-.53.44.68.68,0,0,0,0,.14Z"/><path d="M19.32,5.34c0-.23,0-.42,0-.6h.31v.38h0a.59.59,0,0,1,.54-.43l.1,0V5h-.12a.49.49,0,0,0-.47.45.78.78,0,0,0,0,.16v1h-.35Z"/><path d="M20.79,5.77a.62.62,0,0,0,.66.67,1.23,1.23,0,0,0,.54-.1l.06.25a1.55,1.55,0,0,1-.65.12.9.9,0,0,1-.95-1,1,1,0,0,1,.91-1,.83.83,0,0,1,.8.92c0,.07,0,.12,0,.16Zm1-.25c0-.23-.09-.57-.49-.57a.58.58,0,0,0-.54.57Z"/><path d="M22.73,4.74l.38,1.09a3.49,3.49,0,0,1,.16.49h0a3.58,3.58,0,0,1,.17-.49l.37-1.09h.37l-.76,1.93h-.34l-.73-1.93Z"/><path d="M24.91,4.19a.2.2,0,0,1-.22.22.22.22,0,1,1,0-.43A.2.2,0,0,1,24.91,4.19Zm-.39,2.48V4.74h.35V6.67Z"/><path d="M25.65,5.77a.62.62,0,0,0,.67.67,1.18,1.18,0,0,0,.53-.1l.06.25a1.46,1.46,0,0,1-.64.12.89.89,0,0,1-.95-1,.94.94,0,0,1,.9-1,.82.82,0,0,1,.8.92.71.71,0,0,1,0,.16Zm1-.25A.49.49,0,0,0,26.2,5a.57.57,0,0,0-.54.57Z"/><path d="M27.6,4.74l.26,1c.05.22.1.42.14.62h0c0-.2.11-.41.17-.61l.32-1h.3l.3,1c.07.23.12.43.17.63h0a4.37,4.37,0,0,1,.15-.63l.27-1h.35l-.62,1.93h-.32l-.3-.92c-.07-.22-.12-.41-.17-.64h0c-.05.24-.11.44-.17.64l-.32.92h-.32l-.58-1.93Z"/><path d="M30.16,6.47a.24.24,0,1,1,.48,0,.23.23,0,0,1-.24.25A.24.24,0,0,1,30.16,6.47Z"/><path d="M31.27,5.77a.62.62,0,0,0,.67.67,1.18,1.18,0,0,0,.53-.1l.06.25a1.46,1.46,0,0,1-.64.12.89.89,0,0,1-.95-1,.94.94,0,0,1,.9-1,.82.82,0,0,1,.8.92.71.71,0,0,1,0,.16Zm1-.25A.49.49,0,0,0,31.82,5a.57.57,0,0,0-.54.57Z"/><path d="M33.23,4.74l.28.41.19.32h0a2.46,2.46,0,0,1,.19-.32l.27-.41h.38l-.66.93.68,1h-.4l-.28-.43a3.87,3.87,0,0,1-.21-.34h0c-.06.12-.13.22-.2.34l-.28.43h-.39l.69-1-.66-1Z"/><path d="M36,6.67l0-.24h0a.72.72,0,0,1-.59.29.55.55,0,0,1-.59-.56c0-.47.41-.72,1.16-.72v0A.4.4,0,0,0,35.49,5a.92.92,0,0,0-.5.15l-.08-.23a1.14,1.14,0,0,1,.63-.18c.6,0,.74.41.74.8v.72a3.13,3.13,0,0,0,0,.46Zm-.05-1c-.38,0-.82.06-.82.43a.31.31,0,0,0,.33.34.49.49,0,0,0,.47-.33.36.36,0,0,0,0-.11Z"/><path d="M36.85,5.26c0-.2,0-.36,0-.52h.31l0,.31h0a.68.68,0,0,1,.61-.36.56.56,0,0,1,.54.39h0a.78.78,0,0,1,.22-.25A.63.63,0,0,1,39,4.69c.25,0,.63.17.63.84V6.67h-.34V5.58c0-.37-.14-.6-.42-.6a.46.46,0,0,0-.42.32.84.84,0,0,0,0,.18V6.67h-.34V5.51c0-.3-.14-.53-.4-.53a.5.5,0,0,0-.44.35.57.57,0,0,0,0,.18V6.67h-.34Z"/><path d="M40.18,5.37c0-.25,0-.45,0-.63h.31l0,.33h0a.75.75,0,0,1,.69-.38.89.89,0,0,1,.82,1,.92.92,0,0,1-.88,1,.67.67,0,0,1-.6-.31h0V7.47h-.35Zm.35.52a.59.59,0,0,0,0,.14.54.54,0,0,0,.53.41c.37,0,.58-.3.58-.75S41.46,5,41.09,5a.56.56,0,0,0-.53.44.35.35,0,0,0,0,.14Z"/><path d="M42.46,3.83h.35V6.67h-.35Z"/><path d="M43.6,5.77a.62.62,0,0,0,.66.67,1.2,1.2,0,0,0,.54-.1l.06.25a1.5,1.5,0,0,1-.64.12.89.89,0,0,1-.95-1,.94.94,0,0,1,.9-1,.83.83,0,0,1,.8.92c0,.07,0,.12,0,.16Zm1-.25A.49.49,0,0,0,44.14,5a.57.57,0,0,0-.53.57Z"/><path d="M45.28,6.47a.24.24,0,0,1,.24-.26.26.26,0,0,1,0,.51A.23.23,0,0,1,45.28,6.47Z"/><path d="M47.57,6.6a1.29,1.29,0,0,1-.56.11.91.91,0,0,1-1-1,1,1,0,0,1,1-1,1.08,1.08,0,0,1,.48.1l-.07.27A.83.83,0,0,0,47.09,5a.67.67,0,0,0-.69.73.66.66,0,0,0,.68.72,1.07,1.07,0,0,0,.43-.09Z"/><path d="M49.71,5.69a1,1,0,0,1-1,1,.92.92,0,0,1-.92-1,.94.94,0,0,1,1-1A.92.92,0,0,1,49.71,5.69Zm-1.54,0a.66.66,0,0,0,.59.74c.34,0,.59-.31.59-.75S49.18,5,48.77,5,48.17,5.34,48.17,5.71Z"/><path d="M50.15,5.26c0-.2,0-.36,0-.52h.31v.31h0a.68.68,0,0,1,.61-.36.58.58,0,0,1,.55.39h0a.75.75,0,0,1,.21-.25.67.67,0,0,1,.43-.14c.26,0,.64.17.64.84V6.67h-.35V5.58c0-.37-.13-.6-.42-.6a.45.45,0,0,0-.41.32.48.48,0,0,0,0,.18V6.67h-.35V5.51c0-.3-.13-.53-.4-.53a.47.47,0,0,0-.43.35.38.38,0,0,0,0,.18V6.67h-.35Z"/><path d="M53.19,6.83l1.12-2.89h.27L53.46,6.83Z"/><path d="M57.14,5.49c0-.38,0-.83,0-1.16h0c-.09.31-.2.65-.34,1l-.47,1.31H56l-.43-1.29c-.13-.38-.24-.72-.32-1h0c0,.33,0,.78-.06,1.19l-.07,1.15H54.8L55,4h.44l.46,1.3a8.89,8.89,0,0,1,.27.91h0a8.19,8.19,0,0,1,.28-.91L56.94,4h.44l.17,2.69h-.34Z"/><path d="M59.17,6.67l0-.24h0a.72.72,0,0,1-.59.29A.55.55,0,0,1,58,6.16c0-.47.41-.72,1.16-.72v0A.4.4,0,0,0,58.67,5a.92.92,0,0,0-.5.15l-.08-.23a1.14,1.14,0,0,1,.63-.18c.6,0,.74.41.74.8v.72a3.13,3.13,0,0,0,0,.46Zm-.05-1c-.38,0-.82.06-.82.43a.31.31,0,0,0,.33.34.49.49,0,0,0,.47-.33.36.36,0,0,0,0-.11Z"/><path d="M60,6.31a.89.89,0,0,0,.46.14c.26,0,.38-.12.38-.28s-.1-.26-.36-.36S60,5.49,60,5.26a.6.6,0,0,1,.67-.57,1,1,0,0,1,.47.12L61,5.07A.7.7,0,0,0,60.61,5c-.21,0-.33.12-.33.26s.12.23.37.33.51.3.51.58-.26.58-.72.58a1.12,1.12,0,0,1-.55-.13Z"/><path d="M62,4.18v.56h.5V5H62v1c0,.24.06.38.26.38a.77.77,0,0,0,.2,0l0,.27a1.17,1.17,0,0,1-.31,0,.49.49,0,0,1-.38-.14.74.74,0,0,1-.14-.51V5h-.3V4.74h.3V4.28Z"/><path d="M63.11,5.77a.62.62,0,0,0,.66.67,1.23,1.23,0,0,0,.54-.1l.06.25a1.55,1.55,0,0,1-.65.12.9.9,0,0,1-.95-1,1,1,0,0,1,.91-1,.83.83,0,0,1,.8.92c0,.07,0,.12,0,.16Zm1-.25c0-.23-.09-.57-.49-.57a.58.58,0,0,0-.54.57Z"/><path d="M64.92,5.34c0-.23,0-.42,0-.6h.31v.38h0a.58.58,0,0,1,.53-.43l.1,0V5h-.12a.49.49,0,0,0-.47.45.78.78,0,0,0,0,.16v1h-.34Z"/><path d="M65.93,6.83,67,3.94h.28L66.2,6.83Z"/><path d="M67.56,6.25a1.19,1.19,0,0,0,.62.18c.36,0,.57-.19.57-.46s-.15-.4-.51-.54-.71-.38-.71-.76a.78.78,0,0,1,.87-.73,1.21,1.21,0,0,1,.6.13l-.1.28a1.06,1.06,0,0,0-.51-.13c-.37,0-.51.22-.51.41s.16.37.54.52.68.39.68.79-.3.77-.94.77a1.38,1.38,0,0,1-.69-.17Z"/><path d="M69.79,5.77a.62.62,0,0,0,.66.67,1.23,1.23,0,0,0,.54-.1l.06.25a1.55,1.55,0,0,1-.65.12.9.9,0,0,1-1-1,1,1,0,0,1,.91-1,.83.83,0,0,1,.8.92c0,.07,0,.12,0,.16Zm1-.25c0-.23-.09-.57-.49-.57a.58.58,0,0,0-.54.57Z"/><path d="M71.6,5.34c0-.23,0-.42,0-.6h.31v.38h0a.58.58,0,0,1,.53-.43l.1,0V5h-.12a.49.49,0,0,0-.47.45.78.78,0,0,0,0,.16v1H71.6Z"/><path d="M73.14,4.74l.38,1.09c.06.17.12.33.16.49h0c0-.16.1-.32.16-.49l.38-1.09h.37l-.76,1.93H73.5l-.74-1.93Z"/><path d="M75.32,4.19a.2.2,0,0,1-.22.22.21.21,0,0,1-.22-.22A.21.21,0,0,1,75.1,4,.2.2,0,0,1,75.32,4.19Zm-.39,2.48V4.74h.35V6.67Z"/><path d="M77.24,6.6a1.23,1.23,0,0,1-.55.11.92.92,0,0,1-1-1,1,1,0,0,1,1-1,1.13,1.13,0,0,1,.49.1l-.08.27A.8.8,0,0,0,76.76,5a.67.67,0,0,0-.68.73.66.66,0,0,0,.67.72,1.07,1.07,0,0,0,.43-.09Z"/><path d="M77.83,5.77a.62.62,0,0,0,.66.67,1.23,1.23,0,0,0,.54-.1l.06.25a1.55,1.55,0,0,1-.65.12.9.9,0,0,1-1-1,1,1,0,0,1,.91-1,.83.83,0,0,1,.8.92c0,.07,0,.12,0,.16Zm1-.25c0-.23-.09-.57-.49-.57a.58.58,0,0,0-.54.57Z"/><path d="M81.34,7v.2h-2V7Z"/><path d="M83.53,6.59a1.82,1.82,0,0,1-.71.12,1.26,1.26,0,0,1-1.33-1.36A1.34,1.34,0,0,1,82.9,3.94a1.38,1.38,0,0,1,.63.12l-.08.28a1.32,1.32,0,0,0-.54-.11,1,1,0,0,0-1,1.11,1,1,0,0,0,1,1.08,1.38,1.38,0,0,0,.57-.11Z"/></g><path class="cls-9" d="M91,.38a4.29,4.29,0,0,1,4.29,4.29V55.33A4.29,4.29,0,0,1,91,59.62H4.67A4.29,4.29,0,0,1,.38,55.33V4.67A4.29,4.29,0,0,1,4.67.38H91M91,0H4.67A4.68,4.68,0,0,0,0,4.67V55.33A4.68,4.68,0,0,0,4.67,60H91a4.68,4.68,0,0,0,4.67-4.67V4.67A4.68,4.68,0,0,0,91,0Z"/><path class="cls-4" d="M4.16,16.43V18H3.64V13.93H5a1.18,1.18,0,0,1,.9.34,1.47,1.47,0,0,1,0,1.83,1.25,1.25,0,0,1-.88.33Zm0-.44H5a.66.66,0,0,0,.53-.21.87.87,0,0,0,.18-.59.85.85,0,0,0-.19-.59A.64.64,0,0,0,5,14.37H4.16Z"/><path class="cls-4" d="M8,15.45l-.23,0a.54.54,0,0,0-.53.42V18h-.5V15h.48v.32a.61.61,0,0,1,.57-.37A.42.42,0,0,1,8,15Z"/><path class="cls-4" d="M9.63,18.1a1.16,1.16,0,0,1-.88-.34,1.53,1.53,0,0,1-.31-1v-.37a1.7,1.7,0,0,1,.3-1.07,1,1,0,0,1,.83-.39,1,1,0,0,1,.81.34,1.85,1.85,0,0,1,.27,1.06v.33H8.94v.07a1.09,1.09,0,0,0,.19.72.67.67,0,0,0,.53.22,1,1,0,0,0,.39-.08,1.09,1.09,0,0,0,.31-.27l.26.32A1.14,1.14,0,0,1,9.63,18.1Zm-.06-2.74a.54.54,0,0,0-.46.21,1.31,1.31,0,0,0-.17.66h1.21v-.07a1.29,1.29,0,0,0-.16-.62A.49.49,0,0,0,9.57,15.36Z"/><path class="cls-4" d="M12.08,17.28l.58-2.3h.51L12.26,18h-.37L11,15h.51Z"/><path class="cls-4" d="M14.26,14.18a.31.31,0,0,1-.07.21.32.32,0,0,1-.42,0,.31.31,0,0,1-.07-.21.32.32,0,0,1,.07-.22.25.25,0,0,1,.21-.09.26.26,0,0,1,.21.09A.32.32,0,0,1,14.26,14.18Zm0,3.86h-.5V15h.5Z"/><path class="cls-4" d="M16.11,18.1a1.13,1.13,0,0,1-.88-.34,1.48,1.48,0,0,1-.31-1v-.37a1.7,1.7,0,0,1,.3-1.07,1,1,0,0,1,.83-.39.94.94,0,0,1,.8.34,1.7,1.7,0,0,1,.27,1.06v.33h-1.7v.07a1.15,1.15,0,0,0,.18.72.67.67,0,0,0,.53.22.93.93,0,0,0,.39-.08,1.12,1.12,0,0,0,.32-.27l.26.32A1.15,1.15,0,0,1,16.11,18.1Zm-.06-2.74a.52.52,0,0,0-.46.21,1.22,1.22,0,0,0-.17.66h1.2v-.07a1.2,1.2,0,0,0-.15-.62A.5.5,0,0,0,16.05,15.36Z"/><path class="cls-4" d="M20,17.16,20.47,15H21L20.21,18h-.4l-.59-2.19L18.64,18h-.41L17.49,15H18l.48,2.13L19,15h.39Z"/><path class="cls-4" d="M25.27,16.2H22.89v-.42h2.38Z"/><path class="cls-4" d="M28.19,13.93l1.07,3.35,1.07-3.35H31V18h-.52v-1.6l.05-1.6L29.45,18h-.39L28,14.85,28,16.44V18h-.52V13.93Z"/><path class="cls-4" d="M33.39,18a1.08,1.08,0,0,1-.06-.33.79.79,0,0,1-.68.39.87.87,0,0,1-.65-.24.89.89,0,0,1-.23-.65.9.9,0,0,1,.32-.74,1.24,1.24,0,0,1,.86-.28h.37v-.33a.54.54,0,0,0-.12-.39.56.56,0,0,0-.37-.11.52.52,0,0,0-.37.13.46.46,0,0,0-.14.34h-.5a.88.88,0,0,1,.14-.45,1,1,0,0,1,.37-.33,1.14,1.14,0,0,1,.52-.12,1,1,0,0,1,.72.23,1,1,0,0,1,.25.68v1.54a1.82,1.82,0,0,0,.09.61V18Zm-.66-.4a.64.64,0,0,0,.35-.1.6.6,0,0,0,.24-.26v-.72H33a.85.85,0,0,0-.56.16.49.49,0,0,0-.21.43.53.53,0,0,0,.1.37A.46.46,0,0,0,32.73,17.64Z"/><path class="cls-4" d="M36.08,17.26A.38.38,0,0,0,36,17a1.65,1.65,0,0,0-.47-.27,2.89,2.89,0,0,1-.57-.29.72.72,0,0,1-.25-.27.78.78,0,0,1-.08-.35.8.8,0,0,1,.27-.62,1,1,0,0,1,.7-.25,1,1,0,0,1,.72.26.87.87,0,0,1,.27.66h-.5a.52.52,0,0,0-.14-.35.48.48,0,0,0-.35-.14.54.54,0,0,0-.35.11.41.41,0,0,0-.12.31.32.32,0,0,0,.09.24,1.64,1.64,0,0,0,.44.25,2.21,2.21,0,0,1,.76.42.76.76,0,0,1,.2.53.82.82,0,0,1-.27.64,1.1,1.1,0,0,1-.74.24,1.08,1.08,0,0,1-.77-.28.89.89,0,0,1-.3-.69H35a.52.52,0,0,0,.57.54.59.59,0,0,0,.38-.11A.38.38,0,0,0,36.08,17.26Z"/><path class="cls-4" d="M37.89,14.25V15h.46v.41h-.46v1.89a.53.53,0,0,0,.06.28.22.22,0,0,0,.2.09l.2,0V18a1,1,0,0,1-.34.06.53.53,0,0,1-.46-.22,1,1,0,0,1-.15-.6V15.39h-.47V15h.47v-.73Z"/><path class="cls-4" d="M40,18.1a1.12,1.12,0,0,1-.87-.34,1.43,1.43,0,0,1-.31-1v-.37a1.7,1.7,0,0,1,.3-1.07,1,1,0,0,1,.83-.39.94.94,0,0,1,.8.34,1.7,1.7,0,0,1,.27,1.06v.33H39.34v.07a1.15,1.15,0,0,0,.19.72.67.67,0,0,0,.53.22.93.93,0,0,0,.39-.08,1.12,1.12,0,0,0,.32-.27l.26.32A1.16,1.16,0,0,1,40,18.1ZM40,15.36a.52.52,0,0,0-.46.21,1.22,1.22,0,0,0-.17.66h1.2v-.07a1.1,1.1,0,0,0-.16-.62A.48.48,0,0,0,40,15.36Z"/><path class="cls-4" d="M42.91,15.45l-.22,0a.55.55,0,0,0-.54.42V18h-.5V15h.49v.32a.61.61,0,0,1,.56-.37.4.4,0,0,1,.2,0Z"/><g class="cls-11"><rect class="cls-8" x="0.38" y="73.48" width="94.96" height="59.24"/><rect class="cls-9" x="0.38" y="83.55" width="94.96" height="49.16" rx="0.07"/><rect class="cls-10" x="3.94" y="75.76" width="87.84" height="5.49"/><path d="M6.35,76.83H6.7V78h0A.67.67,0,0,1,7,77.79a.75.75,0,0,1,.36-.1c.26,0,.68.16.68.83v1.15H7.64V78.56c0-.31-.11-.57-.44-.57a.5.5,0,0,0-.47.35.31.31,0,0,0,0,.17v1.16H6.35Z"/><path d="M9,77.18v.56h.5V78H9v1c0,.24.06.38.26.38a1,1,0,0,0,.21,0v.27a1.17,1.17,0,0,1-.31,0,.51.51,0,0,1-.38-.14.74.74,0,0,1-.14-.51V78h-.3v-.27h.3v-.46Z"/><path d="M10.3,77.18v.56h.51V78H10.3v1c0,.24.07.38.27.38a.77.77,0,0,0,.2,0v.27a1.05,1.05,0,0,1-.31,0,.52.52,0,0,1-.38-.14.74.74,0,0,1-.13-.51V78h-.3v-.27H10v-.46Z"/><path d="M11.2,78.37c0-.25,0-.45,0-.63h.32l0,.33h0a.77.77,0,0,1,.69-.38.88.88,0,0,1,.82,1,.92.92,0,0,1-.88,1,.66.66,0,0,1-.59-.31h0v1.06H11.2Zm.35.52s0,.1,0,.14a.56.56,0,0,0,.53.41c.37,0,.59-.3.59-.75s-.2-.72-.58-.72a.57.57,0,0,0-.53.44.68.68,0,0,0,0,.14Z"/><path d="M13.39,78.06a.23.23,0,0,1,.24-.25.24.24,0,0,1,.24.25.23.23,0,0,1-.24.25A.24.24,0,0,1,13.39,78.06Zm0,1.41a.23.23,0,0,1,.24-.25.24.24,0,0,1,.24.25.23.23,0,0,1-.24.25A.24.24,0,0,1,13.39,79.47Z"/><path d="M14,79.83l1.11-2.89h.28l-1.12,2.89Z"/><path d="M15.38,79.83l1.12-2.89h.27l-1.12,2.89Z"/><path d="M17.05,78.37c0-.25,0-.45,0-.63h.32v.33h0a.76.76,0,0,1,.69-.38.88.88,0,0,1,.82,1,.92.92,0,0,1-.88,1,.65.65,0,0,1-.59-.31h0v1.06h-.35Zm.35.52s0,.1,0,.14a.56.56,0,0,0,.53.41c.37,0,.59-.3.59-.75S18.32,78,18,78a.57.57,0,0,0-.53.44.68.68,0,0,0,0,.14Z"/><path d="M19.32,78.34c0-.23,0-.42,0-.6h.31v.38h0a.59.59,0,0,1,.54-.43l.1,0V78h-.12a.49.49,0,0,0-.47.45.78.78,0,0,0,0,.16v1h-.35Z"/><path d="M20.79,78.77a.62.62,0,0,0,.66.67,1.23,1.23,0,0,0,.54-.1l.06.25a1.55,1.55,0,0,1-.65.12.9.9,0,0,1-.95-1,1,1,0,0,1,.91-1,.83.83,0,0,1,.8.92c0,.07,0,.12,0,.16Zm1-.25c0-.23-.09-.57-.49-.57a.58.58,0,0,0-.54.57Z"/><path d="M22.73,77.74l.38,1.09a3.49,3.49,0,0,1,.16.49h0a3.58,3.58,0,0,1,.17-.49l.37-1.09h.37l-.76,1.93h-.34l-.73-1.93Z"/><path d="M24.91,77.19a.2.2,0,0,1-.22.22.22.22,0,1,1,0-.43A.2.2,0,0,1,24.91,77.19Zm-.39,2.48V77.74h.35v1.93Z"/><path d="M25.65,78.77a.62.62,0,0,0,.67.67,1.18,1.18,0,0,0,.53-.1l.06.25a1.46,1.46,0,0,1-.64.12.89.89,0,0,1-.95-1,.94.94,0,0,1,.9-1,.82.82,0,0,1,.8.92.71.71,0,0,1,0,.16Zm1-.25A.49.49,0,0,0,26.2,78a.57.57,0,0,0-.54.57Z"/><path d="M27.6,77.74l.26,1c.05.22.1.42.14.62h0c0-.2.11-.41.17-.61l.32-1h.3l.3,1c.07.23.12.43.17.63h0a4.37,4.37,0,0,1,.15-.63l.27-1h.35l-.62,1.93h-.32l-.3-.92c-.07-.22-.12-.41-.17-.64h0c-.05.24-.11.44-.17.64l-.32.92h-.32l-.58-1.93Z"/><path d="M30.16,79.47a.24.24,0,1,1,.48,0,.23.23,0,0,1-.24.25A.24.24,0,0,1,30.16,79.47Z"/><path d="M31.27,78.77a.62.62,0,0,0,.67.67,1.18,1.18,0,0,0,.53-.1l.06.25a1.46,1.46,0,0,1-.64.12.89.89,0,0,1-.95-1,.94.94,0,0,1,.9-1,.82.82,0,0,1,.8.92.71.71,0,0,1,0,.16Zm1-.25a.49.49,0,0,0-.48-.57.57.57,0,0,0-.54.57Z"/><path d="M33.23,77.74l.28.41.19.32h0a2.46,2.46,0,0,1,.19-.32l.27-.41h.38l-.66.93.68,1h-.4l-.28-.43a3.87,3.87,0,0,1-.21-.34h0c-.06.12-.13.22-.2.34l-.28.43h-.39l.69-1-.66-1Z"/><path d="M36,79.67l0-.24h0a.72.72,0,0,1-.59.29.55.55,0,0,1-.59-.56c0-.47.41-.72,1.16-.72v0a.4.4,0,0,0-.44-.45.92.92,0,0,0-.5.15l-.08-.23a1.14,1.14,0,0,1,.63-.18c.6,0,.74.41.74.8v.72a3.13,3.13,0,0,0,0,.46Zm-.05-1c-.38,0-.82.06-.82.43a.31.31,0,0,0,.33.34.49.49,0,0,0,.47-.33.36.36,0,0,0,0-.11Z"/><path d="M36.85,78.26c0-.2,0-.36,0-.52h.31l0,.31h0a.68.68,0,0,1,.61-.36.56.56,0,0,1,.54.39h0a.78.78,0,0,1,.22-.25.63.63,0,0,1,.43-.14c.25,0,.63.17.63.84v1.14h-.34V78.58c0-.37-.14-.6-.42-.6a.46.46,0,0,0-.42.32.84.84,0,0,0,0,.18v1.19h-.34V78.51c0-.3-.14-.53-.4-.53a.5.5,0,0,0-.44.35.57.57,0,0,0,0,.18v1.16h-.34Z"/><path d="M40.18,78.37c0-.25,0-.45,0-.63h.31l0,.33h0a.75.75,0,0,1,.69-.38.89.89,0,0,1,.82,1,.92.92,0,0,1-.88,1,.67.67,0,0,1-.6-.31h0v1.06h-.35Zm.35.52a.59.59,0,0,0,0,.14.54.54,0,0,0,.53.41c.37,0,.58-.3.58-.75s-.2-.72-.57-.72a.56.56,0,0,0-.53.44.35.35,0,0,0,0,.14Z"/><path d="M42.46,76.83h.35v2.84h-.35Z"/><path d="M43.6,78.77a.62.62,0,0,0,.66.67,1.2,1.2,0,0,0,.54-.1l.06.25a1.5,1.5,0,0,1-.64.12.89.89,0,0,1-.95-1,.94.94,0,0,1,.9-1,.83.83,0,0,1,.8.92c0,.07,0,.12,0,.16Zm1-.25a.49.49,0,0,0-.49-.57.57.57,0,0,0-.53.57Z"/><path d="M45.28,79.47a.24.24,0,0,1,.24-.26.26.26,0,0,1,0,.51A.23.23,0,0,1,45.28,79.47Z"/><path d="M47.57,79.6a1.29,1.29,0,0,1-.56.11.91.91,0,0,1-1-1,1,1,0,0,1,1-1,1.08,1.08,0,0,1,.48.1l-.07.27a.83.83,0,0,0-.41-.09.67.67,0,0,0-.69.73.66.66,0,0,0,.68.72,1.07,1.07,0,0,0,.43-.09Z"/><path d="M49.71,78.69a1,1,0,0,1-1,1,.92.92,0,0,1-.92-1,.94.94,0,0,1,1-1A.92.92,0,0,1,49.71,78.69Zm-1.54,0a.66.66,0,0,0,.59.74c.34,0,.59-.31.59-.75s-.17-.74-.58-.74S48.17,78.34,48.17,78.71Z"/><path d="M50.15,78.26c0-.2,0-.36,0-.52h.31v.31h0a.68.68,0,0,1,.61-.36.58.58,0,0,1,.55.39h0a.75.75,0,0,1,.21-.25.67.67,0,0,1,.43-.14c.26,0,.64.17.64.84v1.14h-.35V78.58c0-.37-.13-.6-.42-.6a.45.45,0,0,0-.41.32.48.48,0,0,0,0,.18v1.19h-.35V78.51c0-.3-.13-.53-.4-.53a.47.47,0,0,0-.43.35.38.38,0,0,0,0,.18v1.16h-.35Z"/><path d="M53.19,79.83l1.12-2.89h.27l-1.12,2.89Z"/><path d="M54.87,77h1.45v.29h-1.1v.9h1v.28h-1v1.22h-.35Z"/><path d="M56.88,78.77a.62.62,0,0,0,.66.67,1.2,1.2,0,0,0,.54-.1l.06.25a1.5,1.5,0,0,1-.64.12.9.9,0,0,1-1-1,1,1,0,0,1,.91-1,.83.83,0,0,1,.8.92c0,.07,0,.12,0,.16Zm1-.25a.49.49,0,0,0-.49-.57.58.58,0,0,0-.54.57Z"/><path d="M59.76,79.67l0-.24h0a.74.74,0,0,1-.59.29.55.55,0,0,1-.59-.56c0-.47.41-.72,1.16-.72v0a.4.4,0,0,0-.44-.45.92.92,0,0,0-.5.15l-.08-.23a1.14,1.14,0,0,1,.63-.18c.59,0,.74.41.74.8v.72a3.13,3.13,0,0,0,0,.46Zm0-1c-.39,0-.82.06-.82.43a.31.31,0,0,0,.33.34.49.49,0,0,0,.47-.33.36.36,0,0,0,0-.11Z"/><path d="M61,77.18v.56h.51V78H61v1c0,.24.07.38.27.38a.77.77,0,0,0,.2,0l0,.27a1.17,1.17,0,0,1-.31,0,.49.49,0,0,1-.38-.14.74.74,0,0,1-.14-.51V78h-.3v-.27h.3v-.46Z"/><path d="M63.54,79.15c0,.2,0,.37,0,.52h-.31l0-.31h0a.74.74,0,0,1-.64.36c-.3,0-.67-.17-.67-.85V77.74h.35v1.07c0,.37.12.62.44.62a.51.51,0,0,0,.46-.32.57.57,0,0,0,0-.18V77.74h.35Z"/><path d="M64.13,78.34c0-.23,0-.42,0-.6h.31v.38h0a.59.59,0,0,1,.53-.43l.1,0V78H65a.49.49,0,0,0-.47.45.81.81,0,0,0,0,.16v1h-.35Z"/><path d="M65.59,78.77a.62.62,0,0,0,.67.67,1.18,1.18,0,0,0,.53-.1l.06.25a1.46,1.46,0,0,1-.64.12.89.89,0,0,1-.95-1,.94.94,0,0,1,.9-1,.82.82,0,0,1,.8.92c0,.07,0,.12,0,.16Zm1-.25a.49.49,0,0,0-.48-.57.57.57,0,0,0-.54.57Z"/><path d="M69.11,80v.2h-2V80Z"/><path d="M69.85,78.83l-.28.84h-.36L70.12,77h.42l.92,2.69h-.37l-.29-.84Zm.88-.28-.26-.77c-.06-.18-.1-.34-.14-.49h0a4.34,4.34,0,0,1-.14.48l-.26.78Z"/><path d="M71.55,79.83l1.12-2.89h.27l-1.12,2.89Z"/><path d="M73.18,79.25a1.23,1.23,0,0,0,.63.18c.35,0,.56-.19.56-.46s-.14-.4-.51-.54-.71-.38-.71-.76a.78.78,0,0,1,.87-.73,1.21,1.21,0,0,1,.6.13l-.1.28a1,1,0,0,0-.51-.13c-.37,0-.51.22-.51.41s.17.37.54.52.69.39.69.79-.31.77-1,.77a1.31,1.31,0,0,1-.68-.17Z"/><path d="M75.41,78.77a.62.62,0,0,0,.67.67,1.18,1.18,0,0,0,.53-.1l.06.25a1.46,1.46,0,0,1-.64.12.89.89,0,0,1-1-1,.94.94,0,0,1,.9-1,.82.82,0,0,1,.8.92.71.71,0,0,1,0,.16Zm1-.25A.49.49,0,0,0,76,78a.57.57,0,0,0-.54.57Z"/><path d="M77.22,78.34a5.53,5.53,0,0,0,0-.6h.31v.38h0a.59.59,0,0,1,.54-.43l.1,0V78h-.12a.49.49,0,0,0-.48.45s0,.1,0,.16v1h-.35Z"/><path d="M78.76,77.74l.38,1.09a3.49,3.49,0,0,1,.16.49h0c0-.16.1-.32.17-.49l.37-1.09h.37l-.76,1.93h-.34l-.73-1.93Z"/><path d="M80.94,77.19a.2.2,0,0,1-.22.22.22.22,0,1,1,0-.43A.2.2,0,0,1,80.94,77.19Zm-.39,2.48V77.74h.35v1.93Z"/><path d="M82.87,79.6a1.29,1.29,0,0,1-.56.11.91.91,0,0,1-1-1,1,1,0,0,1,1-1,1.08,1.08,0,0,1,.48.1l-.08.27a.76.76,0,0,0-.4-.09.67.67,0,0,0-.69.73.66.66,0,0,0,.68.72,1.11,1.11,0,0,0,.43-.09Z"/><path d="M83.45,78.77a.62.62,0,0,0,.67.67,1.18,1.18,0,0,0,.53-.1l.06.25a1.46,1.46,0,0,1-.64.12.89.89,0,0,1-.95-1,.94.94,0,0,1,.9-1,.82.82,0,0,1,.8.92.71.71,0,0,1,0,.16Zm1-.25A.49.49,0,0,0,84,78a.57.57,0,0,0-.54.57Z"/><path d="M87,80v.2H85V80Z"/><path d="M87.71,78.83l-.28.84h-.36L88,77h.42l.92,2.69H89l-.29-.84Zm.88-.28-.26-.77c-.06-.18-.1-.34-.14-.49h0a4.34,4.34,0,0,1-.14.48l-.26.78Z"/></g><path class="cls-9" d="M91,73.48a4.29,4.29,0,0,1,4.29,4.29v50.66A4.29,4.29,0,0,1,91,132.72H4.67a4.29,4.29,0,0,1-4.29-4.29V77.77a4.29,4.29,0,0,1,4.29-4.29H91m0-.38H4.67A4.68,4.68,0,0,0,0,77.77v50.66a4.68,4.68,0,0,0,4.67,4.67H91a4.68,4.68,0,0,0,4.67-4.67V77.77A4.68,4.68,0,0,0,91,73.1Z"/><path class="cls-12" d="M4.15,89.53v1.61H3.64V87H5a1.18,1.18,0,0,1,.9.34,1.26,1.26,0,0,1,.33.92,1.3,1.3,0,0,1-.31.91,1.25,1.25,0,0,1-.88.33Zm0-.44H5a.68.68,0,0,0,.53-.21.87.87,0,0,0,.18-.59.85.85,0,0,0-.19-.59A.64.64,0,0,0,5,87.47h-.8Z"/><path class="cls-12" d="M8,88.55l-.23,0a.56.56,0,0,0-.54.42v2.19h-.5V88.08h.49v.32A.61.61,0,0,1,7.84,88a.36.36,0,0,1,.19,0Z"/><path class="cls-12" d="M9.63,91.19a1.15,1.15,0,0,1-.88-.33,1.53,1.53,0,0,1-.31-1v-.37a1.7,1.7,0,0,1,.3-1.07A1,1,0,0,1,9.57,88a.93.93,0,0,1,.8.34,1.77,1.77,0,0,1,.28,1.06v.33H8.94v.07a1.15,1.15,0,0,0,.18.72.71.71,0,0,0,.54.22,1,1,0,0,0,.39-.08,1.09,1.09,0,0,0,.31-.27l.26.32A1.15,1.15,0,0,1,9.63,91.19Zm-.06-2.73a.52.52,0,0,0-.46.21,1.22,1.22,0,0,0-.17.66h1.21v-.07a1.29,1.29,0,0,0-.16-.62A.49.49,0,0,0,9.57,88.46Z"/><path class="cls-12" d="M12.08,90.38l.58-2.3h.5l-.9,3.06h-.38L11,88.08h.5Z"/><path class="cls-12" d="M14.26,87.28a.31.31,0,0,1-.07.21.32.32,0,0,1-.42,0,.31.31,0,0,1-.07-.21.32.32,0,0,1,.07-.22A.25.25,0,0,1,14,87a.26.26,0,0,1,.21.09A.32.32,0,0,1,14.26,87.28Zm0,3.86h-.5V88.08h.5Z"/><path class="cls-12" d="M16.1,91.19a1.12,1.12,0,0,1-.87-.33,1.48,1.48,0,0,1-.31-1v-.37a1.7,1.7,0,0,1,.3-1.07,1,1,0,0,1,.83-.39.94.94,0,0,1,.8.34,1.7,1.7,0,0,1,.27,1.06v.33H15.41v.07a1.15,1.15,0,0,0,.19.72.67.67,0,0,0,.53.22.93.93,0,0,0,.39-.08,1.12,1.12,0,0,0,.32-.27l.26.32A1.15,1.15,0,0,1,16.1,91.19Zm-.05-2.73a.52.52,0,0,0-.46.21,1.22,1.22,0,0,0-.17.66h1.2v-.07a1.1,1.1,0,0,0-.16-.62A.48.48,0,0,0,16.05,88.46Z"/><path class="cls-12" d="M20,90.26l.47-2.18H21l-.75,3.06h-.4L19.22,89l-.59,2.19h-.4l-.74-3.06H18l.48,2.13L19,88.08h.4Z"/><path class="cls-12" d="M25.27,89.3H22.89v-.43h2.38Z"/><path class="cls-12" d="M29.43,89.32H28v1.82h-.51V87h2.14v.44H28v1.41h1.4Z"/><path class="cls-12" d="M31.32,91.19a1.12,1.12,0,0,1-.87-.33,1.43,1.43,0,0,1-.31-1v-.37a1.7,1.7,0,0,1,.29-1.07,1,1,0,0,1,.84-.39,1,1,0,0,1,.8.34,1.7,1.7,0,0,1,.27,1.06v.33H30.63v.07a1.09,1.09,0,0,0,.19.72.67.67,0,0,0,.53.22.93.93,0,0,0,.39-.08,1,1,0,0,0,.31-.27l.26.32A1.12,1.12,0,0,1,31.32,91.19Zm-.05-2.73a.55.55,0,0,0-.47.21,1.23,1.23,0,0,0-.16.66h1.2v-.07a1.19,1.19,0,0,0-.16-.62A.48.48,0,0,0,31.27,88.46Z"/><path class="cls-12" d="M34.51,91.14a1.08,1.08,0,0,1-.06-.33.8.8,0,0,1-.68.38.86.86,0,0,1-.65-.23.89.89,0,0,1-.23-.65.92.92,0,0,1,.31-.74,1.25,1.25,0,0,1,.87-.28h.37V89a.54.54,0,0,0-.12-.39.56.56,0,0,0-.37-.11.51.51,0,0,0-.37.13.46.46,0,0,0-.14.34h-.5a.79.79,0,0,1,.14-.45.91.91,0,0,1,.37-.33A1.14,1.14,0,0,1,34,88a1,1,0,0,1,.72.23,1,1,0,0,1,.25.68v1.54a1.82,1.82,0,0,0,.09.61v0Zm-.66-.4a.67.67,0,0,0,.35-.1.6.6,0,0,0,.24-.26v-.72h-.28a.9.9,0,0,0-.57.16.51.51,0,0,0-.2.43.53.53,0,0,0,.1.37A.46.46,0,0,0,33.85,90.74Z"/><path class="cls-12" d="M36.37,87.35v.73h.46v.41h-.46v1.89a.53.53,0,0,0,.06.28.22.22,0,0,0,.2.09.69.69,0,0,0,.2,0v.42a1,1,0,0,1-.34,0A.52.52,0,0,1,36,91a1,1,0,0,1-.16-.6V88.49H35.4v-.41h.47v-.73Z"/><path class="cls-12" d="M39,90.87a.84.84,0,0,1-.72.32.73.73,0,0,1-.63-.28,1.4,1.4,0,0,1-.22-.84v-2h.5v2c0,.47.14.71.43.71a.63.63,0,0,0,.63-.4V88.08h.5v3.06H39Z"/><path class="cls-12" d="M41.48,88.55l-.22,0a.55.55,0,0,0-.54.42v2.19h-.5V88.08h.49v.32a.63.63,0,0,1,.57-.37.4.4,0,0,1,.2,0Z"/><path class="cls-12" d="M43.07,91.19a1.12,1.12,0,0,1-.87-.33,1.43,1.43,0,0,1-.31-1v-.37a1.7,1.7,0,0,1,.3-1.07A1,1,0,0,1,43,88a.94.94,0,0,1,.8.34,1.7,1.7,0,0,1,.27,1.06v.33H42.38v.07a1.15,1.15,0,0,0,.19.72.67.67,0,0,0,.53.22.93.93,0,0,0,.39-.08,1.12,1.12,0,0,0,.32-.27l.26.32A1.15,1.15,0,0,1,43.07,91.19Zm0-2.73a.52.52,0,0,0-.46.21,1.22,1.22,0,0,0-.17.66h1.2v-.07a1.1,1.1,0,0,0-.16-.62A.48.48,0,0,0,43,88.46Z"/><path class="cls-12" d="M48,90.06H46.62l-.32,1.08h-.54L47.09,87h.44l1.33,4.11h-.53Zm-1.26-.44h1.12l-.56-1.87Z"/><g class="cls-13"><rect class="cls-8" x="0.38" y="146.58" width="94.96" height="59.24"/><rect class="cls-9" x="0.38" y="156.65" width="94.96" height="49.16" rx="0.07"/><rect class="cls-10" x="3.94" y="148.76" width="87.84" height="5.49"/><path d="M6.35,149.83H6.7V151h0a.67.67,0,0,1,.25-.25.75.75,0,0,1,.36-.1c.26,0,.68.16.68.83v1.15H7.64v-1.11c0-.31-.11-.57-.44-.57a.5.5,0,0,0-.47.35.31.31,0,0,0,0,.17v1.16H6.35Z"/><path d="M9,150.18v.56h.5V151H9v1c0,.24.06.38.26.38a1,1,0,0,0,.21,0v.27a1.17,1.17,0,0,1-.31,0,.51.51,0,0,1-.38-.14.74.74,0,0,1-.14-.51V151h-.3v-.27h.3v-.46Z"/><path d="M10.3,150.18v.56h.51V151H10.3v1c0,.24.07.38.27.38a.77.77,0,0,0,.2,0v.27a1.05,1.05,0,0,1-.31,0,.52.52,0,0,1-.38-.14.74.74,0,0,1-.13-.51V151h-.3v-.27H10v-.46Z"/><path d="M11.2,151.37c0-.25,0-.45,0-.63h.32l0,.33h0a.77.77,0,0,1,.69-.38.88.88,0,0,1,.82,1,.92.92,0,0,1-.88,1,.66.66,0,0,1-.59-.31h0v1.06H11.2Zm.35.52c0,.05,0,.1,0,.14a.56.56,0,0,0,.53.41c.37,0,.59-.3.59-.75s-.2-.72-.58-.72a.57.57,0,0,0-.53.44.68.68,0,0,0,0,.14Z"/><path d="M13.39,151.06a.23.23,0,0,1,.24-.25.24.24,0,0,1,.24.25.23.23,0,0,1-.24.25A.24.24,0,0,1,13.39,151.06Zm0,1.41a.23.23,0,0,1,.24-.25.24.24,0,0,1,.24.25.23.23,0,0,1-.24.25A.24.24,0,0,1,13.39,152.47Z"/><path d="M14,152.83l1.11-2.89h.28l-1.12,2.89Z"/><path d="M15.38,152.83l1.12-2.89h.27l-1.12,2.89Z"/><path d="M17.05,151.37c0-.25,0-.45,0-.63h.32v.33h0a.76.76,0,0,1,.69-.38.88.88,0,0,1,.82,1,.92.92,0,0,1-.88,1,.65.65,0,0,1-.59-.31h0v1.06h-.35Zm.35.52c0,.05,0,.1,0,.14a.56.56,0,0,0,.53.41c.37,0,.59-.3.59-.75S18.32,151,18,151a.57.57,0,0,0-.53.44.68.68,0,0,0,0,.14Z"/><path d="M19.32,151.34c0-.23,0-.42,0-.6h.31v.38h0a.59.59,0,0,1,.54-.43l.1,0V151h-.12a.49.49,0,0,0-.47.45.78.78,0,0,0,0,.16v1h-.35Z"/><path d="M20.79,151.77a.62.62,0,0,0,.66.67,1.23,1.23,0,0,0,.54-.1l.06.25a1.55,1.55,0,0,1-.65.12.9.9,0,0,1-.95-1,1,1,0,0,1,.91-1.05.83.83,0,0,1,.8.92c0,.07,0,.12,0,.16Zm1-.25c0-.23-.09-.57-.49-.57a.58.58,0,0,0-.54.57Z"/><path d="M22.73,150.74l.38,1.09a3.49,3.49,0,0,1,.16.49h0a3.58,3.58,0,0,1,.17-.49l.37-1.09h.37l-.76,1.93h-.34l-.73-1.93Z"/><path d="M24.91,150.19a.2.2,0,0,1-.22.22.22.22,0,1,1,0-.43A.2.2,0,0,1,24.91,150.19Zm-.39,2.48v-1.93h.35v1.93Z"/><path d="M25.65,151.77a.62.62,0,0,0,.67.67,1.18,1.18,0,0,0,.53-.1l.06.25a1.46,1.46,0,0,1-.64.12.89.89,0,0,1-.95-1,.94.94,0,0,1,.9-1.05.82.82,0,0,1,.8.92.71.71,0,0,1,0,.16Zm1-.25a.49.49,0,0,0-.48-.57.57.57,0,0,0-.54.57Z"/><path d="M27.6,150.74l.26,1c.05.22.1.42.14.62h0c0-.2.11-.41.17-.61l.32-1h.3l.3,1c.07.23.12.43.17.63h0a4.37,4.37,0,0,1,.15-.63l.27-1h.35l-.62,1.93h-.32l-.3-.92c-.07-.22-.12-.41-.17-.64h0c-.05.24-.11.44-.17.64l-.32.92h-.32l-.58-1.93Z"/><path d="M30.16,152.47a.24.24,0,1,1,.48,0,.23.23,0,0,1-.24.25A.24.24,0,0,1,30.16,152.47Z"/><path d="M31.27,151.77a.62.62,0,0,0,.67.67,1.18,1.18,0,0,0,.53-.1l.06.25a1.46,1.46,0,0,1-.64.12.89.89,0,0,1-.95-1,.94.94,0,0,1,.9-1.05.82.82,0,0,1,.8.92.71.71,0,0,1,0,.16Zm1-.25a.49.49,0,0,0-.48-.57.57.57,0,0,0-.54.57Z"/><path d="M33.23,150.74l.28.41.19.32h0a2.46,2.46,0,0,1,.19-.32l.27-.41h.38l-.66.93.68,1h-.4l-.28-.43a3.87,3.87,0,0,1-.21-.34h0c-.06.12-.13.22-.2.34l-.28.43h-.39l.69-1-.66-.95Z"/><path d="M36,152.67l0-.24h0a.72.72,0,0,1-.59.29.55.55,0,0,1-.59-.56c0-.47.41-.72,1.16-.72v0a.4.4,0,0,0-.44-.45.92.92,0,0,0-.5.15l-.08-.23a1.14,1.14,0,0,1,.63-.18c.6,0,.74.41.74.8v.72a3.13,3.13,0,0,0,0,.46Zm-.05-1c-.38,0-.82.06-.82.43a.31.31,0,0,0,.33.34.49.49,0,0,0,.47-.33.36.36,0,0,0,0-.11Z"/><path d="M36.85,151.26c0-.2,0-.36,0-.52h.31l0,.31h0a.68.68,0,0,1,.61-.36.56.56,0,0,1,.54.39h0a.78.78,0,0,1,.22-.25.63.63,0,0,1,.43-.14c.25,0,.63.17.63.84v1.14h-.34v-1.09c0-.37-.14-.6-.42-.6a.46.46,0,0,0-.42.32.84.84,0,0,0,0,.18v1.19h-.34v-1.16c0-.3-.14-.53-.4-.53a.5.5,0,0,0-.44.35.57.57,0,0,0,0,.18v1.16h-.34Z"/><path d="M40.18,151.37c0-.25,0-.45,0-.63h.31l0,.33h0a.75.75,0,0,1,.69-.38.89.89,0,0,1,.82,1,.92.92,0,0,1-.88,1,.67.67,0,0,1-.6-.31h0v1.06h-.35Zm.35.52a.59.59,0,0,0,0,.14.54.54,0,0,0,.53.41c.37,0,.58-.3.58-.75s-.2-.72-.57-.72a.56.56,0,0,0-.53.44.35.35,0,0,0,0,.14Z"/><path d="M42.46,149.83h.35v2.84h-.35Z"/><path d="M43.6,151.77a.62.62,0,0,0,.66.67,1.2,1.2,0,0,0,.54-.1l.06.25a1.5,1.5,0,0,1-.64.12.89.89,0,0,1-.95-1,.94.94,0,0,1,.9-1.05.83.83,0,0,1,.8.92c0,.07,0,.12,0,.16Zm1-.25a.49.49,0,0,0-.49-.57.57.57,0,0,0-.53.57Z"/><path d="M45.28,152.47a.24.24,0,0,1,.24-.26.26.26,0,0,1,0,.51A.23.23,0,0,1,45.28,152.47Z"/><path d="M47.57,152.6a1.29,1.29,0,0,1-.56.11.91.91,0,0,1-1-1,1,1,0,0,1,1-1,1.08,1.08,0,0,1,.48.1l-.07.27a.83.83,0,0,0-.41-.09.67.67,0,0,0-.69.73.66.66,0,0,0,.68.72,1.07,1.07,0,0,0,.43-.09Z"/><path d="M49.71,151.69a1,1,0,0,1-1,1,.92.92,0,0,1-.92-1,.94.94,0,0,1,1-1A.92.92,0,0,1,49.71,151.69Zm-1.54,0a.66.66,0,0,0,.59.74c.34,0,.59-.31.59-.75s-.17-.74-.58-.74S48.17,151.34,48.17,151.71Z"/><path d="M50.15,151.26c0-.2,0-.36,0-.52h.31v.31h0a.68.68,0,0,1,.61-.36.58.58,0,0,1,.55.39h0a.75.75,0,0,1,.21-.25.67.67,0,0,1,.43-.14c.26,0,.64.17.64.84v1.14h-.35v-1.09c0-.37-.13-.6-.42-.6a.45.45,0,0,0-.41.32.48.48,0,0,0,0,.18v1.19h-.35v-1.16c0-.3-.13-.53-.4-.53a.47.47,0,0,0-.43.35.38.38,0,0,0,0,.18v1.16h-.35Z"/><path d="M53.19,152.83l1.12-2.89h.27l-1.12,2.89Z"/></g><path class="cls-9" d="M91,146.58a4.29,4.29,0,0,1,4.29,4.29v50.66A4.29,4.29,0,0,1,91,205.82H4.67a4.29,4.29,0,0,1-4.29-4.29V150.87a4.29,4.29,0,0,1,4.29-4.29H91m0-.38H4.67A4.68,4.68,0,0,0,0,150.87v50.66a4.68,4.68,0,0,0,4.67,4.67H91a4.68,4.68,0,0,0,4.67-4.67V150.87A4.68,4.68,0,0,0,91,146.2Z"/><path class="cls-14" d="M4.15,162.63v1.61H3.64v-4.11H5a1.18,1.18,0,0,1,.9.34,1.26,1.26,0,0,1,.33.92,1.3,1.3,0,0,1-.31.91,1.25,1.25,0,0,1-.88.33Zm0-.44H5a.68.68,0,0,0,.53-.21.87.87,0,0,0,.18-.59.84.84,0,0,0-.19-.59.64.64,0,0,0-.52-.23h-.8Z"/><path class="cls-14" d="M8,161.65l-.23,0a.56.56,0,0,0-.54.42v2.19h-.5v-3.06h.49v.31a.62.62,0,0,1,.57-.36.36.36,0,0,1,.19,0Z"/><path class="cls-14" d="M9.63,164.29a1.12,1.12,0,0,1-.88-.34,1.48,1.48,0,0,1-.31-1v-.37a1.7,1.7,0,0,1,.3-1.07,1,1,0,0,1,.83-.39.93.93,0,0,1,.8.34,1.77,1.77,0,0,1,.28,1.06v.33H8.94v.07a1.15,1.15,0,0,0,.18.72.71.71,0,0,0,.54.22.86.86,0,0,0,.39-.09.92.92,0,0,0,.31-.26l.26.32A1.15,1.15,0,0,1,9.63,164.29Zm-.06-2.73a.52.52,0,0,0-.46.21,1.22,1.22,0,0,0-.17.66h1.21v-.07a1.26,1.26,0,0,0-.16-.62A.49.49,0,0,0,9.57,161.56Z"/><path class="cls-14" d="M12.08,163.48l.58-2.3h.5l-.9,3.06h-.38L11,161.18h.5Z"/><path class="cls-14" d="M14.26,160.37a.32.32,0,0,1-.07.22.32.32,0,0,1-.42,0,.32.32,0,0,1-.07-.22.31.31,0,0,1,.07-.21.25.25,0,0,1,.21-.09.26.26,0,0,1,.21.09A.31.31,0,0,1,14.26,160.37Zm0,3.87h-.5v-3.06h.5Z"/><path class="cls-14" d="M16.1,164.29a1.09,1.09,0,0,1-.87-.34,1.43,1.43,0,0,1-.31-1v-.37a1.7,1.7,0,0,1,.3-1.07,1,1,0,0,1,.83-.39.94.94,0,0,1,.8.34,1.7,1.7,0,0,1,.27,1.06v.33H15.41v.07a1.15,1.15,0,0,0,.19.72.67.67,0,0,0,.53.22.8.8,0,0,0,.39-.09.94.94,0,0,0,.32-.26l.26.32A1.15,1.15,0,0,1,16.1,164.29Zm-.05-2.73a.52.52,0,0,0-.46.21,1.22,1.22,0,0,0-.17.66h1.2v-.07a1.07,1.07,0,0,0-.16-.62A.48.48,0,0,0,16.05,161.56Z"/><path class="cls-14" d="M20,163.36l.47-2.18H21l-.75,3.06h-.4l-.59-2.19-.59,2.19h-.4l-.74-3.06H18l.48,2.13.56-2.13h.4Z"/><rect class="cls-2" x="3.37" y="168.49" width="24" height="31.94"/><rect class="cls-3" x="3.37" y="168.49" width="24" height="8.39"/><path class="cls-2" d="M9.06,170.47l1,3.07,1-3.07h.61v3.77h-.47v-1.47l0-1.47-1,2.94H9.86l-1-2.93,0,1.46v1.47H8.44v-3.77Z"/><path class="cls-2" d="M13.84,174.24a.93.93,0,0,1-.06-.31.72.72,0,0,1-.62.36.78.78,0,0,1-.6-.22.81.81,0,0,1-.21-.6.84.84,0,0,1,.29-.67,1.17,1.17,0,0,1,.8-.26h.33v-.3a.47.47,0,0,0-.11-.36.48.48,0,0,0-.34-.1.49.49,0,0,0-.34.12.44.44,0,0,0-.13.31H12.4a.78.78,0,0,1,.12-.41.89.89,0,0,1,.34-.3,1,1,0,0,1,.49-.11.92.92,0,0,1,.65.21.81.81,0,0,1,.23.62v1.41a1.62,1.62,0,0,0,.09.57v0Zm-.61-.37a.62.62,0,0,0,.32-.09.54.54,0,0,0,.22-.23v-.67h-.26A.86.86,0,0,0,13,173a.47.47,0,0,0-.19.4.51.51,0,0,0,.09.34A.41.41,0,0,0,13.23,173.87Z"/><path class="cls-2" d="M16.31,173.52a.34.34,0,0,0-.11-.25,1.6,1.6,0,0,0-.44-.25,3.06,3.06,0,0,1-.52-.26.89.89,0,0,1-.23-.25.67.67,0,0,1-.07-.33.72.72,0,0,1,.25-.57,1.05,1.05,0,0,1,1.3,0,.83.83,0,0,1,.25.61h-.46a.44.44,0,0,0-.13-.32.41.41,0,0,0-.32-.13.46.46,0,0,0-.32.1.36.36,0,0,0-.11.28.3.3,0,0,0,.08.23,1.68,1.68,0,0,0,.41.22,1.89,1.89,0,0,1,.69.39.69.69,0,0,1,.19.48.74.74,0,0,1-.26.59,1,1,0,0,1-.67.22,1,1,0,0,1-.71-.25.84.84,0,0,1-.27-.64h.46a.5.5,0,0,0,.14.37.56.56,0,0,0,.38.13.58.58,0,0,0,.35-.1A.35.35,0,0,0,16.31,173.52Z"/><path class="cls-2" d="M18,170.76v.68h.42v.37H18v1.74a.44.44,0,0,0,.05.25.23.23,0,0,0,.19.08.57.57,0,0,0,.18,0v.39a1.19,1.19,0,0,1-.32,0,.49.49,0,0,1-.42-.2.91.91,0,0,1-.14-.54v-1.74h-.43v-.37h.43v-.68Z"/><path class="cls-2" d="M19.94,174.29a1,1,0,0,1-.81-.31,1.38,1.38,0,0,1-.28-.92v-.34a1.61,1.61,0,0,1,.27-1,.9.9,0,0,1,.77-.35.86.86,0,0,1,.73.31,1.52,1.52,0,0,1,.25,1v.3H19.3V173a1,1,0,0,0,.17.65.61.61,0,0,0,.49.21.8.8,0,0,0,.36-.08.9.9,0,0,0,.29-.24l.24.29A1,1,0,0,1,19.94,174.29Zm-.05-2.51a.49.49,0,0,0-.43.19,1.18,1.18,0,0,0-.15.61h1.1v-.06a1.07,1.07,0,0,0-.14-.57A.46.46,0,0,0,19.89,171.78Z"/><path class="cls-2" d="M22.58,171.87a.68.68,0,0,0-.21,0,.51.51,0,0,0-.49.38v2h-.46v-2.8h.45v.28a.56.56,0,0,1,.52-.33.48.48,0,0,1,.18,0Z"/><rect class="cls-2" x="3.37" y="176.89" width="24" height="7.85"/><rect class="cls-2" x="3.37" y="184.73" width="24" height="7.85"/><rect class="cls-2" x="3.37" y="192.58" width="24" height="7.85"/><path d="M11.77,189.28a.39.39,0,0,0-.1-.29,1.12,1.12,0,0,0-.37-.19,2,2,0,0,1-.41-.2.79.79,0,0,1-.21-.24.74.74,0,0,1-.07-.31.68.68,0,0,1,.2-.49.82.82,0,0,1,.92-.09.59.59,0,0,1,.27.27.86.86,0,0,1,.09.39h-.32a.49.49,0,0,0-.11-.36.38.38,0,0,0-.32-.13.38.38,0,0,0-.41.41.34.34,0,0,0,.12.26.87.87,0,0,0,.35.2,1.14,1.14,0,0,1,.53.3.65.65,0,0,1,.16.47.61.61,0,0,1-.2.49.77.77,0,0,1-.54.18.9.9,0,0,1-.4-.09.79.79,0,0,1-.3-.27.77.77,0,0,1-.1-.4h.32a.48.48,0,0,0,.13.36.53.53,0,0,0,.67,0A.39.39,0,0,0,11.77,189.28Z"/><path d="M13.14,190a.67.67,0,0,1-.54-.21.86.86,0,0,1-.19-.61v-.22a1.08,1.08,0,0,1,.18-.66.6.6,0,0,1,.51-.24.58.58,0,0,1,.49.21,1.05,1.05,0,0,1,.17.65v.2h-1v.05a.63.63,0,0,0,.12.43.36.36,0,0,0,.32.14.6.6,0,0,0,.24-.05.56.56,0,0,0,.19-.16l.16.19A.67.67,0,0,1,13.14,190Zm0-1.67a.31.31,0,0,0-.28.13.76.76,0,0,0-.11.4h.74v0a.81.81,0,0,0-.09-.38A.32.32,0,0,0,13.1,188.28Z"/><path d="M14.9,188.34l-.14,0a.34.34,0,0,0-.33.26v1.34h-.3v-1.87h.29v.19a.39.39,0,0,1,.35-.23.24.24,0,0,1,.12,0Z"/><path d="M15.77,189.45l.35-1.4h.31l-.55,1.87h-.23l-.56-1.87h.31Z"/><path d="M17.11,187.55a.17.17,0,0,1-.05.13s-.07,0-.13,0a.14.14,0,0,1-.13,0,.17.17,0,0,1,0-.13.2.2,0,0,1,0-.13.19.19,0,0,1,.26,0A.21.21,0,0,1,17.11,187.55Zm0,2.37h-.3v-1.87h.3Z"/><path d="M18.22,189.69a.32.32,0,0,0,.24-.09.46.46,0,0,0,.1-.27h.29a.62.62,0,0,1-.19.44.6.6,0,0,1-.44.18.66.66,0,0,1-.54-.22,1,1,0,0,1-.18-.65v-.2a1,1,0,0,1,.18-.65.67.67,0,0,1,.53-.22.56.56,0,0,1,.46.19.75.75,0,0,1,.18.49h-.29a.52.52,0,0,0-.1-.31.3.3,0,0,0-.25-.1.35.35,0,0,0-.3.13.73.73,0,0,0-.1.44v.24a.76.76,0,0,0,.1.46A.32.32,0,0,0,18.22,189.69Z"/><path d="M19.87,190a.66.66,0,0,1-.53-.21.86.86,0,0,1-.19-.61v-.22a1.08,1.08,0,0,1,.18-.66.6.6,0,0,1,.51-.24.58.58,0,0,1,.49.21,1.12,1.12,0,0,1,.17.65v.2H19.45v.05a.69.69,0,0,0,.11.43.39.39,0,0,0,.33.14.6.6,0,0,0,.24-.05.56.56,0,0,0,.19-.16l.16.19A.68.68,0,0,1,19.87,190Zm0-1.67a.31.31,0,0,0-.28.13.68.68,0,0,0-.11.4h.74v0a.69.69,0,0,0-.1-.38A.3.3,0,0,0,19.84,188.28Z"/><path d="M21.72,189.92V187.4h.72a.7.7,0,0,1,.51.17.65.65,0,0,1,.18.5.54.54,0,0,1-.09.31.61.61,0,0,1-.24.21.51.51,0,0,1,.28.22.81.81,0,0,1-.09.91.69.69,0,0,1-.53.2Zm.31-1.44h.41a.34.34,0,0,0,.27-.12.39.39,0,0,0,.1-.29.41.41,0,0,0-.09-.3.4.4,0,0,0-.28-.1H22Zm0,.26v.91h.44a.35.35,0,0,0,.28-.12.5.5,0,0,0,.11-.34q0-.45-.39-.45Z"/><path class="cls-4" d="M7.56,190.37a1.93,1.93,0,1,1,1.92-2,1.91,1.91,0,0,1-1.92,2Z"/><path class="cls-2" d="M7.56,186.9a1.53,1.53,0,0,1,1.52,1.52v0A1.52,1.52,0,0,1,7.56,190h0a1.52,1.52,0,0,1-1.51-1.52v0a1.52,1.52,0,0,1,1.51-1.52h0m0-.79h0a2.33,2.33,0,1,0,2.31,2.35,2.32,2.32,0,0,0-2.31-2.35Z"/><path d="M11.54,196.91a.38.38,0,0,0-.1-.29,1.1,1.1,0,0,0-.37-.2,1.56,1.56,0,0,1-.41-.2.9.9,0,0,1-.21-.23.64.64,0,0,1-.07-.31.66.66,0,0,1,.2-.49.72.72,0,0,1,.52-.2.88.88,0,0,1,.4.1.81.81,0,0,1,.27.28.79.79,0,0,1,.09.38h-.32a.57.57,0,0,0-.11-.36.45.45,0,0,0-.33-.12.39.39,0,0,0-.29.1.41.41,0,0,0-.11.3.34.34,0,0,0,.12.27,1,1,0,0,0,.35.19,1.19,1.19,0,0,1,.53.3.67.67,0,0,1,.16.47.63.63,0,0,1-.2.49.73.73,0,0,1-.54.19,1,1,0,0,1-.41-.1.69.69,0,0,1-.29-.27.74.74,0,0,1-.1-.4h.31a.54.54,0,0,0,.13.37.53.53,0,0,0,.36.13.46.46,0,0,0,.32-.11A.39.39,0,0,0,11.54,196.91Z"/><path d="M12.9,197.58a.66.66,0,0,1-.53-.21.86.86,0,0,1-.19-.61v-.23a1,1,0,0,1,.18-.65.6.6,0,0,1,.51-.24.58.58,0,0,1,.49.21,1.1,1.1,0,0,1,.17.65v.2h-1v0a.73.73,0,0,0,.11.44.42.42,0,0,0,.33.14.48.48,0,0,0,.24-.06.47.47,0,0,0,.19-.16l.16.2A.7.7,0,0,1,12.9,197.58Zm0-1.68a.31.31,0,0,0-.28.13.81.81,0,0,0-.11.41h.74v0a.67.67,0,0,0-.1-.38A.28.28,0,0,0,12.87,195.9Z"/><path d="M14.67,196h-.14a.33.33,0,0,0-.33.26v1.33h-.31v-1.87h.3v.19a.36.36,0,0,1,.34-.22l.13,0Z"/><path d="M15.53,197.08l.36-1.41h.31l-.55,1.87h-.23l-.56-1.87h.31Z"/><path d="M16.87,195.18a.2.2,0,0,1,0,.13.19.19,0,0,1-.26,0,.2.2,0,0,1,0-.13.18.18,0,0,1,0-.13.17.17,0,0,1,.26,0A.18.18,0,0,1,16.87,195.18Zm0,2.36h-.31v-1.87h.31Z"/><path d="M18,197.32a.36.36,0,0,0,.25-.1.42.42,0,0,0,.1-.27h.29a.66.66,0,0,1-.19.45.63.63,0,0,1-.45.18.67.67,0,0,1-.53-.22,1,1,0,0,1-.18-.65v-.21a1,1,0,0,1,.18-.64.64.64,0,0,1,.53-.22.62.62,0,0,1,.46.18.78.78,0,0,1,.18.5h-.29a.49.49,0,0,0-.1-.31.31.31,0,0,0-.25-.11.34.34,0,0,0-.3.14.69.69,0,0,0-.1.44v.23a.9.9,0,0,0,.09.47A.37.37,0,0,0,18,197.32Z"/><path d="M19.64,197.58a.7.7,0,0,1-.54-.21,1,1,0,0,1-.19-.61v-.23a1,1,0,0,1,.19-.65.6.6,0,0,1,.51-.24.59.59,0,0,1,.49.21,1,1,0,0,1,.16.65v.2h-1v0a.73.73,0,0,0,.11.44.42.42,0,0,0,.33.14.48.48,0,0,0,.24-.06.54.54,0,0,0,.19-.16l.16.2A.72.72,0,0,1,19.64,197.58Zm0-1.68a.32.32,0,0,0-.29.13.82.82,0,0,0-.1.41H20v0a.67.67,0,0,0-.1-.38A.28.28,0,0,0,19.61,195.9Z"/><path d="M23.07,196.74a1,1,0,0,1-.23.62.79.79,0,0,1-.59.22.73.73,0,0,1-.6-.29,1.23,1.23,0,0,1-.22-.78v-.46a1.16,1.16,0,0,1,.23-.77.75.75,0,0,1,.62-.29.74.74,0,0,1,.57.22,1,1,0,0,1,.22.62h-.32a.81.81,0,0,0-.13-.43.49.49,0,0,0-.73.07,1,1,0,0,0-.14.59v.46a1,1,0,0,0,.13.58.4.4,0,0,0,.37.21.46.46,0,0,0,.36-.13.81.81,0,0,0,.14-.44Z"/><rect class="cls-4" x="5.8" y="194.66" width="3.14" height="3.33"/><path class="cls-2" d="M8.6,195v2.67H6.13V195H8.6m.67-.66H5.46v4H9.27v-4Z"/><path d="M11.57,181.3a.4.4,0,0,0-.1-.29,1.1,1.1,0,0,0-.37-.2,1.42,1.42,0,0,1-.41-.2.9.9,0,0,1-.21-.23.64.64,0,0,1-.07-.31.63.63,0,0,1,.2-.49.72.72,0,0,1,.52-.2.88.88,0,0,1,.4.1.8.8,0,0,1,.36.66h-.32a.57.57,0,0,0-.11-.36.45.45,0,0,0-.33-.13.41.41,0,0,0-.3.11.4.4,0,0,0-.1.3.37.37,0,0,0,.11.27,1.19,1.19,0,0,0,.36.19,1.25,1.25,0,0,1,.53.3.72.72,0,0,1,.16.47.63.63,0,0,1-.2.49.77.77,0,0,1-.54.19.92.92,0,0,1-.41-.1.69.69,0,0,1-.29-.27.77.77,0,0,1-.11-.4h.32a.49.49,0,0,0,.13.37.52.52,0,0,0,.36.12.41.41,0,0,0,.31-.1A.4.4,0,0,0,11.57,181.3Z"/><path d="M12.93,182a.7.7,0,0,1-.54-.21,1,1,0,0,1-.19-.61v-.23a1,1,0,0,1,.19-.65.6.6,0,0,1,.51-.24.59.59,0,0,1,.49.21,1,1,0,0,1,.16.65v.2h-1v0a.73.73,0,0,0,.11.44.42.42,0,0,0,.33.13.47.47,0,0,0,.24,0,.54.54,0,0,0,.19-.16l.16.2A.72.72,0,0,1,12.93,182Zm0-1.68a.32.32,0,0,0-.29.13.82.82,0,0,0-.1.41h.74v-.05a.72.72,0,0,0-.1-.38A.3.3,0,0,0,12.9,180.29Z"/><path d="M14.7,180.35h-.14a.33.33,0,0,0-.33.26v1.33h-.31v-1.87h.3v.19a.39.39,0,0,1,.35-.22l.12,0Z"/><path d="M15.56,181.47l.36-1.41h.31l-.56,1.87h-.22l-.57-1.87h.31Z"/><path d="M16.9,179.57a.2.2,0,0,1,0,.13.19.19,0,0,1-.26,0,.21.21,0,0,1-.05-.13.19.19,0,0,1,.05-.13.15.15,0,0,1,.13-.06.16.16,0,0,1,.13.06A.18.18,0,0,1,16.9,179.57Zm0,2.36h-.31v-1.87h.31Z"/><path d="M18,181.7a.32.32,0,0,0,.24-.09.33.33,0,0,0,.1-.27h.29a.62.62,0,0,1-.19.45A.6.6,0,0,1,18,182a.67.67,0,0,1-.53-.22,1,1,0,0,1-.18-.65v-.21a1,1,0,0,1,.18-.64A.64.64,0,0,1,18,180a.58.58,0,0,1,.45.18.68.68,0,0,1,.18.5h-.29a.5.5,0,0,0-.09-.31.33.33,0,0,0-.25-.11.34.34,0,0,0-.3.14.74.74,0,0,0-.11.43v.24a.89.89,0,0,0,.1.47A.36.36,0,0,0,18,181.7Z"/><path d="M19.67,182a.69.69,0,0,1-.54-.21.91.91,0,0,1-.19-.61v-.23a1,1,0,0,1,.18-.65.6.6,0,0,1,.51-.24.57.57,0,0,1,.49.21,1,1,0,0,1,.17.65v.2h-1v0a.66.66,0,0,0,.11.44.39.39,0,0,0,.33.13.43.43,0,0,0,.23,0,.49.49,0,0,0,.2-.16l.16.2A.73.73,0,0,1,19.67,182Zm0-1.68a.32.32,0,0,0-.28.13.82.82,0,0,0-.1.41H20v-.05a.72.72,0,0,0-.1-.38A.32.32,0,0,0,19.63,180.29Z"/><path d="M22.69,181.27h-.85l-.2.66h-.32l.81-2.51h.27l.81,2.51h-.32Zm-.77-.27h.69l-.35-1.14Z"/><path class="cls-4" d="M9.08,180.3l-1.51-1.5a.22.22,0,0,0-.32,0l-1.5,1.5a.21.21,0,0,0,0,.31l1.51,1.51a.21.21,0,0,0,.31,0l1.51-1.5A.22.22,0,0,0,9.08,180.3Z"/><line class="cls-6" x1="3.37" y1="184.73" x2="27.37" y2="184.73"/><line class="cls-6" x1="3.37" y1="192.58" x2="27.37" y2="192.58"/><rect class="cls-2" x="33.39" y="168.49" width="24" height="31.94"/><rect class="cls-3" x="33.39" y="168.49" width="24" height="8.39"/><path class="cls-2" d="M37.49,172.57H36.21v1.67h-.48v-3.77h2v.41H36.21v1.29h1.28Z"/><path class="cls-2" d="M39.23,174.29a1,1,0,0,1-.81-.31,1.38,1.38,0,0,1-.28-.92v-.34a1.61,1.61,0,0,1,.27-1,.9.9,0,0,1,.77-.35.86.86,0,0,1,.73.31,1.52,1.52,0,0,1,.25,1v.3H38.59V173a1,1,0,0,0,.17.65.61.61,0,0,0,.49.21.8.8,0,0,0,.36-.08.9.9,0,0,0,.29-.24l.24.29A1,1,0,0,1,39.23,174.29Zm0-2.51a.49.49,0,0,0-.43.19,1.18,1.18,0,0,0-.15.61h1.1v-.06a1.07,1.07,0,0,0-.14-.57A.46.46,0,0,0,39.18,171.78Z"/><path class="cls-2" d="M42.16,174.24a.93.93,0,0,1-.06-.31.72.72,0,0,1-.62.36.78.78,0,0,1-.6-.22A.94.94,0,0,1,41,172.8a1.16,1.16,0,0,1,.79-.26h.34v-.3a.52.52,0,0,0-.11-.36.48.48,0,0,0-.34-.1.49.49,0,0,0-.34.12.44.44,0,0,0-.13.31h-.46a.71.71,0,0,1,.13-.41.83.83,0,0,1,.34-.3,1,1,0,0,1,.48-.11.93.93,0,0,1,.66.21.85.85,0,0,1,.23.62v1.41a1.62,1.62,0,0,0,.09.57v0Zm-.61-.37a.62.62,0,0,0,.32-.09.6.6,0,0,0,.22-.23v-.67h-.26a.84.84,0,0,0-.51.14.48.48,0,0,0-.2.4.51.51,0,0,0,.1.34A.39.39,0,0,0,41.55,173.87Z"/><path class="cls-2" d="M43.86,170.76v.68h.42v.37h-.42v1.74a.44.44,0,0,0,.06.25.19.19,0,0,0,.18.08.63.63,0,0,0,.19,0v.39a1.13,1.13,0,0,1-.32,0,.47.47,0,0,1-.41-.2.85.85,0,0,1-.14-.54v-1.74H43v-.37h.43v-.68Z"/><path class="cls-2" d="M46.26,174a.77.77,0,0,1-.66.3A.68.68,0,0,1,45,174a1.29,1.29,0,0,1-.2-.77v-1.82h.46v1.79c0,.43.13.65.39.65a.58.58,0,0,0,.58-.37v-2.07h.46v2.8h-.44Z"/><path class="cls-2" d="M48.56,171.87a.71.71,0,0,0-.21,0,.5.5,0,0,0-.49.38v2H47.4v-2.8h.45v.28a.58.58,0,0,1,.52-.33.5.5,0,0,1,.19,0Z"/><path class="cls-2" d="M50,174.29a1,1,0,0,1-.8-.31,1.33,1.33,0,0,1-.29-.92v-.34a1.61,1.61,0,0,1,.27-1,.91.91,0,0,1,.77-.35.88.88,0,0,1,.74.31,1.59,1.59,0,0,1,.24,1v.3H49.39V173a1,1,0,0,0,.17.65.58.58,0,0,0,.49.21.78.78,0,0,0,.35-.08.81.81,0,0,0,.29-.24l.24.29A1,1,0,0,1,50,174.29ZM50,171.78a.47.47,0,0,0-.42.19,1.09,1.09,0,0,0-.16.61H50.5v-.06a1.06,1.06,0,0,0-.15-.57A.45.45,0,0,0,50,171.78Z"/><path class="cls-2" d="M54.55,173.25H53.27l-.29,1h-.49l1.22-3.77h.41l1.22,3.77h-.49Zm-1.15-.41h1l-.52-1.71Z"/><rect class="cls-2" x="33.39" y="176.89" width="24" height="7.85"/><path d="M41.79,189.28a.39.39,0,0,0-.1-.29,1.12,1.12,0,0,0-.37-.19,2,2,0,0,1-.41-.2.79.79,0,0,1-.21-.24.62.62,0,0,1-.07-.31.68.68,0,0,1,.2-.49.71.71,0,0,1,.52-.19.77.77,0,0,1,.4.1.7.7,0,0,1,.27.27.86.86,0,0,1,.09.39h-.32a.53.53,0,0,0-.11-.36.42.42,0,0,0-.33-.13.4.4,0,0,0-.29.11.41.41,0,0,0-.11.3.34.34,0,0,0,.12.26.87.87,0,0,0,.35.2,1.19,1.19,0,0,1,.53.3.65.65,0,0,1,.16.47.65.65,0,0,1-.2.49.77.77,0,0,1-.54.18,1,1,0,0,1-.41-.09.84.84,0,0,1-.29-.27.77.77,0,0,1-.1-.4h.31a.53.53,0,0,0,.13.36.48.48,0,0,0,.36.13.46.46,0,0,0,.32-.11A.39.39,0,0,0,41.79,189.28Z"/><path d="M43.15,190a.66.66,0,0,1-.53-.21.86.86,0,0,1-.19-.61v-.22a1.08,1.08,0,0,1,.18-.66.6.6,0,0,1,.51-.24.58.58,0,0,1,.49.21,1.12,1.12,0,0,1,.17.65v.2H42.73v.05a.69.69,0,0,0,.11.43.39.39,0,0,0,.33.14.6.6,0,0,0,.24-.05.56.56,0,0,0,.19-.16l.16.19A.68.68,0,0,1,43.15,190Zm0-1.67a.31.31,0,0,0-.28.13.76.76,0,0,0-.11.4h.74v0a.69.69,0,0,0-.1-.38A.3.3,0,0,0,43.12,188.28Z"/><path d="M44.92,188.34l-.14,0a.34.34,0,0,0-.33.26v1.34h-.31v-1.87h.3v.19a.37.37,0,0,1,.34-.23.28.28,0,0,1,.13,0Z"/><path d="M45.78,189.45l.36-1.4h.31l-.55,1.87h-.23l-.56-1.87h.31Z"/><path d="M47.12,187.55a.17.17,0,0,1,0,.13.19.19,0,0,1-.26,0,.17.17,0,0,1,0-.13.2.2,0,0,1,0-.13.19.19,0,0,1,.26,0A.2.2,0,0,1,47.12,187.55Zm0,2.37h-.31v-1.87h.31Z"/><path d="M48.23,189.69a.35.35,0,0,0,.25-.09.46.46,0,0,0,.1-.27h.29a.62.62,0,0,1-.19.44.63.63,0,0,1-.45.18.64.64,0,0,1-.53-.22,1,1,0,0,1-.18-.65v-.2a1,1,0,0,1,.18-.65.67.67,0,0,1,.53-.22.59.59,0,0,1,.46.19.75.75,0,0,1,.18.49h-.29a.52.52,0,0,0-.1-.31.3.3,0,0,0-.25-.1.33.33,0,0,0-.3.13.73.73,0,0,0-.1.44v.24a.86.86,0,0,0,.09.46A.34.34,0,0,0,48.23,189.69Z"/><path d="M49.89,190a.7.7,0,0,1-.54-.21,1,1,0,0,1-.19-.61v-.22a1,1,0,0,1,.19-.66.6.6,0,0,1,.51-.24.59.59,0,0,1,.49.21,1.06,1.06,0,0,1,.16.65v.2h-1v.05a.69.69,0,0,0,.11.43.39.39,0,0,0,.33.14.6.6,0,0,0,.24-.05.67.67,0,0,0,.19-.16l.16.19A.69.69,0,0,1,49.89,190Zm0-1.67a.32.32,0,0,0-.29.13.77.77,0,0,0-.1.4h.74v0a.69.69,0,0,0-.1-.38A.3.3,0,0,0,49.86,188.28Z"/><path d="M51.74,189.92V187.4h.71a.72.72,0,0,1,.52.17.65.65,0,0,1,.18.5.54.54,0,0,1-.09.31.61.61,0,0,1-.24.21.49.49,0,0,1,.27.22.66.66,0,0,1,.11.38.74.74,0,0,1-.19.53.71.71,0,0,1-.53.2Zm.31-1.44h.41a.34.34,0,0,0,.27-.12.44.44,0,0,0,.1-.29.35.35,0,0,0-.38-.4h-.4Zm0,.26v.91h.44a.35.35,0,0,0,.28-.12.5.5,0,0,0,.11-.34q0-.45-.39-.45Z"/><path class="cls-4" d="M37.58,190.37a1.93,1.93,0,1,1,1.91-2,1.9,1.9,0,0,1-1.91,2Z"/><path class="cls-2" d="M37.58,186.9a1.53,1.53,0,0,1,1.52,1.52v0A1.53,1.53,0,0,1,37.58,190h0a1.52,1.52,0,0,1-1.52-1.52v0a1.53,1.53,0,0,1,1.52-1.52h0m0-.79h0a2.33,2.33,0,1,0,2.31,2.35,2.32,2.32,0,0,0-2.31-2.35Z"/><path d="M41.56,196.91a.38.38,0,0,0-.11-.29,1,1,0,0,0-.36-.2,1.42,1.42,0,0,1-.41-.2.61.61,0,0,1-.28-.54.63.63,0,0,1,.2-.49.72.72,0,0,1,.52-.2.88.88,0,0,1,.4.1.7.7,0,0,1,.26.28.8.8,0,0,1,.1.38h-.32a.57.57,0,0,0-.11-.36.45.45,0,0,0-.33-.12.35.35,0,0,0-.4.4.37.37,0,0,0,.11.27,1.19,1.19,0,0,0,.36.19,1.25,1.25,0,0,1,.53.3.72.72,0,0,1,.16.47.63.63,0,0,1-.2.49.74.74,0,0,1-.54.19.92.92,0,0,1-.41-.1.69.69,0,0,1-.29-.27.75.75,0,0,1-.11-.4h.32a.49.49,0,0,0,.13.37.53.53,0,0,0,.36.13.42.42,0,0,0,.31-.11A.4.4,0,0,0,41.56,196.91Z"/><path d="M42.92,197.58a.7.7,0,0,1-.54-.21,1,1,0,0,1-.19-.61v-.23a1,1,0,0,1,.19-.65.6.6,0,0,1,.51-.24.59.59,0,0,1,.49.21,1,1,0,0,1,.16.65v.2h-1v0a.66.66,0,0,0,.11.44.41.41,0,0,0,.33.14.48.48,0,0,0,.24-.06.54.54,0,0,0,.19-.16l.16.2A.72.72,0,0,1,42.92,197.58Zm0-1.68a.32.32,0,0,0-.29.13.82.82,0,0,0-.1.41h.74v0a.67.67,0,0,0-.1-.38A.29.29,0,0,0,42.89,195.9Z"/><path d="M44.68,196h-.13a.33.33,0,0,0-.33.26v1.33h-.31v-1.87h.3v.19a.38.38,0,0,1,.35-.22l.12,0Z"/><path d="M45.55,197.08l.36-1.41h.31l-.56,1.87h-.23l-.56-1.87h.31Z"/><path d="M46.89,195.18a.2.2,0,0,1,0,.13.19.19,0,0,1-.26,0,.21.21,0,0,1-.05-.13.19.19,0,0,1,.05-.13.15.15,0,0,1,.13-.06.16.16,0,0,1,.13.06A.18.18,0,0,1,46.89,195.18Zm0,2.36h-.31v-1.87h.31Z"/><path d="M48,197.32a.33.33,0,0,0,.24-.1.37.37,0,0,0,.1-.27h.29a.62.62,0,0,1-.19.45.6.6,0,0,1-.44.18.67.67,0,0,1-.53-.22,1,1,0,0,1-.18-.65v-.21a1,1,0,0,1,.18-.64.64.64,0,0,1,.53-.22.58.58,0,0,1,.45.18.68.68,0,0,1,.18.5h-.29a.44.44,0,0,0-.1-.31.29.29,0,0,0-.24-.11.34.34,0,0,0-.3.14.69.69,0,0,0-.11.44v.23a.8.8,0,0,0,.1.47A.37.37,0,0,0,48,197.32Z"/><path d="M49.66,197.58a.67.67,0,0,1-.54-.21.86.86,0,0,1-.19-.61v-.23a1,1,0,0,1,.18-.65.6.6,0,0,1,.51-.24.58.58,0,0,1,.49.21,1,1,0,0,1,.17.65v.2H49.23v0a.66.66,0,0,0,.12.44.39.39,0,0,0,.32.14.48.48,0,0,0,.24-.06.47.47,0,0,0,.19-.16l.16.2A.7.7,0,0,1,49.66,197.58Zm0-1.68a.31.31,0,0,0-.28.13.72.72,0,0,0-.1.41H50v0a.78.78,0,0,0-.09-.38A.3.3,0,0,0,49.62,195.9Z"/><path d="M53.08,196.74a.94.94,0,0,1-.22.62.81.81,0,0,1-.59.22.73.73,0,0,1-.6-.29,1.23,1.23,0,0,1-.22-.78v-.46a1.21,1.21,0,0,1,.22-.77.79.79,0,0,1,.63-.29.78.78,0,0,1,.57.22,1,1,0,0,1,.21.62h-.32a.66.66,0,0,0-.13-.43.39.39,0,0,0-.33-.13.46.46,0,0,0-.4.2,1.05,1.05,0,0,0-.13.59v.46a1.14,1.14,0,0,0,.12.58.43.43,0,0,0,.38.21.48.48,0,0,0,.36-.13.82.82,0,0,0,.13-.44Z"/><rect class="cls-4" x="35.81" y="194.66" width="3.14" height="3.33"/><path class="cls-2" d="M38.62,195v2.67H36.15V195h2.47m.67-.66H35.48v4h3.81v-4Z"/><path d="M41.59,181.3a.37.37,0,0,0-.11-.29,1,1,0,0,0-.36-.2,1.42,1.42,0,0,1-.41-.2.61.61,0,0,1-.28-.54.63.63,0,0,1,.2-.49.7.7,0,0,1,.52-.2.81.81,0,0,1,.39.1.66.66,0,0,1,.27.28.8.8,0,0,1,.1.38h-.32a.52.52,0,0,0-.12-.36.41.41,0,0,0-.32-.13.41.41,0,0,0-.3.11.4.4,0,0,0-.1.3.33.33,0,0,0,.11.27,1.25,1.25,0,0,0,.35.19,1.24,1.24,0,0,1,.54.3.72.72,0,0,1,.16.47.63.63,0,0,1-.2.49.81.81,0,0,1-.54.19.92.92,0,0,1-.41-.1.69.69,0,0,1-.29-.27.77.77,0,0,1-.11-.4h.32a.49.49,0,0,0,.13.37.52.52,0,0,0,.36.12.41.41,0,0,0,.31-.1A.4.4,0,0,0,41.59,181.3Z"/><path d="M43,182a.7.7,0,0,1-.54-.21.91.91,0,0,1-.19-.61v-.23a1,1,0,0,1,.19-.65.59.59,0,0,1,.5-.24.6.6,0,0,1,.5.21,1.11,1.11,0,0,1,.16.65v.2h-1v0a.66.66,0,0,0,.11.44.4.4,0,0,0,.33.13.41.41,0,0,0,.23,0,.49.49,0,0,0,.2-.16l.16.2A.73.73,0,0,1,43,182Zm0-1.68a.32.32,0,0,0-.28.13.82.82,0,0,0-.1.41h.74v-.05a.72.72,0,0,0-.1-.38A.32.32,0,0,0,42.91,180.29Z"/><path d="M44.71,180.35h-.14a.32.32,0,0,0-.32.26v1.33h-.31v-1.87h.3v.19a.38.38,0,0,1,.35-.22l.12,0Z"/><path d="M45.58,181.47l.36-1.41h.31l-.56,1.87h-.23l-.56-1.87h.31Z"/><path d="M46.92,179.57a.2.2,0,0,1,0,.13.19.19,0,0,1-.26,0,.21.21,0,0,1,0-.13.19.19,0,0,1,0-.13.15.15,0,0,1,.13-.06.16.16,0,0,1,.13.06A.18.18,0,0,1,46.92,179.57Zm0,2.36h-.31v-1.87h.31Z"/><path d="M48,181.7a.32.32,0,0,0,.24-.09.37.37,0,0,0,.1-.27h.29a.62.62,0,0,1-.19.45A.6.6,0,0,1,48,182a.67.67,0,0,1-.53-.22,1,1,0,0,1-.18-.65v-.21a1,1,0,0,1,.18-.64A.63.63,0,0,1,48,180a.58.58,0,0,1,.45.18.68.68,0,0,1,.18.5h-.29a.44.44,0,0,0-.1-.31.3.3,0,0,0-.24-.11.37.37,0,0,0-.31.14.75.75,0,0,0-.1.43v.24a.8.8,0,0,0,.1.47A.35.35,0,0,0,48,181.7Z"/><path d="M49.69,182a.67.67,0,0,1-.54-.21.86.86,0,0,1-.19-.61v-.23a1,1,0,0,1,.18-.65.6.6,0,0,1,.51-.24.58.58,0,0,1,.49.21,1,1,0,0,1,.17.65v.2H49.26v0a.66.66,0,0,0,.12.44.38.38,0,0,0,.32.13.47.47,0,0,0,.24,0,.47.47,0,0,0,.19-.16l.16.2A.7.7,0,0,1,49.69,182Zm0-1.68a.31.31,0,0,0-.28.13.81.81,0,0,0-.11.41H50v-.05a.84.84,0,0,0-.09-.38A.32.32,0,0,0,49.65,180.29Z"/><path d="M52.71,181.27h-.85l-.2.66h-.33l.82-2.51h.27l.81,2.51h-.32Zm-.77-.27h.69l-.35-1.14Z"/><path class="cls-4" d="M39.1,180.3l-1.52-1.5a.21.21,0,0,0-.31,0l-1.51,1.5a.23.23,0,0,0,0,.31l1.52,1.51a.21.21,0,0,0,.31,0l1.51-1.5A.24.24,0,0,0,39.1,180.3Z"/><rect class="cls-5" x="33.39" y="184.73" width="24" height="7.85"/><rect class="cls-5" x="33.39" y="192.58" width="24" height="7.85"/><line class="cls-6" x1="33.39" y1="192.58" x2="57.38" y2="192.58"/><line class="cls-6" x1="33.39" y1="184.73" x2="57.38" y2="184.73"/><rect class="cls-9" x="181.14" y="11.77" width="41.23" height="14.45"/><path class="cls-2" d="M188.2,19.13v2.54h-.84V15.18h2.11a1.92,1.92,0,0,1,1.45.54,2,2,0,0,1,.53,1.44,2,2,0,0,1-.5,1.44,2,2,0,0,1-1.42.53Zm0-.7h1.27a1.09,1.09,0,0,0,.85-.33,1.33,1.33,0,0,0,.3-.93,1.37,1.37,0,0,0-.31-.94,1.05,1.05,0,0,0-.83-.35H188.2Z"/><path class="cls-2" d="M194.52,19h-1.16v2.63h-.84V15.18h1.85a2,2,0,0,1,1.48.5,2,2,0,0,1,.5,1.45,2,2,0,0,1-.28,1.05,1.73,1.73,0,0,1-.76.68l1.28,2.75v.06h-.89Zm-1.16-.7h1a1.11,1.11,0,0,0,.84-.33,1.21,1.21,0,0,0,.31-.88c0-.83-.39-1.25-1.15-1.25h-1Z"/><path class="cls-2" d="M200.63,18.67h-2.34V21H201v.7h-3.56V15.18H201v.7h-2.68V18h2.34Z"/><path class="cls-2" d="M203.24,20.47l.93-3.62H205l-1.46,4.82h-.6l-1.47-4.82h.81Z"/><path class="cls-2" d="M208.29,21.67a1.7,1.7,0,0,1-.1-.53,1.3,1.3,0,0,1-1.09.62,1.46,1.46,0,0,1-1-.37,1.39,1.39,0,0,1-.37-1,1.43,1.43,0,0,1,.51-1.16,2.12,2.12,0,0,1,1.39-.45h.59v-.51a.8.8,0,0,0-.19-.61.82.82,0,0,0-.6-.19.8.8,0,0,0-.59.22.7.7,0,0,0-.23.53h-.8a1.23,1.23,0,0,1,.22-.7,1.54,1.54,0,0,1,.6-.53,1.79,1.79,0,0,1,.84-.19,1.63,1.63,0,0,1,1.15.36,1.43,1.43,0,0,1,.4,1.08v2.43a2.86,2.86,0,0,0,.16,1v.07ZM207.22,21a1.16,1.16,0,0,0,.56-.16,1,1,0,0,0,.39-.4V19.33h-.45a1.53,1.53,0,0,0-.91.25.8.8,0,0,0-.33.68.87.87,0,0,0,.17.59A.71.71,0,0,0,207.22,21Z"/><path class="cls-2" d="M211,16.85l0,.52a1.43,1.43,0,0,1,1.19-.61c.87,0,1.31.56,1.32,1.7v3.21h-.8V18.5a1.3,1.3,0,0,0-.19-.81.72.72,0,0,0-.58-.23.83.83,0,0,0-.54.19,1.42,1.42,0,0,0-.38.51v3.51h-.8V16.85Z"/><path class="cls-2" d="M215.77,15.68v1.17h.74v.63h-.74v3a.74.74,0,0,0,.1.43.35.35,0,0,0,.33.15,1,1,0,0,0,.32-.06v.67a1.77,1.77,0,0,1-.56.09.87.87,0,0,1-.73-.34,1.59,1.59,0,0,1-.25-.94v-3h-.75v-.63H215V15.68Z"/><line class="cls-15" x1="201.76" y1="32.51" x2="201.76" y2="71.51"/><g id="Page-1"><g id="Traefik---Bandeau-top"><g id="Group-5"><g id="Group-4"><g id="traefik.logo.bright"><path id="path3156" class="cls-16" d="M186.91,97.88s3.5-3,13.87-3c9.51,0,12.18,2.15,14.89,3l-14.16,6.91Z"/><g id="g3158"><path id="path3160" class="cls-17" d="M185.43,107.05c.07,1.32,1.39.71,2,.29s.73-.06.78-.84a12.79,12.79,0,0,0,.06-1.52,3.75,3.75,0,0,0-2.5.63c-.36.27-1,1.11-.33,1.44"/><path id="path3162" class="cls-18" d="M185.43,107.05a1,1,0,0,0,.53-.3"/><path id="path3164" class="cls-19" d="M188.48,91.31c-5.06-1.42-1.29-7.85,2.77-5.2Z"/><path id="path3166" class="cls-19" d="M211,85.62c4-2.81,7.63,3.53,3,5.13Z"/><path id="path3168" class="cls-17" d="M211.84,123.3c1,.63,2.88,2.53,1.35,3.45-1.47,1.35-2.29-1.47-3.57-1.86A3.53,3.53,0,0,1,211.84,123.3Z"/><path id="path3170" class="cls-1" d="M213.19,126.75a4.41,4.41,0,0,0-.68-1.33"/><path id="path3172" class="cls-17" d="M193.66,125.45c-1.2.19-1.87,1.26-2.87,1.81s-1.3-.18-1.38-.33-.13.06-.36-.17c-.87-1.37.9-2.37,1.83-3.05C192.17,123.45,193,124.56,193.66,125.45Z"/><path id="path3174" class="cls-1" d="M189.41,126.93c.05-.52.46-.87.66-1.31"/><path id="path3176" class="cls-20" d="M188.7,89.54c-.67-.36-1.16-.83-.75-1.61s1.08-.63,1.75-.28Z"/><path id="path3178" class="cls-20" d="M212.89,88.87c.67-.36,1.16-.84.75-1.61s-1.08-.63-1.75-.28Z"/><path id="path3180" class="cls-17" d="M217.49,106.88c-.06,1.32-1.38.71-2,.3s-.74-.07-.79-.84a13,13,0,0,1-.06-1.53,3.76,3.76,0,0,1,2.5.64c.36.26,1,1.1.33,1.43"/><path id="path3182" class="cls-18" d="M217.49,106.88a1,1,0,0,1-.52-.3"/><g id="g3184"><path id="path3186" class="cls-19" d="M201,83c5.07,0,9.82.73,12.3,5.59,2.22,5.45,1.43,11.33,1.77,17.09.29,4.94.94,10.66-1.36,15.24-2.42,4.82-8.46,6-13.43,5.86-3.91-.14-8.63-1.41-10.84-5-2.59-4.18-1.36-10.4-1.17-15.06.22-5.52-1.5-11,.31-16.44,1.89-5.6,7-6.87,12.42-7.3"/></g><path id="path3188" class="cls-2" d="M201.85,89.75c.91,5.28,9.56,3.88,8.31-1.45-1.11-4.77-8.61-3.45-8.31,1.45"/><path id="path3190" class="cls-2" d="M191.52,90.6c1.18,4.6,8.55,3.42,8.27-1.19-.33-5.53-9.4-4.46-8.27,1.19"/><path id="path3192" class="cls-2" d="M203.53,95.9a11.38,11.38,0,0,1,0,2.19c-.17.33-.52.37-.81.5a1.18,1.18,0,0,1-.92-.71,15.81,15.81,0,0,1,.06-2.48Z"/><g id="g3194"><ellipse id="ellipse3196" cx="193.55" cy="89.85" rx="1.25" ry="1.35"/><ellipse id="ellipse3198" class="cls-2" cx="194.12" cy="90.16" rx="0.29" ry="0.34"/></g><g id="g3200"><ellipse id="ellipse3202" cx="203.98" cy="89.52" rx="1.22" ry="1.35"/><ellipse id="ellipse3204" class="cls-2" cx="204.54" cy="89.82" rx="0.29" ry="0.34"/></g><path id="path3206" class="cls-2" d="M200,96c-.54,1.32.3,3.95,1.78,2a15.78,15.78,0,0,1,.06-2.48Z"/><g id="g3208"><path id="path3210" class="cls-17" d="M199.88,93.48a1.6,1.6,0,0,0-1.31,2.24c.7,1.26,2.25-.11,3.22,0,1.12,0,2,1.17,2.93.2s-.43-2.12-1.55-2.59Z"/></g></g><g id="g3212"><path id="path3214" class="cls-21" d="M186.91,97.88s.32,3.47.3,5,1.41.55,1.48,2.9-.86,1.9-1.36,3-.84,6.54-.84,6.54a5.34,5.34,0,0,0,2.11,1.92,12.92,12.92,0,0,0,6.37,1.31,10.7,10.7,0,0,0,4.2-.84,4.63,4.63,0,0,0,1.3-1.73,55.08,55.08,0,0,0,.72-9,39.56,39.56,0,0,0-.53-5.82Z"/><path id="path3216" class="cls-22" d="M201,112.61c-6.53.73-14.11-1.28-14.11-1.28a7.85,7.85,0,0,1,.6-2.76A39.16,39.16,0,0,0,201.09,110,8.4,8.4,0,0,1,201,112.61Z"/><path id="path3218" class="cls-22" d="M200.13,116.63a40.27,40.27,0,0,1-13.64-1.36,13.61,13.61,0,0,1,.24-2.82A43.45,43.45,0,0,0,200.78,114,5,5,0,0,1,200.13,116.63Z"/></g><g id="g3220"><path id="path3222" class="cls-21" d="M215.67,97.88s0,3.47,0,5-.87.55-1,2.9.88,1.9,1.39,3,.84,6.54.84,6.54a5.32,5.32,0,0,1-2.13,1.92,13.22,13.22,0,0,1-6.45,1.31,10.94,10.94,0,0,1-4.25-.84,4.54,4.54,0,0,1-1.31-1.73,53.38,53.38,0,0,1-.74-9,40.36,40.36,0,0,1,.54-5.82Z"/><path id="path3224" class="cls-22" d="M202.29,112.61c6.61.73,14.28-1.28,14.28-1.28a7.85,7.85,0,0,0-.6-2.76A40.18,40.18,0,0,1,202.15,110,8.4,8.4,0,0,0,202.29,112.61Z"/><path id="path3226" class="cls-22" d="M203.12,116.63a41.26,41.26,0,0,0,13.81-1.36,12.92,12.92,0,0,0-.24-2.82A44.49,44.49,0,0,1,202.47,114,5,5,0,0,0,203.12,116.63Z"/></g><g id="g3228"><path id="path3230" class="cls-23" d="M218.31,104.24a.72.72,0,0,1-.91.42l-.24-.12a.73.73,0,0,1-.16-1l4.63-8.72a.72.72,0,0,1,.9-.42l.24.13a.71.71,0,0,1,.17,1Z"/><path id="path3232" d="M216.12,108.36a.55.55,0,0,1-.75.13l-.24-.13a.55.55,0,0,1-.32-.69l2.17-4.09a.56.56,0,0,1,.76-.13l.24.13a.56.56,0,0,1,.32.69Z"/><path id="path3234" class="cls-24" d="M218.05,103.43l-.23-.13c-.3-.15-.6-.16-.68,0l-.14.26c.08-.15.38-.14.68,0l.24.12c.29.16.47.4.39.55l.14-.26C218.53,103.83,218.35,103.59,218.05,103.43Z"/></g><ellipse id="ellipse3236" class="cls-17" cx="216.1" cy="105.8" rx="0.79" ry="1.02" transform="translate(41.57 271.42) rotate(-69.59)"/><g id="g3238"><path id="path3240" class="cls-23" d="M184.78,104.38a.72.72,0,0,0,.89.46l.24-.11a.71.71,0,0,0,.21-1l-4.22-8.92a.72.72,0,0,0-.89-.46l-.24.11a.72.72,0,0,0-.21,1Z"/><path id="path3242" d="M186.77,108.6a.56.56,0,0,0,.75.16l.24-.12a.55.55,0,0,0,.36-.67l-2-4.19a.54.54,0,0,0-.74-.16l-.24.12a.54.54,0,0,0-.36.67Z"/><path id="path3244" class="cls-24" d="M185.07,103.58l.25-.11c.3-.14.6-.14.67,0l.13.27c-.07-.15-.37-.16-.68,0l-.24.11c-.3.14-.49.38-.42.53l-.13-.27C184.58,104,184.77,103.73,185.07,103.58Z"/></g><ellipse id="ellipse3246" class="cls-17" cx="187.12" cy="105.91" rx="1.02" ry="0.79" transform="translate(-25.19 71.92) rotate(-20.41)"/><g id="g3248"><g id="g3250"><path id="path3252" class="cls-25" d="M189.08,93.3a.78.78,0,0,1-1.06.28l-.44-.25a.77.77,0,0,1-.34-1l4.61-8.36a.77.77,0,0,1,1.06-.28l.44.24a.81.81,0,0,1,.33,1A31.62,31.62,0,0,1,189.08,93.3Z"/><path id="path3254" class="cls-26" d="M190.3,88.52c1.4-2.54,2.32-4.73,2.1-5h0c-2.15-1.17-5,0-6.47,2.58s-.86,5.66,1.28,6.85h0C187.54,93,188.9,91.06,190.3,88.52Z"/></g><g id="g3256"><path id="path3258" class="cls-25" d="M213.36,93.31a.77.77,0,0,0,1,.31l.45-.23a.77.77,0,0,0,.36-1l-4.36-8.49a.78.78,0,0,0-1.05-.31l-.45.23a.8.8,0,0,0-.36,1A31.48,31.48,0,0,0,213.36,93.31Z"/><path id="path3260" class="cls-26" d="M212.28,88.51c-1.32-2.58-2.18-4.8-1.95-5h0c2.19-1.1,5,.14,6.4,2.77s.69,5.68-1.48,6.81h0C214.91,93.07,213.61,91.09,212.28,88.51Z"/></g><path id="path3262" class="cls-27" d="M216.6,87.42a26.39,26.39,0,0,0-3.48-6.16c-1.87-2.13-20.14-2.86-23.14,0a17.33,17.33,0,0,0-4.14,6.16v-.89A15.86,15.86,0,0,1,190,80.37c2.74-2.24,20.77-2.12,23.1,0s3.52,6.16,3.52,6.16Z"/><ellipse id="ellipse3264" class="cls-25" cx="216.57" cy="86.36" rx="0.63" ry="1.54" transform="translate(-15.54 108.34) rotate(-27.15)"/><ellipse id="ellipse3266" class="cls-25" cx="186.07" cy="86.25" rx="1.54" ry="0.63" transform="translate(20.84 207.75) rotate(-61.2)"/></g><g id="g3268"><path id="path3270" class="cls-28" d="M209.71,86.57h-17c-3.06,0-3,8.12-.18,8.59l5.94-.38c.72,0,2.15-2.78,2.42-3a1.7,1.7,0,0,1,1.51,0c.35.24,1.14,2.72,1.86,2.72l5.94.66C212.94,93.88,212.24,86.57,209.71,86.57Z"/><path id="path3272" class="cls-29" d="M197.19,88.25c-1.87,0-4.81,0-6.42,0a7.63,7.63,0,0,0-.42,3.07h6.88a13.89,13.89,0,0,1,3.56.53l.06-.07a1.74,1.74,0,0,1,1.51,0,2,2,0,0,1,.35.56,9,9,0,0,0,1.65.2c1.53,0,5.13,0,7.45,0a8.81,8.81,0,0,0,0-3c-2.26,0-5.86-.06-7.58-.06C201.82,89.46,199.7,88.3,197.19,88.25Z"/></g><path id="path3274" d="M199.76,93.43c-.08-1.76,3.26-2,3.66-.51s-3.5,1.8-3.66.51Z"/></g></g></g></g></g><g class="cls-30"><polyline class="cls-31" points="100.57 32.51 137.28 32.51 137.28 88 184.61 88"/><polyline class="cls-32" points="100.93 178.38 137.48 178.38 137.48 119 184.61 119"/><line class="cls-33" x1="100.08" y1="103.1" x2="183.08" y2="103.1"/><rect class="cls-2" x="96.57" y="0.01" width="7" height="206"/></g><g class="cls-34"><line class="cls-35" x1="227" y1="107" x2="227.5" y2="107"/><line class="cls-36" x1="228.48" y1="107" x2="265.08" y2="107"/><polyline class="cls-35" points="265.57 107 266.07 107 266.07 107.5"/><line class="cls-37" x1="266.07" y1="108.5" x2="266.07" y2="148"/><polyline class="cls-35" points="266.07 148.5 266.07 149 266.57 149"/><line class="cls-38" x1="267.58" y1="149" x2="305.56" y2="149"/><line class="cls-35" x1="306.07" y1="149" x2="306.57" y2="149"/><line class="cls-35" x1="227" y1="113" x2="227.5" y2="113"/><line class="cls-39" x1="228.47" y1="113" x2="259.08" y2="113"/><polyline class="cls-35" points="259.57 113 260.07 113 260.07 113.5"/><line class="cls-40" x1="260.07" y1="114.48" x2="260.07" y2="161.01"/><polyline class="cls-35" points="260.07 161.5 260.07 162 260.57 162"/><line class="cls-37" x1="261.57" y1="162" x2="305.07" y2="162"/><line class="cls-35" x1="305.57" y1="162" x2="306.07" y2="162"/><polyline class="cls-41" points="227 119 254.07 119 254.07 178.38 306.07 178.38"/><line class="cls-35" x1="227" y1="100" x2="227.5" y2="100"/><line class="cls-36" x1="228.48" y1="100" x2="265.08" y2="100"/><polyline class="cls-35" points="265.57 100 266.07 100 266.07 99.5"/><line class="cls-42" x1="266.07" y1="98.52" x2="266.07" y2="59.99"/><polyline class="cls-35" points="266.07 59.5 266.07 59 266.57 59"/><line class="cls-38" x1="267.58" y1="59" x2="305.56" y2="59"/><line class="cls-35" x1="306.07" y1="59" x2="306.57" y2="59"/><line class="cls-35" x1="227" y1="94" x2="227.5" y2="94"/><line class="cls-39" x1="228.47" y1="94" x2="259.08" y2="94"/><polyline class="cls-35" points="259.57 94 260.07 94 260.07 93.5"/><line class="cls-37" x1="260.07" y1="92.5" x2="260.07" y2="47"/><polyline class="cls-35" points="260.07 46.5 260.07 46 260.57 46"/><line class="cls-37" x1="261.57" y1="46" x2="305.07" y2="46"/><line class="cls-35" x1="305.57" y1="46" x2="306.07" y2="46"/><polyline class="cls-33" points="227 88 254.07 88 254.07 32.51 306.07 32.51"/></g><rect class="cls-2" x="158.52" y="28.48" width="7.59" height="150.53"/><line class="cls-43" x1="162.31" y1="31.15" x2="162.31" y2="179.15"/><rect class="cls-2" x="237.52" y="28.48" width="7.59" height="150.53"/><line class="cls-43" x1="241.31" y1="31.15" x2="241.31" y2="179.15"/></svg>